<svg width="358" height="269" viewBox="0 0 358 269" fill="none" xmlns="http://www.w3.org/2000/svg">
<path fill-rule="evenodd" clip-rule="evenodd" d="M122.319 0.313439C107.066 2.08228 94.2019 13.2422 89.7676 28.5528C88.135 34.1902 88.2733 43.8947 90.0676 49.5628C94.1524 62.4682 105.227 72.8158 118.231 75.8759C126.869 77.9089 135.27 77.0091 143.339 73.1866C156.029 67.1751 164.317 55.1594 165.426 41.1701C166.808 23.7232 155.333 6.94124 138.57 1.89419C132.38 0.0306389 128.233 -0.372886 122.319 0.313439ZM123.539 1.14317C123.539 1.2919 122.112 2.24769 120.366 3.2675C118.621 4.28732 115.6 6.6251 113.652 8.46263L110.11 11.8029L106.99 10.9698C105.274 10.5116 103.716 9.98268 103.528 9.7946C102.368 8.63671 113.083 3.17546 119.059 1.87885C121.34 1.38395 123.281 0.955077 123.372 0.92573C123.464 0.897049 123.539 0.994429 123.539 1.14317ZM130.888 1.20653C130.888 1.38995 130.737 1.54002 130.554 1.54002C130.37 1.54002 130.22 1.38995 130.22 1.20653C130.22 1.02311 130.37 0.873038 130.554 0.873038C130.737 0.873038 130.888 1.02311 130.888 1.20653ZM122.298 7.44615L119.27 13.3523L116.227 13.0295C111.175 12.4939 111.045 12.0904 114.832 8.69074C117.348 6.433 124.026 1.86617 125.268 1.55469C125.3 1.54669 123.964 4.19795 122.298 7.44615ZM140.432 3.54564C144.466 5.05235 150.26 8.54134 150.26 9.46377C150.26 10.1494 146.681 11.5448 144.925 11.5448C144.305 11.5448 142.531 10.3422 140.984 8.87283C139.437 7.40346 136.607 5.12172 134.696 3.80242L131.222 1.40396L134.054 1.81215C135.611 2.03692 138.481 2.81662 140.432 3.54564ZM133.957 4.78756C136.127 6.20623 138.922 8.44129 140.168 9.75324L142.435 12.1384L140.836 12.4645C134.613 13.7345 135.236 14.0599 132.01 7.85434C130.395 4.74821 129.285 2.207 129.543 2.207C129.801 2.207 131.787 3.36822 133.957 4.78756ZM126.212 8.20985V13.5457H123.539C121.998 13.5457 120.867 13.2269 120.867 12.792C120.867 12.055 125.636 2.87399 126.018 2.87399C126.125 2.87399 126.212 5.27512 126.212 8.20985ZM130.481 7.04263C134.186 13.6684 134.184 13.5457 130.625 13.5457H127.548V8.20985C127.548 5.27512 127.683 2.87399 127.849 2.87399C128.014 2.87399 129.199 4.75021 130.481 7.04263ZM211.182 10.3442C210.067 11.4581 210.18 13.511 211.383 13.9712C212.231 14.2967 212.385 16.5971 212.385 28.991C212.385 45.2934 212.717 46.8495 216.472 48.1568C217.911 48.657 228.8 48.8958 250.227 48.8958C280.967 48.8958 281.895 48.9331 283.194 50.2297C284.466 51.5003 284.53 52.4528 284.53 70.2726C284.53 91.0104 284.731 92.1589 288.617 93.5116C290.042 94.0071 300.055 94.2506 319.055 94.2506C343.286 94.2506 347.594 94.3973 348.922 95.2664C350.741 96.4563 352.445 95.9961 353.031 94.1572C353.863 91.5373 350.434 89.7798 348.658 91.9161C347.942 92.7772 343.765 92.9166 318.606 92.9166C290.21 92.9166 289.337 92.8779 287.654 91.5566L285.922 90.1967L285.727 70.488L285.532 50.7793L283.657 49.1706L281.783 47.5618H249.205H216.626L215.173 46.0184C213.77 44.527 213.721 43.9608 213.721 29.3439C213.721 20.4296 213.977 14.2127 214.344 14.2127C214.687 14.2127 215.162 13.5977 215.401 12.8467C216.21 10.3028 213.082 8.44729 211.182 10.3442ZM106.139 11.9309L109.365 12.9841L107.103 16.4131C105.86 18.2986 104.525 20.8025 104.136 21.9777L103.43 24.114L99.0924 22.9128C96.7069 22.2525 94.5679 21.5248 94.3388 21.296C94.1097 21.0679 94.3488 20.0815 94.8699 19.105C96.0963 16.8066 101.426 10.8778 102.267 10.8778C102.623 10.8778 104.366 11.352 106.139 11.9309ZM155.405 14.0459C158.298 17.5743 160.502 20.8892 160.166 21.2053C159.717 21.6275 152.65 23.5504 151.547 23.5504C150.858 23.5504 149.991 22.5586 149.363 21.0493C148.789 19.6739 147.552 17.2981 146.614 15.7701L144.908 12.9928L147.751 11.9876C152.043 10.4709 152.595 10.619 155.405 14.0459ZM115.662 13.9559L118.658 14.3661L116.985 19.792C116.065 22.7761 115.223 25.3293 115.114 25.4654C114.771 25.8942 106.507 24.8371 105.542 24.2414C104.434 23.5578 105.228 21.2947 108.238 16.5558C110.253 13.383 110.597 13.2629 115.662 13.9559ZM146.076 17.0474C147.237 18.9736 148.491 21.3627 148.863 22.3579C149.509 24.0847 149.427 24.1887 147.061 24.6463C145.697 24.9098 143.28 25.1465 141.69 25.1719L138.799 25.2179L137.19 20.2155C136.305 17.4642 135.578 15.0071 135.572 14.7549C135.564 14.2967 138.125 13.8525 141.936 13.6524C143.714 13.559 144.227 13.9792 146.076 17.0474ZM126.212 20.6164V26.2184H121.647C119.136 26.2184 116.905 26.0423 116.69 25.8269C116.282 25.4193 117.72 20.0241 119.167 16.5345C119.952 14.6416 120.188 14.5355 123.107 14.7676L126.212 15.0137V20.6164ZM135.843 19.3838C136.791 22.2285 137.568 24.9298 137.568 25.3866C137.568 25.9769 136.113 26.2184 132.558 26.2184H127.548V20.587V14.9564L130.387 14.7009C131.948 14.5609 133.427 14.3934 133.672 14.3294C133.917 14.2654 134.894 16.5398 135.843 19.3838ZM98.6809 23.954C100.78 24.5556 102.579 25.1172 102.678 25.2026C102.778 25.2873 102.571 26.826 102.219 28.6222C101.866 30.4184 101.39 33.3137 101.162 35.0559L100.745 38.2241H95.0162H89.2873L89.7088 34.6384C90.3935 28.8249 92.7229 22.0397 93.8819 22.4839C94.4223 22.6914 96.582 23.353 98.6809 23.954ZM162.43 26.2571C163.116 28.2533 163.858 31.763 164.08 34.0554L164.481 38.2241H158.707H152.932L152.902 35.7229C152.886 34.3476 152.493 31.4208 152.028 29.2198L151.182 25.2179L155.564 23.7899C157.974 23.0049 160.224 22.4219 160.563 22.4953C160.903 22.568 161.743 24.2608 162.43 26.2571ZM112.697 26.6619L114.881 27.0388L114.501 30.4637C114.292 32.3473 113.972 34.8645 113.79 36.0564L113.459 38.2241H107.811H102.163V36.3458C102.163 34.2002 103.452 26.8353 103.977 25.9876C104.296 25.4707 107 25.6801 112.697 26.6619ZM150.872 28.919C151.271 30.7712 151.596 33.6226 151.596 35.2553V38.2241H146.046H140.496L139.867 32.5901L139.238 26.9561L143.246 26.3391C150.34 25.2459 150.063 25.1525 150.872 28.919ZM124.301 27.5523H126.212V32.8882V38.2241H120.447H114.683L115.15 33.4872C115.819 26.7086 115.853 26.6579 119.392 27.1421C121.04 27.3676 123.25 27.5523 124.301 27.5523ZM138.475 29.3865C138.703 30.7625 138.892 33.2384 138.896 34.8891L138.904 37.8906H133.226H127.548V32.7561V27.6224L131.055 27.3769C132.983 27.2422 135.349 27.0768 136.311 27.0087C137.846 26.9007 138.112 27.1935 138.475 29.3865ZM101.134 41.3922C101.337 42.7682 101.82 45.6509 102.207 47.7993C102.595 49.9469 102.819 51.7718 102.705 51.8545C102.591 51.9366 100.436 52.5475 97.918 53.2112C94.0502 54.2303 93.2459 54.2737 92.7383 53.4906C91.7369 51.9452 90.2806 46.5887 89.785 42.6295L89.3174 38.891H95.0415H100.766L101.134 41.3922ZM113.798 40.3918C113.965 41.2168 114.263 43.734 114.461 45.9851L114.819 50.0783L110.328 50.6346C107.858 50.9408 105.389 51.1995 104.841 51.2102C103.846 51.2302 102.267 44.9706 102.195 40.7252L102.163 38.891H107.829C113.169 38.891 113.511 38.9771 113.798 40.3918ZM126.212 44.1742V49.4574L121.207 49.6768C117.873 49.8229 116.105 49.6408 115.91 49.1306C115.749 48.7097 115.407 46.2339 115.15 43.6279L114.683 38.891H120.447H126.212V44.1742ZM138.896 41.7257C138.892 43.2851 138.703 45.6863 138.475 47.0616L138.061 49.5628H132.804H127.548V44.2269V38.891H133.226H138.904L138.896 41.7257ZM151.596 41.8418C151.596 43.4645 151.239 46.3346 150.804 48.2188C150.12 51.1795 149.824 51.6004 148.633 51.3123C147.874 51.1288 145.359 50.7693 143.042 50.5139C139.755 50.151 138.912 49.8369 139.202 49.0832C139.406 48.5516 139.766 46.0411 140.002 43.5039L140.431 38.891H146.014H151.596V41.8418ZM164.087 43.1037C163.871 45.4208 163.067 48.9872 162.301 51.0301L160.91 54.7432L156.086 53.1938C152.953 52.1867 151.341 51.3376 151.489 50.77C151.614 50.2891 152.057 47.4197 152.472 44.3937L153.228 38.891H158.854H164.481L164.087 43.1037ZM116.882 56.9689C117.837 59.905 118.449 62.4102 118.24 62.5362C118.032 62.6623 116.115 62.8711 113.98 63.0005L110.098 63.2359L107.833 59.5675C106.587 57.5499 105.379 55.1047 105.147 54.1343C104.729 52.3848 104.768 52.3641 109.624 51.7711C112.317 51.4423 114.662 51.2762 114.833 51.4016C115.004 51.527 115.926 54.0322 116.882 56.9689ZM126.212 56.5661V62.2354H122.984C119.407 62.2354 119.584 62.4849 117.207 54.0649L116.312 50.8967H121.262H126.212V56.5661ZM137.206 53.0644C136.948 54.2563 136.151 56.8075 135.435 58.7338L134.131 62.2354H130.839H127.548V56.5661V50.8967H132.61H137.674L137.206 53.0644ZM145.072 51.8892C147.179 52.1286 149.04 52.5462 149.208 52.8176C149.582 53.4206 145.951 60.7247 144.46 62.3695C143.57 63.3513 142.733 63.4847 139.64 63.1379C137.582 62.9064 135.803 62.6396 135.688 62.5449C135.572 62.4495 136.286 59.7816 137.275 56.6161C138.687 52.0946 139.305 50.9241 140.157 51.1575C140.753 51.3209 142.965 51.6504 145.072 51.8892ZM104.177 54.9206C104.638 56.0332 105.977 58.5383 107.153 60.4866L109.29 64.0303L105.559 65.1842L101.829 66.338L98.9521 63.1799C95.6214 59.5241 93.791 56.3153 94.5913 55.5356C95.0375 55.1007 101.122 53.2172 102.917 52.9584C103.148 52.925 103.715 53.8081 104.177 54.9206ZM155.891 54.2657L160.327 55.6336L158.927 58.1008C157.538 60.5493 154.82 63.8075 152.837 65.3989C152.007 66.0652 151.164 66.0139 148.527 65.1355C146.725 64.5345 145.17 63.9816 145.071 63.9062C144.973 63.8309 145.963 61.998 147.269 59.8343C148.576 57.6699 149.816 55.2234 150.025 54.3984C150.487 52.5722 150.407 52.5742 155.891 54.2657ZM121.869 68.7078C123.339 71.5312 124.649 74.1037 124.781 74.4245C125.216 75.4844 119.936 72.3756 116.024 69.2688C110.648 64.9987 110.904 64.2197 117.861 63.6788C118.889 63.5987 119.813 64.7573 121.869 68.7078ZM126.212 68.5718C126.212 71.3231 126.065 73.5741 125.886 73.5741C125.554 73.5741 120.867 64.5579 120.867 63.9196C120.867 63.7268 122.07 63.5694 123.539 63.5694H126.212V68.5718ZM131.258 68.0715C127.584 75.2056 127.569 75.2102 127.558 69.072L127.548 63.5694H130.562H133.576L131.258 68.0715ZM142.244 64.7246C142.789 65.2269 135.938 71.227 132.567 73.2C130.851 74.2038 129.353 74.9241 129.24 74.8C129.125 74.676 130.382 72.0921 132.033 69.058L135.033 63.5414L138.471 63.9796C140.363 64.2204 142.06 64.5552 142.244 64.7246ZM111.891 66.981C112.97 68.1236 115.93 70.5247 118.467 72.3169C121.005 74.1091 122.646 75.5751 122.115 75.5751C118.08 75.5751 106.946 70.9362 104.498 68.2343C103.482 67.1144 103.591 66.981 106.297 66.0259C107.881 65.4663 109.346 64.9847 109.553 64.9561C109.76 64.9274 110.813 65.8385 111.891 66.981ZM149.258 66.5528L151.262 67.3532L147.473 69.7837C143.608 72.2635 134.856 75.5751 132.169 75.5751C131.053 75.5751 131.666 74.9301 134.625 72.9925C136.795 71.5725 139.751 69.1787 141.194 67.674C143.982 64.766 144.576 64.6833 149.258 66.5528ZM202.582 76.6909C201.408 79.5096 200.83 80.0959 198.451 80.8796C196.93 81.3812 195.684 81.9955 195.684 82.2449C195.684 82.4944 196.93 83.1087 198.451 83.6102C200.83 84.3939 201.408 84.9802 202.582 87.7989L203.946 91.0764L205.396 87.7962C206.648 84.9635 207.224 84.4019 209.615 83.6869C211.138 83.2314 212.385 82.6184 212.385 82.3249C212.385 82.0315 211.137 81.3805 209.613 80.8783C207.255 80.1012 206.626 79.4763 205.394 76.6889L203.946 73.4134L202.582 76.6909ZM49.0211 80.5775C47.1266 85.6725 46.8801 85.9873 44.1359 86.8084C42.6169 87.2626 41.3744 87.8602 41.3744 88.1364C41.3744 88.4132 42.6516 89.1035 44.2134 89.6711C46.5641 90.5262 47.2268 91.1731 48.0658 93.4335C49.478 97.238 49.81 97.3654 50.7472 94.462C51.8468 91.0544 52.2643 90.6155 55.3932 89.585C56.8682 89.0988 58.0746 88.4972 58.0746 88.2477C58.0746 87.9983 56.8274 87.3833 55.303 86.8811C52.9363 86.1007 52.3117 85.4771 51.0244 82.6057C49.7499 79.7624 49.4406 79.4496 49.0211 80.5775ZM73.6392 96.1595C54.2963 102.833 44.516 134.425 53.4787 161.282C58.2536 175.591 67.5704 184.887 78.2104 185.959C80.1784 186.157 93.0616 185.326 106.839 184.112L131.89 181.904L135.974 183.786C138.221 184.821 141.528 185.815 143.323 185.993C145.117 186.171 175.814 183.822 211.537 180.773L276.488 175.23L278.338 173.466C280.186 171.705 280.218 171.701 308.912 169.302L337.636 166.901L339.781 164.425C340.96 163.063 342.42 160.855 343.024 159.518C344.077 157.186 344.293 157.069 348.336 156.637C352.229 156.221 352.679 155.999 354.248 153.732C356.198 150.912 358.015 144.567 358 140.633C357.984 136.489 356.365 130.54 354.478 127.693C352.764 125.108 350.751 124.296 345.986 124.271C344.648 124.263 343.943 123.548 342.438 120.672C338.917 113.944 341.285 114.566 308.865 111.852L280.188 109.452L278.184 107.619L276.179 105.786L214.389 100.554C180.404 97.6769 149.742 95.3064 146.252 95.2871C140.548 95.2544 139.502 95.4485 135.911 97.2067L131.916 99.1616L106.185 97.0219C92.0322 95.8453 79.7014 94.9002 78.7829 94.9222C77.8644 94.9436 75.5497 95.5005 73.6392 96.1595ZM89.5792 98.1238C98.9801 102.727 106.349 114.581 108.88 129.17C110.088 136.134 109.354 152.025 107.537 158.263C104.289 169.406 97.6067 178.779 90.1083 182.706C86.8838 184.395 85.7736 184.615 80.4529 184.615C75.1329 184.615 74.022 184.395 70.8002 182.708C63.231 178.743 57.253 170.34 53.6424 158.59C51.9456 153.069 51.802 151.718 51.7666 140.939C51.7232 127.656 52.4733 123.655 56.7065 114.594C60.8428 105.739 66.5122 99.7992 73.2805 97.2287C77.1396 95.7633 85.7208 96.2342 89.5792 98.1238ZM154.906 98.2205C167.64 104.778 176.125 124.697 174.718 144.73C173.485 162.272 165.587 177.615 155.17 182.704C149.946 185.256 143.295 185.614 138.024 183.628C120.207 176.913 111.05 145.551 119.514 120.23C123.506 108.288 130.892 99.6712 139.568 96.8358C142.834 95.7686 151.698 96.569 154.906 98.2205ZM108.344 98.2391C116.885 98.9655 125.382 99.7292 127.227 99.9353L130.581 100.311L127.419 103.727C122.166 109.402 117.945 118.846 116.152 128.934C115.092 134.896 115.232 147.578 116.425 153.612C118.422 163.721 122.557 172.37 128.061 177.956L130.912 180.85L126.725 181.248C117.051 182.17 92.2205 184.293 91.1116 184.293C90.3688 184.293 91.1043 183.504 93.0382 182.224C100.06 177.58 105.91 168.29 108.956 156.947C111.115 148.91 111.117 131.882 108.962 123.931C105.98 112.934 99.7029 103.145 92.8471 98.8007C89.2225 96.503 88.318 96.5363 108.344 98.2391ZM181.086 98.9028C193.708 99.994 220.267 102.242 240.107 103.899L276.179 106.911L278.757 109.752C290.146 122.302 291.461 152.43 281.299 168.004C277.381 174.01 277.317 174.041 267.495 174.889C237.176 177.505 156.441 184.293 155.64 184.293C155.109 184.293 156.011 183.445 157.644 182.408C164.746 177.901 170.543 169.107 173.768 157.947C175.124 153.257 175.31 151.161 175.31 140.606C175.31 131.244 175.054 127.674 174.146 124.397C170.676 111.868 164.923 103.189 156.508 97.7916C155.335 97.0386 155.345 96.9952 156.704 96.9579C157.494 96.9359 168.466 97.8116 181.086 98.9028ZM75.5343 103.774C71.9999 104.902 66.5597 110.348 63.8796 115.441C59.6992 123.384 58.4367 129.165 58.456 140.272C58.4747 151.35 59.4794 156.511 63.0653 163.954C67.2484 172.638 74.1035 178.299 80.4168 178.284C86.8918 178.268 93.8138 172.627 97.8532 164.074C101.054 157.297 102.213 152.386 102.643 143.781C103.917 118.262 90.799 98.9028 75.5343 103.774ZM139.037 104.648C124.323 111.968 118.36 142.337 127.611 162.836C132.809 174.356 141.393 180.19 149.341 177.608C160.457 173.996 167.797 159.129 167.773 140.272C167.761 130.881 166.422 124.519 162.913 117.177C157.051 104.916 148.022 100.177 139.037 104.648ZM312.133 113.167L337.398 115.359L339.011 117.31C348.352 128.611 348.16 154.841 338.671 163.919L336.661 165.842L311.096 168.036C297.035 169.243 284.551 170.243 283.352 170.259L281.173 170.287L282.747 167.785C291.409 154.021 291.294 125.221 282.529 112.93L281.099 110.925L283.983 110.95C285.57 110.965 298.237 111.962 312.133 113.167ZM352.924 127.631C353.867 128.75 355.096 131.205 355.656 133.088C357.712 140 356.461 149.384 352.924 153.581C351.457 155.322 350.756 155.613 348.029 155.613H344.846L345.83 152.111C347.188 147.279 347.173 133.002 345.805 128.767L344.781 125.599H347.996C350.76 125.599 351.452 125.884 352.924 127.631ZM345.02 172.621C344.389 174.272 343.633 175.622 343.34 175.622C343.049 175.622 341.646 176.109 340.223 176.702L337.636 177.782L340.42 178.87C343.859 180.214 344.06 180.415 345.401 183.836L346.484 186.604L348.073 183.339C349.39 180.632 350.173 179.876 352.667 178.913C355.993 177.627 356.178 177.914 350.624 175.751C349.469 175.302 348.622 174.2 348.012 172.353C347.515 170.85 346.897 169.62 346.638 169.62C346.38 169.62 345.651 170.97 345.02 172.621ZM1.00727 172.001C-0.247918 173.255 -0.329417 174.402 0.759438 175.489C1.85764 176.586 3.63255 176.494 4.63389 175.289C5.31459 174.47 7.5738 174.288 17.1043 174.288C32.9147 174.288 32.0223 173.369 32.0223 189.65V201.737L33.9748 203.687L35.9274 205.637H67.7427C101.264 205.637 102.631 205.752 103.752 208.668C103.98 209.262 104.167 218.15 104.167 228.42V247.092L106.12 249.042L108.072 250.991H158.821C203.314 250.991 209.617 251.115 209.954 251.992C210.415 253.193 212.471 253.306 213.587 252.192C215.794 249.988 212.749 246.517 210.439 248.604C209.399 249.545 203.853 249.658 158.724 249.658C109.066 249.658 108.152 249.634 106.839 248.324C105.569 247.055 105.503 246.1 105.502 228.814C105.501 208.136 105.211 206.666 100.827 205.174C99.1538 204.604 89.6153 204.367 67.2597 204.34C36.9475 204.304 35.9909 204.263 34.6943 202.969C33.4645 201.741 33.3583 200.745 33.3569 190.463C33.3563 181.159 33.1605 178.902 32.1879 176.966C30.3602 173.327 28.9875 172.975 16.5725 172.965C7.52303 172.957 5.31125 172.769 4.63389 171.954C3.56441 170.667 2.32726 170.684 1.00727 172.001ZM169.865 201.38C168.655 204.285 168.133 204.807 165.716 205.53C164.196 205.985 162.952 206.598 162.952 206.892C162.952 207.186 164.18 207.794 165.681 208.243C168.033 208.946 168.613 209.518 169.878 212.38L171.346 215.701L172.708 212.482C173.874 209.727 174.471 209.132 176.861 208.344C178.396 207.838 179.652 207.184 179.652 206.891C179.652 206.597 178.419 205.988 176.912 205.537C174.543 204.829 173.973 204.267 172.71 201.387L171.247 198.056L169.865 201.38ZM281.858 214.618C281.858 227.866 281.815 228.289 280.433 229.028C279.134 229.722 278.143 228.926 269.151 219.963C262.767 213.599 259.006 210.313 258.477 210.639C257.931 210.976 260.914 214.395 267.494 220.976C280.721 234.204 280.942 233.65 262.441 233.65C250.456 233.65 248.457 233.793 248.457 234.65C248.457 235.508 250.456 235.651 262.441 235.651C280.942 235.651 280.721 235.097 267.494 248.325C260.914 254.905 257.931 258.325 258.477 258.662C259.005 258.987 262.745 255.742 269.072 249.469C277.739 240.877 279.023 239.84 280.355 240.358C281.847 240.939 281.858 241.042 281.858 254.972C281.858 263.88 282.101 269 282.526 269C282.95 269 283.194 263.894 283.194 255.017C283.194 241.428 283.234 241.012 284.618 240.272C285.916 239.579 286.902 240.368 295.815 249.253C301.19 254.611 305.81 258.995 306.081 258.995C307.704 258.995 305.537 256.307 297.15 247.917C284.387 235.153 284.166 235.651 302.611 235.651C314.595 235.651 316.594 235.508 316.594 234.65C316.594 233.793 314.595 233.65 302.611 233.65C284.109 233.65 284.331 234.204 297.557 220.976C304.137 214.395 307.12 210.976 306.574 210.639C306.046 210.314 302.31 213.57 295.979 219.877C282.682 233.122 283.194 233.321 283.194 214.896C283.194 206.056 282.95 200.968 282.526 200.968C282.102 200.968 281.858 205.962 281.858 214.618Z" fill="#1B2E4B"/>
</svg>  
