<svg width="514" height="514" viewBox="0 0 514 514" fill="none" xmlns="http://www.w3.org/2000/svg">
<path d="M58.6907 250.438C58.6907 250.438 52.9283 250.022 53.4594 262.978C53.9906 275.934 55.3075 282.843 55.3075 282.843C55.3075 282.843 55.1401 285.717 52.921 285.155C50.702 284.594 46.5257 281.792 44.4667 283.886C42.3277 286.053 43.0916 289.379 45.9218 293.297C48.7594 297.214 54.6599 306.019 55.1911 306.822C55.7149 307.602 55.9186 309.076 54.3471 308.937C52.7755 308.799 42.153 305.188 40.7488 310.345C39.3446 315.503 49.0358 325.11 50.069 326.183C51.1094 327.255 51.1676 327.926 50.7456 328.576C50.3236 329.225 46.8677 327.671 43.8046 326.774C40.7416 325.869 37.031 325.366 36.4707 328.408C35.9105 331.45 40.1741 340.357 56.1587 349.709L63.8491 353.561L71.1248 348.907C86.0981 337.994 89.4522 328.707 88.5937 325.738C87.7279 322.769 84.09 323.644 81.1361 324.848C78.1822 326.051 74.8936 327.941 74.4134 327.343C73.9259 326.737 73.9186 326.059 74.8427 324.892C75.7667 323.724 84.4538 313.19 82.5403 308.2C80.6268 303.211 70.419 307.865 68.8693 308.164C67.3196 308.463 67.3778 306.982 67.8216 306.143C68.2727 305.297 73.2638 295.937 75.6939 291.757C78.124 287.577 78.5532 284.192 76.2032 282.252C73.9405 280.377 70.0698 283.58 67.9162 284.36C65.7626 285.141 65.3115 282.303 65.3115 282.303C65.3115 282.303 65.9372 275.3 65.1733 262.358C64.4093 249.41 58.5815 250.453 58.5815 250.453" fill="#EBEBEB"/>
<path d="M59.1417 262.044C59.1417 262.044 59.1563 262.139 59.1708 262.314C59.1854 262.504 59.2072 262.767 59.229 263.11C59.28 263.824 59.3454 264.853 59.4328 266.173C59.6074 268.829 59.8329 272.681 60.0948 277.437C60.6187 286.95 61.2371 300.096 61.8701 314.613C62.5031 329.137 63.0851 342.283 63.5581 351.796C63.7982 356.545 63.9946 360.389 64.1328 363.059C64.1983 364.38 64.2492 365.408 64.2856 366.123C64.3002 366.466 64.3075 366.729 64.3147 366.918C64.3147 367.101 64.3147 367.188 64.3147 367.188C64.3147 367.188 64.3002 367.093 64.2856 366.918C64.2711 366.729 64.2492 366.466 64.2274 366.123C64.1765 365.408 64.111 364.38 64.0237 363.067C63.8491 360.411 63.6235 356.559 63.3616 351.803C62.8378 342.29 62.2193 329.144 61.5864 314.62C60.9534 300.103 60.3713 286.957 59.8984 277.444C59.6583 272.695 59.4619 268.851 59.3236 266.181C59.2581 264.86 59.2072 263.832 59.1708 263.117C59.1563 262.774 59.149 262.511 59.1417 262.322C59.1417 262.139 59.1417 262.052 59.1417 262.052V262.044Z" fill="#E0E0E0"/>
<path d="M50.1417 288.03C50.1417 288.03 50.3236 288.161 50.6219 288.431C50.9202 288.701 51.335 289.102 51.8443 289.606C52.8556 290.612 54.2234 292.042 55.7004 293.647C57.1482 295.23 58.4506 296.667 59.4619 297.776C59.913 298.265 60.2913 298.681 60.6042 299.023C60.8734 299.315 61.0189 299.483 61.0043 299.498C60.9898 299.512 60.8224 299.374 60.5241 299.104C60.2258 298.834 59.8111 298.433 59.3091 297.922C58.305 296.901 56.959 295.456 55.4821 293.851C54.027 292.276 52.7101 290.853 51.6915 289.751C51.2404 289.263 50.8548 288.854 50.5419 288.511C50.2727 288.212 50.1272 288.044 50.1417 288.03Z" fill="#E0E0E0"/>
<path d="M61.7682 299.235C61.71 299.176 64.5257 296.222 68.0471 292.64C71.5758 289.051 74.4788 286.191 74.537 286.249C74.5952 286.308 71.7868 289.262 68.2581 292.844C64.7294 296.426 61.8264 299.286 61.7682 299.235Z" fill="#E0E0E0"/>
<path d="M61.7391 321.58C61.7391 321.58 61.921 321.441 62.2775 321.237C62.685 321.003 63.187 320.726 63.7836 320.391C65.0496 319.676 66.803 318.684 68.6947 317.516C70.5864 316.356 72.267 315.248 73.4748 314.431C74.0423 314.051 74.5152 313.73 74.9081 313.468C75.2501 313.241 75.4392 313.125 75.4538 313.147C75.4683 313.169 75.2937 313.314 74.9736 313.562C74.6535 313.818 74.1805 314.175 73.5912 314.598C72.4126 315.459 70.7464 316.597 68.8402 317.764C66.9412 318.932 65.1733 319.902 63.8782 320.573C63.2307 320.909 62.6995 321.164 62.3285 321.339C61.9574 321.514 61.7464 321.594 61.7391 321.58Z" fill="#E0E0E0"/>
<path d="M48.9995 313.759C48.9995 313.759 49.1959 313.832 49.5306 314.007C49.8653 314.182 50.3382 314.452 50.9276 314.781C52.0989 315.444 53.7069 316.385 55.4676 317.436C57.2356 318.486 58.8217 319.457 59.9639 320.172C60.5387 320.529 60.9971 320.821 61.3099 321.032C61.6228 321.244 61.7901 321.361 61.7829 321.383C61.7756 321.397 61.5864 321.31 61.2517 321.135C60.9171 320.959 60.4441 320.69 59.8548 320.361C58.6834 319.697 57.0755 318.756 55.3148 317.706C53.5468 316.655 51.9607 315.685 50.8184 314.97C50.2436 314.613 49.7853 314.321 49.4724 314.109C49.1596 313.898 48.9922 313.781 48.9995 313.759Z" fill="#E0E0E0"/>
<path d="M46.4675 333.485C46.4675 333.485 46.7148 333.587 47.1441 333.814C47.617 334.076 48.2209 334.405 48.9339 334.806C50.44 335.652 52.5063 336.841 54.7836 338.169C57.0608 339.496 59.1126 340.715 60.5895 341.605C61.288 342.035 61.8701 342.393 62.3357 342.677C62.7431 342.932 62.9614 343.086 62.9541 343.108C62.9469 343.122 62.7068 343.005 62.2775 342.779C61.8046 342.517 61.2007 342.188 60.4877 341.787C58.9816 340.941 56.9153 339.752 54.638 338.424C52.3608 337.096 50.309 335.878 48.8321 334.988C48.1336 334.558 47.5515 334.2 47.0859 333.916C46.6785 333.66 46.4602 333.507 46.4675 333.485Z" fill="#E0E0E0"/>
<path d="M62.6195 342.757C62.6195 342.757 62.8451 342.582 63.2889 342.305C63.7764 342.006 64.4093 341.626 65.1587 341.167C66.7376 340.204 68.913 338.862 71.2703 337.322C73.6349 335.783 75.7376 334.331 77.2509 333.274C77.9712 332.77 78.5751 332.347 79.048 332.019C79.4773 331.727 79.7174 331.574 79.7246 331.588C79.7392 331.603 79.5209 331.793 79.1135 332.114C78.706 332.435 78.1167 332.894 77.3673 333.441C75.8831 334.543 73.795 336.024 71.4231 337.57C69.0585 339.117 66.8612 340.43 65.2533 341.349C64.4457 341.809 63.7909 342.166 63.3325 342.407C62.8742 342.648 62.6195 342.772 62.605 342.757H62.6195Z" fill="#E0E0E0"/>
<path d="M74.1806 356.063H52.9065L59.8475 408.763H67.2396L74.1806 356.063Z" fill="#E0E0E0"/>
<path d="M54.0125 362.542C54.0125 362.542 54.0343 362.614 54.1289 362.731C54.2162 362.841 54.3835 362.987 54.6454 363.096C55.1475 363.315 56.0351 363.337 56.8936 362.819C57.7521 362.345 58.5015 361.411 59.6511 360.995C60.7934 360.557 62.2049 360.638 63.5654 361.075C64.9405 361.498 66.1264 362.199 67.2105 362.848C68.2946 363.49 69.2841 364.066 70.1717 364.438C71.0521 364.825 71.8233 365 72.3544 365.073C72.6236 365.109 72.8273 365.117 72.9729 365.117C73.1111 365.117 73.1911 365.117 73.1911 365.102C73.2057 365.029 71.9906 365.044 70.2736 364.219C69.4151 363.825 68.4474 363.235 67.3779 362.578C66.3083 361.914 65.086 361.192 63.6745 360.754C62.2776 360.302 60.7716 360.222 59.542 360.71C58.9308 360.944 58.4142 361.309 57.985 361.673C57.5484 362.031 57.1628 362.374 56.7699 362.622C55.9914 363.125 55.1766 363.147 54.6964 362.979C54.2089 362.811 54.0488 362.52 54.0197 362.549L54.0125 362.542Z" fill="#F5F5F5"/>
<path d="M54.7836 372.251C54.7836 372.251 54.9509 372.032 55.2856 371.682C55.6275 371.346 56.1805 370.901 56.9881 370.602C57.7884 370.296 58.8143 370.114 59.9493 370.157C61.0916 370.194 62.3284 370.449 63.6526 370.661C64.9695 370.88 66.2791 370.982 67.4432 370.821C68.6073 370.668 69.6187 370.332 70.4263 369.968C71.2339 369.596 71.8305 369.194 72.2161 368.895C72.609 368.596 72.7981 368.399 72.7836 368.385C72.7472 368.326 71.925 369.063 70.3244 369.741C69.5241 370.07 68.5346 370.376 67.3996 370.5C66.2646 370.639 65.0132 370.537 63.7035 370.318C62.3939 370.106 61.1352 369.858 59.9566 369.836C58.7779 369.807 57.7157 370.026 56.8935 370.376C56.0641 370.719 55.5039 371.215 55.1837 371.594C55.0309 371.791 54.9218 371.952 54.8636 372.069C54.7981 372.185 54.7763 372.244 54.7836 372.251Z" fill="#F5F5F5"/>
<path d="M71.7723 377.445C71.7723 377.445 71.5831 377.299 71.183 377.139C70.7901 376.978 70.1862 376.818 69.4222 376.759C68.6583 376.701 67.7488 376.745 66.7594 376.913C65.7699 377.073 64.7003 377.35 63.5872 377.584C62.474 377.817 61.3972 377.978 60.4222 377.941C59.4473 377.905 58.5815 377.693 57.9049 377.394C56.537 376.789 56.0496 375.913 55.9986 375.972C55.9841 375.979 56.0787 376.198 56.3551 376.526C56.6316 376.854 57.1045 377.27 57.803 377.613C58.4942 377.956 59.3891 378.204 60.4077 378.255C61.4263 378.313 62.5322 378.153 63.6599 377.919C64.7876 377.679 65.8426 377.394 66.8176 377.219C67.7852 377.044 68.6729 376.971 69.415 376.993C70.9065 377.044 71.7577 377.496 71.7796 377.431L71.7723 377.445Z" fill="#F5F5F5"/>
<path d="M56.668 384.755C56.6752 384.813 57.4246 384.281 58.7343 384.543C59.3745 384.66 60.0875 384.981 60.8951 385.353C61.6955 385.725 62.6631 386.046 63.7035 386.126C65.7917 386.331 67.6542 385.652 68.7892 384.944C69.3713 384.594 69.7787 384.222 70.0552 383.967C70.3171 383.69 70.4481 383.529 70.4263 383.515C70.3826 383.464 69.8224 384.091 68.6656 384.733C67.5233 385.368 65.7335 385.973 63.7327 385.783C61.7173 385.667 60.1748 384.463 58.7779 384.302C58.094 384.2 57.5265 384.302 57.17 384.441C56.8135 384.58 56.6607 384.74 56.668 384.755Z" fill="#F5F5F5"/>
<path d="M57.854 394.866C57.854 394.902 58.567 394.902 59.6293 394.516C60.6988 394.158 62.023 393.334 63.5654 392.721C64.3439 392.422 65.1151 392.24 65.8281 392.247C66.5339 392.247 67.1669 392.422 67.6471 392.663C68.622 393.152 68.9058 393.845 68.964 393.801C68.9785 393.801 68.9349 393.619 68.7602 393.349C68.5856 393.079 68.2655 392.729 67.7635 392.444C67.2687 392.16 66.5994 391.948 65.8354 391.926C65.0715 391.904 64.2493 392.087 63.449 392.393C61.8484 393.035 60.5678 393.881 59.542 394.282C58.5306 394.72 57.8467 394.808 57.8613 394.866H57.854Z" fill="#F5F5F5"/>
<path d="M58.8944 399.579C58.8798 399.623 59.3891 399.805 60.2404 400.016C61.0916 400.228 62.2775 400.454 63.609 400.585C64.9404 400.717 66.1482 400.724 67.0213 400.688C67.8944 400.644 68.4328 400.564 68.4255 400.52C68.4255 400.418 66.2719 400.505 63.6381 400.243C61.0043 399.987 58.9162 399.477 58.8871 399.579H58.8944Z" fill="#F5F5F5"/>
<path d="M452.8 106.979L445.554 107.018L445.749 143.157L452.995 143.118L452.8 106.979Z" fill="#E0E0E0"/>
<path d="M401.552 107.075L382.796 107.176L382.903 127.128L401.66 127.026L401.552 107.075Z" fill="#EBEBEB"/>
<path d="M420.228 106.973L401.471 107.075L401.579 127.026L420.335 126.925L420.228 106.973Z" fill="#F5F5F5"/>
<path d="M382.829 112.707C395.292 112.81 407.792 112.737 420.255 112.532C420.51 112.532 420.51 112.131 420.255 112.131C407.792 112.065 395.292 112.124 382.829 112.357C382.611 112.357 382.611 112.7 382.829 112.7V112.707Z" fill="#E0E0E0"/>
<path d="M405.187 126.7L371.108 126.885L371.196 143.146L405.274 142.961L405.187 126.7Z" fill="#EBEBEB"/>
<path d="M439.104 126.509L405.026 126.694L405.113 142.955L439.192 142.77L439.104 126.509Z" fill="#F5F5F5"/>
<path d="M371.13 131.42C393.772 131.675 416.486 131.449 439.121 131.084C439.376 131.084 439.376 130.683 439.121 130.683C416.479 130.566 393.765 130.573 371.13 131.077C370.912 131.077 370.912 131.42 371.13 131.42Z" fill="#E0E0E0"/>
<path d="M490.415 143.157H358.383V148.979H490.415V143.157Z" fill="#E0E0E0"/>
<path d="M385.361 145.958H379.999V165.83H385.361V145.958Z" fill="#E0E0E0"/>
<path d="M465.372 145.958H460.01V165.83H465.372V145.958Z" fill="#E0E0E0"/>
<path d="M459.865 93.5105L452.619 93.5498L452.887 143.25L460.133 143.211L459.865 93.5105Z" fill="#EBEBEB"/>
<path d="M471.178 102.757L459.922 102.818L460.14 143.094L471.395 143.033L471.178 102.757Z" fill="#F5F5F5"/>
<path d="M471.105 110.541C471.105 110.65 468.588 110.738 465.481 110.738C462.374 110.738 459.857 110.65 459.857 110.541C459.857 110.431 462.374 110.344 465.481 110.344C468.588 110.344 471.105 110.431 471.105 110.541Z" fill="#E0E0E0"/>
<path d="M471.105 108.848C471.105 108.958 468.588 109.045 465.481 109.045C462.374 109.045 459.857 108.958 459.857 108.848C459.857 108.739 462.374 108.651 465.481 108.651C468.588 108.651 471.105 108.739 471.105 108.848Z" fill="#E0E0E0"/>
<path d="M471.105 137C471.105 137.11 468.588 137.197 465.481 137.197C462.374 137.197 459.857 137.11 459.857 137C459.857 136.891 462.374 136.803 465.481 136.803C468.588 136.803 471.105 136.891 471.105 137Z" fill="#E0E0E0"/>
<path d="M471.105 135.307C471.105 135.417 468.588 135.504 465.481 135.504C462.374 135.504 459.857 135.417 459.857 135.307C459.857 135.198 462.374 135.11 465.481 135.11C468.588 135.11 471.105 135.198 471.105 135.307Z" fill="#E0E0E0"/>
<path d="M465.656 131.616C465.546 131.616 465.459 127.553 465.459 122.541C465.459 117.53 465.546 113.466 465.656 113.466C465.765 113.466 465.852 117.53 465.852 122.541C465.852 127.553 465.765 131.616 465.656 131.616Z" fill="#E0E0E0"/>
<path d="M483.474 112.671H471.221V143.069H483.474V112.671Z" fill="#EBEBEB"/>
<path d="M458.212 102.013C458.212 103.165 457.281 104.099 456.132 104.099C454.982 104.099 454.051 103.165 454.051 102.013C454.051 100.86 454.982 99.9263 456.132 99.9263C457.281 99.9263 458.212 100.86 458.212 102.013Z" fill="#E0E0E0"/>
<path d="M456.779 107.754H455.491V137.321H456.779V107.754Z" fill="#E0E0E0"/>
<path d="M114.873 94.623H38.0714V206.238H114.873V94.623Z" fill="#E0E0E0"/>
<path d="M111.025 94.623H34.2228V206.238H111.025V94.623Z" fill="#F5F5F5"/>
<path d="M101.486 106.711H43.7682V194.15H101.486V106.711Z" fill="white"/>
<path d="M101.479 194.15C101.479 194.15 101.472 194.004 101.464 193.719C101.464 193.427 101.464 193.019 101.45 192.479C101.45 191.378 101.435 189.773 101.428 187.686C101.413 183.499 101.399 177.386 101.377 169.675C101.355 154.253 101.319 132.426 101.282 106.711L101.472 106.901C83.8354 106.901 64.3002 106.915 43.761 106.915L43.972 106.704C43.9574 139.685 43.9429 170.098 43.9283 194.142L43.761 193.975C61.339 194.011 75.7448 194.04 85.7707 194.062C90.7837 194.084 94.7052 194.091 97.3754 194.106C98.7069 194.113 99.7255 194.121 100.424 194.128C101.115 194.128 101.479 194.142 101.479 194.142C101.479 194.142 101.137 194.157 100.46 194.157C99.7691 194.157 98.7578 194.164 97.4482 194.179C94.7853 194.186 90.8782 194.201 85.8799 194.223C75.8321 194.245 61.3899 194.274 43.7682 194.31H43.6009V194.142C43.5864 170.105 43.5718 139.692 43.5573 106.704V106.492H43.7682C64.3075 106.492 83.8427 106.507 101.479 106.507H101.668V106.696C101.632 132.455 101.595 154.333 101.573 169.784C101.552 177.48 101.537 183.572 101.523 187.752C101.515 189.824 101.508 191.421 101.501 192.508C101.501 193.041 101.493 193.442 101.486 193.727C101.486 193.997 101.472 194.135 101.472 194.135L101.479 194.15Z" fill="#E0E0E0"/>
<path d="M111.236 94.6229C111.279 94.6594 110.755 95.4181 109.868 96.6145C108.973 97.8109 107.707 99.4377 106.266 101.196C104.818 102.954 103.472 104.515 102.468 105.624C101.472 106.733 100.824 107.389 100.78 107.353C100.737 107.316 101.304 106.587 102.243 105.434C103.276 104.179 104.542 102.64 105.939 100.933C107.336 99.2261 108.602 97.6869 109.635 96.4321C110.588 95.2868 111.192 94.5865 111.236 94.6229Z" fill="#E0E0E0"/>
<path d="M101.777 193.873C104.644 198.439 108.027 202.685 111.847 206.493L101.777 193.873Z" fill="white"/>
<path d="M111.839 206.493C111.803 206.529 111.119 205.938 110.086 204.895C109.053 203.852 107.685 202.349 106.288 200.598C104.891 198.848 103.734 197.177 102.949 195.937C102.163 194.697 101.734 193.894 101.777 193.865C101.828 193.836 102.345 194.58 103.196 195.769C104.04 196.958 105.233 198.592 106.623 200.336C108.012 202.079 109.337 203.597 110.312 204.691C111.287 205.778 111.898 206.449 111.854 206.493H111.839Z" fill="#E0E0E0"/>
<path d="M34.2152 206.15C37.5693 201.999 40.9234 197.855 44.2775 193.705L34.2152 206.15Z" fill="white"/>
<path d="M44.2702 193.705C44.3575 193.778 42.1821 196.623 39.4028 200.059C36.6235 203.495 34.3026 206.223 34.208 206.15C34.1207 206.077 36.2961 203.232 39.0754 199.796C41.8547 196.36 44.1757 193.632 44.2702 193.705Z" fill="#E0E0E0"/>
<path d="M34.2227 94.6231C34.31 94.5501 36.5 97.169 39.1047 100.474C41.7093 103.778 43.7538 106.514 43.6592 106.587C43.5719 106.66 41.3819 104.041 38.7772 100.736C36.1726 97.4317 34.1354 94.696 34.2227 94.6231Z" fill="#E0E0E0"/>
<path d="M83.5007 124.467H64.1765V179.487H83.5007V124.467Z" fill="#E0E0E0"/>
<path d="M441.791 309.761H307.591V371.82H441.791V309.761Z" fill="#F5F5F5"/>
<path d="M438.597 368.888H310.662V313.022H438.597V368.888ZM311.498 368.049H437.761V313.854H311.498V368.049Z" fill="#E0E0E0"/>
<path d="M474.575 309.761H441.791V371.82H474.575V309.761Z" fill="#E0E0E0"/>
<path d="M311.084 330.312H438.183C438.401 330.312 438.401 329.976 438.183 329.976H311.084C310.865 329.976 310.865 330.312 311.084 330.312Z" fill="#E0E0E0"/>
<path d="M375.044 330.144C375.422 324.636 375.386 318.8 375.088 313.285C375.073 313.066 374.76 313.066 374.746 313.285C374.448 318.8 374.411 324.636 374.789 330.144C374.804 330.311 375.037 330.311 375.044 330.144Z" fill="#E0E0E0"/>
<path d="M409.254 321.718C409.254 322.673 408.476 323.454 407.523 323.454C406.57 323.454 405.791 322.673 405.791 321.718C405.791 320.762 406.57 319.981 407.523 319.981C408.476 319.981 409.254 320.762 409.254 321.718Z" fill="#E0E0E0"/>
<path d="M342.551 321.718C342.551 322.673 341.773 323.454 340.819 323.454C339.866 323.454 339.088 322.673 339.088 321.718C339.088 320.762 339.866 319.981 340.819 319.981C341.773 319.981 342.551 320.762 342.551 321.718Z" fill="#E0E0E0"/>
<path d="M376.361 340.955C376.361 341.911 375.583 342.691 374.629 342.691C373.676 342.691 372.898 341.911 372.898 340.955C372.898 339.999 373.676 339.219 374.629 339.219C375.583 339.219 376.361 339.999 376.361 340.955Z" fill="#E0E0E0"/>
<path d="M323.634 371.813L316.73 410.776H320.615L333.355 371.813H323.634Z" fill="#E0E0E0"/>
<path d="M432.297 371.813L438.073 410.842H434.188L422.583 371.813H432.297Z" fill="#E0E0E0"/>
<path d="M458.242 371.813L464.79 410.842H460.897L448.521 371.813H458.242Z" fill="#E0E0E0"/>
<path d="M376.245 358.521C376.245 359.477 375.466 360.258 374.513 360.258C373.56 360.258 372.781 359.477 372.781 358.521C372.781 357.566 373.56 356.785 374.513 356.785C375.466 356.785 376.245 357.566 376.245 358.521Z" fill="#E0E0E0"/>
<path d="M311.084 349.527H438.183C438.401 349.527 438.401 349.191 438.183 349.191H311.084C310.865 349.191 310.865 349.527 311.084 349.527Z" fill="#E0E0E0"/>
<path d="M195.299 386.929V410.514H229.705H267.648V386.929H195.299Z" fill="#F5F5F5"/>
<path d="M192.257 380.334V386.929H270.18V380.334H229.705H192.257Z" fill="#E0E0E0"/>
<path d="M231.219 410.514H267.648V386.929H270.18V380.334H229.705V386.316L231.219 410.514Z" fill="#E0E0E0"/>
<path d="M220.094 390.729H205.419V394.282H220.094V390.729Z" fill="#E0E0E0"/>
<path d="M222.371 398.718H203.527V406.217H222.371V398.718Z" fill="white"/>
<path d="M206.43 356.771V380.363H240.837H278.78V356.771H206.43Z" fill="#F5F5F5"/>
<path d="M203.389 350.176V356.771H281.312V350.176H240.837H203.389Z" fill="#E0E0E0"/>
<path d="M242.35 380.363H278.78V356.771H281.312V350.176H240.837V356.166L242.35 380.363Z" fill="#E0E0E0"/>
<path d="M231.219 360.579H216.544V364.132H231.219V360.579Z" fill="#E0E0E0"/>
<path d="M233.503 368.567H214.659V376.066H233.503V368.567Z" fill="white"/>
<path d="M425.028 264.196C426.345 263.401 427.742 262.796 429.19 262.387L430.048 258.258L437.004 258.134L438.008 262.227C439.463 262.584 440.889 263.139 442.228 263.89L445.742 261.578L450.748 266.421L448.565 270.025C449.358 271.346 449.962 272.746 450.369 274.198L454.487 275.059L454.611 282.033L450.529 283.04C450.173 284.499 449.62 285.928 448.87 287.271L451.177 290.794L446.346 295.813L442.752 293.625C441.435 294.42 440.038 295.025 438.59 295.434L437.731 299.563L430.776 299.687L429.772 295.594C428.317 295.237 426.891 294.683 425.552 293.931L422.038 296.244L417.032 291.4L419.215 287.796C418.422 286.476 417.818 285.075 417.41 283.623L413.292 282.762L413.169 275.788L417.25 274.782C417.607 273.323 418.16 271.893 418.909 270.55L416.603 267.027L421.434 262.008L425.028 264.196ZM428.739 273.49C425.872 276.467 425.959 281.201 428.928 284.076C431.896 286.95 436.618 286.862 439.485 283.886C442.344 280.909 442.264 276.175 439.303 273.301C436.334 270.426 431.613 270.514 428.746 273.49H428.739Z" fill="#EBEBEB"/>
<path d="M204.633 266.699C206.925 265.313 209.37 264.255 211.887 263.54L213.379 256.34L225.507 256.128L227.253 263.27C229.793 263.898 232.274 264.868 234.609 266.174L240.735 262.147L249.459 270.595L245.661 276.876C247.05 279.174 248.098 281.625 248.811 284.149L255.985 285.644L256.196 297.805L249.073 299.556C248.447 302.102 247.48 304.59 246.177 306.931L250.194 313.074L241.768 321.821L235.504 318.012C233.212 319.399 230.768 320.456 228.25 321.171L226.759 328.371L214.63 328.583L212.884 321.441C210.345 320.814 207.864 319.844 205.528 318.538L199.402 322.565L190.679 314.117L194.476 307.836C193.094 305.538 192.039 303.087 191.326 300.563L184.152 299.067L183.941 286.906L191.064 285.155C191.69 282.61 192.658 280.122 193.96 277.78L189.944 271.638L198.369 262.891L204.633 266.699ZM211.094 282.894C206.103 288.081 206.249 296.339 211.414 301.343C216.587 306.348 224.823 306.202 229.814 301.022C234.806 295.835 234.66 287.577 229.494 282.573C224.321 277.569 216.085 277.715 211.094 282.894Z" fill="#EBEBEB"/>
<path d="M280.992 195.316C282.105 194.638 283.298 194.127 284.52 193.777L285.248 190.275L291.148 190.173L292 193.646C293.237 193.952 294.444 194.419 295.579 195.061L298.562 193.099L302.811 197.206L300.963 200.262C301.64 201.379 302.149 202.575 302.498 203.801L305.991 204.53L306.093 210.446L302.629 211.3C302.324 212.54 301.858 213.751 301.218 214.889L303.175 217.88L299.079 222.14L296.03 220.287C294.917 220.966 293.724 221.476 292.502 221.827L291.774 225.328L285.874 225.43L285.022 221.958C283.785 221.652 282.578 221.185 281.443 220.543L278.46 222.505L274.211 218.398L276.059 215.341C275.382 214.225 274.873 213.029 274.524 211.803L271.031 211.074L270.929 205.157L274.393 204.304C274.698 203.064 275.164 201.853 275.804 200.715L273.847 197.724L277.943 193.463L280.992 195.316ZM284.135 203.195C281.705 205.719 281.777 209.739 284.295 212.168C286.812 214.605 290.821 214.532 293.244 212.007C295.674 209.483 295.601 205.464 293.084 203.035C290.566 200.598 286.557 200.671 284.135 203.195Z" fill="#F5F5F5"/>
<path d="M317.261 211.883C319.218 210.702 321.299 209.797 323.445 209.192L324.718 203.049L335.064 202.867L336.556 208.958C338.724 209.491 340.834 210.315 342.835 211.431L348.066 207.995L355.509 215.203L352.271 220.565C353.457 222.527 354.352 224.613 354.956 226.765L361.075 228.042L361.257 238.416L355.182 239.911C354.651 242.085 353.828 244.201 352.715 246.207L356.142 251.452L348.954 258.915L343.606 255.668C341.649 256.85 339.568 257.755 337.422 258.36L336.148 264.503L325.802 264.685L324.311 258.594C322.143 258.061 320.033 257.23 318.032 256.121L312.801 259.557L305.358 252.349L308.595 246.987C307.417 245.025 306.515 242.938 305.903 240.786L299.777 239.51L299.595 229.136L305.671 227.641C306.202 225.467 307.031 223.351 308.137 221.345L304.71 216.1L311.899 208.637L317.246 211.883H317.261ZM322.776 225.7C318.52 230.121 318.643 237.168 323.052 241.436C327.461 245.703 334.49 245.579 338.746 241.159C343.002 236.738 342.878 229.691 338.469 225.423C334.06 221.155 327.032 221.279 322.776 225.7Z" fill="#EBEBEB"/>
<path d="M322.303 158.797C323.278 158.207 324.326 157.754 325.395 157.448L326.035 154.377L331.208 154.289L331.95 157.331C333.035 157.601 334.09 158.01 335.086 158.571L337.698 156.85L341.423 160.453L339.801 163.131C340.39 164.108 340.841 165.159 341.147 166.231L344.21 166.873L344.297 172.06L341.263 172.804C340.994 173.891 340.587 174.949 340.026 175.948L341.736 178.567L338.142 182.302L335.472 180.675C334.497 181.266 333.449 181.719 332.38 182.025L331.739 185.096L326.566 185.184L325.824 182.142C324.74 181.872 323.685 181.463 322.689 180.901L320.077 182.623L316.351 179.019L317.974 176.342C317.385 175.365 316.933 174.314 316.628 173.242L313.565 172.6L313.478 167.413L316.511 166.669C316.781 165.582 317.188 164.524 317.748 163.525L316.039 160.906L319.633 157.171L322.303 158.797ZM325.06 165.706C322.929 167.916 322.994 171.44 325.199 173.577C327.403 175.715 330.917 175.649 333.049 173.439C335.181 171.228 335.115 167.705 332.911 165.567C330.706 163.43 327.192 163.495 325.06 165.706Z" fill="#EBEBEB"/>
<path d="M260.481 235.243C263.006 233.711 265.691 232.558 268.463 231.763L270.107 223.84L283.451 223.607L285.372 231.464C288.165 232.157 290.894 233.222 293.469 234.659L300.214 230.224L309.818 239.517L305.634 246.433C307.162 248.965 308.312 251.656 309.105 254.436L316.999 256.085L317.232 269.464L309.396 271.39C308.705 274.191 307.642 276.927 306.209 279.509L310.625 286.272L301.356 295.901L294.459 291.706C291.934 293.238 289.249 294.391 286.477 295.186L284.833 303.109L271.49 303.342L269.569 295.485C266.775 294.792 264.047 293.727 261.471 292.29L254.726 296.725L245.123 287.431L249.306 280.516C247.778 277.984 246.621 275.292 245.836 272.513L237.941 270.864L237.709 257.485L245.545 255.559C246.236 252.758 247.298 250.022 248.731 247.44L244.308 240.677L253.577 231.048L260.474 235.243H260.481Z" fill="#415FE9"/>
<path d="M269.081 250.767H261.747V273.724H269.081V250.767Z" fill="white"/>
<path d="M280.031 256.012H272.697V273.724H280.031V256.012Z" fill="white"/>
<path d="M290.166 263.205H282.832V273.724H290.166V263.205Z" fill="white"/>
<path d="M150.582 233.623C153.107 232.091 155.792 230.938 158.564 230.143L160.208 222.221L173.552 221.987L175.473 229.844C178.266 230.537 180.995 231.602 183.57 233.039L190.315 228.604L199.919 237.898L195.735 244.814C197.263 247.345 198.413 250.037 199.206 252.816L207.1 254.465L207.333 267.844L199.497 269.77C198.806 272.571 197.743 275.307 196.31 277.889L200.726 284.652L191.457 294.281L184.56 290.087C182.035 291.619 179.35 292.771 176.578 293.566L174.934 301.489L161.591 301.722L159.67 293.866C156.876 293.173 154.148 292.107 151.572 290.67L144.827 295.106L135.223 285.812L139.407 278.896C137.879 276.365 136.722 273.673 135.936 270.893L128.042 269.245L127.81 255.866L135.645 253.94C136.337 251.138 137.399 248.403 138.832 245.82L134.409 239.058L143.678 229.428L150.575 233.623H150.582Z" fill="#415FE9"/>
<path d="M169.696 284.272C159.742 284.272 150.801 277.597 147.963 268.041C147.905 267.851 148.014 267.647 148.211 267.589C148.4 267.53 148.603 267.64 148.662 267.837C151.412 277.087 160.063 283.543 169.696 283.543C181.802 283.543 191.646 273.673 191.646 261.534C191.646 249.395 181.802 239.524 169.696 239.524C159.582 239.524 150.815 246.389 148.385 256.223C148.334 256.42 148.138 256.537 147.941 256.493C147.745 256.442 147.628 256.245 147.672 256.048C150.182 245.893 159.233 238.795 169.688 238.795C182.195 238.795 192.367 248.993 192.367 261.534C192.367 274.074 182.195 284.272 169.688 284.272H169.696Z" fill="white"/>
<path d="M169.572 277.335C162.536 277.335 156.294 272.586 154.395 265.794C154.344 265.597 154.453 265.4 154.65 265.342C154.839 265.29 155.042 265.4 155.101 265.597C156.912 272.075 162.864 276.605 169.579 276.605C177.866 276.605 184.611 269.843 184.611 261.534C184.611 253.224 177.866 246.462 169.579 246.462C162.871 246.462 156.92 250.985 155.108 257.463C155.057 257.66 154.853 257.769 154.657 257.718C154.46 257.667 154.351 257.463 154.402 257.266C156.301 250.474 162.544 245.725 169.579 245.725C178.266 245.725 185.338 252.816 185.338 261.526C185.338 270.237 178.266 277.327 169.579 277.327L169.572 277.335Z" fill="white"/>
<path d="M169.572 265.079C168.764 265.079 167.986 264.838 167.324 264.386C167.156 264.277 167.113 264.05 167.229 263.883C167.338 263.715 167.571 263.671 167.731 263.788C168.277 264.16 168.917 264.35 169.572 264.35C171.391 264.35 172.868 262.869 172.868 261.045C172.868 259.221 171.391 257.74 169.572 257.74C169.026 257.74 168.488 257.879 168.015 258.134C167.84 258.229 167.615 258.163 167.52 257.988C167.426 257.813 167.491 257.587 167.666 257.492C168.248 257.179 168.903 257.011 169.572 257.011C171.791 257.011 173.595 258.82 173.595 261.045C173.595 263.27 171.791 265.079 169.572 265.079Z" fill="white"/>
<path d="M169.696 260.906L163.817 258.032L163.933 260.593L148.312 260.958L148.487 262.11L164.122 261.848L164.166 264.452L169.696 260.906Z" fill="white"/>
<path d="M152.612 261.344L152.525 261.176C152.11 260.367 151.288 259.841 150.371 259.805L145.206 259.608L147.447 261.643L145.46 264.102L150.408 264C151.521 263.978 152.489 263.219 152.794 262.147L152.62 261.344H152.612Z" fill="white"/>
<path d="M169.696 271.068C165.497 271.068 161.743 268.245 160.565 264.204C160.506 264.014 160.616 263.81 160.812 263.751C161.008 263.693 161.205 263.802 161.263 263.999C162.347 267.734 165.818 270.339 169.696 270.339C174.541 270.339 178.477 266.385 178.477 261.534C178.477 256.682 174.541 252.729 169.696 252.729C165.854 252.729 162.398 255.304 161.285 258.995C161.227 259.185 161.023 259.301 160.834 259.236C160.645 259.177 160.535 258.973 160.594 258.783C161.794 254.793 165.541 251.999 169.703 251.999C174.949 251.999 179.212 256.274 179.212 261.534C179.212 266.793 174.949 271.068 169.703 271.068H169.696Z" fill="white"/>
<path d="M369.195 233.01C371.719 231.478 374.404 230.326 377.176 229.53L378.82 221.608L392.164 221.375L394.085 229.231C396.879 229.924 399.607 230.989 402.183 232.427L408.927 227.991L418.531 237.285L414.347 244.201C415.875 246.732 417.025 249.424 417.818 252.203L425.712 253.852L425.945 267.231L418.109 269.157C417.418 271.959 416.356 274.694 414.922 277.277L419.339 284.039L410.069 293.669L403.172 289.474C400.647 291.006 397.963 292.159 395.191 292.954L393.546 300.876L380.203 301.11L378.282 293.253C375.488 292.56 372.76 291.495 370.184 290.058L363.44 294.493L353.836 285.199L358.019 278.283C356.491 275.752 355.334 273.06 354.549 270.281L346.655 268.632L346.422 255.253L354.258 253.327C354.949 250.526 356.011 247.79 357.444 245.207L353.021 238.445L362.29 228.815L369.187 233.01H369.195Z" fill="#415FE9"/>
<path d="M366.641 262.395L371.756 257.266L381.621 266.057L400.982 247.374L405.726 252.502L380.887 275.942L366.641 262.395Z" fill="white"/>
<path d="M234.478 237.176C234.478 237.176 234.5 237.095 234.566 236.949C234.638 236.782 234.733 236.563 234.857 236.293C234.988 235.994 235.148 235.644 235.337 235.228C235.519 234.805 235.744 234.316 236.05 233.798C236.341 233.273 236.661 232.682 237.017 232.047C237.388 231.42 237.84 230.763 238.305 230.048C238.749 229.319 239.338 228.611 239.913 227.838C240.473 227.05 241.172 226.299 241.878 225.482C242.561 224.65 243.405 223.899 244.22 223.052C244.621 222.622 245.093 222.25 245.552 221.849C246.017 221.455 246.476 221.032 246.963 220.63C247.465 220.244 247.975 219.857 248.498 219.463C248.76 219.266 249.015 219.062 249.291 218.872C249.568 218.69 249.844 218.507 250.128 218.318C250.696 217.953 251.256 217.559 251.845 217.194C252.449 216.851 253.06 216.501 253.671 216.151C254.283 215.779 254.937 215.495 255.592 215.166C256.247 214.853 256.902 214.502 257.6 214.247C258.292 213.97 258.99 213.685 259.696 213.401C260.416 213.167 261.151 212.927 261.886 212.693C264.847 211.811 268.012 211.198 271.286 210.979C274.567 210.811 277.783 211.045 280.832 211.57C281.588 211.723 282.345 211.869 283.087 212.015C283.822 212.212 284.549 212.409 285.262 212.606C285.99 212.781 286.674 213.051 287.365 213.277C288.049 213.518 288.74 213.729 289.388 214.021C290.043 214.298 290.69 214.568 291.33 214.838C291.956 215.13 292.56 215.451 293.164 215.75C293.462 215.903 293.76 216.049 294.059 216.202C294.35 216.355 294.634 216.531 294.91 216.698C295.47 217.027 296.03 217.355 296.569 217.676C297.1 218.011 297.609 218.376 298.111 218.719C298.613 219.069 299.123 219.383 299.574 219.762C300.483 220.499 301.414 221.148 302.186 221.892C302.979 222.615 303.764 223.278 304.412 224.001C305.074 224.708 305.743 225.336 306.267 226.007C306.813 226.663 307.337 227.262 307.781 227.845C308.203 228.436 308.596 228.983 308.945 229.472C309.309 229.953 309.585 230.406 309.818 230.807C310.051 231.201 310.254 231.529 310.422 231.806C310.574 232.062 310.691 232.266 310.785 232.426C310.866 232.565 310.902 232.638 310.895 232.645C310.895 232.645 310.836 232.58 310.749 232.448C310.647 232.295 310.516 232.098 310.356 231.85C310.182 231.58 309.971 231.252 309.723 230.873C309.483 230.479 309.192 230.034 308.821 229.559C308.465 229.078 308.064 228.545 307.635 227.962C307.184 227.393 306.653 226.802 306.107 226.153C305.576 225.489 304.907 224.869 304.237 224.176C303.583 223.468 302.797 222.812 302.004 222.104C301.225 221.367 300.301 220.732 299.392 220.003C298.941 219.631 298.431 219.325 297.929 218.982C297.427 218.646 296.918 218.289 296.387 217.96C295.841 217.647 295.296 217.326 294.735 216.997C294.452 216.837 294.175 216.662 293.884 216.509C293.586 216.363 293.295 216.217 292.989 216.064C292.385 215.772 291.789 215.451 291.163 215.166C290.53 214.904 289.882 214.634 289.235 214.364C288.595 214.072 287.903 213.868 287.227 213.627C286.543 213.401 285.859 213.131 285.139 212.963C284.426 212.774 283.705 212.577 282.978 212.387C282.236 212.241 281.494 212.095 280.737 211.949C277.718 211.431 274.531 211.205 271.279 211.373C268.034 211.592 264.898 212.197 261.958 213.065C261.231 213.299 260.503 213.532 259.79 213.766C259.092 214.043 258.401 214.32 257.717 214.597C257.026 214.853 256.378 215.196 255.723 215.502C255.076 215.823 254.421 216.1 253.817 216.472C253.206 216.822 252.595 217.165 251.998 217.501C251.409 217.858 250.856 218.245 250.288 218.602C250.012 218.785 249.728 218.967 249.459 219.149C249.19 219.339 248.935 219.543 248.673 219.733C248.156 220.127 247.647 220.506 247.145 220.886C246.658 221.28 246.199 221.695 245.734 222.089C245.283 222.491 244.81 222.855 244.402 223.278C243.587 224.11 242.743 224.847 242.059 225.671C241.354 226.474 240.655 227.21 240.088 227.998C239.506 228.764 238.916 229.457 238.465 230.18C238 230.887 237.541 231.536 237.156 232.157C236.792 232.784 236.464 233.368 236.166 233.885C235.853 234.396 235.621 234.878 235.424 235.293C235.228 235.702 235.053 236.052 234.915 236.344C234.784 236.614 234.675 236.825 234.595 236.986C234.522 237.132 234.478 237.205 234.471 237.197L234.478 237.176Z" fill="#263238"/>
<path d="M249.546 213.051C249.546 213.051 249.83 212.825 250.375 212.475C250.921 212.117 251.736 211.658 252.762 211.125C254.821 210.067 257.804 208.842 261.253 208.032C264.701 207.23 267.917 207.003 270.231 207.04C271.388 207.054 272.326 207.113 272.966 207.186C273.607 207.259 273.963 207.31 273.963 207.332C273.963 207.361 273.599 207.354 272.959 207.332C272.319 207.302 271.38 207.288 270.238 207.302C267.939 207.332 264.759 207.602 261.347 208.397C257.935 209.199 254.966 210.366 252.893 211.359C251.852 211.855 251.023 212.278 250.463 212.591C249.895 212.898 249.575 213.058 249.561 213.036L249.546 213.051Z" fill="#263238"/>
<path d="M424.402 287.227C424.402 287.227 424.381 287.307 424.315 287.453C424.242 287.621 424.148 287.84 424.024 288.11C423.893 288.409 423.733 288.759 423.544 289.175C423.362 289.598 423.136 290.087 422.831 290.605C422.54 291.13 422.22 291.721 421.863 292.355C421.492 292.983 421.041 293.639 420.575 294.362C420.132 295.091 419.542 295.799 418.967 296.572C418.407 297.36 417.709 298.111 417.003 298.928C416.319 299.76 415.475 300.511 414.66 301.358C414.26 301.788 413.787 302.16 413.329 302.561C412.863 302.955 412.405 303.378 411.917 303.779C411.415 304.166 410.906 304.553 410.382 304.947C410.12 305.144 409.866 305.348 409.589 305.538C409.313 305.72 409.036 305.902 408.752 306.092C408.185 306.457 407.625 306.851 407.035 307.215C406.432 307.558 405.82 307.909 405.209 308.259C404.598 308.631 403.943 308.915 403.288 309.236C402.634 309.55 401.979 309.9 401.28 310.155C400.589 310.433 399.891 310.717 399.185 311.002C398.465 311.235 397.73 311.476 396.995 311.709C394.034 312.592 390.869 313.205 387.595 313.424C384.313 313.591 381.098 313.358 378.049 312.833C377.292 312.679 376.536 312.534 375.794 312.388C375.059 312.191 374.331 311.994 373.618 311.797C372.891 311.622 372.207 311.352 371.516 311.126C370.832 310.885 370.14 310.673 369.493 310.382C368.838 310.104 368.191 309.834 367.55 309.564C366.925 309.273 366.321 308.952 365.717 308.653C365.419 308.499 365.12 308.353 364.822 308.2C364.531 308.047 364.247 307.872 363.971 307.704C363.41 307.376 362.85 307.048 362.312 306.727C361.781 306.391 361.271 306.026 360.769 305.684C360.267 305.333 359.758 305.02 359.307 304.64C358.398 303.904 357.466 303.254 356.695 302.51C355.902 301.788 355.116 301.124 354.469 300.402C353.807 299.694 353.137 299.067 352.613 298.396C352.068 297.739 351.544 297.141 351.1 296.557C350.678 295.966 350.285 295.419 349.936 294.931C349.572 294.449 349.296 293.997 349.063 293.596C348.83 293.202 348.626 292.873 348.459 292.596C348.306 292.341 348.19 292.137 348.095 291.976C348.015 291.837 347.979 291.765 347.986 291.757C347.986 291.757 348.044 291.823 348.132 291.954C348.233 292.107 348.364 292.304 348.524 292.552C348.699 292.822 348.91 293.151 349.157 293.53C349.398 293.924 349.689 294.369 350.06 294.843C350.416 295.324 350.816 295.857 351.246 296.441C351.697 297.01 352.228 297.601 352.773 298.25C353.305 298.914 353.974 299.534 354.643 300.227C355.298 300.934 356.084 301.591 356.877 302.299C357.655 303.035 358.579 303.67 359.489 304.4C359.94 304.772 360.449 305.078 360.951 305.421C361.453 305.756 361.963 306.114 362.494 306.442C363.039 306.756 363.585 307.077 364.145 307.405C364.429 307.566 364.706 307.741 364.997 307.894C365.295 308.04 365.586 308.186 365.891 308.339C366.495 308.631 367.092 308.952 367.718 309.236C368.351 309.499 368.998 309.769 369.646 310.039C370.286 310.33 370.977 310.535 371.654 310.775C372.338 311.002 373.022 311.272 373.742 311.439C374.455 311.629 375.175 311.826 375.903 312.016C376.645 312.162 377.387 312.307 378.144 312.453C381.163 312.971 384.35 313.197 387.602 313.03C390.847 312.811 393.983 312.205 396.922 311.337C397.65 311.104 398.377 310.87 399.09 310.637C399.789 310.36 400.48 310.082 401.164 309.805C401.855 309.55 402.503 309.207 403.157 308.901C403.805 308.58 404.46 308.302 405.064 307.93C405.675 307.58 406.286 307.237 406.883 306.902C407.472 306.544 408.025 306.158 408.592 305.8C408.869 305.618 409.153 305.435 409.422 305.253C409.691 305.063 409.946 304.859 410.208 304.669C410.724 304.283 411.233 303.896 411.735 303.517C412.223 303.123 412.681 302.707 413.147 302.313C413.598 301.912 414.071 301.547 414.478 301.124C415.293 300.292 416.137 299.556 416.821 298.731C417.527 297.929 418.225 297.192 418.793 296.404C419.375 295.638 419.964 294.945 420.415 294.223C420.881 293.515 421.339 292.866 421.725 292.246C422.089 291.619 422.416 291.035 422.714 290.517C423.027 290.006 423.26 289.525 423.457 289.109C423.653 288.701 423.828 288.35 423.966 288.059C424.097 287.789 424.206 287.577 424.286 287.417C424.359 287.271 424.402 287.198 424.41 287.205L424.402 287.227Z" fill="#263238"/>
<path d="M409.633 313.57C409.633 313.57 409.349 313.796 408.803 314.146C408.258 314.504 407.443 314.963 406.417 315.496C404.358 316.553 401.375 317.779 397.926 318.589C394.478 319.391 391.262 319.617 388.948 319.581C387.791 319.566 386.853 319.508 386.212 319.435C385.572 319.362 385.216 319.311 385.216 319.289C385.216 319.267 385.579 319.267 386.22 319.289C386.86 319.318 387.798 319.333 388.941 319.318C391.24 319.289 394.419 319.019 397.832 318.224C401.244 317.422 404.212 316.254 406.286 315.262C407.326 314.766 408.156 314.343 408.716 314.029C409.284 313.723 409.604 313.563 409.618 313.584L409.633 313.57Z" fill="#263238"/>
<path d="M206.692 285.607C206.692 285.607 206.671 285.688 206.605 285.833C206.532 286.001 206.438 286.22 206.314 286.49C206.183 286.789 206.023 287.139 205.834 287.555C205.652 287.978 205.426 288.467 205.121 288.985C204.83 289.51 204.51 290.101 204.153 290.736C203.782 291.363 203.331 292.02 202.865 292.735C202.422 293.464 201.832 294.172 201.257 294.945C200.697 295.733 199.999 296.484 199.293 297.301C198.609 298.133 197.765 298.884 196.95 299.731C196.55 300.161 196.077 300.533 195.619 300.934C195.153 301.328 194.695 301.751 194.207 302.153C193.705 302.539 193.196 302.926 192.672 303.32C192.41 303.517 192.156 303.721 191.879 303.911C191.603 304.093 191.326 304.275 191.042 304.465C190.475 304.83 189.915 305.224 189.325 305.589C188.721 305.931 188.11 306.282 187.499 306.632C186.888 307.004 186.233 307.288 185.578 307.617C184.924 307.93 184.269 308.28 183.57 308.536C182.879 308.813 182.181 309.097 181.475 309.382C180.755 309.615 180.02 309.856 179.285 310.09C176.324 310.972 173.159 311.585 169.885 311.804C166.603 311.972 163.388 311.738 160.339 311.213C159.582 311.06 158.826 310.914 158.084 310.768C157.349 310.571 156.621 310.374 155.908 310.177C155.181 310.002 154.497 309.732 153.805 309.506C153.122 309.265 152.43 309.054 151.783 308.762C151.128 308.485 150.48 308.215 149.84 307.945C149.215 307.653 148.611 307.332 148.007 307.033C147.708 306.88 147.41 306.734 147.112 306.581C146.821 306.427 146.537 306.252 146.261 306.085C145.7 305.756 145.14 305.428 144.602 305.107C144.071 304.771 143.561 304.407 143.059 304.064C142.557 303.714 142.048 303.4 141.597 303.021C140.687 302.284 139.756 301.635 138.985 300.891C138.192 300.168 137.406 299.504 136.759 298.782C136.096 298.075 135.427 297.447 134.903 296.776C134.358 296.12 133.834 295.521 133.39 294.938C132.968 294.347 132.575 293.8 132.226 293.311C131.862 292.829 131.586 292.377 131.353 291.976C131.12 291.582 130.916 291.254 130.749 290.977C130.596 290.721 130.48 290.517 130.385 290.356C130.305 290.218 130.269 290.145 130.276 290.138C130.276 290.138 130.334 290.203 130.421 290.335C130.523 290.488 130.654 290.685 130.814 290.933C130.989 291.203 131.2 291.531 131.447 291.91C131.687 292.304 131.978 292.749 132.35 293.223C132.706 293.705 133.106 294.237 133.535 294.821C133.987 295.39 134.518 295.981 135.063 296.63C135.594 297.294 136.264 297.914 136.933 298.607C137.588 299.315 138.374 299.971 139.167 300.679C139.945 301.416 140.869 302.05 141.779 302.78C142.23 303.152 142.739 303.458 143.241 303.801C143.743 304.137 144.253 304.494 144.784 304.823C145.329 305.136 145.875 305.457 146.435 305.786C146.719 305.946 146.995 306.121 147.286 306.274C147.585 306.42 147.876 306.566 148.181 306.719C148.785 307.011 149.382 307.332 150.008 307.617C150.641 307.879 151.288 308.149 151.936 308.419C152.576 308.711 153.267 308.915 153.944 309.156C154.628 309.382 155.312 309.652 156.032 309.82C156.745 310.009 157.465 310.206 158.193 310.396C158.935 310.542 159.677 310.688 160.434 310.834C163.453 311.352 166.64 311.578 169.892 311.41C173.137 311.191 176.273 310.586 179.212 309.718C179.94 309.484 180.667 309.251 181.38 309.017C182.079 308.74 182.77 308.463 183.454 308.186C184.145 307.93 184.793 307.587 185.447 307.281C186.095 306.96 186.75 306.683 187.354 306.311C187.965 305.961 188.576 305.618 189.173 305.282C189.762 304.925 190.315 304.538 190.882 304.181C191.159 303.998 191.443 303.816 191.712 303.633C191.981 303.444 192.236 303.24 192.498 303.05C193.014 302.663 193.523 302.277 194.025 301.897C194.513 301.503 194.971 301.087 195.437 300.694C195.888 300.292 196.361 299.928 196.768 299.504C197.583 298.673 198.427 297.936 199.111 297.112C199.817 296.309 200.515 295.572 201.083 294.785C201.665 294.019 202.254 293.326 202.705 292.603C203.171 291.896 203.629 291.246 204.015 290.626C204.379 289.999 204.706 289.415 205.004 288.897C205.317 288.387 205.55 287.905 205.746 287.489C205.943 287.081 206.118 286.731 206.256 286.439C206.387 286.169 206.496 285.958 206.576 285.797C206.649 285.651 206.692 285.578 206.7 285.585L206.692 285.607Z" fill="#263238"/>
<path d="M191.93 311.95C191.93 311.95 191.646 312.176 191.101 312.527C190.555 312.884 189.74 313.344 188.714 313.876C186.655 314.934 183.672 316.159 180.223 316.969C176.775 317.772 173.559 317.998 171.245 317.961C170.088 317.947 169.15 317.888 168.51 317.815C167.869 317.742 167.513 317.691 167.513 317.67C167.513 317.64 167.877 317.648 168.517 317.67C169.157 317.699 170.096 317.713 171.238 317.699C173.537 317.67 176.717 317.4 180.129 316.604C183.541 315.802 186.51 314.635 188.583 313.643C189.624 313.147 190.453 312.723 191.013 312.41C191.581 312.103 191.901 311.943 191.915 311.965L191.93 311.95Z" fill="#263238"/>
<path d="M361.686 196.688H214.943C208.089 196.688 202.531 191.114 202.531 184.242C202.531 177.37 208.089 171.797 214.943 171.797H361.686C368.54 171.797 374.098 177.37 374.098 184.242C374.098 191.114 368.54 196.688 361.686 196.688Z" fill="#FAFAFA"/>
<path d="M361.686 196.688C361.686 196.688 362.013 196.659 362.639 196.622C363.272 196.578 364.203 196.433 365.389 196.082C366.561 195.696 367.972 195.054 369.376 193.923C370.795 192.814 372.148 191.151 373.072 188.999C373.509 187.912 373.815 186.708 373.953 185.417C374.069 184.126 373.975 182.747 373.655 181.361C373.014 178.603 371.261 175.788 368.482 173.964C367.099 173.052 365.484 172.388 363.738 172.096C361.999 171.812 360.144 171.95 358.252 171.914C354.469 171.914 350.467 171.921 346.262 171.928C312.648 171.943 266.222 171.965 214.943 171.987C211.778 171.979 208.664 173.256 206.43 175.445C204.182 177.611 202.836 180.653 202.734 183.739C202.596 186.825 203.673 189.911 205.652 192.209C207.616 194.521 210.439 196.053 213.401 196.396C214.87 196.564 216.391 196.484 217.89 196.505C219.388 196.505 220.88 196.505 222.364 196.505C225.333 196.505 228.272 196.505 231.175 196.505C236.988 196.505 242.685 196.505 248.244 196.505C270.464 196.52 290.472 196.535 307.279 196.549C324.078 196.571 337.676 196.593 347.076 196.608C351.769 196.622 355.414 196.637 357.895 196.644C359.125 196.651 360.071 196.659 360.711 196.666C361.344 196.666 361.671 196.688 361.671 196.688C361.671 196.688 361.344 196.702 360.711 196.71C360.071 196.71 359.132 196.717 357.895 196.732C355.414 196.739 351.769 196.754 347.076 196.768C337.669 196.783 324.078 196.805 307.279 196.826C290.472 196.841 270.464 196.848 248.244 196.87C242.685 196.87 236.996 196.87 231.175 196.87C228.265 196.87 225.325 196.87 222.364 196.87C220.88 196.87 219.388 196.87 217.89 196.87C216.391 196.848 214.892 196.929 213.357 196.761C210.301 196.411 207.391 194.835 205.368 192.449C203.324 190.079 202.218 186.898 202.356 183.717C202.465 180.537 203.848 177.4 206.169 175.167C208.468 172.913 211.683 171.593 214.943 171.6C266.222 171.622 312.648 171.644 346.262 171.658C350.46 171.658 354.461 171.666 358.252 171.673C360.144 171.71 361.992 171.571 363.774 171.87C365.549 172.169 367.194 172.848 368.598 173.781C371.421 175.649 373.189 178.509 373.829 181.317C374.157 182.725 374.237 184.118 374.12 185.432C373.975 186.737 373.662 187.963 373.211 189.057C372.265 191.231 370.89 192.902 369.449 194.018C368.016 195.149 366.59 195.783 365.411 196.163C364.218 196.498 363.272 196.637 362.639 196.666C362.006 196.695 361.679 196.695 361.679 196.695L361.686 196.688Z" fill="#263238"/>
<path d="M296.962 193.726H215.016C209.792 193.726 205.55 189.481 205.55 184.236C205.55 178.998 209.784 174.745 215.016 174.745H296.962C302.186 174.745 306.427 178.99 306.427 184.236C306.427 189.473 302.193 193.726 296.962 193.726Z" fill="#415FE9"/>
<g opacity="0.4">
<path d="M217.759 193.726L229.516 174.752H242.118L230.593 193.726H217.759Z" fill="white"/>
</g>
<g opacity="0.4">
<path d="M243.02 193.726L254.777 174.752H267.379L255.854 193.726H243.02Z" fill="white"/>
</g>
<g opacity="0.4">
<path d="M270.136 193.726L281.894 174.752H294.495L282.978 193.726H270.136Z" fill="white"/>
</g>
<path d="M269.045 163.853C269.045 165.29 267.968 166.187 266.244 166.187H264.949V167.967H263.457V161.511H266.244C267.968 161.511 269.045 162.409 269.045 163.853ZM267.532 163.853C267.532 163.145 267.073 162.73 266.164 162.73H264.949V164.969H266.164C267.073 164.969 267.532 164.553 267.532 163.853Z" fill="#263238"/>
<path d="M274.211 167.967L272.966 166.165H271.599V167.967H270.107V161.511H272.894C274.618 161.511 275.695 162.409 275.695 163.853C275.695 164.823 275.207 165.531 274.371 165.896L275.818 167.975H274.218L274.211 167.967ZM272.814 162.722H271.599V164.976H272.814C273.723 164.976 274.181 164.553 274.181 163.853C274.181 163.153 273.723 162.73 272.814 162.73V162.722Z" fill="#263238"/>
<path d="M276.459 164.736C276.459 162.817 277.95 161.395 279.98 161.395C282.01 161.395 283.502 162.81 283.502 164.736C283.502 166.662 282.003 168.077 279.98 168.077C277.958 168.077 276.459 166.654 276.459 164.736ZM282.003 164.736C282.003 163.51 281.137 162.671 279.987 162.671C278.838 162.671 277.972 163.51 277.972 164.736C277.972 165.961 278.838 166.8 279.987 166.8C281.137 166.8 282.003 165.961 282.003 164.736Z" fill="#263238"/>
<path d="M284.229 164.736C284.229 162.788 285.721 161.395 287.729 161.395C288.842 161.395 289.773 161.803 290.377 162.54L289.417 163.423C288.988 162.926 288.442 162.664 287.794 162.664C286.587 162.664 285.735 163.51 285.735 164.728C285.735 165.947 286.594 166.793 287.794 166.793C288.442 166.793 288.98 166.538 289.417 166.027L290.377 166.91C289.773 167.654 288.842 168.062 287.714 168.062C285.721 168.062 284.229 166.669 284.229 164.721V164.736Z" fill="#263238"/>
<path d="M296.365 166.771V167.967H291.374V161.511H296.241V162.708H292.858V164.108H295.848V165.268H292.858V166.764H296.365V166.771Z" fill="#263238"/>
<path d="M297.042 167.333L297.551 166.209C298.097 166.603 298.904 166.88 299.675 166.88C300.556 166.88 300.92 166.589 300.92 166.187C300.92 164.976 297.173 165.808 297.173 163.408C297.173 162.306 298.053 161.395 299.886 161.395C300.694 161.395 301.523 161.591 302.12 161.964L301.662 163.102C301.065 162.759 300.447 162.591 299.879 162.591C298.999 162.591 298.657 162.926 298.657 163.328C298.657 164.517 302.404 163.7 302.404 166.071C302.404 167.15 301.509 168.077 299.668 168.077C298.65 168.077 297.616 167.77 297.049 167.333H297.042Z" fill="#263238"/>
<path d="M302.913 167.333L303.422 166.209C303.968 166.603 304.776 166.88 305.547 166.88C306.427 166.88 306.791 166.589 306.791 166.187C306.791 164.976 303.044 165.808 303.044 163.408C303.044 162.306 303.924 161.395 305.758 161.395C306.565 161.395 307.395 161.591 307.991 161.964L307.533 163.102C306.937 162.759 306.318 162.591 305.751 162.591C304.87 162.591 304.528 162.926 304.528 163.328C304.528 164.517 308.275 163.7 308.275 166.071C308.275 167.15 307.38 168.077 305.54 168.077C304.521 168.077 303.488 167.77 302.92 167.333H302.913Z" fill="#263238"/>
<path d="M481.509 410.514C481.509 410.616 378.995 410.704 252.558 410.704C126.122 410.704 23.5854 410.616 23.5854 410.514C23.5854 410.412 126.078 410.324 252.558 410.324C379.039 410.324 481.509 410.412 481.509 410.514Z" fill="#263238"/>
<path d="M34.5353 392.619L41.6654 377.314L58.3195 386.885L49.6687 400.906C49.6687 400.906 42.9387 402.103 39.9484 400.257C36.9581 398.411 34.5426 392.612 34.5426 392.612L34.5353 392.619Z" fill="#FFBE9D"/>
<path d="M48.8177 402.336L49.669 400.914C43.6011 399.798 38.5663 397.011 34.5356 392.626L28.8387 403.131L60.306 420.479C61.7757 417.364 48.8177 402.336 48.8177 402.336Z" fill="#415FE9"/>
<path d="M28.8385 403.124L30.2281 400.556L59.9347 418.188C59.9347 418.188 60.9969 419.574 60.2985 420.472L28.8312 403.124H28.8385Z" fill="#263238"/>
<path d="M49.4141 402.453C49.3268 402.606 48.5192 402.249 47.4933 402.329C46.4602 402.38 45.7108 402.832 45.6016 402.694C45.4779 402.584 46.2128 401.789 47.4569 401.716C48.7011 401.629 49.5305 402.329 49.4214 402.453H49.4141Z" fill="#263238"/>
<path d="M51.9606 405.641C51.9169 405.809 51.1021 405.707 50.229 406.071C49.3414 406.407 48.8175 407.042 48.672 406.947C48.5119 406.888 48.9048 405.933 50.0034 405.502C51.1021 405.065 52.0406 405.502 51.9606 405.641Z" fill="#263238"/>
<path d="M51.6622 410.638C51.5022 410.594 51.7131 409.704 52.5717 409.077C53.4229 408.442 54.3324 408.508 54.3251 408.676C54.3397 408.851 53.6266 409.048 52.9282 409.573C52.2224 410.084 51.8223 410.704 51.6622 410.638Z" fill="#263238"/>
<path d="M36.296 400.286C36.0341 400.738 35.4593 400.899 35.0082 400.636C34.5571 400.373 34.3971 399.797 34.659 399.345C34.9209 398.893 35.4957 398.732 35.9468 398.995C36.3979 399.257 36.5579 399.834 36.296 400.286Z" fill="#263238"/>
<path d="M109.562 398.871L117.813 381.414L134.62 381.683L126.005 398.674C126.005 398.674 120.447 402.992 116.845 402.752C113.244 402.504 109.562 398.871 109.562 398.871Z" fill="#FFBE9D"/>
<path d="M125.911 400.381L126.005 398.674C119.945 400.57 114.953 400.461 109.191 398.396C108.573 399.462 108.245 400.665 108.223 401.891L108.1 410.674L145.024 411.374C144.871 407.836 125.903 400.373 125.903 400.373L125.911 400.381Z" fill="#415FE9"/>
<path d="M108.1 410.681L108.143 407.676L143.605 409.47C143.605 409.47 145.235 410.222 145.031 411.374L108.107 410.674L108.1 410.681Z" fill="#263238"/>
<path d="M126.507 400.198C126.5 400.381 125.598 400.446 124.696 401.008C123.786 401.548 123.313 402.321 123.146 402.248C122.978 402.212 123.27 401.132 124.368 400.468C125.459 399.797 126.551 400.031 126.507 400.198Z" fill="#263238"/>
<path d="M130.349 401.883C130.385 402.059 129.599 402.35 128.974 403.102C128.326 403.839 128.151 404.663 127.977 404.648C127.81 404.67 127.7 403.612 128.501 402.693C129.286 401.767 130.349 401.708 130.349 401.883Z" fill="#263238"/>
<path d="M132.466 406.567C132.299 406.604 132.066 405.692 132.546 404.714C133.019 403.729 133.877 403.357 133.95 403.503C134.052 403.656 133.492 404.174 133.106 404.984C132.706 405.787 132.641 406.545 132.459 406.56L132.466 406.567Z" fill="#263238"/>
<path d="M113.535 404.524C113.513 405.064 113.069 405.48 112.531 405.458C111.992 405.436 111.578 404.991 111.599 404.451C111.621 403.911 112.065 403.496 112.603 403.517C113.142 403.539 113.556 403.992 113.535 404.524Z" fill="#263238"/>
<path d="M206.161 167.012C209.042 166.53 211.553 164.218 212.258 161.365C212.338 161.044 212.418 160.687 212.68 160.497C212.906 160.329 213.211 160.329 213.495 160.322C215.038 160.264 216.587 159.622 217.599 158.44C218.61 157.258 219.01 155.536 218.472 154.085C220.844 154.369 223.048 152.057 223.048 149.657C223.048 147.257 221.222 145.097 218.974 144.295C220.247 143.573 220.698 141.851 220.305 140.443C219.912 139.035 218.85 137.912 217.686 137.036C216.114 135.862 213.946 135.03 212.236 136C212.673 134.877 211.96 133.615 211.043 132.834C208.591 130.748 204.502 131.003 202.305 133.381C201.738 132.28 200.988 131.215 199.89 130.66C198.791 130.099 197.285 130.201 196.506 131.164C196.528 129.945 195.546 128.946 194.513 128.304C193.764 127.844 192.92 127.48 192.039 127.531C191.166 127.582 190.271 128.136 190.046 128.99C188.896 127.742 186.772 127.574 185.433 128.618C184.094 129.668 183.738 131.784 184.662 133.206C183.185 133.279 181.766 134.169 181.053 135.475C180.34 136.781 180.347 138.459 181.082 139.75C180.398 139.48 179.627 140.209 179.627 140.946C179.627 141.69 180.165 142.325 180.769 142.748C179.379 144.9 177.99 147.045 176.607 149.197C175.713 150.583 174.803 151.998 174.381 153.596C173.959 155.194 174.097 157.025 175.145 158.294" fill="#263238"/>
<path d="M210.134 160.781C213.219 155.405 211.101 146.578 205.637 143.733L186.99 135.898L185.215 138.714L162.056 174.89L174.832 194.032L184.487 182.2C184.487 182.2 191.755 185.461 198.791 177.757C202.291 173.927 206.707 166.771 210.134 160.796V160.781Z" fill="#FFBE9D"/>
<path d="M204.364 165.465C204 166.063 203.2 166.245 202.574 165.873C201.949 165.509 201.738 164.728 202.101 164.13C202.465 163.532 203.266 163.349 203.891 163.714C204.517 164.086 204.728 164.867 204.364 165.465Z" fill="#263238"/>
<path d="M206.212 163.422C205.979 163.473 205.557 162.306 204.379 161.526C203.215 160.73 201.941 160.767 201.912 160.533C201.89 160.424 202.203 160.256 202.764 160.234C203.317 160.205 204.124 160.358 204.859 160.847C205.587 161.336 206.03 162.022 206.198 162.54C206.372 163.058 206.329 163.4 206.22 163.422H206.212Z" fill="#263238"/>
<path d="M193.349 159.031C192.985 159.629 192.185 159.811 191.559 159.439C190.933 159.074 190.722 158.287 191.086 157.696C191.45 157.097 192.25 156.915 192.876 157.28C193.502 157.652 193.713 158.432 193.349 159.023V159.031Z" fill="#263238"/>
<path d="M194.346 156.222C194.113 156.273 193.691 155.106 192.512 154.325C191.348 153.53 190.075 153.567 190.046 153.333C190.024 153.224 190.337 153.056 190.897 153.034C191.45 153.005 192.257 153.158 192.992 153.647C193.727 154.136 194.164 154.821 194.331 155.339C194.506 155.857 194.462 156.2 194.353 156.222H194.346Z" fill="#263238"/>
<path d="M192.949 167.595C192.985 167.522 193.807 167.887 195.095 168.522C195.415 168.689 195.743 168.821 195.932 168.646C196.15 168.47 196.237 168.062 196.325 167.617C196.528 166.698 196.739 165.728 196.958 164.714C197.889 160.606 198.784 157.309 198.944 157.346C199.111 157.382 198.485 160.745 197.547 164.852C197.307 165.859 197.081 166.822 196.863 167.741C196.747 168.164 196.688 168.682 196.237 169.032C196.004 169.207 195.677 169.222 195.452 169.149C195.219 169.083 195.051 168.974 194.891 168.879C193.654 168.15 192.912 167.661 192.949 167.588V167.595Z" fill="#263238"/>
<path d="M184.487 182.185C184.487 182.185 178.499 178.735 175.087 171.505C175.087 171.505 173.741 179.362 182.814 184.243L184.494 182.185H184.487Z" fill="#EB996E"/>
<path d="M190.562 170.119C190.511 169.273 189.973 168.471 189.187 168.062C188.641 167.777 187.958 167.683 187.368 167.894C186.779 168.106 186.32 168.66 186.342 169.244C186.364 169.908 186.961 170.455 187.63 170.666C188.299 170.878 189.027 170.827 189.733 170.761C189.929 170.739 190.126 170.725 190.3 170.637C190.475 170.55 190.613 170.375 190.591 170.192" fill="#EB996E"/>
<path d="M188.94 166.107C189.136 166.223 188.292 167.515 188.78 169.156C189.267 170.797 190.722 171.563 190.613 171.753C190.577 171.848 190.148 171.804 189.558 171.432C188.983 171.075 188.278 170.345 187.979 169.338C187.681 168.332 187.892 167.391 188.198 166.836C188.503 166.267 188.86 166.041 188.94 166.107Z" fill="#263238"/>
<path d="M197.503 152.217C197.176 152.465 196.099 151.524 194.607 150.773C193.131 149.992 191.748 149.656 191.755 149.248C191.763 149.058 192.163 148.883 192.818 148.869C193.472 148.854 194.382 149.029 195.27 149.489C196.157 149.948 196.834 150.59 197.198 151.13C197.569 151.677 197.656 152.1 197.503 152.217Z" fill="#263238"/>
<path d="M208.046 159.702C207.66 159.833 207.034 159.016 206.067 158.352C205.121 157.659 204.146 157.331 204.139 156.923C204.146 156.733 204.452 156.543 204.983 156.529C205.507 156.514 206.241 156.696 206.896 157.163C207.551 157.63 207.973 158.265 208.126 158.761C208.286 159.264 208.22 159.622 208.038 159.695L208.046 159.702Z" fill="#263238"/>
<path d="M213.161 148.526C212.68 150.459 210.949 152.013 208.984 152.283C207.02 152.553 204.946 151.509 203.986 149.78C204.19 150.707 203.433 151.648 202.523 151.896C201.614 152.144 200.639 151.845 199.824 151.371C198.114 150.379 196.87 148.599 196.528 146.644C195.488 147.847 193.865 148.518 192.287 148.387C190.708 148.256 189.216 147.329 188.401 145.965C188.823 147.833 187.958 149.934 186.335 150.955C184.713 151.976 182.457 151.838 180.98 150.634C179.503 149.43 178.899 147.242 179.561 145.44C178.688 144.112 178.477 142.376 179.001 140.866C179.525 139.356 180.776 138.13 182.275 137.634C181.591 136.795 181.548 135.555 181.948 134.541C182.348 133.527 183.141 132.717 183.992 132.046C186.073 130.39 188.765 129.383 191.384 129.77C194.004 130.149 196.441 132.119 196.958 134.723C197.016 135.015 197.059 135.344 197.278 135.548C197.576 135.825 198.049 135.752 198.449 135.664C200.217 135.249 202.087 134.782 203.804 135.344C205.885 136.022 207.304 138.313 207.005 140.494C209.181 139.407 212.106 139.735 213.684 141.588C215.263 143.441 214.936 146.738 212.819 147.949" fill="#263238"/>
<path d="M182.683 149.905C181.446 151.59 179.962 153.1 178.303 154.377C177.597 154.916 176.702 155.434 175.873 155.121C175.123 154.836 174.752 153.924 174.847 153.122C174.934 152.319 175.378 151.597 175.836 150.933C177.459 148.555 179.38 146.41 181.3 144.266" fill="#263238"/>
<path d="M179.918 150.029C179.845 149.905 176.607 145.644 173.639 149.992C170.67 154.333 175.611 156.419 175.698 156.302C175.793 156.186 179.911 150.036 179.911 150.036L179.918 150.029Z" fill="#FFBE9D"/>
<path d="M175.516 153.742C175.516 153.742 175.407 153.742 175.24 153.712C175.08 153.683 174.839 153.574 174.672 153.34C174.33 152.859 174.447 151.867 174.963 151.072C175.225 150.67 175.56 150.349 175.916 150.131C176.266 149.904 176.622 149.824 176.877 149.941C177.139 150.043 177.211 150.298 177.175 150.452C177.153 150.612 177.066 150.678 177.08 150.707C177.08 150.729 177.226 150.7 177.313 150.495C177.357 150.4 177.371 150.262 177.328 150.109C177.284 149.955 177.16 149.802 176.986 149.715C176.637 149.51 176.127 149.613 175.742 149.846C175.334 150.072 174.941 150.422 174.658 150.875C174.09 151.772 173.974 152.895 174.468 153.508C174.716 153.8 175.036 153.88 175.232 153.866C175.436 153.851 175.531 153.771 175.516 153.749V153.742Z" fill="#EB996E"/>
<path d="M196.885 145.622C196.885 145.622 196.921 145.666 196.994 145.746C197.074 145.826 197.19 145.936 197.358 146.075C197.685 146.352 198.18 146.746 198.907 147.096C199.271 147.271 199.693 147.431 200.173 147.519C200.654 147.614 201.192 147.643 201.752 147.519C202.305 147.395 202.873 147.132 203.367 146.716C203.848 146.293 204.255 145.688 204.335 144.966L204.117 144.995C204.597 146.279 205.55 147.526 206.896 148.365C207.565 148.788 208.329 149.102 209.144 149.277C209.552 149.357 209.981 149.401 210.418 149.35C210.847 149.306 211.291 149.146 211.64 148.869C212.062 148.548 212.36 148.11 212.586 147.665C212.811 147.22 212.979 146.753 213.131 146.301C213.284 145.841 213.401 145.367 213.415 144.885C213.43 144.411 213.284 143.886 212.913 143.565L212.731 143.74C213.335 144.484 214.179 144.951 215.03 145.141C215.882 145.338 216.74 145.272 217.489 145.017C218.232 144.754 218.857 144.287 219.265 143.726C219.679 143.171 219.92 142.566 220.036 142.004C220.269 140.866 220.029 139.939 219.781 139.378C219.519 138.809 219.272 138.575 219.272 138.575C219.25 138.59 219.468 138.845 219.701 139.414C219.92 139.969 220.131 140.88 219.883 141.975C219.759 142.515 219.519 143.091 219.112 143.616C218.719 144.141 218.122 144.572 217.417 144.82C216.711 145.061 215.889 145.112 215.081 144.915C214.274 144.732 213.488 144.28 212.92 143.587L212.738 143.762C213.044 144.025 213.168 144.455 213.153 144.893C213.146 145.33 213.029 145.783 212.884 146.228C212.578 147.11 212.229 148.073 211.48 148.664C210.84 149.175 209.966 149.182 209.195 149.022C208.409 148.861 207.675 148.562 207.034 148.154C205.739 147.344 204.808 146.147 204.335 144.915L204.168 144.477L204.117 144.944C204.044 145.6 203.68 146.162 203.236 146.563C202.778 146.965 202.247 147.22 201.723 147.344C201.199 147.475 200.683 147.453 200.217 147.373C199.751 147.293 199.337 147.147 198.98 146.986C198.26 146.658 197.758 146.286 197.416 146.031C197.081 145.768 196.907 145.622 196.899 145.63L196.885 145.622Z" fill="white"/>
<path d="M211.618 152.655C211.618 152.655 211.662 152.794 211.822 152.991C211.975 153.188 212.244 153.45 212.637 153.669C213.03 153.881 213.561 154.078 214.186 154.012C214.492 153.975 214.834 153.844 215.059 153.552C215.278 153.282 215.401 152.852 215.198 152.48L214.979 152.626C214.979 152.626 215.023 152.67 215.038 152.699C215.969 153.808 217.322 154.158 218.224 154.129C218.683 154.121 219.047 154.034 219.287 153.954C219.527 153.866 219.65 153.8 219.643 153.786C219.629 153.735 219.105 153.968 218.224 153.946C217.366 153.932 216.1 153.56 215.241 152.531C215.22 152.509 215.205 152.487 215.183 152.465L214.332 151.488L214.965 152.611C215.096 152.852 215.023 153.173 214.856 153.392C214.688 153.611 214.412 153.727 214.15 153.771C213.604 153.844 213.095 153.684 212.717 153.509C211.945 153.122 211.654 152.626 211.618 152.662V152.655Z" fill="white"/>
<path d="M201.519 160.059C201.519 160.103 201.905 160.037 202.516 160.067C203.12 160.096 203.964 160.271 204.764 160.738C205.565 161.205 206.125 161.861 206.452 162.379C206.78 162.897 206.911 163.262 206.954 163.247C206.983 163.247 206.918 162.846 206.62 162.284C206.321 161.723 205.754 161.008 204.91 160.512C204.066 160.016 203.164 159.87 202.531 159.884C201.89 159.899 201.519 160.03 201.527 160.059H201.519Z" fill="#EB996E"/>
<path d="M189.98 152.349C189.98 152.392 190.3 152.349 190.788 152.378C191.275 152.407 191.952 152.546 192.599 152.925C193.24 153.304 193.698 153.822 193.967 154.231C194.236 154.639 194.353 154.938 194.389 154.924C194.418 154.917 194.367 154.596 194.127 154.136C193.887 153.684 193.422 153.1 192.73 152.692C192.039 152.29 191.304 152.174 190.795 152.188C190.279 152.203 189.973 152.32 189.98 152.349Z" fill="#EB996E"/>
<path d="M187.601 165.859C187.601 165.859 187.732 165.83 187.907 165.801C188.081 165.764 188.329 165.757 188.591 165.83C189.114 165.983 189.536 166.253 189.58 166.18C189.609 166.136 189.275 165.764 188.656 165.574C188.343 165.494 188.038 165.531 187.841 165.625C187.645 165.72 187.572 165.837 187.594 165.866L187.601 165.859Z" fill="#EB996E"/>
<path d="M186.357 165.954C186.415 166.005 186.721 165.735 187.135 165.472C187.55 165.203 187.921 165.035 187.899 164.962C187.885 164.896 187.441 164.955 186.99 165.246C186.539 165.538 186.291 165.91 186.35 165.954H186.357Z" fill="#EB996E"/>
<path d="M171.886 153.151C171.886 153.151 171.514 153.078 170.845 153.195C170.19 153.311 169.215 153.611 168.277 154.413C167.346 155.194 166.545 156.609 166.611 158.279C166.633 159.935 167.76 161.715 169.55 162.438C170.438 162.81 171.427 162.831 172.293 162.605C173.166 162.386 173.923 161.949 174.541 161.416C175.785 160.344 176.382 158.841 176.316 157.601C176.273 156.353 175.742 155.442 175.298 154.938C174.847 154.42 174.498 154.267 174.483 154.282C174.454 154.318 174.759 154.537 175.138 155.062C175.509 155.58 175.945 156.456 175.945 157.601C175.96 158.732 175.378 160.081 174.228 161.044C173.108 161.993 171.34 162.62 169.747 161.949C168.153 161.307 167.135 159.738 167.091 158.257C167.011 156.755 167.687 155.449 168.524 154.69C169.368 153.91 170.278 153.574 170.896 153.399C171.522 153.224 171.893 153.202 171.886 153.158V153.151Z" fill="#455A64"/>
<path d="M95.5927 240.896C82.3728 251.189 80.3575 267.516 79.4553 276.883C78.5531 286.249 71.3211 323.702 71.3211 323.702C71.3211 323.702 56.2095 347.229 50.7891 357.201C45.3688 367.166 34.5353 387.994 34.5353 387.994L52.6444 399.221C52.6444 399.221 85.1812 354.823 90.8999 346.062C96.6259 337.3 125.816 263.54 125.816 263.54L95.5855 240.911L95.5927 240.896Z" fill="#263238"/>
<path d="M138.643 265.166C139.552 266.917 163.562 326.328 162.936 332.267C162.311 338.205 132.371 399.206 132.371 399.206L110.231 389.803L132.997 339.146L133.623 332.186L112.414 291.932L119.275 262.227L138.636 265.166H138.643Z" fill="#263238"/>
<path d="M122.869 272.972C122.964 273.016 120.461 278.991 117.274 286.315C114.087 293.647 111.425 299.556 111.33 299.512C111.235 299.468 113.738 293.493 116.925 286.162C120.112 278.83 122.775 272.929 122.869 272.965V272.972Z" fill="#455A64"/>
<path d="M141.917 334.236C141.953 334.324 140.033 334.783 137.733 334.214C135.427 333.667 133.928 332.383 133.994 332.325C134.059 332.223 135.602 333.324 137.821 333.85C140.033 334.397 141.91 334.127 141.917 334.244V334.236Z" fill="#455A64"/>
<path d="M140.964 340.08C140.92 340.189 139.327 339.598 137.268 339.234C135.216 338.854 133.514 338.847 133.514 338.738C133.506 338.643 135.238 338.475 137.341 338.862C139.443 339.234 141.008 340 140.964 340.087V340.08Z" fill="#455A64"/>
<path d="M101.435 252.028C101.435 252.028 101.297 252.182 101.006 252.408C100.715 252.634 100.271 252.94 99.7108 253.283C98.5831 253.969 96.9388 254.786 95.0035 255.369C93.0681 255.946 91.2419 256.179 89.925 256.223C89.2629 256.245 88.7318 256.238 88.368 256.208C87.997 256.179 87.8005 256.157 87.8005 256.128C87.8005 256.062 88.6154 256.07 89.9105 255.953C91.2056 255.844 92.9954 255.566 94.8943 254.997C96.7933 254.421 98.4303 253.67 99.5799 253.042C100.729 252.422 101.399 251.97 101.435 252.021V252.028Z" fill="#455A64"/>
<path d="M179.161 191.465L198.536 216.545L239.178 233.237L234.856 241.932L182.901 224.147L165.89 189.182L179.161 191.465Z" fill="#455A64"/>
<g opacity="0.2">
<path d="M179.161 191.465L198.536 216.545L239.178 233.237L234.856 241.932L182.901 224.147L165.89 189.182L179.161 191.465Z" fill="black"/>
</g>
<path d="M160.31 176.619C159.48 175.78 159.444 174.438 160.23 173.555L162.878 170.586C163.235 170.112 163.897 170.01 164.377 170.353C168.066 173.03 182.028 183.659 181.999 186.701C181.962 190.152 176.047 193.617 176.047 193.617L160.317 176.612L160.31 176.619Z" fill="#455A64"/>
<path d="M151.077 195.171C151.077 195.171 177.022 231.121 183.788 235.272C190.555 239.423 233.045 245.273 233.045 245.273L234.696 232.675L193.712 219.5C193.712 219.5 166.974 179.99 166.29 178.852C165.607 177.714 160.332 173.446 154.511 174.19C148.691 174.934 145.737 184.148 147.745 188.707C148.509 190.443 151.084 195.178 151.084 195.178L151.077 195.171Z" fill="#455A64"/>
<path d="M160.484 174.234C160.484 174.234 153.02 171.01 145.853 177.714C142.019 181.303 106.921 230.61 104.447 233.915L94.3632 240.896C111.228 256.464 124.295 269.486 142.288 274.009L151.659 243.537L180.449 217.26L160.492 174.227L160.484 174.234Z" fill="#455A64"/>
<path d="M148.269 191.465C148.269 191.465 148.371 191.574 148.531 191.8C148.712 192.063 148.938 192.399 149.215 192.807C149.797 193.683 150.662 194.945 151.746 196.484C153.907 199.57 157.036 203.735 160.666 208.192C164.297 212.65 167.695 216.596 170.154 219.463C171.354 220.871 172.337 222.017 173.05 222.863C173.362 223.242 173.624 223.549 173.828 223.797C174.003 224.015 174.09 224.132 174.075 224.139C174.061 224.147 173.959 224.045 173.77 223.848C173.552 223.614 173.275 223.322 172.94 222.958C172.198 222.133 171.187 221.01 169.95 219.638C167.447 216.822 164.013 212.898 160.375 208.433C156.745 203.969 153.638 199.767 151.528 196.637C150.473 195.076 149.644 193.792 149.098 192.887C148.843 192.464 148.64 192.121 148.472 191.844C148.334 191.603 148.269 191.472 148.276 191.465H148.269Z" fill="#263238"/>
<path d="M234.689 232.667C234.689 232.667 234.616 232.653 234.485 232.616C234.333 232.572 234.136 232.507 233.889 232.434C233.35 232.259 232.579 232.003 231.59 231.682C229.574 231.011 226.664 230.041 223.026 228.83C215.714 226.364 205.47 222.907 193.647 218.916L193.589 218.894L193.552 218.843C190.897 214.911 188.052 210.702 185.12 206.354C180.609 199.664 176.316 193.289 172.409 187.489C170.459 184.586 168.604 181.835 166.873 179.253C166.429 178.611 166.043 177.954 165.556 177.407C165.323 177.123 165.039 176.889 164.763 176.656C164.486 176.43 164.232 176.167 163.933 175.97C162.769 175.146 161.474 174.657 160.208 174.387C157.632 173.979 155.202 174.548 153.42 175.605C151.615 176.649 150.422 178.064 149.68 179.326C149.389 179.997 149.047 180.566 148.923 181.12C148.763 181.66 148.611 182.12 148.589 182.514C148.494 183.163 148.451 183.477 148.414 183.688C148.392 183.688 148.429 183.28 148.509 182.499C148.523 182.105 148.662 181.638 148.814 181.091C148.923 180.522 149.258 179.946 149.549 179.26C150.277 177.969 151.477 176.51 153.311 175.43C155.115 174.336 157.603 173.73 160.252 174.132C161.561 174.402 162.893 174.898 164.101 175.744C164.406 175.941 164.668 176.211 164.959 176.444C165.243 176.685 165.534 176.926 165.781 177.225C166.298 177.801 166.683 178.465 167.127 179.1C168.873 181.675 170.736 184.425 172.693 187.321C176.607 193.113 180.907 199.482 185.426 206.172C188.358 210.52 191.195 214.736 193.851 218.668L193.756 218.595C205.557 222.637 215.787 226.138 223.092 228.64C226.715 229.895 229.611 230.902 231.619 231.595C232.601 231.945 233.358 232.215 233.896 232.405C234.143 232.492 234.333 232.565 234.478 232.624C234.609 232.675 234.675 232.704 234.675 232.704L234.689 232.667Z" fill="#263238"/>
<path d="M165.89 216.545C165.89 216.545 165.774 216.735 165.512 217.041C165.257 217.347 164.85 217.763 164.333 218.252C163.293 219.237 161.736 220.47 159.83 221.549C157.923 222.622 156.061 223.315 154.686 223.694C153.995 223.884 153.434 224.015 153.041 224.074C152.649 224.139 152.43 224.168 152.423 224.139C152.408 224.081 153.267 223.877 154.606 223.432C155.944 222.994 157.763 222.264 159.648 221.207C161.525 220.149 163.082 218.96 164.159 218.041C165.235 217.121 165.847 216.487 165.89 216.53V216.545Z" fill="#263238"/>
<path d="M149.171 238.285C149.171 238.285 148.727 238.372 147.905 238.453C147.09 238.547 145.904 238.62 144.434 238.671C141.502 238.766 137.428 238.628 132.99 237.927C128.559 237.22 124.637 236.082 121.88 235.075C120.497 234.572 119.399 234.134 118.649 233.791C117.9 233.455 117.493 233.258 117.5 233.237C117.507 233.215 117.936 233.361 118.708 233.652C119.472 233.951 120.585 234.353 121.974 234.82C124.746 235.753 128.646 236.84 133.055 237.548C137.464 238.248 141.51 238.423 144.434 238.394C145.897 238.38 147.083 238.343 147.898 238.299C148.712 238.263 149.171 238.248 149.171 238.277V238.285Z" fill="#263238"/>
<path d="M150.168 233.864C150.175 233.908 149.411 234.148 148.138 234.367C146.864 234.586 145.075 234.761 143.103 234.681C141.124 234.601 139.356 234.287 138.105 233.966C136.853 233.645 136.111 233.346 136.126 233.302C136.14 233.244 136.911 233.455 138.17 233.703C139.421 233.959 141.175 234.221 143.125 234.302C145.075 234.375 146.835 234.251 148.109 234.097C149.382 233.944 150.16 233.798 150.175 233.857L150.168 233.864Z" fill="#263238"/>
<g opacity="0.2">
<path d="M152.787 198.213L164.421 218.004C164.421 218.004 157.88 222.681 155.151 223.417C155.151 223.417 161.147 221.747 165.89 219.383L172.024 222.17L152.787 198.22V198.213Z" fill="black"/>
</g>
<g opacity="0.2">
<path d="M145.744 238.416C141.895 240.502 137.028 241.326 132.466 240.684C127.897 240.035 123.677 237.927 120.934 234.907C120.934 234.907 130.429 237.496 134.074 237.905C137.719 238.314 145.744 238.416 145.744 238.416Z" fill="black"/>
</g>
<path d="M107.081 242.859C107.11 242.975 105.262 243.231 103.414 244.471C102.126 245.302 101.253 246.331 100.824 246.842L100.678 246.739C100.889 246.499 101.02 246.375 101.05 246.397C101.079 246.419 100.999 246.572 100.824 246.849L100.678 246.747C101.013 246.163 101.864 245.025 103.203 244.164C105.146 242.866 107.096 242.771 107.081 242.866V242.859Z" fill="#263238"/>
<path d="M116.663 250.664C116.743 250.716 115.819 252.182 114.269 253.626C112.72 255.078 111.199 255.895 111.148 255.807C111.09 255.713 112.494 254.764 114.007 253.349C115.528 251.934 116.568 250.599 116.663 250.664Z" fill="#263238"/>
<path d="M126.791 259.214C126.878 259.258 126.092 260.877 124.637 262.526C123.197 264.189 121.698 265.181 121.647 265.101C121.574 265.014 122.942 263.905 124.353 262.278C125.772 260.658 126.689 259.156 126.791 259.214Z" fill="#263238"/>
<path d="M137.435 263.475C137.53 263.475 137.384 265.262 136.482 267.246C135.587 269.238 134.343 270.514 134.278 270.449C134.19 270.376 135.274 269.019 136.14 267.093C137.02 265.167 137.326 263.46 137.442 263.482L137.435 263.475Z" fill="#263238"/>
<path d="M163.024 175.211C162.98 175.19 163.06 174.905 163.293 174.482C163.526 174.066 163.962 173.526 164.588 173.125C165.214 172.717 165.847 172.52 166.305 172.403C166.763 172.293 167.054 172.272 167.069 172.323C167.113 172.447 165.956 172.717 164.792 173.446C163.635 174.197 163.133 175.284 163.024 175.219V175.211Z" fill="#263238"/>
<path d="M168.109 180.216C168.022 180.179 168.502 179.027 169.652 178.042C170.794 177.05 172.009 176.743 172.024 176.838C172.067 176.948 170.969 177.393 169.899 178.334C168.815 179.26 168.204 180.274 168.109 180.216Z" fill="#263238"/>
<path d="M178.106 182.324C178.193 182.36 177.466 183.907 175.989 185.373C174.519 186.847 172.977 187.569 172.94 187.482C172.882 187.379 174.301 186.533 175.72 185.103C177.153 183.688 178.004 182.266 178.106 182.324Z" fill="#263238"/>
<path d="M234.129 233.222L240.008 225.139L244.359 224.183L253.766 222.265C253.766 222.265 254.865 222.921 253.533 224.57L252.776 225.19L256.422 225.095C256.422 225.095 256.633 226.824 254.755 227.794L248.615 229.582L246.301 230.282C246.301 230.282 251.147 230.617 252.827 230.012C254.515 229.407 256.014 229.479 256.014 229.479C256.014 229.479 257.025 230.515 255.774 231.858C254.523 233.2 250.841 233.608 249.968 233.827C249.095 234.046 245.988 234.119 245.988 234.119C245.988 234.119 247.218 234.943 249.313 234.922C251.409 234.9 253.57 234.965 253.57 234.965C253.57 234.965 253.679 236.964 252.398 237.358C251.118 237.745 245.479 237.643 245.479 237.643L243.922 238.496C243.922 238.496 239.768 242.888 238.305 243.515C236.85 244.143 233.03 245.273 233.03 245.273L234.122 233.222H234.129Z" fill="#FFBE9D"/>
<path d="M253.264 225.307C253.279 225.35 252.755 225.628 251.852 225.956C250.95 226.284 249.67 226.649 248.222 226.882C246.774 227.108 245.435 227.152 244.482 227.116C243.522 227.079 242.932 226.977 242.94 226.933C242.94 226.817 245.304 226.97 248.164 226.51C251.023 226.073 253.228 225.197 253.271 225.314L253.264 225.307Z" fill="#EB996E"/>
<path d="M328.8 381.034C328.8 381.034 313.317 363.169 307.475 345.296C301.633 327.43 304.405 329.48 304.405 329.48C304.405 329.48 312.291 346.835 318.279 355.217C324.267 363.599 334.933 375.906 334.933 375.906L328.8 381.034Z" fill="#455A64"/>
<path d="M331.885 332.267C331.383 331.391 330.059 331.851 330.204 332.843C331.15 339.117 333.187 353.846 333.107 363.402C333.005 375.811 333.107 380.611 333.107 380.611H339.553C339.553 380.611 338.411 354.962 336.956 347.134C335.937 341.648 333.769 335.564 331.885 332.267Z" fill="#455A64"/>
<path d="M335.399 378.517C335.399 378.517 339.451 369.968 340.703 359.222C341.234 354.655 340.288 348.484 338.877 340.24C338.193 336.25 338.04 333.215 338.062 331.107C338.076 329.517 340.172 328.999 340.95 330.385C341.729 331.778 343.977 336.527 344.552 339.511C346.109 347.645 347.877 351.708 346.531 359.426C345.177 367.144 340.186 379.028 340.186 379.028L335.399 378.51V378.517Z" fill="#455A64"/>
<path d="M341.205 379.043C341.205 379.043 358.208 342.414 359.38 336.98C360.558 331.545 364.567 319.019 365.033 319.734C365.506 320.442 366.212 327.058 363.148 334.616C360.085 342.174 347.004 380.159 347.004 380.159H341.198" fill="#455A64"/>
<path d="M333.536 377.402C333.536 377.402 333.362 377.299 333.063 377.073C332.765 376.847 332.307 376.519 331.747 376.067C330.612 375.177 329.025 373.82 327.177 372.025C323.467 368.45 318.847 362.943 314.845 356.151C310.836 349.367 308.137 342.728 306.427 337.87C305.569 335.44 304.95 333.449 304.543 332.063C304.332 331.37 304.194 330.83 304.092 330.465C303.997 330.1 303.946 329.903 303.961 329.903C303.975 329.903 304.041 330.086 304.164 330.443C304.295 330.837 304.463 331.362 304.681 332.019C305.125 333.39 305.787 335.367 306.675 337.782C308.443 342.611 311.171 349.206 315.165 355.969C319.152 362.731 323.714 368.239 327.367 371.843C329.185 373.659 330.742 375.038 331.841 375.957C332.387 376.431 332.823 376.767 333.114 377.015C333.405 377.256 333.551 377.394 333.544 377.402H333.536Z" fill="#263238"/>
<path d="M335.399 359.827C335.399 359.827 335.319 359.448 335.246 358.755C335.166 357.996 335.057 357.012 334.933 355.815C334.664 353.335 334.242 349.921 333.645 346.164C333.042 342.407 332.372 339.029 331.856 336.593C331.601 335.425 331.397 334.455 331.237 333.704C331.092 333.025 331.019 332.639 331.048 332.639C331.07 332.639 331.186 333.003 331.375 333.675C331.565 334.346 331.819 335.323 332.11 336.542C332.692 338.971 333.405 342.348 334.009 346.113C334.613 349.877 334.991 353.306 335.195 355.793C335.297 357.041 335.363 358.047 335.392 358.74C335.421 359.441 335.428 359.827 335.406 359.827H335.399Z" fill="#263238"/>
<path d="M339.379 330.107C339.379 330.107 339.459 330.261 339.583 330.574C339.714 330.917 339.881 331.369 340.092 331.938C340.317 332.529 340.572 333.259 340.819 334.12C341.074 334.981 341.401 335.951 341.649 337.052C341.78 337.599 341.925 338.176 342.071 338.774C342.216 339.372 342.318 340.007 342.442 340.656C342.718 341.955 342.893 343.37 343.097 344.843C343.431 347.813 343.613 351.103 343.504 354.553C343.366 358.004 342.951 361.272 342.406 364.212C342.093 365.671 341.823 367.072 341.452 368.348C341.278 368.99 341.132 369.618 340.943 370.201C340.754 370.785 340.572 371.354 340.397 371.886C340.07 372.966 339.677 373.914 339.364 374.753C339.059 375.599 338.746 376.307 338.484 376.876C338.237 377.423 338.033 377.861 337.88 378.197C337.742 378.496 337.662 378.649 337.647 378.649C337.633 378.649 337.691 378.481 337.815 378.167C337.953 377.824 338.135 377.379 338.353 376.825C338.6 376.249 338.891 375.534 339.175 374.688C339.466 373.841 339.844 372.9 340.157 371.813C340.325 371.273 340.499 370.712 340.674 370.128C340.849 369.537 340.987 368.917 341.161 368.275C341.518 366.999 341.78 365.613 342.078 364.154C342.602 361.228 343.002 357.975 343.14 354.546C343.249 351.117 343.075 347.849 342.762 344.887C342.566 343.414 342.405 342.006 342.144 340.714C342.02 340.065 341.925 339.431 341.794 338.832C341.656 338.234 341.525 337.658 341.401 337.111C341.176 336.009 340.863 335.039 340.63 334.178C340.405 333.31 340.165 332.58 339.961 331.982C339.779 331.413 339.626 330.954 339.517 330.604C339.422 330.283 339.372 330.115 339.386 330.115L339.379 330.107Z" fill="#263238"/>
<path d="M364.844 320.463C364.844 320.463 364.844 320.522 364.829 320.631C364.807 320.762 364.785 320.916 364.756 321.105C364.684 321.521 364.589 322.141 364.422 322.929C364.094 324.505 363.549 326.774 362.697 329.524C361.853 332.274 360.689 335.506 359.314 339.044C357.946 342.589 356.346 346.456 354.84 350.57C353.304 354.677 352.126 358.682 351.02 362.322C349.921 365.963 348.881 369.231 347.869 371.923C346.873 374.622 345.912 376.752 345.185 378.189C344.836 378.911 344.523 379.459 344.319 379.831C344.224 379.998 344.144 380.137 344.079 380.246C344.021 380.341 343.992 380.385 343.984 380.385C343.984 380.385 343.999 380.327 344.042 380.232C344.101 380.115 344.166 379.969 344.246 379.794C344.428 379.415 344.719 378.86 345.046 378.131C345.73 376.679 346.654 374.542 347.615 371.843C348.59 369.143 349.601 365.875 350.685 362.228C351.776 358.587 352.948 354.568 354.49 350.446C356.004 346.324 357.604 342.465 358.994 338.927C360.384 335.396 361.57 332.187 362.443 329.451C363.323 326.715 363.905 324.468 364.276 322.9C364.465 322.119 364.582 321.507 364.676 321.091C364.72 320.901 364.756 320.748 364.785 320.624C364.815 320.522 364.829 320.463 364.836 320.463H364.844Z" fill="#263238"/>
<path d="M312.422 312.373C311.353 311.308 309.57 312.424 310.014 313.869C310.465 315.335 311.142 317.232 312.153 319.376C314.489 324.359 321.357 342.224 324.566 352.036C327.781 361.848 332.307 380.159 332.307 380.159L339.168 379.043C339.168 379.043 332.889 348.965 326.756 338.125C321.83 329.414 316.897 316.83 312.422 312.373Z" fill="#455A64"/>
<path d="M326.443 358.171C326.443 358.171 326.588 358.456 326.799 358.996C327.003 359.536 327.279 360.323 327.592 361.308C328.225 363.271 328.996 366.014 329.775 369.056C330.553 372.105 331.201 374.877 331.652 376.883C331.856 377.832 332.03 378.634 332.169 379.269C332.285 379.83 332.336 380.151 332.307 380.151C332.285 380.151 332.183 379.852 332.03 379.298C331.863 378.671 331.652 377.883 331.405 376.942C330.881 374.87 330.19 372.149 329.426 369.143C328.647 366.101 327.912 363.358 327.345 361.381C327.076 360.447 326.843 359.667 326.668 359.04C326.501 358.485 326.428 358.179 326.45 358.171H326.443Z" fill="#263238"/>
<path d="M335.756 379.597C335.756 379.597 335.734 379.539 335.719 379.415C335.697 379.269 335.676 379.094 335.639 378.875C335.566 378.401 335.501 377.693 335.355 376.789C335.101 374.979 334.657 372.375 333.915 369.202C333.18 366.021 332.11 362.286 330.706 358.208C329.302 354.13 327.534 349.724 325.533 345.172C321.495 336.067 317.465 327.992 314.816 322.017C313.477 319.041 312.437 316.604 311.753 314.912C311.404 314.066 311.157 313.402 310.982 312.957C310.902 312.745 310.844 312.577 310.793 312.446C310.749 312.329 310.735 312.271 310.742 312.264C310.742 312.264 310.778 312.315 310.829 312.431C310.887 312.563 310.96 312.731 311.055 312.928C311.258 313.394 311.535 314.036 311.891 314.861C312.612 316.539 313.688 318.953 315.056 321.915C317.763 327.853 321.83 335.907 325.875 345.033C327.876 349.6 329.637 354.013 331.034 358.113C332.431 362.206 333.478 365.963 334.177 369.158C334.882 372.353 335.297 374.972 335.508 376.789C335.632 377.693 335.676 378.408 335.719 378.882C335.734 379.101 335.748 379.283 335.763 379.429C335.77 379.553 335.77 379.619 335.763 379.619L335.756 379.597Z" fill="#263238"/>
<path d="M339.168 379.043C339.168 379.043 339.059 378.634 338.935 377.89C338.797 377.08 338.622 376.015 338.404 374.724C337.931 372.061 337.211 368.385 336.17 364.387C335.144 360.389 333.988 356.829 333.093 354.269C332.656 353.036 332.292 352.022 332.023 351.249C331.768 350.534 331.638 350.14 331.659 350.125C331.681 350.118 331.856 350.497 332.154 351.197C332.452 351.898 332.86 352.912 333.34 354.181C334.293 356.72 335.494 360.28 336.527 364.292C337.567 368.304 338.251 371.996 338.659 374.673C338.855 376.015 339 377.102 339.081 377.861C339.161 378.612 339.197 379.035 339.175 379.035L339.168 379.043Z" fill="#263238"/>
<path d="M353.246 378.05H326.464V410.769H353.246V378.05Z" fill="#415FE9"/>
<g opacity="0.3">
<path d="M353.246 378.05H326.464V410.769H353.246V378.05Z" fill="black"/>
</g>
<path d="M344.705 378.05H320.942V410.769H344.705V378.05Z" fill="#415FE9"/>
</svg>
