<svg width="328" height="304" viewBox="0 0 328 304" fill="none" xmlns="http://www.w3.org/2000/svg">
<path d="M257.198 251.239C261.042 251.305 270.731 251.469 274.444 251.515H280.263H280.558V251.213V243.872V243.544H280.23L268.698 243.59C265.824 243.59 260.038 243.682 257.165 243.722H257.008V243.872L257.165 251.213L257.198 251.239ZM257.198 251.239L257.355 243.899L257.198 244.056C260.078 244.095 265.857 244.161 268.73 244.187L280.263 244.227L279.935 243.899V251.239L280.237 250.944H274.523C270.869 250.99 260.957 251.154 257.172 251.213L257.198 251.239Z" fill="#888EA8"/>
<path d="M220.022 172.893C223.867 172.965 233.556 173.123 237.269 173.169H243.087H243.376V172.867L243.415 165.592V165.257H243.087L231.555 165.297C228.682 165.297 222.896 165.389 220.022 165.428H219.865V165.592L220.022 172.926V172.893ZM220.022 172.893L220.18 165.592L220.022 165.743C222.896 165.782 228.675 165.848 231.555 165.874L243.087 165.913L242.759 165.592V172.926L243.061 172.631H237.347C233.687 172.677 223.775 172.841 219.996 172.9L220.022 172.893Z" fill="#888EA8"/>
<path d="M270.062 260.495C273.906 260.561 283.595 260.725 287.308 260.771H293.127H293.422V260.469V253.128V252.84H293.094L281.562 252.886C278.695 252.886 272.903 252.971 270.029 253.017H269.872V253.168L270.023 260.508L270.062 260.495ZM270.062 260.495L270.22 253.155L270.062 253.312C272.942 253.352 278.721 253.417 281.595 253.443L293.127 253.496L292.799 253.168V260.508L293.101 260.213H287.387C283.733 260.259 273.821 260.423 270.036 260.482L270.062 260.495Z" fill="#888EA8"/>
<path d="M103.176 95.5049C107.013 95.5705 116.702 95.7345 120.422 95.7805H126.234H126.536V95.4787V88.1381V87.8101H126.201L114.675 87.856C111.802 87.856 106.01 87.9478 103.143 87.9872H102.992V88.184L103.149 95.5246L103.176 95.5049ZM103.176 95.5049L103.327 88.184L103.176 88.3414C106.049 88.3808 111.828 88.4464 114.708 88.4726L126.234 88.512L125.913 88.184V95.5246L126.208 95.2294H120.494C116.84 95.2753 106.928 95.4393 103.149 95.4984L103.176 95.5049Z" fill="#888EA8"/>
<path d="M116.04 104.761C119.884 104.826 129.573 104.99 133.286 105.036H139.105H139.4V104.735L139.433 97.3939V97.0659H139.105L127.572 97.1118C124.699 97.1118 118.913 97.1971 116.04 97.243H115.882V97.3939L116.04 104.735V104.761ZM116.04 104.761L116.197 97.4202L116.04 97.5776C118.92 97.617 124.693 97.6826 127.572 97.7088L139.105 97.7482L138.777 97.4202V104.761L139.079 104.466H133.365C129.704 104.512 119.792 104.676 116.014 104.735L116.04 104.761Z" fill="#888EA8"/>
<path d="M128.852 95.5049C132.696 95.5705 142.385 95.7345 146.098 95.7805H151.917H152.192V95.4787V88.1381V87.8101H151.864L140.332 87.856C137.465 87.856 131.672 87.9478 128.799 87.9872H128.642V88.184L128.793 95.5246L128.852 95.5049ZM128.852 95.5049L129.009 88.184L128.852 88.3414C131.732 88.3808 137.511 88.4464 140.384 88.4726L151.917 88.512L151.589 88.184L151.621 95.5246L151.917 95.2294H146.203C142.549 95.2753 132.637 95.4393 128.852 95.4984V95.5049Z" fill="#888EA8"/>
<path d="M34.8729 260.495C38.7171 260.561 48.4062 260.725 52.1192 260.771H57.9379H58.2331V260.469L58.2659 253.128V252.84H57.9379L46.4054 252.886C43.5321 252.886 37.7462 252.971 34.8729 253.017H34.7155V253.168L34.8729 260.508V260.495ZM34.8729 260.495L35.0303 253.155L34.8729 253.312C37.7527 253.352 43.5255 253.417 46.4054 253.443L57.9379 253.483L57.6099 253.155V260.495L57.9116 260.2H52.1979C48.5374 260.246 38.6252 260.41 34.8467 260.469L34.8729 260.495Z" fill="#888EA8"/>
<path d="M47.7372 33.8145C51.5813 33.8801 61.2704 34.0441 64.9834 34.09H70.8021H71.0973V33.7883L71.1301 26.4476V26.1196H70.8021L59.2697 26.1655C56.3964 26.1655 50.6104 26.2508 47.7372 26.2967H47.5797V26.4476L47.7372 33.7883V33.8145ZM47.7372 33.8145L47.8881 26.4739L47.7306 26.6313L53.4968 26.7035C57.1573 26.7559 67.0105 26.7887 70.7956 26.8019L70.4676 26.4739V33.8145L70.7693 33.5193H65.0556C61.4017 33.5587 51.4895 33.7292 47.7044 33.7883L47.7372 33.8145Z" fill="#888EA8"/>
<path d="M34.8729 43.0709C38.7171 43.1365 48.4062 43.3005 52.1192 43.3464H57.9379H58.2331V43.0446L58.2659 35.704V35.376H57.9379L46.4054 35.4219C43.5321 35.4219 37.7462 35.5072 34.8729 35.5531H34.7155V35.704L34.8729 43.0446V43.0709ZM34.8729 43.0709L35.0303 35.704L34.8729 35.8614C37.7527 35.9008 43.5255 35.9664 46.4054 35.9861L57.9379 36.032L57.6099 35.704V43.0446L57.9116 42.7494H52.1979C48.5374 42.7888 38.6252 42.9593 34.8467 43.0184L34.8729 43.0709Z" fill="#888EA8"/>
<path d="M257.198 33.8145C261.042 33.8801 270.731 34.0441 274.444 34.09H280.263H280.558V33.7883V26.4476V26.1196H280.23L268.698 26.1655C265.824 26.1655 260.038 26.2508 257.165 26.2967H257.008V26.4476L257.165 33.7883L257.198 33.8145ZM257.198 33.8145L257.355 26.4739L257.198 26.6313C260.078 26.6707 265.857 26.7363 268.73 26.7559L280.263 26.8019L279.935 26.4739V33.8145L280.237 33.5193H274.523C270.869 33.5587 260.957 33.7292 257.172 33.7883L257.198 33.8145Z" fill="#888EA8"/>
<path d="M41.0722 40.6367H84.5847V84.1492H41.0722V40.6367Z" fill="#6B7280"/>
<path d="M86.8479 38.3735V86.419H38.809V38.3735H86.8479ZM84.5847 40.6367H41.0657V84.1558H84.5847V40.6367Z" fill="#DBDBDB"/>
<path d="M47.5403 75.7262V60.6841H81.4555V75.7262H47.5403Z" fill="#888EA8"/>
<path d="M54.1396 71.082V53.7046H71.5171V71.082H54.1396Z" fill="#506690"/>
<path d="M88.7044 86.4189H86.8479V38.3735H88.7044V86.4189Z" fill="#506690"/>
<path d="M41.0722 102.426H84.5847V145.938H41.0722V102.426Z" fill="#6B7280"/>
<path d="M48.5507 109.386H59.9126V142.205H48.5507V109.386Z" fill="#506690"/>
<path d="M86.8479 100.162V148.201H38.809V100.162H86.8479ZM84.5847 102.425H41.0657V145.912H84.5847V102.425Z" fill="#DBDBDB"/>
<path d="M54.133 115.493H71.5105V132.871H54.133V115.493Z" fill="#888EA8"/>
<path d="M88.7044 148.201H86.8479V100.156H88.7044V148.201Z" fill="#506690"/>
<path d="M41.0722 164.214H84.5847V207.727H41.0722V164.214Z" fill="#6B7280"/>
<path d="M45.8938 170.145H69.7722V184.419H45.8938V170.145Z" fill="#888EA8"/>
<path d="M86.8479 161.951V209.99H38.809V161.951H86.8479ZM84.5847 164.214H41.0657V207.727H84.5847V164.214Z" fill="#DBDBDB"/>
<path d="M54.133 177.282H71.5105V194.659H54.133V177.282Z" fill="#506690"/>
<path d="M88.7044 209.99H86.8479V161.944H88.7044V209.99Z" fill="#506690"/>
<path d="M286.318 33.1914V194.377H181.548V33.1914H286.318ZM282.447 37.0618H185.418V190.52H282.447V37.0618Z" fill="#888EA8"/>
<path d="M185.412 37.0615H282.447V190.513H185.412V37.0615Z" fill="#6B7280"/>
<path d="M185.412 111.852H282.447V115.716H185.412V111.852Z" fill="#888EA8"/>
<path d="M174.424 194.377H293.429V205.47H174.424V194.377Z" fill="#DBDBDB"/>
<path d="M185.412 136.334H282.447V37.0552H185.412V136.334ZM278.866 132.792H188.994V40.6369H278.866V132.792Z" fill="#DBDBDB"/>
<path d="M249.542 37.0552H251.478V132.759H249.542V37.0552Z" fill="#DBDBDB"/>
<path d="M216.375 37.0552H218.31V132.759H216.375V37.0552Z" fill="#DBDBDB"/>
<path d="M62.4446 212.542C62.4446 212.542 68.7685 207.766 65.9477 205.608C64.9637 204.86 62.7661 207.235 62.4446 209.885C62.1232 207.261 59.9256 204.86 58.9416 205.608C56.1208 207.766 62.4446 212.542 62.4446 212.542Z" fill="#4361EE"/>
<path opacity="0.2" d="M62.4446 212.542C62.4446 212.542 68.7685 207.766 65.9477 205.608C64.9637 204.86 62.7661 207.235 62.4446 209.885C62.1232 207.261 59.9256 204.86 58.9416 205.608C56.1208 207.766 62.4446 212.542 62.4446 212.542Z" fill="black"/>
<path d="M62.4446 212.542C66.2625 212.542 69.0965 209.065 68.2306 207.55C67.2466 205.824 63.8157 209.885 63.8157 209.885C63.8157 209.885 65.1277 204.145 62.4446 204.145C59.7616 204.145 61.0736 209.885 61.0736 209.885C61.0736 209.885 57.6361 205.824 56.6521 207.55C55.76 209.065 58.6267 212.542 62.4446 212.542Z" fill="#4361EE"/>
<path d="M73.2359 253.535L73.8525 267.455C76.1222 267.659 83.8565 265.487 87.5629 261.781C90.3509 258.993 89.6227 250.34 88.0746 239.621C86.5264 228.902 83.4367 227.662 80.8586 228.279C80.2576 228.419 79.6995 228.703 79.2317 229.106C77.8606 230.293 77.2637 232.523 77.0406 235.397C76.7323 239.208 78.2805 249.212 77.8672 251.58C77.821 251.877 77.7093 252.16 77.5402 252.409C77.3712 252.657 77.149 252.865 76.8898 253.017C75.7155 253.745 73.8394 253.535 73.2359 253.535Z" fill="#888EA8"/>
<path d="M51.9026 272.841C51.9026 272.841 62.8841 276.856 74.3247 272.841C74.3247 272.841 73.2423 228.614 71.8516 221.194C70.4609 213.775 67.3121 210.2 62.2674 210.2C61.9409 210.2 61.6147 210.218 61.29 210.252C57.2687 210.679 54.4676 213.762 53.6082 219.633C52.9522 224.133 52.3684 249.015 52.0863 263.1C51.9682 268.879 51.9026 272.841 51.9026 272.841Z" fill="#888EA8"/>
<path d="M38.6581 247.691C42.371 251.397 50.1053 253.595 52.3685 253.358L52.9851 239.438C52.1389 239.438 48.7605 239.851 48.3472 237.47C47.9339 235.089 49.4821 225.098 49.1737 221.287C48.8654 217.475 47.9405 214.792 45.3558 214.169C45.1402 214.117 44.9209 214.082 44.6998 214.064C42.2661 213.828 39.5568 215.684 38.1398 225.511C37.4884 229.702 37.0505 233.923 36.8278 238.159C36.6442 242.731 37.1034 246.129 38.6581 247.691Z" fill="#888EA8"/>
<path d="M62.4446 210.2C62.2723 210.194 62.1032 210.247 61.9657 210.351C61.8254 210.449 61.6976 210.563 61.5852 210.692C61.364 210.944 61.1705 211.219 61.0079 211.512C60.701 212.12 60.4485 212.755 60.2535 213.408C59.8625 214.71 59.5557 216.035 59.3351 217.377C58.8891 220.06 58.6398 222.762 58.4495 225.472C58.2593 228.181 58.1806 230.89 58.1281 233.6L57.9772 241.721C57.9182 247.139 57.8329 252.558 57.8001 257.97L57.7607 266.098C57.7607 268.807 57.7607 271.516 57.7935 274.226C57.9051 271.516 57.9772 268.807 58.0691 266.104L58.279 257.976C58.4102 252.564 58.4889 247.146 58.5939 241.734C58.6988 236.322 58.6595 230.897 58.9153 225.498C59.0531 222.795 59.2499 220.099 59.6303 217.423C59.8044 216.084 60.0652 214.758 60.411 213.454C60.5738 212.802 60.7933 212.165 61.067 211.551C61.2064 211.246 61.3803 210.958 61.5852 210.692C61.6863 210.558 61.8055 210.439 61.9395 210.338C62.0844 210.23 62.2648 210.18 62.4446 210.2Z" fill="#1B2E4B"/>
<path d="M54.4479 273.543C54.5201 270.834 54.5594 268.125 54.6119 265.416L54.73 257.288L54.9334 241.032C54.9596 238.325 55.0033 235.618 55.0646 232.911L55.117 230.877L55.1892 228.857C55.2614 227.505 55.3598 226.154 55.4713 224.803C55.5828 223.451 55.7403 222.113 55.9305 220.775C56.1132 219.438 56.3716 218.113 56.7046 216.806C57.0253 215.495 57.5311 214.235 58.2068 213.067C58.5574 212.49 58.9807 211.961 59.4663 211.492C59.9606 211.031 60.5225 210.649 61.1326 210.357C60.5091 210.63 59.9316 210.997 59.4204 211.446C58.916 211.904 58.4747 212.427 58.1084 213.001C57.3982 214.167 56.857 215.429 56.5012 216.747C55.8036 219.376 55.3361 222.06 55.1039 224.77C54.8284 227.472 54.6404 230.18 54.5398 232.891C54.4392 235.602 54.3736 238.314 54.343 241.025C54.2839 243.735 54.2642 246.444 54.2577 249.153V257.281L54.3299 265.409C54.3561 268.125 54.402 270.834 54.4479 273.543Z" fill="#1B2E4B"/>
<path d="M62.4445 210.2C62.6149 210.2 62.7797 210.261 62.9102 210.37C63.0426 210.473 63.1616 210.592 63.2645 210.724C63.4694 210.99 63.6433 211.279 63.7827 211.584C64.0535 212.199 64.2729 212.835 64.4387 213.486C64.7823 214.791 65.0409 216.117 65.2128 217.455C65.5933 220.132 65.7966 222.828 65.9278 225.53C66.1902 230.929 66.1705 236.348 66.2493 241.766C66.328 247.185 66.4395 252.597 66.5707 258.009L66.7806 266.137C66.8725 268.84 66.9446 271.549 67.0562 274.258C67.0562 271.549 67.0562 268.84 67.0562 266.13L67.0168 258.002C66.984 252.59 66.8987 247.172 66.8397 241.753L66.6888 233.632C66.6429 230.923 66.5707 228.207 66.3739 225.504C66.1771 222.801 65.9278 220.092 65.4883 217.409C65.2647 216.068 64.958 214.743 64.5699 213.44C64.3692 212.789 64.1169 212.155 63.8155 211.544C63.6592 211.239 63.4676 210.953 63.2448 210.692C63.1347 210.563 63.0091 210.448 62.8709 210.351C62.7475 210.258 62.5987 210.205 62.4445 210.2Z" fill="#1B2E4B"/>
<path d="M70.4084 273.543C70.4871 270.834 70.5264 268.125 70.5724 265.409L70.6445 257.281V249.153C70.6445 246.446 70.6161 243.737 70.5592 241.025C70.5024 238.314 70.4368 235.603 70.3625 232.891C70.2619 230.184 70.076 227.477 69.8049 224.77C69.5654 222.064 69.0913 219.384 68.3879 216.76C68.0346 215.441 67.4933 214.179 66.7807 213.014C66.4146 212.44 65.9734 211.917 65.4687 211.46C64.9565 211.012 64.3791 210.645 63.7565 210.371C64.3657 210.663 64.9274 211.046 65.4228 211.505C65.9066 211.976 66.3297 212.505 66.6823 213.08C67.3559 214.249 67.8595 215.508 68.178 216.819C68.5141 218.126 68.7725 219.451 68.952 220.788C69.1488 222.1 69.2932 223.471 69.4112 224.816C69.5293 226.161 69.6277 227.518 69.6933 228.87L69.772 230.89L69.818 232.924C69.8836 235.627 69.9295 238.334 69.9557 241.045L70.1263 257.301L70.2444 265.429C70.2903 268.125 70.3362 270.834 70.4084 273.543Z" fill="#1B2E4B"/>
<path d="M62.4447 274.6C62.5103 271.917 62.5431 269.234 62.5956 266.551L62.6808 258.495C62.7333 253.129 62.7268 247.763 62.753 242.397C62.7792 237.031 62.753 231.658 62.6808 226.292L62.5956 218.243C62.5431 215.56 62.5103 212.877 62.4447 210.187C62.3725 212.877 62.3397 215.56 62.2938 218.243L62.2085 226.292C62.156 231.658 62.156 237.031 62.1364 242.397C62.1167 247.763 62.1363 253.129 62.2085 258.495L62.32 266.551C62.32 269.24 62.3725 271.917 62.4447 274.6Z" fill="#1B2E4B"/>
<path d="M80.865 228.286C80.5872 228.51 80.3382 228.768 80.1237 229.053C79.9156 229.345 79.7417 229.66 79.6055 229.991C79.3431 230.658 79.1603 231.354 79.061 232.064C78.8766 233.478 78.813 234.904 78.8708 236.328C78.9794 239.165 79.24 241.995 79.6514 244.804C79.8713 246.193 80.0202 247.592 80.0975 248.996C80.1932 250.381 80.0893 251.773 79.7892 253.128C79.6322 253.794 79.3542 254.426 78.9692 254.991C78.7841 255.27 78.5636 255.524 78.3132 255.746C78.0583 255.974 77.7763 256.17 77.4735 256.33C76.8539 256.645 76.1906 256.867 75.5055 256.986C74.8495 257.117 74.1148 257.202 73.4063 257.274C74.1168 257.276 74.8268 257.233 75.5317 257.143C76.2479 257.06 76.9471 256.868 77.6047 256.572C78.276 256.263 78.8599 255.792 79.3037 255.201C79.7428 254.611 80.0677 253.943 80.2615 253.233C80.6184 251.833 80.7622 250.386 80.6879 248.943C80.6226 247.52 80.4847 246.101 80.2746 244.692C80.069 243.297 79.8897 241.898 79.7367 240.494C79.5727 239.097 79.4415 237.686 79.3562 236.282C79.2545 234.882 79.2545 233.477 79.3562 232.077C79.4102 231.38 79.5445 230.691 79.7563 230.024C79.9798 229.363 80.3602 228.767 80.865 228.286Z" fill="#1B2E4B"/>
<path d="M81.3438 228.155C81.5692 228.208 81.777 228.319 81.9473 228.476C82.1214 228.628 82.2797 228.797 82.4197 228.981C82.7023 229.35 82.9442 229.748 83.1412 230.169C83.5382 231.012 83.8545 231.89 84.0859 232.793C84.5571 234.592 84.9012 236.423 85.1158 238.27C85.5619 241.97 85.9948 245.683 86.1129 249.422C86.1953 251.271 86.1163 253.124 85.8768 254.959C85.7595 255.86 85.5258 256.742 85.1814 257.583C84.8078 258.404 84.28 259.146 83.6267 259.767C82.2804 261.029 80.7271 262.05 79.0347 262.785C77.3359 263.553 75.5586 264.134 73.7342 264.517C75.5935 264.25 77.4146 263.763 79.1593 263.067C80.9298 262.383 82.5613 261.382 83.9744 260.115C84.6963 259.466 85.2808 258.678 85.6931 257.799C86.0723 256.917 86.3326 255.988 86.4672 255.038C86.729 253.169 86.8212 251.281 86.7427 249.396C86.5723 245.66 86.1912 241.937 85.6012 238.244C85.3358 236.383 84.9279 234.545 84.3811 232.747C84.1026 231.84 83.7402 230.962 83.2987 230.123C83.0762 229.707 82.8101 229.315 82.5049 228.955C82.3483 228.779 82.1748 228.618 81.9867 228.476C81.8046 228.314 81.5828 228.203 81.3438 228.155Z" fill="#1B2E4B"/>
<path d="M45.2639 214.182C45.7683 214.675 46.1463 215.282 46.366 215.953C46.5779 216.62 46.7122 217.309 46.7662 218.006C46.8711 219.406 46.8711 220.811 46.7662 222.211C46.6809 223.615 46.5497 225.019 46.3922 226.423C46.2348 227.826 46.0511 229.224 45.8543 230.621C45.6381 232.029 45.498 233.448 45.4345 234.872C45.3591 236.316 45.5051 237.762 45.8674 239.162C46.0601 239.871 46.3826 240.539 46.8186 241.13C47.0401 241.426 47.298 241.693 47.5862 241.924C47.8725 242.153 48.1852 242.347 48.5177 242.501C49.1755 242.796 49.8746 242.988 50.5906 243.072C51.2955 243.161 52.0055 243.205 52.7161 243.203C52.0141 243.131 51.3057 243.046 50.6169 242.914C49.9327 242.792 49.2699 242.571 48.6489 242.258C48.3461 242.099 48.0641 241.903 47.8092 241.675C47.5602 241.451 47.3399 241.198 47.1532 240.92C46.7702 240.354 46.4945 239.723 46.3398 239.057C46.0364 237.702 45.9325 236.31 46.0314 234.924C46.1065 233.521 46.2532 232.121 46.471 230.733C46.8846 227.923 47.1473 225.094 47.2582 222.257C47.3127 220.833 47.2491 219.407 47.0679 217.993C46.964 217.283 46.7792 216.588 46.5169 215.92C46.3821 215.588 46.2081 215.273 45.9986 214.982C45.7863 214.687 45.5396 214.418 45.2639 214.182Z" fill="#1B2E4B"/>
<path d="M44.8046 214.057C44.5642 214.093 44.3378 214.193 44.1486 214.346C43.9606 214.488 43.787 214.648 43.6304 214.825C43.3274 215.186 43.0614 215.577 42.8366 215.992C42.3939 216.831 42.0315 217.709 41.7542 218.616C41.2097 220.415 40.804 222.253 40.5406 224.114C39.9507 227.807 39.5696 231.53 39.3992 235.266C39.3152 237.15 39.4052 239.039 39.6682 240.907C39.8083 241.858 40.0707 242.786 40.4488 243.669C40.8581 244.548 41.4404 245.336 42.161 245.985C43.5769 247.252 45.2104 248.252 46.9826 248.937C48.7247 249.633 50.5438 250.12 52.4011 250.386C50.5767 250.003 48.7994 249.422 47.1006 248.655C45.407 247.922 43.8533 246.901 42.5086 245.637C41.8534 245.015 41.3234 244.274 40.9474 243.452C40.6052 242.611 40.3737 241.729 40.2586 240.828C40.0125 238.994 39.9334 237.141 40.0224 235.292C40.1339 231.572 40.5669 227.859 41.013 224.14C41.2339 222.293 41.578 220.463 42.0429 218.662C42.2743 217.76 42.5906 216.881 42.9875 216.038C43.1846 215.618 43.4265 215.22 43.7091 214.851C43.8492 214.667 44.0075 214.498 44.1814 214.346C44.3613 214.198 44.5758 214.099 44.8046 214.057Z" fill="#1B2E4B"/>
<path d="M70.4084 217.974C70.0861 218.365 69.7965 218.781 69.5425 219.22C69.4048 219.437 69.2933 219.66 69.1686 219.876C69.044 220.093 68.939 220.316 68.8275 220.532L69.3392 220.466C69.1817 220.276 69.0177 220.086 68.8472 219.902C68.6766 219.719 68.5126 219.528 68.3289 219.358C67.9764 218.993 67.5947 218.657 67.1875 218.354C67.4053 218.814 67.6644 219.253 67.9616 219.666C68.0993 219.876 68.2502 220.073 68.4011 220.276C68.552 220.48 68.7094 220.67 68.8669 220.86L69.1752 221.234L69.3851 220.801C69.49 220.571 69.595 220.348 69.6934 220.145C69.7918 219.942 69.8902 219.679 69.9755 219.443C70.1609 218.966 70.3057 218.475 70.4084 217.974Z" fill="#1B2E4B"/>
<path d="M68.6832 217.252C68.602 217.54 68.5579 217.838 68.552 218.138C68.5398 218.427 68.5508 218.716 68.5848 219.003C68.622 219.289 68.679 219.572 68.7553 219.85C68.8349 220.139 68.9518 220.417 69.103 220.676C69.1867 220.388 69.2329 220.091 69.2408 219.791C69.2506 219.501 69.2374 219.212 69.2014 218.925C69.1667 218.639 69.1097 218.356 69.0309 218.079C68.95 217.79 68.8332 217.512 68.6832 217.252Z" fill="#1B2E4B"/>
<path d="M59.532 260.574C59.1679 260.925 58.8323 261.305 58.5283 261.709C58.3709 261.906 58.2265 262.116 58.0822 262.313L57.6624 262.969H58.1806C58.0494 262.759 57.9051 262.555 57.7608 262.352C57.6165 262.149 57.4656 261.945 57.3081 261.748C56.9971 261.346 56.655 260.969 56.2848 260.62C56.4556 261.098 56.6618 261.563 56.9014 262.011C57.0129 262.24 57.1507 262.45 57.2688 262.667C57.3869 262.883 57.5312 263.1 57.6624 263.323L57.9248 263.73L58.1872 263.316C58.3184 263.106 58.4496 262.89 58.5742 262.66C58.6989 262.431 58.8235 262.227 58.935 262.004C59.1729 261.545 59.3726 261.066 59.532 260.574Z" fill="#1B2E4B"/>
<path d="M57.9051 259.656C57.79 259.933 57.7107 260.224 57.6689 260.522C57.6243 260.806 57.6023 261.093 57.6033 261.381C57.6078 261.671 57.6319 261.96 57.6755 262.247C57.7228 262.543 57.8065 262.831 57.9248 263.106C58.0398 262.829 58.1192 262.538 58.1609 262.24C58.2056 261.956 58.2275 261.669 58.2265 261.381C58.2221 261.091 58.1979 260.802 58.1544 260.515C58.107 260.219 58.0233 259.931 57.9051 259.656Z" fill="#1B2E4B"/>
<path d="M58.8495 208.167C58.673 208.642 58.5369 209.131 58.4428 209.629C58.3904 209.879 58.3576 210.121 58.3116 210.371C58.2657 210.62 58.2395 210.863 58.2132 211.112L58.679 210.882C58.4625 210.758 58.246 210.633 58.023 210.515C57.8 210.397 57.5835 210.279 57.367 210.174C56.911 209.947 56.4371 209.758 55.95 209.61C56.3128 209.966 56.7032 210.293 57.1177 210.587C57.3211 210.738 57.531 210.869 57.7344 211.014L58.3904 211.414L58.8102 211.663L58.8561 211.184C58.8561 210.935 58.9086 210.686 58.9217 210.436C58.9348 210.187 58.9545 209.931 58.9545 209.682C58.9586 209.175 58.9235 208.668 58.8495 208.167Z" fill="#1B2E4B"/>
<path d="M56.9801 208.062C56.9989 208.361 57.0562 208.656 57.1506 208.941C57.3226 209.492 57.5817 210.013 57.9182 210.482C58.087 210.726 58.2878 210.947 58.5151 211.138C58.5018 210.839 58.4466 210.543 58.3511 210.259C58.1792 209.708 57.9201 209.187 57.5836 208.718C57.4124 208.473 57.2095 208.252 56.9801 208.062Z" fill="#1B2E4B"/>
<path d="M36.08 234.229C36.0913 234.735 36.1395 235.239 36.2243 235.738C36.2636 235.987 36.3161 236.23 36.362 236.479C36.4079 236.728 36.4736 236.965 36.5326 237.207L36.8868 236.827L36.1456 236.715C35.8963 236.715 35.647 236.65 35.3977 236.637C34.8913 236.594 34.3822 236.594 33.8758 236.637C34.3399 236.842 34.8205 237.009 35.3124 237.135C35.5551 237.207 35.8044 237.253 36.0472 237.319L36.7819 237.463L37.2607 237.548L37.1361 237.083C37.0705 236.84 37.0049 236.597 36.9262 236.361C36.8475 236.125 36.7819 235.882 36.69 235.646C36.5249 235.158 36.3209 234.684 36.08 234.229Z" fill="#1B2E4B"/>
<path d="M34.3283 234.793C34.4507 235.066 34.6072 235.322 34.7941 235.554C34.9747 235.787 35.172 236.006 35.3845 236.21C35.5887 236.407 35.8081 236.587 36.0405 236.748C36.2903 236.915 36.559 237.051 36.8408 237.155C36.72 236.88 36.5634 236.622 36.3751 236.388C36.1965 236.153 35.999 235.934 35.7846 235.732C35.5819 235.534 35.3624 235.354 35.1286 235.194C34.8802 235.026 34.6112 234.892 34.3283 234.793Z" fill="#1B2E4B"/>
<path d="M48.2488 229.053C47.8086 229.305 47.3896 229.593 46.9958 229.913C46.799 230.064 46.6088 230.234 46.4186 230.392C46.2283 230.549 46.0446 230.726 45.8609 230.897L46.3661 231.021C46.2873 230.785 46.2021 230.549 46.1102 230.319C46.0184 230.09 45.92 229.854 45.815 229.624C45.6096 229.168 45.3683 228.73 45.0934 228.312C45.143 228.816 45.2307 229.316 45.3558 229.808C45.4149 230.057 45.487 230.293 45.5526 230.536C45.6182 230.779 45.7035 231.015 45.7822 231.251L45.9397 231.71L46.2873 231.376L46.8187 230.844C46.9893 230.661 47.1664 230.483 47.3304 230.287C47.6696 229.901 47.9767 229.489 48.2488 229.053Z" fill="#1B2E4B"/>
<path d="M46.8908 227.768C46.7146 228.01 46.567 228.272 46.4513 228.548C46.2298 229.084 46.0927 229.65 46.0445 230.228C46.0165 230.525 46.0275 230.825 46.0773 231.12C46.2549 230.878 46.4025 230.616 46.5169 230.339C46.6261 230.073 46.716 229.799 46.7858 229.519C46.8514 229.238 46.8974 228.953 46.9236 228.666C46.9517 228.367 46.9406 228.064 46.8908 227.768Z" fill="#1B2E4B"/>
<path d="M47.1072 211.984C46.67 212.234 46.2513 212.514 45.8542 212.824C45.6574 212.975 45.4737 213.145 45.2769 213.303C45.0801 213.46 44.903 213.637 44.7193 213.808L45.231 213.932C45.1457 213.696 45.0605 213.46 44.9686 213.231C44.8768 213.001 44.7849 212.765 44.6734 212.535C44.4666 212.08 44.2253 211.642 43.9518 211.223C44.0014 211.728 44.0891 212.228 44.2142 212.719C44.2733 212.968 44.3454 213.204 44.411 213.447C44.4766 213.69 44.5619 213.926 44.6406 214.162L44.7981 214.621L45.1457 214.287C45.3294 214.11 45.5065 213.939 45.6837 213.755C45.8608 213.572 46.0248 213.395 46.1888 213.198C46.5292 212.82 46.8364 212.414 47.1072 211.984Z" fill="#1B2E4B"/>
<path d="M45.7494 210.705C45.5719 210.947 45.4243 211.209 45.3099 211.486C45.2007 211.752 45.1108 212.026 45.041 212.306C44.9754 212.586 44.9294 212.871 44.9032 213.159C44.8753 213.458 44.8863 213.76 44.936 214.057C45.1147 213.816 45.2623 213.554 45.3755 213.277C45.4877 213.009 45.5777 212.732 45.6445 212.45C45.7106 212.169 45.7566 211.884 45.7823 211.597C45.8103 211.3 45.7993 211 45.7494 210.705Z" fill="#1B2E4B"/>
<path d="M56.8357 224.461C56.4462 224.785 56.0842 225.14 55.7533 225.524C55.5827 225.708 55.4253 225.904 55.2678 226.095C55.1104 226.285 54.953 226.488 54.8021 226.685L55.3203 226.724C55.2022 226.501 55.0776 226.283 54.9464 226.068C54.8087 225.858 54.684 225.642 54.5397 225.412C54.2572 224.988 53.9413 224.586 53.5951 224.212C53.7282 224.702 53.9016 225.18 54.1133 225.642C54.2117 225.878 54.3298 226.095 54.4347 226.298C54.5397 226.501 54.6643 226.744 54.7824 226.954L55.0186 227.38L55.3006 226.987C55.4493 226.79 55.5937 226.587 55.7336 226.377C55.8714 226.167 56.0157 225.963 56.1403 225.721C56.4066 225.321 56.6392 224.9 56.8357 224.461Z" fill="#1B2E4B"/>
<path d="M55.281 223.432C55.1421 223.696 55.0405 223.979 54.9792 224.271C54.9153 224.554 54.8736 224.841 54.8546 225.131C54.8316 225.419 54.8316 225.708 54.8546 225.997C54.8753 226.294 54.9371 226.588 55.0383 226.869C55.1772 226.604 55.2787 226.322 55.34 226.029C55.4051 225.747 55.4446 225.459 55.4581 225.17C55.4811 224.882 55.4811 224.592 55.4581 224.304C55.4331 224.007 55.3737 223.715 55.281 223.432Z" fill="#1B2E4B"/>
<path d="M75.512 230.241C75.0053 230.283 74.503 230.367 74.0097 230.49C73.767 230.543 73.5243 230.615 73.2881 230.68C73.052 230.746 72.8092 230.825 72.5665 230.903L72.9732 231.231C72.9995 230.982 73.0192 230.733 73.0323 230.484C73.0323 230.228 73.0651 229.979 73.0323 229.729C73.0462 229.223 73.0177 228.716 72.947 228.214C72.7777 228.69 72.6461 229.18 72.5534 229.677C72.5009 229.926 72.4681 230.175 72.4288 230.418C72.3894 230.661 72.3632 230.917 72.3304 231.166L72.2845 231.645L72.7371 231.487L73.4456 231.231C73.6752 231.14 73.9113 231.054 74.1409 230.943C74.6177 230.75 75.0765 230.515 75.512 230.241Z" fill="#1B2E4B"/>
<path d="M74.8232 228.502C74.558 228.644 74.313 228.82 74.0951 229.027C73.8805 229.229 73.683 229.449 73.5047 229.683C73.32 229.907 73.1553 230.146 73.0127 230.398C72.8627 230.658 72.7459 230.936 72.665 231.225C72.9303 231.084 73.1752 230.907 73.3932 230.7C73.6078 230.498 73.8052 230.279 73.9836 230.044C74.1648 229.819 74.3271 229.58 74.469 229.329C74.6226 229.07 74.7417 228.792 74.8232 228.502Z" fill="#1B2E4B"/>
<path d="M90.8691 241.255C90.3645 241.3 89.8643 241.385 89.3735 241.511C89.1242 241.563 88.888 241.636 88.6453 241.701C88.4026 241.767 88.1664 241.845 87.9303 241.924L88.3304 242.246C88.3304 241.996 88.3829 241.747 88.396 241.498C88.4091 241.249 88.396 240.999 88.396 240.75C88.4077 240.241 88.3769 239.732 88.3042 239.228C88.1356 239.707 88.0041 240.198 87.9106 240.697C87.8581 240.947 87.8253 241.189 87.786 241.439C87.7466 241.688 87.7203 241.937 87.6941 242.187L87.6416 242.665L88.1008 242.508C88.337 242.429 88.5731 242.344 88.8027 242.252C89.0323 242.16 89.2685 242.069 89.4981 241.964C89.9737 241.765 90.4323 241.528 90.8691 241.255Z" fill="#1B2E4B"/>
<path d="M90.1802 239.523C89.9165 239.664 89.6719 239.838 89.452 240.041C89.0271 240.435 88.6643 240.89 88.3762 241.393C88.2209 241.647 88.1037 241.924 88.0285 242.213C88.2901 242.068 88.5344 241.894 88.7566 241.694C88.9688 241.492 89.1641 241.273 89.3405 241.038C89.5252 240.815 89.6898 240.576 89.8325 240.323C89.9798 240.071 90.0965 239.803 90.1802 239.523Z" fill="#1B2E4B"/>
<path d="M64.0649 234.636C63.699 234.987 63.3612 235.366 63.0547 235.771C62.8907 235.967 62.7529 236.171 62.6021 236.374C62.4512 236.577 62.32 236.787 62.1822 237.03H62.7005C62.5693 236.82 62.4315 236.61 62.2806 236.374C62.1297 236.138 61.992 235.961 61.8345 235.771C61.5276 235.365 61.1875 234.985 60.8177 234.636C60.9848 235.117 61.1888 235.584 61.4278 236.033C61.5393 236.256 61.6705 236.466 61.7886 236.689C61.9067 236.912 62.051 237.115 62.1822 237.345L62.4446 237.758L62.7005 237.345C62.8382 237.135 62.9694 236.925 63.0941 236.689C63.2187 236.453 63.3433 236.256 63.4549 236.033C63.6981 235.586 63.9022 235.118 64.0649 234.636Z" fill="#1B2E4B"/>
<path d="M62.4446 233.711C62.3243 233.987 62.2426 234.278 62.2018 234.577C62.1569 234.861 62.135 235.148 62.1362 235.436C62.1352 235.726 62.1572 236.016 62.2018 236.302C62.2438 236.598 62.3254 236.887 62.4446 237.162C62.5607 236.886 62.6423 236.598 62.6873 236.302C62.7319 236.016 62.7539 235.726 62.7529 235.436C62.7541 235.148 62.7322 234.861 62.6873 234.577C62.6401 234.28 62.5587 233.989 62.4446 233.711Z" fill="#1B2E4B"/>
<path d="M81.0486 263.336C80.5538 263.23 80.0516 263.162 79.5464 263.133C79.2905 263.133 79.0412 263.133 78.7919 263.1H78.0638L78.3524 263.533C78.4508 263.303 78.5492 263.073 78.6345 262.837C78.7198 262.601 78.8116 262.365 78.8772 262.129C79.0434 261.649 79.1663 261.155 79.2446 260.653C78.9377 261.066 78.6677 261.505 78.4377 261.965C78.3131 262.181 78.2081 262.411 78.0966 262.621C77.9851 262.831 77.8867 263.073 77.7883 263.277L77.5915 263.723H78.0769L78.8248 263.684C79.074 263.684 79.3233 263.651 79.5726 263.618C80.0714 263.564 80.5651 263.47 81.0486 263.336Z" fill="#1B2E4B"/>
<path d="M80.9043 261.479C80.611 261.539 80.3266 261.636 80.0581 261.768C79.7947 261.888 79.5423 262.031 79.3037 262.195C79.0724 262.358 78.8532 262.538 78.6477 262.732C78.4264 262.936 78.2324 263.168 78.0704 263.421C78.3637 263.362 78.6481 263.265 78.9166 263.133C79.1813 263.015 79.434 262.872 79.671 262.706C79.9023 262.543 80.1215 262.363 80.327 262.168C80.5483 261.964 80.7423 261.733 80.9043 261.479Z" fill="#1B2E4B"/>
<path d="M80.865 236.886C80.4952 237.235 80.1551 237.615 79.8482 238.021C79.6908 238.211 79.5464 238.421 79.4021 238.624C79.2578 238.827 79.1135 239.037 78.9823 239.241H79.5005C79.3628 239.031 79.225 238.827 79.0807 238.624C78.9363 238.421 78.792 238.211 78.628 238.021C78.3215 237.616 77.9837 237.237 77.6178 236.886C77.7786 237.366 77.9806 237.831 78.2213 238.276C78.3328 238.506 78.464 238.716 78.5887 238.932C78.7133 239.149 78.8445 239.359 78.9757 239.588L79.2381 240.002L79.5005 239.588C79.6317 239.379 79.7629 239.169 79.8876 238.932C80.0122 238.696 80.1434 238.499 80.2549 238.276C80.4951 237.83 80.6991 237.365 80.865 236.886Z" fill="#1B2E4B"/>
<path d="M79.2383 235.961C79.1212 236.238 79.0396 236.529 78.9955 236.827C78.9506 237.111 78.9287 237.398 78.9299 237.686C78.9289 237.976 78.9509 238.266 78.9955 238.552C79.0406 238.848 79.1221 239.136 79.2383 239.412C79.3574 239.137 79.4391 238.848 79.481 238.552C79.5256 238.266 79.5476 237.976 79.5466 237.686C79.5478 237.398 79.5259 237.111 79.481 236.827C79.4402 236.528 79.3585 236.237 79.2383 235.961Z" fill="#1B2E4B"/>
<path d="M44.3783 244.83C44.3261 245.336 44.3129 245.844 44.3389 246.352C44.3389 246.601 44.3717 246.851 44.3848 247.1C44.398 247.349 44.4373 247.598 44.4701 247.848L44.8637 247.513C44.6276 247.441 44.3848 247.369 44.1421 247.31C43.8994 247.251 43.6567 247.185 43.4074 247.139C42.9124 247.034 42.4102 246.966 41.9052 246.936C42.3416 247.191 42.7979 247.41 43.2696 247.592C43.4992 247.69 43.742 247.769 43.9716 247.854C44.2012 247.94 44.4504 248.018 44.6866 248.09L45.1523 248.235L45.0802 247.756C45.0474 247.507 45.0146 247.257 44.9687 247.015C44.9227 246.772 44.8768 246.516 44.8178 246.273C44.7078 245.782 44.5609 245.299 44.3783 244.83Z" fill="#1B2E4B"/>
<path d="M42.5416 245.178C42.6274 245.465 42.7532 245.739 42.9155 245.991C43.065 246.238 43.2339 246.473 43.4206 246.693C43.6089 246.913 43.8128 247.119 44.0307 247.31C44.2583 247.506 44.5095 247.674 44.7786 247.808C44.686 247.524 44.5605 247.251 44.4046 246.995C44.2551 246.746 44.0839 246.511 43.893 246.293C43.708 246.072 43.5039 245.868 43.2829 245.683C43.0584 245.484 42.8092 245.314 42.5416 245.178Z" fill="#1B2E4B"/>
<path d="M68.5586 252.571C68.1927 252.92 67.855 253.297 67.5483 253.699C67.3843 253.896 67.2466 254.106 67.0957 254.303C66.9448 254.499 66.8136 254.716 66.6759 254.926H67.1941C67.0629 254.716 66.9186 254.506 66.7743 254.303C66.63 254.099 66.4856 253.896 66.3282 253.699C66.0212 253.295 65.6811 252.918 65.3114 252.571C65.4786 253.049 65.6826 253.514 65.9215 253.962C66.033 254.191 66.1642 254.401 66.2823 254.618C66.4004 254.834 66.5447 255.044 66.6759 255.274L66.9383 255.68L67.1941 255.274C67.3319 255.064 67.4631 254.854 67.5877 254.618C67.7123 254.381 67.837 254.185 67.9485 253.962C68.1902 253.516 68.3943 253.051 68.5586 252.571Z" fill="#1B2E4B"/>
<path d="M66.9119 251.646C66.7922 251.92 66.7105 252.209 66.6691 252.505C66.6245 252.792 66.6025 253.081 66.6035 253.371C66.5993 253.659 66.6212 253.947 66.6691 254.231C66.7099 254.529 66.7916 254.82 66.9119 255.097C67.026 254.818 67.1074 254.528 67.1546 254.231C67.1992 253.946 67.2212 253.659 67.2202 253.371C67.2212 253.081 67.1992 252.792 67.1546 252.505C67.1074 252.21 67.0259 251.922 66.9119 251.646Z" fill="#1B2E4B"/>
<path d="M88.0679 250.872C87.6981 251.222 87.358 251.601 87.0511 252.007C86.8936 252.197 86.7493 252.407 86.5984 252.604C86.4476 252.801 86.3163 253.017 86.1786 253.227H86.7034C86.5656 253.017 86.4279 252.807 86.2836 252.604C86.1392 252.401 85.9949 252.197 85.8309 252C85.5243 251.598 85.1865 251.221 84.8207 250.872C84.9827 251.352 85.1846 251.817 85.4242 252.263C85.5357 252.492 85.6669 252.702 85.7916 252.919C85.9162 253.135 86.0474 253.345 86.1786 253.575L86.441 253.988L86.7034 253.575C86.8346 253.365 86.9658 253.155 87.0904 252.919C87.2151 252.683 87.3463 252.486 87.4578 252.263C87.6967 251.816 87.9006 251.351 88.0679 250.872Z" fill="#1B2E4B"/>
<path d="M86.4409 249.921C86.3247 250.196 86.2432 250.485 86.1982 250.78C86.1535 251.067 86.1316 251.356 86.1326 251.646C86.1316 251.934 86.1535 252.221 86.1982 252.506C86.239 252.804 86.3206 253.095 86.4409 253.371C86.5612 253.095 86.6429 252.804 86.6837 252.506C86.7283 252.221 86.7502 251.934 86.7492 251.646C86.7502 251.356 86.7283 251.067 86.6837 250.78C86.6386 250.485 86.5571 250.196 86.4409 249.921Z" fill="#1B2E4B"/>
<path d="M85.7916 233.468C85.7916 233.468 91.6956 233.468 90.9609 230.929C90.7116 230.044 88.3369 230.47 86.9789 231.894C87.9695 230.182 87.7333 227.794 86.8149 227.8C84.1844 227.813 85.7916 233.468 85.7916 233.468Z" fill="#4361EE"/>
<path opacity="0.2" d="M85.7916 233.468C85.7916 233.468 91.6956 233.468 90.9609 230.929C90.7116 230.044 88.3369 230.47 86.9789 231.894C87.9695 230.182 87.7333 227.794 86.8149 227.8C84.1844 227.813 85.7916 233.468 85.7916 233.468Z" fill="black"/>
<path d="M85.7916 233.468C88.0482 235.174 91.2823 234.38 91.4463 233.094C91.6365 231.638 87.7924 232.51 87.7924 232.51C87.7924 232.51 91.1117 229.683 89.5439 228.496C87.9761 227.308 86.1655 231.284 86.1655 231.284C86.1655 231.284 85.949 227.348 84.5976 227.925C83.4103 228.437 83.5349 231.763 85.7916 233.468Z" fill="#4361EE"/>
<path d="M40.9736 218.203C40.9736 218.203 44.0699 213.211 41.5377 212.469C40.6587 212.214 39.7731 214.437 40.2585 216.366C39.327 214.621 37.1753 213.565 36.6965 214.346C35.3189 216.589 40.9736 218.203 40.9736 218.203Z" fill="#4361EE"/>
<path opacity="0.2" d="M40.9736 218.203C40.9736 218.203 44.0699 213.211 41.5377 212.469C40.6587 212.214 39.7731 214.437 40.2585 216.366C39.327 214.621 37.1753 213.565 36.6965 214.346C35.3189 216.589 40.9736 218.203 40.9736 218.203Z" fill="black"/>
<path d="M40.9738 218.203C43.5978 217.18 44.6408 214.018 43.6371 213.198C42.4957 212.273 41.2099 215.999 41.2099 215.999C41.2099 215.999 40.5539 211.689 38.7237 212.398C36.8934 213.106 39.3141 216.734 39.3141 216.734C39.3141 216.734 35.8504 214.838 35.6339 216.294C35.424 217.573 38.3301 219.22 40.9738 218.203Z" fill="#4361EE"/>
<path d="M79.999 273.471H48.1305L51.3384 300.118H76.7912L79.999 273.471Z" fill="#4361EE"/>
<path opacity="0.1" d="M79.999 273.471L79.2774 279.48L48.675 278.011L48.1305 273.471H79.999Z" fill="black"/>
<path d="M46.13 270.106H82.0066V274.869H46.13V270.106Z" fill="#4361EE"/>
<path d="M129.796 130.457C129.762 130.634 129.793 130.818 129.885 130.974C129.977 131.13 130.123 131.247 130.295 131.303C131.134 131.473 132.145 131.657 133.273 131.873C136.848 125.195 140.456 119.987 139.42 122.066C137.84 125.34 136.759 128.831 136.212 132.425C137.524 132.667 140.581 133.199 142.116 133.468C145.999 121.404 150.152 112.62 149.614 115.421C147.43 126.73 147.646 130.509 147.941 134.497C162.196 136.971 180.912 140.001 194.517 141.904C196.944 135.272 199.247 128.049 199.424 128.593C200.795 132.693 200.592 138.355 200.08 142.671C204.41 143.249 207.873 143.629 210.005 143.754C210.005 143.754 211.737 138.138 212.118 136.262C213.115 131.463 213.213 126.521 212.406 121.686C211.567 116.713 209.612 112.174 207.814 107.542C207.804 107.505 207.789 107.47 207.768 107.437C207.768 107.437 207.768 107.437 207.768 107.398C206.55 104.386 205.695 101.239 205.223 98.0239C205.219 98.0001 205.219 97.9756 205.223 97.9517C204.93 95.6374 204.844 93.3015 204.967 90.9719C205.394 82.4439 201.556 74.5719 193.907 71.3312C180.708 55.3445 164.964 59.3855 159.074 69.6257C158.503 70.6293 157.932 71.7839 157.355 73.05V73.0893C155.21 77.7732 153.045 83.9265 151.162 88.6562C151.162 88.6562 151.162 88.6562 151.162 88.7087C150.447 90.5682 149.615 92.3802 148.669 94.1338C143.71 102.504 134.434 106.414 129.796 130.457Z" fill="#0E1726"/>
<path d="M197.056 74.0995C201.917 77.4648 204.606 81.8337 204.639 88.092C204.639 91.7393 204.455 95.2752 205.413 98.8372C206.391 102.511 208.286 105.66 210.241 108.822C213.344 113.833 215.338 118.662 215.155 124.802C214.965 131.014 213.758 138.217 210.97 143.681C210.97 143.714 210.904 143.681 210.924 143.681C213.331 138.086 214.381 130.056 214.112 123.844C213.817 117.015 210.563 112.338 207.329 106.788C204.732 102.438 203.361 97.4675 203.36 92.4019C203.36 89.3056 203.799 86.1436 202.934 83.126C201.904 79.518 199.26 76.9728 196.61 74.6768C196.546 74.6138 196.507 74.5294 196.501 74.4397C196.495 74.3501 196.522 74.2612 196.576 74.1901C196.631 74.119 196.711 74.0705 196.799 74.0538C196.887 74.0371 196.979 74.0533 197.056 74.0995Z" fill="#0E1726"/>
<path d="M138.692 102.511C142.962 98.1944 147.298 94.5995 150.191 88.9382C152.815 83.7755 154.665 78.2061 157.342 73.0565C157.343 73.0453 157.348 73.0347 157.354 73.0254C157.361 73.0161 157.369 73.0085 157.379 73.0032C157.389 72.9979 157.4 72.9949 157.411 72.9947C157.423 72.9944 157.434 72.9967 157.444 73.0016C157.454 73.0064 157.463 73.0136 157.47 73.0225C157.477 73.0314 157.482 73.0418 157.484 73.0529C157.486 73.064 157.486 73.0754 157.483 73.0863C157.48 73.0972 157.474 73.1072 157.466 73.1155C153.189 82.2995 151.379 91.9165 144.176 99.2046C140.24 103.141 136.383 106.795 133.503 111.767C130.559 116.991 128.637 122.729 127.841 128.672C127.809 128.889 127.54 128.836 127.546 128.633C127.851 118.835 131.829 109.51 138.692 102.511Z" fill="#0E1726"/>
<path d="M194.005 70.5442C192.005 69.5011 191.48 57.5291 199.909 52.9109C208.188 48.3648 217.385 55.9088 212.045 64.9944C208.608 70.7344 198.237 72.7549 194.005 70.5442Z" fill="#0E1726"/>
<path d="M210.74 53.5669C212.783 55.7552 214.023 58.5723 214.256 61.557C214.393 62.9486 214.162 64.3517 213.586 65.626C213.011 66.9003 212.111 68.0013 210.976 68.8189C208.707 70.5376 205.774 71.2986 202.848 71.6003C201.362 71.7348 199.867 71.7348 198.381 71.6003C196.87 71.5267 195.386 71.1707 194.006 70.5507C195.268 71.4729 196.717 72.1087 198.25 72.4138C199.779 72.7663 201.345 72.9359 202.914 72.9189C206.146 72.9722 209.314 72.0134 211.973 70.1768C213.336 69.2056 214.396 67.8681 215.03 66.3193C215.664 64.7705 215.846 63.0738 215.555 61.4258C215.329 59.8573 214.785 58.3515 213.957 57.0003C213.129 55.649 212.035 54.4808 210.74 53.5669Z" fill="#0E1726"/>
<path d="M157.899 138.985C130.708 159.255 93.4143 204.932 97.3831 215.96C101.805 228.234 139.702 199.783 139.872 197.808C140.003 196.319 156.194 167.586 168.336 146.739C180.479 125.891 164.623 133.973 157.899 138.985Z" fill="#EB9481"/>
<path d="M140.089 197.88C141.584 194.771 163.423 156.952 169.851 144.921C176.28 132.89 172.725 128.324 158.096 138.04C143.467 147.755 109.48 182.353 99.9153 202.02C90.6985 220.971 100.945 222.539 115.856 215.428C128.104 209.59 140.089 197.88 140.089 197.88Z" fill="#4361EE"/>
<path d="M159.644 138.539C159.644 139.133 159.82 139.714 160.15 140.208C160.481 140.702 160.95 141.087 161.499 141.314C162.048 141.542 162.652 141.601 163.235 141.485C163.818 141.369 164.353 141.083 164.773 140.663C165.193 140.243 165.479 139.708 165.595 139.125C165.711 138.542 165.652 137.938 165.424 137.389C165.197 136.84 164.812 136.371 164.318 136.041C163.824 135.71 163.243 135.534 162.649 135.534C162.457 135.535 162.266 135.552 162.078 135.587C161.527 135.882 160.969 136.243 160.379 136.584C159.905 137.125 159.644 137.82 159.644 138.539ZM141.125 169.567C141.72 169.567 142.301 169.744 142.795 170.074C143.289 170.405 143.674 170.874 143.902 171.424C144.129 171.973 144.188 172.578 144.071 173.161C143.955 173.743 143.668 174.279 143.247 174.699C142.827 175.119 142.291 175.404 141.707 175.519C141.124 175.635 140.52 175.574 139.971 175.346C139.422 175.117 138.953 174.731 138.624 174.236C138.295 173.741 138.119 173.16 138.121 172.565C138.122 171.77 138.44 171.007 139.003 170.445C139.566 169.883 140.33 169.567 141.125 169.567ZM122.39 171.47C122.53 171.818 122.601 172.19 122.6 172.565C122.6 173.361 122.284 174.124 121.722 174.688C121.16 175.251 120.398 175.568 119.602 175.57C119.356 175.57 119.112 175.539 118.874 175.478C120.02 174.135 121.192 172.808 122.39 171.496V171.47ZM151.91 152.984C152.504 152.984 153.085 153.16 153.579 153.49C154.073 153.82 154.458 154.29 154.686 154.839C154.913 155.387 154.973 155.992 154.857 156.574C154.741 157.157 154.455 157.693 154.034 158.113C153.614 158.533 153.079 158.819 152.496 158.935C151.913 159.051 151.309 158.991 150.76 158.764C150.211 158.537 149.742 158.152 149.412 157.657C149.082 157.163 148.905 156.582 148.905 155.988C148.905 155.196 149.218 154.436 149.776 153.873C150.334 153.31 151.091 152.991 151.884 152.984H151.91ZM119.628 203.601C120.223 203.601 120.804 203.777 121.298 204.108C121.792 204.438 122.177 204.908 122.405 205.457C122.632 206.006 122.691 206.611 122.574 207.194C122.458 207.777 122.171 208.312 121.75 208.732C121.329 209.152 120.793 209.438 120.21 209.553C119.627 209.668 119.023 209.608 118.474 209.379C117.925 209.151 117.456 208.765 117.127 208.27C116.797 207.775 116.622 207.193 116.624 206.599C116.624 205.807 116.937 205.047 117.495 204.486C118.053 203.924 118.81 203.606 119.602 203.601H119.628ZM99.1347 203.791C99.7954 204.034 100.35 204.501 100.7 205.111C101.051 205.721 101.176 206.435 101.053 207.128C100.931 207.821 100.568 208.449 100.029 208.902C99.4897 209.354 98.8086 209.602 98.1048 209.603C97.7554 209.604 97.4088 209.541 97.0814 209.419C97.6045 207.492 98.2824 205.61 99.1084 203.791H99.1347ZM130.387 187.017C130.981 187.017 131.562 187.193 132.056 187.523C132.55 187.854 132.935 188.323 133.162 188.872C133.39 189.421 133.449 190.025 133.333 190.608C133.217 191.19 132.931 191.726 132.511 192.146C132.091 192.566 131.555 192.852 130.973 192.968C130.39 193.084 129.786 193.025 129.237 192.797C128.688 192.57 128.219 192.185 127.888 191.691C127.558 191.197 127.382 190.616 127.382 190.022C127.382 189.229 127.695 188.469 128.253 187.906C128.811 187.344 129.568 187.024 130.36 187.017H130.387ZM109.506 187.083C109.993 187.189 110.446 187.416 110.823 187.741C111.201 188.066 111.492 188.48 111.67 188.946C111.847 189.412 111.907 189.914 111.842 190.408C111.777 190.903 111.59 191.373 111.298 191.777C111.006 192.181 110.618 192.506 110.17 192.723C109.721 192.94 109.225 193.041 108.727 193.019C108.229 192.996 107.745 192.85 107.317 192.594C106.89 192.337 106.533 191.979 106.279 191.55C107.263 190.094 108.345 188.598 109.48 187.083H109.506Z" fill="#6B7280"/>
<path opacity="0.1" d="M96.911 216.209C98.82 220.939 106.41 219.922 115.889 215.408C128.097 209.59 140.089 197.88 140.089 197.88C141.591 194.771 163.423 156.952 169.852 144.921C174.444 136.328 173.952 131.545 167.962 133.041L96.911 216.209Z" fill="black"/>
<path d="M115.285 300.118H178.157C180.892 289.386 185.097 272.868 188.764 258.482C188.762 258.471 188.762 258.46 188.764 258.449C188.987 257.57 189.217 256.691 189.42 255.825C189.564 255.287 189.696 254.756 189.827 254.237C193.356 240.402 196.137 229.467 196.203 229.217C196.269 228.968 196.275 228.942 196.295 228.85C196.316 228.781 196.334 228.711 196.347 228.64H135.661L115.285 300.118Z" fill="#1B2E4B"/>
<path d="M137.622 228.621C137.622 228.66 137.622 228.732 137.622 228.83C137.622 229.545 137.622 230.254 137.622 230.969C137.622 232.786 137.734 234.61 137.852 236.427C138.33 243.535 139.259 250.606 140.633 257.596C142.408 266.814 144.761 275.911 147.679 284.833C147.935 285.607 148.085 286.04 148.105 286.086L152.946 288.481L153.333 288.677C156.489 290.239 160.379 292.174 162.918 293.44C164.269 294.096 165.24 294.594 165.509 294.752L165.588 294.791C165.588 294.791 165.693 296.95 165.83 300.105H231.424C230.112 288.986 229.935 287.523 229.935 287.523C230.322 285.378 232.034 279.841 231.424 273.425C230.072 259.302 221.413 230.949 220.626 229.263C220.442 228.85 220.337 228.607 220.337 228.607H203.754H164.459H137.622V228.621Z" fill="#1B2E4B"/>
<path d="M165.542 294.62V294.765C165.542 296.549 165.594 298.34 165.62 300.118H166.276C166.132 298.333 166.014 296.529 165.804 294.738C165.804 294.574 165.771 294.424 165.752 294.26C165.746 294.237 165.733 294.217 165.714 294.203C165.696 294.188 165.673 294.181 165.65 294.181C165.627 294.181 165.604 294.188 165.586 294.203C165.567 294.217 165.554 294.237 165.548 294.26C165.548 294.384 165.542 294.502 165.542 294.62Z" fill="#0E1726"/>
<path d="M173.407 298.058C170.619 296.129 167.608 294.502 164.656 292.81C161.704 291.117 158.575 289.471 155.433 288.008C149.299 285.148 142.818 283.088 136.363 281.081C136.199 281.035 136.094 281.297 136.251 281.369C142.47 284.039 148.499 287.103 154.685 289.845C157.794 291.222 160.93 292.547 164.046 293.918C167.162 295.29 170.199 296.844 173.335 298.156C173.347 298.157 173.359 298.155 173.37 298.15C173.381 298.145 173.391 298.137 173.398 298.127C173.405 298.117 173.41 298.106 173.412 298.094C173.413 298.081 173.412 298.069 173.407 298.058Z" fill="#0E1726"/>
<path d="M156.391 267.626C156.312 264.576 156.095 261.526 155.944 258.482C155.59 251.266 155.288 244.05 154.632 236.886C154.632 236.827 154.609 236.77 154.567 236.728C154.525 236.687 154.469 236.663 154.409 236.663C154.35 236.663 154.294 236.687 154.252 236.728C154.21 236.77 154.186 236.827 154.186 236.886C154.095 242.449 154.311 248.038 154.423 253.588C154.482 256.376 154.56 259.157 154.639 261.939C154.791 264.595 154.808 267.258 154.692 269.916C154.541 271.923 154.101 275.82 151.484 276.063C149.017 276.292 147.666 273.629 147.049 271.68C145.488 266.728 144.93 261.375 144.425 256.225C144.123 253.175 143.822 250.137 143.644 247.074C143.467 244.01 143.218 239.431 143.382 236.348C143.382 236.151 143.107 236.158 143.074 236.348C142.588 238.972 142.569 244.358 142.634 247.5C143.238 275.879 147.712 277.499 150.08 277.958C150.37 278.015 150.664 278.045 150.959 278.05C150.959 278.706 151.07 279.362 151.116 279.979C151.188 280.989 151.313 281.993 151.451 282.996C151.591 283.98 151.797 284.953 152.068 285.909C152.277 286.879 152.622 287.816 153.091 288.691C153.107 288.72 153.133 288.743 153.165 288.756C153.196 288.768 153.23 288.771 153.263 288.761C153.295 288.752 153.324 288.733 153.344 288.706C153.364 288.678 153.374 288.645 153.373 288.612C153.396 287.648 153.317 286.685 153.137 285.739C152.999 284.755 152.861 283.771 152.658 282.8C152.455 281.829 152.291 280.891 152.094 279.939C151.963 279.283 151.871 278.627 151.753 277.971C152.516 277.837 153.235 277.516 153.844 277.037C154.453 276.557 154.933 275.934 155.243 275.223C156.364 272.94 156.456 270.172 156.391 267.626Z" fill="#0E1726"/>
<path d="M213.699 262.241C209.763 262.516 205.827 263.028 201.851 262.555C198.114 262.169 194.552 260.77 191.552 258.508C184.992 253.444 182.158 245.152 180.4 237.372C180.394 237.335 180.374 237.302 180.343 237.281C180.313 237.259 180.276 237.251 180.239 237.257C180.203 237.263 180.17 237.283 180.149 237.313C180.127 237.344 180.118 237.381 180.125 237.417C180.866 244.161 182.316 251.134 186.685 256.566C188.559 258.953 190.93 260.904 193.632 262.286C196.504 263.623 199.649 264.272 202.816 264.182C206.513 264.14 210.191 263.635 213.764 262.68C213.811 262.66 213.85 262.625 213.875 262.581C213.899 262.537 213.909 262.485 213.901 262.435C213.894 262.385 213.87 262.338 213.833 262.303C213.796 262.268 213.749 262.246 213.699 262.241Z" fill="#0E1726"/>
<path d="M127.264 260.666C128.366 260.541 129.449 260.633 130.544 259.82C131.64 259.006 132.617 257.543 133.496 255.136C135.398 249.888 136.337 242.016 136.96 234.748C136.96 234.584 137.045 234.59 137.038 234.748C136.717 240.98 136.199 247.494 134.893 252.873C134.443 254.912 133.76 256.893 132.86 258.777C132.046 260.338 131.141 261.086 130.236 261.401C129.735 261.563 129.206 261.62 128.682 261.568C128.158 261.516 127.651 261.356 127.192 261.099C127.146 261.053 127.166 260.712 127.264 260.666Z" fill="#0E1726"/>
<path d="M214.401 230.582C216.533 242.239 219.052 254.06 221.38 265.691C221.977 269.168 223.014 272.599 222.804 276.141C222.504 279.712 221.941 283.255 221.118 286.742C221.492 288.986 221.859 291.229 222.259 293.473C222.66 295.716 223.034 297.907 223.46 300.118C223.257 297.874 223.001 295.637 222.758 293.4C222.515 291.163 222.253 288.927 221.991 286.69C222.967 283.259 223.626 279.745 223.959 276.194C224.078 274.964 224.049 273.724 223.873 272.5C223.165 267.725 222.168 263.067 221.171 258.39C219.137 249.055 216.9 239.766 214.368 230.556L214.401 230.582Z" fill="#0E1726"/>
<path d="M134.716 229.539L139.203 201.298C139.203 201.298 130.393 190.231 136.172 178.108C139.092 171.962 156.587 141.504 167.195 133.986C177.146 126.927 193.172 132.018 197.594 139.66C208.746 158.94 215.115 181.874 221.564 229.532L134.716 229.539Z" fill="#4361EE"/>
<path d="M181.168 138.539C181.168 139.133 181.344 139.714 181.674 140.208C182.004 140.702 182.473 141.087 183.022 141.314C183.571 141.542 184.175 141.601 184.758 141.485C185.341 141.369 185.876 141.083 186.297 140.663C186.717 140.243 187.003 139.708 187.119 139.125C187.235 138.542 187.175 137.938 186.948 137.389C186.721 136.84 186.335 136.371 185.841 136.041C185.347 135.71 184.766 135.534 184.172 135.534C183.375 135.534 182.611 135.851 182.048 136.414C181.484 136.978 181.168 137.742 181.168 138.539ZM164.532 136.203C164.849 136.464 165.11 136.786 165.298 137.151C165.486 137.517 165.597 137.917 165.624 138.326C165.651 138.736 165.593 139.147 165.454 139.534C165.316 139.921 165.099 140.275 164.818 140.574C164.537 140.874 164.198 141.112 163.821 141.275C163.444 141.438 163.037 141.521 162.626 141.521C162.216 141.52 161.809 141.435 161.433 141.27C161.057 141.106 160.718 140.866 160.438 140.566C161.721 139.037 163.088 137.581 164.532 136.203ZM205.696 169.567C206.29 169.567 206.871 169.744 207.365 170.074C207.86 170.405 208.245 170.874 208.472 171.424C208.699 171.973 208.758 172.578 208.642 173.161C208.525 173.743 208.239 174.279 207.818 174.699C207.397 175.119 206.861 175.404 206.278 175.519C205.694 175.635 205.09 175.574 204.541 175.346C203.992 175.117 203.524 174.731 203.194 174.236C202.865 173.741 202.69 173.16 202.691 172.565C202.693 171.77 203.01 171.007 203.573 170.445C204.137 169.883 204.9 169.567 205.696 169.567ZM184.172 169.567C184.767 169.567 185.348 169.744 185.842 170.074C186.336 170.405 186.721 170.874 186.949 171.424C187.176 171.973 187.235 172.578 187.118 173.161C187.002 173.743 186.715 174.279 186.294 174.699C185.873 175.119 185.338 175.404 184.754 175.519C184.171 175.635 183.567 175.574 183.018 175.346C182.469 175.117 182 174.731 181.671 174.236C181.341 173.741 181.166 173.16 181.168 172.565C181.168 172.171 181.245 171.781 181.397 171.417C181.548 171.052 181.769 170.722 182.048 170.443C182.327 170.165 182.658 169.944 183.023 169.794C183.387 169.644 183.778 169.567 184.172 169.567ZM162.649 169.567C163.243 169.567 163.824 169.744 164.319 170.074C164.813 170.405 165.198 170.874 165.425 171.424C165.652 171.973 165.712 172.578 165.595 173.161C165.479 173.743 165.192 174.279 164.771 174.699C164.35 175.119 163.814 175.404 163.231 175.519C162.648 175.635 162.043 175.574 161.494 175.346C160.946 175.117 160.477 174.731 160.147 174.236C159.818 173.741 159.643 173.16 159.644 172.565C159.646 171.77 159.963 171.007 160.527 170.445C161.09 169.883 161.853 169.567 162.649 169.567ZM140.817 169.567H141.125C141.664 169.566 142.193 169.71 142.657 169.984C143.121 170.257 143.503 170.651 143.763 171.122C144.023 171.594 144.151 172.127 144.134 172.665C144.118 173.204 143.956 173.728 143.668 174.182C143.379 174.637 142.973 175.006 142.493 175.25C142.013 175.494 141.476 175.605 140.939 175.57C140.401 175.536 139.883 175.357 139.438 175.054C138.993 174.75 138.638 174.332 138.41 173.845C139.072 172.585 139.905 171.148 140.817 169.581V169.567ZM194.931 152.971C195.525 152.969 196.107 153.144 196.602 153.474C197.097 153.803 197.483 154.272 197.711 154.821C197.939 155.37 198 155.974 197.885 156.557C197.769 157.141 197.484 157.676 197.064 158.097C196.644 158.518 196.109 158.805 195.526 158.921C194.943 159.038 194.338 158.979 193.789 158.752C193.24 158.524 192.77 158.139 192.439 157.645C192.109 157.151 191.933 156.57 191.933 155.975C191.936 155.182 192.253 154.422 192.815 153.861C193.377 153.301 194.137 152.986 194.931 152.984V152.971ZM173.407 152.971C174.002 152.969 174.583 153.144 175.078 153.474C175.573 153.803 175.959 154.272 176.188 154.821C176.416 155.37 176.477 155.974 176.361 156.557C176.246 157.141 175.96 157.676 175.541 158.097C175.121 158.518 174.585 158.805 174.002 158.921C173.419 159.038 172.815 158.979 172.266 158.752C171.716 158.524 171.247 158.139 170.916 157.645C170.586 157.151 170.409 156.57 170.409 155.975C170.413 155.182 170.73 154.422 171.292 153.861C171.853 153.301 172.614 152.986 173.407 152.984V152.971ZM151.103 153.076C151.357 153.004 151.62 152.969 151.884 152.971C152.46 152.97 153.023 153.136 153.508 153.447C153.993 153.758 154.378 154.201 154.617 154.725C154.857 155.248 154.941 155.83 154.86 156.4C154.778 156.97 154.535 157.504 154.158 157.94C153.782 158.376 153.288 158.694 152.736 158.857C152.183 159.02 151.596 159.021 151.043 158.859C150.49 158.698 149.996 158.381 149.618 157.946C149.24 157.512 148.995 156.978 148.912 156.408C149.627 155.293 150.362 154.184 151.103 153.089V153.076ZM205.696 203.588C206.29 203.588 206.871 203.764 207.365 204.094C207.86 204.425 208.245 204.894 208.472 205.444C208.699 205.993 208.758 206.598 208.642 207.181C208.525 207.764 208.239 208.299 207.818 208.719C207.397 209.139 206.861 209.424 206.278 209.54C205.694 209.655 205.09 209.594 204.541 209.366C203.992 209.138 203.524 208.751 203.194 208.257C202.865 207.762 202.69 207.18 202.691 206.586C202.695 205.792 203.013 205.031 203.576 204.472C204.139 203.912 204.902 203.599 205.696 203.601V203.588ZM184.172 203.588C184.767 203.588 185.348 203.764 185.842 204.094C186.336 204.425 186.721 204.894 186.949 205.444C187.176 205.993 187.235 206.598 187.118 207.181C187.002 207.764 186.715 208.299 186.294 208.719C185.873 209.139 185.338 209.424 184.754 209.54C184.171 209.655 183.567 209.594 183.018 209.366C182.469 209.138 182 208.751 181.671 208.257C181.341 207.762 181.166 207.18 181.168 206.586C181.169 206.192 181.247 205.803 181.399 205.44C181.55 205.077 181.772 204.747 182.051 204.47C182.33 204.193 182.661 203.973 183.025 203.824C183.389 203.675 183.779 203.599 184.172 203.601V203.588ZM162.649 203.588C163.243 203.588 163.824 203.764 164.319 204.094C164.813 204.425 165.198 204.894 165.425 205.444C165.652 205.993 165.712 206.598 165.595 207.181C165.479 207.764 165.192 208.299 164.771 208.719C164.35 209.139 163.814 209.424 163.231 209.54C162.648 209.655 162.043 209.594 161.494 209.366C160.946 209.138 160.477 208.751 160.147 208.257C159.818 207.762 159.643 207.18 159.644 206.586C159.648 205.792 159.966 205.031 160.529 204.472C161.093 203.912 161.855 203.599 162.649 203.601V203.588ZM141.125 203.588C141.72 203.588 142.301 203.764 142.795 204.094C143.29 204.425 143.675 204.894 143.902 205.444C144.129 205.993 144.188 206.598 144.072 207.181C143.955 207.764 143.668 208.299 143.248 208.719C142.827 209.139 142.291 209.424 141.708 209.54C141.124 209.655 140.52 209.594 139.971 209.366C139.422 209.138 138.953 208.751 138.624 208.257C138.295 207.762 138.12 207.18 138.121 206.586C138.124 205.792 138.443 205.031 139.006 204.472C139.569 203.912 140.331 203.599 141.125 203.601V203.588ZM214.597 187.647C214.965 189.352 215.319 191.104 215.673 192.895C215.138 192.748 214.655 192.456 214.275 192.051C213.896 191.646 213.637 191.144 213.525 190.601C213.414 190.058 213.455 189.494 213.644 188.972C213.834 188.451 214.163 187.992 214.597 187.647ZM194.917 186.991C195.512 186.99 196.093 187.165 196.588 187.494C197.083 187.823 197.469 188.292 197.698 188.841C197.926 189.39 197.987 189.994 197.872 190.577C197.756 191.161 197.471 191.697 197.051 192.117C196.631 192.538 196.096 192.825 195.513 192.942C194.93 193.058 194.325 192.999 193.776 192.772C193.226 192.544 192.757 192.159 192.426 191.665C192.096 191.171 191.92 190.59 191.92 189.995C191.926 189.202 192.247 188.443 192.811 187.885C193.375 187.327 194.137 187.015 194.931 187.017L194.917 186.991ZM173.394 186.991C173.989 186.99 174.57 187.165 175.065 187.494C175.56 187.823 175.946 188.292 176.175 188.841C176.403 189.39 176.463 189.994 176.348 190.577C176.233 191.161 175.947 191.697 175.527 192.117C175.108 192.538 174.572 192.825 173.989 192.942C173.406 193.058 172.802 192.999 172.252 192.772C171.703 192.544 171.233 192.159 170.903 191.665C170.573 191.171 170.396 190.59 170.396 189.995C170.403 189.202 170.724 188.443 171.288 187.885C171.852 187.327 172.614 187.015 173.407 187.017L173.394 186.991ZM151.871 186.991C152.465 186.991 153.046 187.167 153.54 187.497C154.034 187.827 154.419 188.297 154.646 188.846C154.874 189.395 154.933 189.999 154.817 190.581C154.702 191.164 154.415 191.7 153.995 192.12C153.575 192.54 153.04 192.826 152.457 192.942C151.874 193.058 151.27 192.998 150.721 192.771C150.172 192.544 149.703 192.159 149.373 191.665C149.042 191.17 148.866 190.59 148.866 189.995C148.873 189.201 149.195 188.441 149.76 187.883C150.326 187.325 151.089 187.014 151.884 187.017L151.871 186.991ZM216.48 221.05C217.075 221.049 217.656 221.224 218.151 221.554C218.646 221.883 219.032 222.352 219.261 222.901C219.489 223.449 219.549 224.054 219.434 224.637C219.319 225.22 219.033 225.756 218.614 226.177C218.194 226.598 217.658 226.885 217.075 227.001C216.492 227.118 215.888 227.058 215.338 226.831C214.789 226.604 214.319 226.219 213.989 225.725C213.659 225.23 213.482 224.649 213.482 224.055C213.482 223.259 213.798 222.496 214.36 221.933C214.922 221.369 215.684 221.052 216.48 221.05ZM194.957 221.05C195.551 221.049 196.133 221.224 196.628 221.554C197.123 221.883 197.509 222.352 197.737 222.901C197.966 223.449 198.026 224.054 197.911 224.637C197.796 225.22 197.51 225.756 197.09 226.177C196.67 226.598 196.135 226.885 195.552 227.001C194.969 227.118 194.365 227.058 193.815 226.831C193.266 226.604 192.796 226.219 192.466 225.725C192.135 225.23 191.959 224.649 191.959 224.055C191.959 223.264 192.271 222.504 192.827 221.942C193.384 221.379 194.139 221.059 194.931 221.05H194.957ZM173.433 221.05C174.028 221.049 174.609 221.224 175.104 221.554C175.599 221.883 175.985 222.352 176.214 222.901C176.442 223.449 176.503 224.054 176.388 224.637C176.272 225.22 175.987 225.756 175.567 226.177C175.147 226.598 174.612 226.885 174.029 227.001C173.446 227.118 172.841 227.058 172.292 226.831C171.742 226.604 171.273 226.219 170.942 225.725C170.612 225.23 170.436 224.649 170.436 224.055C170.435 223.264 170.748 222.504 171.304 221.942C171.86 221.379 172.616 221.059 173.407 221.05H173.433ZM151.91 221.05C152.504 221.05 153.085 221.227 153.579 221.557C154.073 221.887 154.458 222.356 154.686 222.905C154.913 223.454 154.973 224.058 154.857 224.641C154.741 225.224 154.455 225.759 154.035 226.179C153.614 226.6 153.079 226.886 152.496 227.002C151.913 227.118 151.309 227.058 150.76 226.831C150.211 226.603 149.742 226.218 149.412 225.724C149.082 225.23 148.906 224.649 148.906 224.055C148.906 223.263 149.219 222.502 149.776 221.94C150.334 221.377 151.092 221.057 151.884 221.05H151.91Z" fill="#6B7280"/>
<path d="M153.832 194.18C158.346 194.672 162.817 195.499 167.208 196.654C169.386 197.257 171.518 197.966 173.643 198.707C174.706 199.081 175.775 199.415 176.844 199.75C177.962 200.127 179.12 200.369 180.295 200.472C180.316 200.472 180.336 200.48 180.351 200.495C180.365 200.509 180.374 200.529 180.374 200.55C180.374 200.571 180.365 200.591 180.351 200.606C180.336 200.621 180.316 200.629 180.295 200.629C179.183 200.66 178.07 200.618 176.963 200.504C175.895 200.355 174.839 200.135 173.801 199.848C171.59 199.258 169.405 198.536 167.201 197.946C162.754 196.713 158.306 195.473 153.773 194.561C153.723 194.553 153.677 194.526 153.647 194.484C153.617 194.443 153.604 194.392 153.612 194.341C153.62 194.291 153.648 194.245 153.689 194.215C153.73 194.185 153.782 194.173 153.832 194.18Z" fill="#0E1726"/>
<path d="M142.575 197.959C146.308 197.644 150.055 197.539 153.799 197.644C155.675 197.703 157.532 197.874 159.395 198.09C160.27 198.195 161.144 198.313 162.019 198.445C162.996 198.589 163.954 198.865 164.925 198.996C165.03 198.996 165.023 199.166 164.925 199.16C164.007 199.061 163.062 199.12 162.13 199.081L159.336 198.95C157.466 198.865 155.603 198.806 153.734 198.707C150.001 198.504 146.281 198.34 142.542 198.268C142.352 198.268 142.352 197.979 142.575 197.959Z" fill="#0E1726"/>
<path d="M188.928 134.465C188.403 136.177 178.95 149.763 169.779 147.381C165.929 146.384 169.779 131.493 169.779 131.493L167.352 115.5L187.977 104.348C187.977 104.348 189.151 133.73 188.928 134.465Z" fill="#EB9481"/>
<path d="M167.372 115.5L169.733 131.021C177.775 128.471 184.488 122.854 188.416 115.389C188.193 109.406 187.996 104.335 187.996 104.335L167.372 115.5Z" fill="#0E1726"/>
<path d="M149.843 88.1838C141.762 113.407 155.957 121.102 161.396 122.834C166.335 124.415 183.352 129.158 193.999 104.905C204.646 80.6529 195.488 68.9302 184.336 64.7252C173.184 60.5203 157.925 62.9737 149.843 88.1838Z" fill="#EB9481"/>
<path d="M155.649 84.858C156.258 84.9105 156.869 84.9302 157.479 84.9171C158.12 85.0266 158.779 84.9229 159.356 84.6219C159.518 84.492 159.632 84.312 159.68 84.1102C159.729 83.9084 159.709 83.6961 159.625 83.5067C159.402 83.155 159.089 82.8692 158.719 82.6788C158.349 82.4885 157.934 82.4007 157.519 82.4243C156.671 82.3423 155.823 82.5759 155.138 83.0803C154.984 83.2043 154.87 83.3709 154.811 83.5592C154.751 83.7476 154.749 83.9492 154.803 84.139C154.858 84.3288 154.967 84.4982 155.118 84.6261C155.268 84.7541 155.453 84.8347 155.649 84.858Z" fill="#0E1726"/>
<path d="M173.407 91.6868C172.873 91.3933 172.323 91.1284 171.76 90.8931C171.22 90.5291 170.574 90.356 169.924 90.4011C169.723 90.4555 169.546 90.5741 169.419 90.7388C169.292 90.9035 169.223 91.1051 169.222 91.3129C169.284 91.7239 169.455 92.1108 169.717 92.4337C169.978 92.7566 170.322 93.0038 170.711 93.1497C171.455 93.5713 172.331 93.6977 173.164 93.5039C173.35 93.4491 173.516 93.3415 173.643 93.1943C173.769 93.047 173.85 92.8663 173.875 92.6741C173.901 92.4819 173.87 92.2864 173.787 92.1112C173.704 91.936 173.572 91.7886 173.407 91.6868Z" fill="#0E1726"/>
<path d="M167.7 96.2067C167.733 96.1476 167.811 96.3248 167.792 96.3969C167.267 98.1222 166.959 100.189 168.376 101.192C168.422 101.192 168.376 101.31 168.336 101.284C166.486 100.497 166.926 97.7614 167.7 96.2067Z" fill="#0E1726"/>
<path d="M169.747 94.8094C172.607 95.3539 171.308 101.028 168.658 100.523C166.007 100.018 167.352 94.3568 169.747 94.8094Z" fill="#0E1726"/>
<path d="M170.79 95.3609C171.216 95.8004 171.57 96.4761 172.154 96.6729C172.738 96.8697 173.466 96.4236 174.07 95.9578C174.129 95.9053 174.168 95.9578 174.155 96.0431C173.919 97.1321 173.25 98.1554 172.043 98.0505C170.947 97.9521 170.403 96.8172 170.383 95.6626C170.376 95.4461 170.619 95.1903 170.79 95.3609Z" fill="#0E1726"/>
<path d="M157.545 93.0909C157.545 93.0253 157.394 93.1434 157.381 93.2221C157.046 94.9933 156.364 96.9678 154.645 97.204C154.593 97.204 154.58 97.2958 154.645 97.3024C156.646 97.4598 157.519 94.8293 157.545 93.0909Z" fill="#0E1726"/>
<path d="M156.384 90.9063C153.596 90.0667 152.12 95.7017 154.704 96.4758C157.289 97.2499 158.713 91.6083 156.384 90.9063Z" fill="#0E1726"/>
<path d="M155.111 90.9718C154.587 91.1555 154.003 91.5819 153.465 91.4769C152.927 91.372 152.54 90.6241 152.297 89.9419C152.297 89.8697 152.218 89.9025 152.199 89.9813C151.884 91.0505 151.949 92.2641 152.927 92.7365C153.904 93.2088 154.757 92.4347 155.295 91.4245C155.393 91.2408 155.321 90.8997 155.111 90.9718Z" fill="#0E1726"/>
<path d="M165.004 109.917C164.505 110.258 163.974 110.75 163.324 110.691C162.666 110.556 162.043 110.286 161.494 109.898C161.483 109.892 161.47 109.89 161.457 109.891C161.444 109.893 161.432 109.898 161.422 109.906C161.412 109.915 161.405 109.926 161.402 109.938C161.398 109.951 161.398 109.964 161.402 109.976C161.593 110.371 161.887 110.707 162.253 110.948C162.619 111.189 163.044 111.327 163.482 111.347C163.86 111.32 164.222 111.18 164.521 110.946C164.82 110.713 165.043 110.396 165.161 110.035C165.207 109.93 165.076 109.865 165.004 109.917Z" fill="#0E1726"/>
<path d="M163.941 107.562C161.199 105.968 159.671 106.047 157.853 105.706C157.67 105.614 157.276 105.332 157.302 105.141C157.302 105.076 158.555 101.593 158.555 101.593C158.011 101.678 155.275 101.993 155.518 101.33C157.624 95.8657 159.972 89.7845 163.233 84.7858C163.256 84.7551 163.289 84.7334 163.326 84.7246C163.363 84.7158 163.403 84.7204 163.437 84.7375C163.471 84.7547 163.499 84.7834 163.514 84.8186C163.529 84.8538 163.532 84.8933 163.521 84.9301C161.704 90.2634 158.929 95.2425 157.04 100.576C158.021 100.45 159.015 100.463 159.992 100.615C160.156 100.727 158.477 104.302 158.352 104.899C158.352 104.899 161.219 104.649 164.256 107.326C164.925 107.91 164.938 108.139 163.941 107.562Z" fill="#0E1726"/>
<path d="M190.588 107.116C185.635 106.388 187.459 95.085 187.459 95.085C187.459 95.085 168.028 85.9534 170.921 68.845C170.921 68.845 164.479 78.4554 152.468 80.2725C152.468 80.2725 158.247 62.2653 173.663 62.7507C173.663 62.7507 193.382 61.2157 199.496 78.2258C205.61 95.2358 193.914 107.608 190.588 107.116Z" fill="#0E1726"/>
<path d="M171.216 67.625C170.262 70.1205 169.853 72.791 170.015 75.4576C170.129 78.1567 170.799 80.8032 171.983 83.2312C172.276 83.8375 172.607 84.4247 172.974 84.9893L173.492 85.8552C173.689 86.1308 173.899 86.3932 174.109 86.6556C174.535 87.1804 174.935 87.7183 175.382 88.2168C175.828 88.7154 176.339 89.1549 176.831 89.6141C177.074 89.8372 177.31 90.0799 177.566 90.2701L178.366 90.8671L179.967 92.0544C181.102 92.7104 182.27 93.3664 183.437 93.9634C182.407 93.1303 181.312 92.4087 180.315 91.5756L178.852 90.2636L178.124 89.6076C177.901 89.378 177.691 89.1287 177.468 88.886C177.041 88.4071 176.608 87.9282 176.156 87.4624C175.703 86.9967 175.395 86.4325 175.014 85.9208L174.443 85.1468L173.965 84.3202C173.624 83.7799 173.317 83.2191 173.046 82.6408C171.917 80.3393 171.191 77.8607 170.901 75.3133C170.744 74.0296 170.691 72.7352 170.744 71.4429C170.794 70.1593 170.952 68.8822 171.216 67.625Z" fill="#0E1726"/>
<path d="M187.235 103.764C187.235 103.764 194.701 96.9875 197.902 99.8279C201.103 102.668 194.209 113.394 189.551 114.017C188.959 114.138 188.349 114.138 187.756 114.017C187.164 113.896 186.603 113.656 186.106 113.312C185.609 112.968 185.187 112.527 184.864 112.016C184.542 111.505 184.327 110.934 184.231 110.337L187.235 103.764Z" fill="#EB9481"/>
<path d="M195.849 102.852C195.862 102.856 195.873 102.865 195.882 102.876C195.89 102.887 195.894 102.9 195.894 102.914C195.894 102.928 195.89 102.942 195.882 102.953C195.873 102.964 195.862 102.972 195.849 102.977C192.569 103.508 190.339 105.942 188.567 108.585C189.715 107.674 191.08 107.339 192.326 108.743C192.392 108.815 192.287 108.926 192.208 108.887C191.717 108.599 191.149 108.47 190.582 108.517C190.015 108.564 189.476 108.785 189.04 109.15C188.313 109.77 187.653 110.465 187.072 111.222C186.868 111.459 186.416 111.222 186.593 110.921L186.632 110.855C187.432 106.998 191.637 102.301 195.849 102.852Z" fill="#0E1726"/>
<path d="M191.323 133.619C191.323 133.619 183.7 150.353 181.41 152.197C179.121 154.04 160.746 151.783 160.418 150.229C160.09 148.674 169.248 133.527 169.248 133.527C169.248 133.527 176.346 130.529 182.283 130.68C188.423 130.824 191.323 133.619 191.323 133.619Z" fill="#EB9481"/>
<path d="M98.8132 215.697C103.976 223.504 114.118 226.699 150.329 234.754C155.334 235.863 176.149 204.716 171.38 202C165.036 198.379 137.471 192.646 135.503 192.475C118.861 190.992 95.3102 210.41 98.8132 215.697Z" fill="#EB9481"/>
<path d="M167.05 200.262C167.05 200.262 182.289 205.982 189.354 211.473C198.827 218.813 203.983 229.054 205.879 233.482C209.848 242.711 213.095 267.771 206.004 269.955C199.614 271.923 197.627 246.149 197.627 246.149C197.627 246.149 203.996 272.107 195.862 273.045C187.728 273.983 187.131 243.951 187.131 243.951C187.131 243.951 193.074 270.762 184.507 270.434C178.052 270.185 175.979 242.987 175.979 242.987C175.979 242.987 180.925 266.072 174.28 266.098C166.932 266.131 163.436 241.17 163.436 241.17C146.518 238.402 139.597 230.162 135.372 223.714C134.368 222.166 167.05 200.262 167.05 200.262Z" fill="#EB9481"/>
<path d="M196.006 237.03C196.866 240.054 197.758 243.105 198.342 246.214C198.926 249.324 199.404 252.413 199.706 255.542C200.428 263.211 199.706 268.131 199.706 267.823C200.008 260.522 198.079 249.455 197.495 246.345C196.912 243.236 196.479 240.153 195.895 237.07C195.875 236.971 195.987 236.958 196.006 237.03Z" fill="#0E1726"/>
<path d="M184.822 238.946C185.747 242.882 186.79 246.693 187.57 250.642C188.351 254.592 188.692 258.364 189.171 262.339C189.21 262.641 189.033 262.562 188.987 262.254C188.331 258.318 187.452 254.71 186.77 250.767C186.088 246.825 185.55 242.895 184.723 238.959C184.71 238.9 184.808 238.887 184.822 238.946Z" fill="#0E1726"/>
<path d="M174.922 238.867C176.648 244.771 177.284 250.97 177.763 257.071C177.763 257.38 177.566 257.248 177.527 256.94C176.694 250.865 176.09 246.096 174.719 238.926C174.693 238.815 174.89 238.743 174.922 238.867Z" fill="#0E1726"/>
<path d="M166.742 198.051L133.581 233.16C133.581 233.16 101.536 224.94 96.9963 216.55C94.0049 211.027 118.861 189.654 137.117 192.718L166.742 198.051Z" fill="#4361EE"/>
<path d="M160.005 205.168L161.068 204.053C160.621 204.324 160.254 204.709 160.005 205.168ZM141.125 203.601C141.72 203.601 142.301 203.777 142.795 204.107C143.289 204.438 143.674 204.908 143.902 205.457C144.129 206.006 144.188 206.611 144.071 207.194C143.955 207.777 143.668 208.312 143.247 208.732C142.827 209.152 142.291 209.438 141.707 209.553C141.124 209.668 140.52 209.607 139.971 209.379C139.422 209.151 138.953 208.765 138.624 208.27C138.295 207.775 138.119 207.193 138.121 206.599C138.121 206.204 138.199 205.814 138.35 205.45C138.501 205.086 138.722 204.755 139.001 204.476C139.28 204.198 139.611 203.977 139.976 203.827C140.34 203.677 140.731 203.6 141.125 203.601ZM119.602 203.601C120.196 203.601 120.778 203.777 121.272 204.107C121.766 204.438 122.151 204.908 122.378 205.457C122.605 206.006 122.665 206.611 122.548 207.194C122.432 207.777 122.145 208.312 121.724 208.732C121.303 209.152 120.767 209.438 120.184 209.553C119.601 209.668 118.996 209.607 118.448 209.379C117.899 209.151 117.43 208.765 117.101 208.27C116.771 207.775 116.596 207.193 116.597 206.599C116.597 206.204 116.675 205.814 116.826 205.45C116.977 205.086 117.199 204.755 117.478 204.476C117.757 204.198 118.088 203.977 118.453 203.827C118.817 203.677 119.208 203.6 119.602 203.601ZM132.145 192.449C131.629 192.833 131.003 193.04 130.36 193.039C129.933 193.039 129.51 192.947 129.12 192.77C130.122 192.605 131.131 192.493 132.145 192.436V192.449ZM130.36 221.063C130.954 221.063 131.535 221.24 132.029 221.57C132.524 221.9 132.909 222.369 133.136 222.918C133.363 223.467 133.423 224.071 133.307 224.654C133.191 225.237 132.905 225.772 132.485 226.192C132.065 226.613 131.529 226.899 130.946 227.015C130.364 227.131 129.76 227.071 129.211 226.844C128.662 226.616 128.192 226.231 127.862 225.737C127.532 225.243 127.356 224.662 127.356 224.068C127.354 223.672 127.431 223.28 127.581 222.914C127.731 222.548 127.952 222.215 128.231 221.935C128.51 221.655 128.842 221.432 129.207 221.28C129.573 221.128 129.965 221.05 130.36 221.05V221.063ZM108.837 221.063C109.387 221.063 109.926 221.214 110.396 221.5C110.866 221.785 111.249 222.194 111.503 222.681C111.756 223.169 111.871 223.717 111.835 224.266C111.799 224.815 111.613 225.343 111.297 225.793C109.427 225.019 107.61 224.199 105.924 223.353C106.079 222.697 106.451 222.113 106.98 221.695C107.509 221.277 108.163 221.05 108.837 221.05V221.063Z" fill="#6B7280"/>
<path d="M125.021 226.974C128.419 222.966 132.027 219.148 135.654 215.33C139.282 211.512 142.87 207.694 146.616 203.968C148.715 201.869 150.801 199.75 152.979 197.716C153.038 197.664 153.137 197.716 153.084 197.808C149.693 201.81 146.091 205.68 142.503 209.485C138.915 213.29 135.287 217.127 131.587 220.893C129.508 223.025 127.395 225.111 125.217 227.144C125.112 227.256 124.916 227.092 125.021 226.974Z" fill="#0E1726"/>
<path d="M165.804 199.048L167.168 198.031L167.326 197.913C163.18 196.739 159.001 195.67 154.79 194.758C147.515 193.269 140.135 191.668 132.676 191.72C127.313 192.093 122.116 193.732 117.509 196.503C122.29 194.316 127.45 193.078 132.702 192.855C135.844 192.94 138.976 193.238 142.076 193.748C149.345 194.791 159.743 196.765 167.077 198.057L167.037 197.88L165.804 199.048Z" fill="#0E1726"/>
<path d="M200.565 159.078C198.138 198.438 188.141 228.568 171.596 228.339C160.602 228.188 168.244 195.755 168.369 195.053C171.645 180.126 176.898 165.702 183.988 152.164C195.993 129.453 201.648 141.491 200.565 159.078Z" fill="#EB9481"/>
<path d="M200.565 159.078C198.138 198.438 188.141 228.568 171.596 228.339C160.602 228.188 163.265 200.262 163.396 199.566C163.843 197.179 173.072 172.808 183.988 152.164C195.993 129.453 201.648 141.491 200.565 159.078Z" fill="#4361EE"/>
<path d="M181.168 172.565C181.166 173.16 181.341 173.742 181.671 174.236C182 174.731 182.469 175.118 183.018 175.346C183.567 175.574 184.171 175.635 184.754 175.52C185.337 175.404 185.873 175.119 186.294 174.699C186.715 174.279 187.002 173.744 187.118 173.161C187.235 172.578 187.176 171.973 186.948 171.424C186.721 170.874 186.336 170.405 185.842 170.074C185.348 169.744 184.767 169.568 184.172 169.568C183.376 169.568 182.613 169.883 182.05 170.445C181.487 171.007 181.169 171.77 181.168 172.565ZM194.944 152.984C195.538 152.983 196.12 153.158 196.615 153.487C197.109 153.816 197.496 154.285 197.724 154.834C197.952 155.383 198.013 155.987 197.898 156.57C197.782 157.154 197.497 157.69 197.077 158.111C196.657 158.531 196.122 158.818 195.539 158.935C194.956 159.051 194.351 158.992 193.802 158.765C193.252 158.538 192.783 158.152 192.452 157.658C192.122 157.164 191.946 156.583 191.946 155.988C191.946 155.195 192.259 154.434 192.819 153.871C193.378 153.308 194.137 152.989 194.93 152.984H194.944ZM184.185 203.601C184.78 203.601 185.361 203.777 185.855 204.108C186.349 204.438 186.734 204.908 186.962 205.457C187.189 206.006 187.248 206.611 187.131 207.194C187.015 207.777 186.728 208.312 186.307 208.732C185.886 209.152 185.351 209.438 184.767 209.553C184.184 209.668 183.58 209.608 183.031 209.379C182.482 209.151 182.013 208.765 181.684 208.27C181.354 207.775 181.179 207.193 181.181 206.599C181.18 206.205 181.257 205.816 181.406 205.452C181.556 205.088 181.777 204.758 182.054 204.479C182.332 204.201 182.662 203.98 183.026 203.829C183.389 203.678 183.779 203.601 184.172 203.601H184.185ZM163.121 203.64C163.835 203.748 164.487 204.111 164.955 204.661C165.424 205.211 165.678 205.912 165.671 206.634C165.663 207.357 165.396 208.052 164.916 208.593C164.437 209.134 163.778 209.483 163.062 209.577C162.99 207.366 163.029 205.306 163.108 203.64H163.121ZM194.944 187.017C195.344 187.018 195.741 187.098 196.11 187.253C196.48 187.409 196.815 187.636 197.095 187.922C196.772 189.589 196.433 191.216 196.078 192.803C195.718 192.951 195.333 193.027 194.944 193.026C194.147 193.026 193.383 192.71 192.819 192.146C192.256 191.583 191.939 190.818 191.939 190.022C191.939 189.225 192.256 188.461 192.819 187.897C193.383 187.334 194.147 187.017 194.944 187.017ZM173.42 187.017C174.015 187.016 174.596 187.191 175.091 187.52C175.586 187.85 175.972 188.318 176.201 188.867C176.429 189.416 176.489 190.021 176.374 190.604C176.259 191.187 175.973 191.723 175.554 192.144C175.134 192.565 174.598 192.851 174.015 192.968C173.432 193.084 172.828 193.025 172.279 192.798C171.729 192.571 171.26 192.186 170.929 191.692C170.599 191.197 170.422 190.616 170.422 190.022C170.422 189.228 170.736 188.467 171.295 187.904C171.854 187.341 172.614 187.022 173.407 187.017H173.42ZM173.42 221.05C174.015 221.049 174.596 221.224 175.091 221.554C175.586 221.883 175.972 222.352 176.201 222.901C176.429 223.45 176.489 224.054 176.374 224.637C176.259 225.22 175.973 225.756 175.554 226.177C175.134 226.598 174.598 226.885 174.015 227.001C173.432 227.118 172.828 227.059 172.279 226.831C171.729 226.604 171.26 226.219 170.929 225.725C170.599 225.231 170.422 224.649 170.422 224.055C170.422 223.261 170.736 222.5 171.295 221.937C171.854 221.374 172.614 221.056 173.407 221.05H173.42Z" fill="#6B7280"/>
<path d="M182.637 154.788C179.095 161.708 175.821 168.76 172.613 175.839C169.524 182.969 166.296 190.074 164 197.487C169.635 183.304 176.661 168.872 182.637 154.788Z" fill="#0E1726"/>
<path d="M180.367 156.296C179.403 158.264 178.655 160.495 178.95 162.699C179.331 160.567 180.052 158.455 180.367 156.296Z" fill="#0E1726"/>
<path d="M165.666 225.99C155.524 223.399 140.902 198.549 132.788 170.971C131.239 165.723 172.436 149.126 173.46 154.892C176.681 173.392 184.126 197.9 182.401 212.411C181.056 223.687 172.685 227.781 165.666 225.99Z" fill="#EB9481"/>
<path d="M156.128 133.914C158.923 131.099 160.136 122.578 162.872 117.75C165.607 112.922 172.39 111.19 173.368 113.158C174.345 115.126 172.449 116.825 171.105 125.058C170.245 130.358 173.282 141.405 170.599 150.904C169.248 155.693 153.327 136.728 156.128 133.914Z" fill="#F7A9A0"/>
<path d="M156.128 133.914C158.923 131.099 160.136 122.578 162.872 117.75C165.607 112.922 172.39 111.19 173.368 113.158C174.345 115.126 172.449 116.825 171.105 125.058C170.245 130.358 173.282 141.405 170.599 150.904C169.248 155.693 153.327 136.728 156.128 133.914Z" fill="#EB9481"/>
<path opacity="0.06" d="M156.128 133.914C158.923 131.099 160.136 122.578 162.872 117.75C165.607 112.922 172.39 111.19 173.368 113.158C174.345 115.126 172.449 116.825 171.105 125.058C170.245 130.358 173.282 141.405 170.599 150.904C169.248 155.693 153.327 136.728 156.128 133.914Z" fill="black"/>
<path d="M139.177 105.988C135.359 108.907 143.369 117.704 143.369 117.704C141.406 117.036 139.271 117.075 137.334 117.816C133.988 119.279 134.808 125.169 134.808 125.169C132.629 124.897 130.418 125.288 128.465 126.291C125.401 128.017 125.388 134.078 125.388 134.078C123.248 134.937 121.488 136.536 120.429 138.585C117.805 144.167 123.538 151.705 126.149 157.11C128.95 162.87 132.466 170.027 134.533 173.609L173.893 158.186C173.893 158.186 170.265 128.882 165.653 123.484C161.757 118.931 144.976 101.514 139.177 105.988Z" fill="#EB9481"/>
<path d="M143.533 117.704C148.827 121.548 153.189 126.658 157.342 131.631C157.434 131.742 157.256 131.887 157.165 131.775C153.091 126.777 147.587 122.755 143.323 117.927C143.205 117.796 143.395 117.599 143.533 117.704Z" fill="#0E1726"/>
<path d="M135.3 125.006C136.42 125.995 137.404 127.129 138.226 128.377C139.177 129.637 140.102 130.916 141.014 132.208C142.831 134.8 144.596 137.456 146.262 140.08C146.341 140.205 146.177 140.343 146.091 140.225C144.274 137.647 142.418 135.101 140.489 132.602C139.523 131.347 138.55 130.105 137.57 128.876C136.567 127.767 135.688 126.553 134.946 125.255C134.933 125.209 134.935 125.16 134.951 125.116C134.966 125.071 134.996 125.032 135.035 125.005C135.074 124.977 135.12 124.963 135.168 124.963C135.215 124.963 135.261 124.978 135.3 125.006Z" fill="#0E1726"/>
<path d="M125.467 134.183C126.516 134.93 127.225 136.308 127.933 137.358C128.74 138.558 129.554 139.745 130.367 140.933C132.007 143.314 133.647 145.682 135.359 148.004C135.444 148.116 135.274 148.26 135.182 148.142C133.43 145.8 131.64 143.478 129.901 141.116C129.048 139.953 128.202 138.79 127.362 137.627C126.647 136.636 125.644 135.475 125.342 134.261C125.341 134.246 125.345 134.232 125.352 134.218C125.359 134.205 125.369 134.194 125.382 134.186C125.394 134.178 125.409 134.174 125.424 134.173C125.439 134.172 125.453 134.176 125.467 134.183Z" fill="#0E1726"/>
<path d="M147.961 107.641C152.553 111 156.653 115.021 160.779 118.924C162.326 120.377 163.795 121.91 165.181 123.516C166.425 125.215 167.395 127.099 168.054 129.099C168.572 130.411 168.992 131.788 169.406 133.159C168.75 129.676 167.956 125.943 165.811 123.024C164.457 121.337 162.991 119.744 161.422 118.255C157.25 114.358 152.979 110.383 147.961 107.628V107.641Z" fill="#0E1726"/>
<path d="M180.498 166.156L140.213 195.112C140.213 195.112 156.561 228.365 165.666 228.627C174.772 228.89 185.163 223.996 186.56 202.177C186.914 196.732 180.498 166.156 180.498 166.156Z" fill="#4361EE"/>
<path d="M181.168 172.565C181.167 173.011 181.266 173.451 181.456 173.854C181.647 174.257 181.925 174.612 182.27 174.894C182.001 173.53 181.745 172.27 181.522 171.148C181.29 171.585 181.169 172.071 181.168 172.565ZM184.172 203.601C184.584 203.6 184.991 203.685 185.368 203.85C185.745 204.014 186.084 204.256 186.363 204.559C186.206 206.199 185.983 207.734 185.707 209.151C185.243 209.435 184.71 209.585 184.165 209.583C183.76 209.602 183.354 209.539 182.973 209.397C182.593 209.254 182.245 209.036 181.951 208.756C181.657 208.475 181.423 208.138 181.263 207.764C181.103 207.391 181.021 206.989 181.021 206.582C181.021 206.176 181.103 205.774 181.263 205.4C181.423 205.027 181.657 204.689 181.951 204.409C182.245 204.128 182.593 203.91 182.973 203.768C183.354 203.626 183.76 203.562 184.165 203.581L184.172 203.601ZM162.649 203.601C163.243 203.601 163.824 203.777 164.319 204.108C164.813 204.438 165.198 204.908 165.425 205.457C165.652 206.006 165.711 206.611 165.595 207.194C165.478 207.777 165.192 208.312 164.771 208.732C164.35 209.152 163.814 209.438 163.231 209.553C162.648 209.668 162.043 209.608 161.494 209.379C160.945 209.151 160.477 208.765 160.147 208.27C159.818 207.775 159.643 207.193 159.644 206.599C159.644 206.204 159.722 205.814 159.873 205.45C160.024 205.086 160.245 204.755 160.525 204.477C160.804 204.198 161.135 203.977 161.499 203.827C161.864 203.677 162.254 203.6 162.649 203.601ZM173.407 187.017C174.002 187.016 174.583 187.191 175.078 187.52C175.573 187.85 175.959 188.318 176.187 188.867C176.416 189.416 176.476 190.02 176.361 190.604C176.246 191.187 175.96 191.723 175.54 192.144C175.12 192.565 174.585 192.851 174.002 192.968C173.419 193.084 172.815 193.025 172.265 192.798C171.716 192.571 171.246 192.186 170.916 191.691C170.585 191.197 170.409 190.616 170.409 190.022C170.409 189.226 170.725 188.463 171.287 187.899C171.849 187.336 172.611 187.019 173.407 187.017ZM149.207 188.664L151.451 187.05C151.595 187.04 151.74 187.04 151.884 187.05C152.478 187.05 153.059 187.226 153.553 187.556C154.047 187.886 154.432 188.356 154.659 188.905C154.887 189.454 154.946 190.058 154.83 190.64C154.715 191.223 154.428 191.759 154.008 192.179C153.588 192.599 153.053 192.885 152.47 193.001C151.887 193.117 151.283 193.058 150.734 192.83C150.185 192.603 149.716 192.218 149.386 191.724C149.055 191.229 148.879 190.649 148.879 190.054C148.874 189.571 148.986 189.094 149.207 188.664ZM173.407 221.05C174.002 221.049 174.583 221.224 175.078 221.554C175.573 221.883 175.959 222.352 176.187 222.901C176.416 223.449 176.476 224.054 176.361 224.637C176.246 225.22 175.96 225.756 175.54 226.177C175.12 226.598 174.585 226.885 174.002 227.001C173.419 227.118 172.815 227.058 172.265 226.831C171.716 226.604 171.246 226.219 170.916 225.725C170.585 225.23 170.409 224.649 170.409 224.055C170.409 223.259 170.725 222.496 171.287 221.933C171.849 221.369 172.611 221.052 173.407 221.05Z" fill="#6B7280"/>
<path d="M179.593 179.676C177.625 180.988 175.775 182.523 173.893 183.973C172.01 185.423 170.14 186.899 168.29 188.394C164.591 191.381 160.915 194.399 157.263 197.447C156.266 198.287 155.295 199.12 154.291 199.979C153.288 200.839 152.323 201.947 151.248 202.839C151.234 202.855 151.227 202.874 151.226 202.894C151.226 202.914 151.232 202.933 151.245 202.949C151.257 202.965 151.275 202.976 151.295 202.98C151.314 202.983 151.335 202.98 151.352 202.971C152.277 202.256 153.32 201.659 154.239 200.963C155.157 200.268 156.168 199.494 157.119 198.739C158.982 197.266 160.838 195.781 162.688 194.285C166.395 191.307 170.081 188.296 173.683 185.193C175.716 183.442 177.822 181.729 179.751 179.86C179.763 179.849 179.773 179.837 179.78 179.823C179.787 179.808 179.791 179.793 179.793 179.777C179.794 179.761 179.792 179.745 179.787 179.73C179.782 179.715 179.774 179.701 179.764 179.689C179.754 179.677 179.741 179.667 179.727 179.66C179.713 179.653 179.697 179.649 179.681 179.647C179.665 179.646 179.65 179.648 179.634 179.653C179.619 179.658 179.605 179.666 179.593 179.676Z" fill="#0E1726"/>
<path d="M175.933 169.436L180.571 166.248L180.367 166.169C181.679 174.041 183.168 181.913 184.533 189.785C185.183 193.192 185.66 196.629 185.963 200.084C186.089 204.558 185.669 209.03 184.71 213.401C186.203 209.114 186.987 204.611 187.032 200.071C186.711 192.534 185.025 185.134 183.503 177.767C182.628 173.801 181.651 169.852 180.571 165.92L180.42 166.031L175.933 169.423V169.436Z" fill="#0E1726"/>
<path d="M141.421 194.24L140.194 195.105C142.405 199.868 144.851 204.512 147.475 209.065C151.589 215.737 155.643 222.841 162.071 227.636C164.262 229.283 167.175 229.604 169.865 229.657C172.572 229.746 175.265 229.217 177.737 228.109C185.169 224.547 188.889 216.517 191.513 209.164C194.911 199.205 196.958 188.9 198.88 178.587C199.765 173.425 200.625 168.262 201.287 163.066C200.329 168.209 199.352 173.352 198.25 178.463C196.092 188.67 193.782 198.91 190.378 208.763C187.793 215.796 184.198 223.491 177.192 226.974C174.886 228.022 172.371 228.531 169.838 228.463C167.346 228.378 164.768 228.233 162.662 226.685C156.39 222.054 152.166 215.212 148.007 208.717C145.245 204.362 142.628 199.533 140.214 195.151L141.401 194.226L141.421 194.24Z" fill="#0E1726"/>
<path d="M202.265 166.661C202.265 166.661 202.658 168.524 200.021 171.791L202.265 166.661Z" fill="#0E1726"/>
<path d="M294.098 300.118C210.747 299.718 117.253 299.711 33.902 300.118C117.253 300.525 210.747 300.518 294.098 300.118Z" fill="#0E1726"/>
<path d="M148.171 70.295C148.171 70.8801 147.997 71.4521 147.672 71.9387C147.347 72.4252 146.885 72.8044 146.344 73.0283C145.804 73.2523 145.209 73.3109 144.635 73.1967C144.061 73.0825 143.534 72.8008 143.12 72.387C142.706 71.9732 142.425 71.4461 142.31 70.8722C142.196 70.2983 142.255 69.7034 142.479 69.1628C142.703 68.6222 143.082 68.1601 143.568 67.835C144.055 67.5099 144.627 67.3364 145.212 67.3364C145.601 67.3364 145.985 67.4129 146.344 67.5616C146.703 67.7103 147.029 67.9282 147.304 68.203C147.579 68.4777 147.797 68.8038 147.945 69.1628C148.094 69.5217 148.171 69.9065 148.171 70.295Z" fill="#6B7280"/>
<path d="M148.171 70.2949C148.171 71.0361 147.876 71.7469 147.352 72.271C146.828 72.7951 146.117 73.0895 145.376 73.0895C144.635 73.0895 143.924 72.7951 143.4 72.271C142.876 71.7469 142.582 71.0361 142.582 70.2949C142.582 69.5538 142.876 68.843 143.4 68.3189C143.924 67.7948 144.635 67.5004 145.376 67.5004C146.117 67.5004 146.828 67.7948 147.352 68.3189C147.876 68.843 148.171 69.5538 148.171 70.2949ZM148.171 70.2949C148.053 66.1753 142.063 66.1425 141.926 70.2949C142.063 74.4409 148.053 74.4081 148.171 70.2949Z" fill="#0E1726"/>
<path d="M134.651 72.1184C132.299 72.1184 130.393 70.2123 130.393 67.861C130.393 65.5096 132.299 63.6035 134.651 63.6035C137.002 63.6035 138.908 65.5096 138.908 67.861C138.908 70.2123 137.002 72.1184 134.651 72.1184Z" fill="#6B7280"/>
<path d="M138.908 67.848C138.96 71.5085 134.277 73.3518 131.836 70.6622C131.12 69.9005 130.72 68.894 130.72 67.848C130.72 66.802 131.12 65.7955 131.836 65.0337C134.277 62.3507 138.96 64.1875 138.908 67.848ZM138.908 67.848C138.908 67.1146 138.726 66.3926 138.379 65.7469C138.031 65.1012 137.528 64.5519 136.916 64.1485C136.303 63.7451 135.6 63.5001 134.87 63.4356C134.139 63.3711 133.404 63.4891 132.73 63.7789C132.056 64.0687 131.465 64.5213 131.01 65.0961C130.554 65.6709 130.249 66.3498 130.12 67.0719C129.992 67.794 130.045 68.5367 130.275 69.2332C130.504 69.9297 130.904 70.5582 131.436 71.0624C132.067 71.6511 132.855 72.0435 133.705 72.1915C134.555 72.3395 135.43 72.2368 136.222 71.8958C137.015 71.5549 137.691 70.9906 138.168 70.2717C138.645 69.5529 138.902 68.7107 138.908 67.848Z" fill="#0E1726"/>
<path d="M96.3597 77.878C77.5709 77.878 62.3396 66.5382 62.3396 52.5498C62.3396 38.5615 77.5709 27.2217 96.3597 27.2217C115.149 27.2217 130.38 38.5615 130.38 52.5498C130.38 66.5382 115.149 77.878 96.3597 77.878Z" fill="#6B7280"/>
<path d="M129.449 46.6657C133.385 58.8214 124.397 69.8487 113.547 74.303C108.147 76.5533 102.353 77.7059 96.5035 77.6935C90.6536 77.6811 84.8646 76.504 79.4744 74.2308C72.4487 71.2198 65.9739 65.7881 63.5861 58.3359C58.5283 41.5292 75.4794 29.5572 90.4165 27.786C105.275 25.6868 124.017 31.3481 129.449 46.6657ZM129.449 46.6657C124.037 31.3022 105.314 25.549 90.3706 27.458C82.6167 28.4879 74.9152 31.4399 69.2015 36.911C63.3959 42.2639 60.352 50.8575 62.976 58.5393C69.8378 77.6945 96.7994 82.1553 113.639 74.4932C124.45 69.9012 133.45 58.841 129.462 46.6657H129.449Z" fill="#0E1726"/>
<path d="M97.9166 54.5771V57.0764C97.9238 57.3259 97.8801 57.5743 97.7881 57.8063C97.6961 58.0384 97.5578 58.2492 97.3816 58.426C97.2054 58.6028 96.995 58.7419 96.7633 58.8347C96.5316 58.9275 96.2834 58.972 96.0339 58.9657C95.5339 58.964 95.0551 58.7641 94.7022 58.41C94.3493 58.0559 94.1511 57.5763 94.1511 57.0764V53.0748C94.1511 53.0355 94.1905 53.0355 94.1905 53.0027C94.1905 52.9699 94.1511 52.9633 94.1511 52.9239C94.1705 52.4302 94.3748 51.9617 94.7236 51.6117C95.0724 51.2617 95.5402 51.0557 96.0339 51.0347C97.1769 51.0347 98.2732 50.5806 99.0814 49.7723C99.8897 48.964 100.344 47.8678 100.344 46.7247C100.344 45.5817 99.8897 44.4854 99.0814 43.6772C98.2732 42.8689 97.1769 42.4148 96.0339 42.4148C95.286 42.4107 94.5504 42.6046 93.9018 42.9767C93.2531 43.3489 92.7145 43.886 92.3406 44.5337C92.2164 44.7541 92.0491 44.9474 91.8488 45.1019C91.6484 45.2565 91.4191 45.3692 91.1744 45.4335C90.9296 45.4977 90.6745 45.5122 90.4241 45.4759C90.1736 45.4397 89.9331 45.3535 89.7166 45.2225C89.504 45.0974 89.3182 44.9314 89.17 44.7342C89.0219 44.537 88.9142 44.3124 88.8532 44.0733C88.7922 43.8343 88.7791 43.5855 88.8147 43.3414C88.8503 43.0973 88.9339 42.8626 89.0606 42.651C89.7321 41.4908 90.6813 40.5157 91.8231 39.8134C92.9648 39.1111 94.2632 38.7035 95.6015 38.6273C96.9398 38.5512 98.276 38.8088 99.49 39.3771C100.704 39.9453 101.758 40.8064 102.557 41.8829C103.355 42.9593 103.874 44.2175 104.066 45.5441C104.258 46.8707 104.117 48.2243 103.657 49.4831C103.196 50.7418 102.43 51.8664 101.426 52.7555C100.423 53.6447 99.215 54.2706 97.91 54.5771H97.9166ZM97.9166 63.0067V63.6627C97.9238 63.9122 97.8801 64.1605 97.7881 64.3926C97.6961 64.6246 97.5578 64.8355 97.3816 65.0123C97.2054 65.1891 96.995 65.3281 96.7633 65.4209C96.5316 65.5137 96.2834 65.5583 96.0339 65.5519C95.5339 65.5502 95.0551 65.3504 94.7022 64.9963C94.3493 64.6421 94.1511 64.1626 94.1511 63.6627V63.0067C94.1579 62.5088 94.3582 62.0332 94.7097 61.6805C95.0611 61.3278 95.536 61.1259 96.0339 61.1174C96.2824 61.1147 96.529 61.1618 96.759 61.2559C96.989 61.35 97.1979 61.4892 97.3734 61.6652C97.5488 61.8413 97.6873 62.0507 97.7806 62.281C97.8738 62.5114 97.9201 62.7581 97.9166 63.0067Z" fill="#4361EE"/>
</svg>
