<svg xmlns="http://www.w3.org/2000/svg" xmlns:xlink="http://www.w3.org/1999/xlink" viewBox="0 0 600 600" xmlns:v="https://vecta.io/nano"><style><![CDATA[.An{opacity:.5}.Ao{enable-background:new}]]></style><linearGradient  gradientUnits="userSpaceOnUse" x1="0" y1="0" x2=".707" y2=".707"><stop offset="0" stop-color="#dddee2"/><stop offset=".181" stop-color="#d9dade"/><stop offset=".366" stop-color="#cdced2"/><stop offset=".553" stop-color="#b8babd"/><stop offset=".742" stop-color="#9b9ea0"/><stop offset=".93" stop-color="#777a7c"/><stop offset="1" stop-color="#676b6c"/></linearGradient><linearGradient id="B" gradientUnits="userSpaceOnUse" x1="371.896" y1="166.426" x2="221.589" y2="531.609"><stop offset=".122" stop-color="#f1ca6d"/><stop offset=".977" stop-color="#e6aa48"/></linearGradient><path d="M553.336 425.944l-18.016 3.048-386.332 65.405-61.711-254.432-12.575-51.824 86.903-14.025 325.796-52.597 52.83 243.943z" fill="url(#B)"/><linearGradient id="C" gradientUnits="userSpaceOnUse" x1="310.263" y1="365.599" x2="337.784" y2="-63.447"><stop offset="0" stop-color="#e2b646" stop-opacity="0"/><stop offset=".977" stop-color="#8d4121"/></linearGradient><path d="M553.336 425.944l-18.016 3.048-69.914-264.001c-.752-2.826-3.578-4.562-6.425-3.959L87.277 239.966l-12.575-51.824 86.903-14.025 325.796-52.597 52.83 243.943 13.104 60.483z" fill="url(#C)" class="An"/><linearGradient id="D" gradientUnits="userSpaceOnUse" x1="310.834" y1="190.793" x2="157.352" y2="635.364"><stop offset="0" stop-color="#e2b646" stop-opacity="0"/><stop offset=".977" stop-color="#8d4121"/></linearGradient><path d="M279.409 259.939c-69.882-19.036-83.888 41.011-6.618 57.553s80.45-37.441 6.618-57.553z" fill="url(#D)" class="An"/><linearGradient id="E" gradientUnits="userSpaceOnUse" x1="349.54" y1="204.155" x2="196.057" y2="648.727"><stop offset="0" stop-color="#e2b646" stop-opacity="0"/><stop offset=".977" stop-color="#8d4121"/></linearGradient><path d="M553.336 425.944l-62.219 10.532-342.129 57.921-30.305-124.956-43.981-181.3 86.903-14.025 4.319 2.731s11.559 143.332 91.518 167.635 92.81-46.913 189.768 3.874c42.806 22.419 72.836 23.213 93.021 17.105l13.104 60.483z" fill="url(#E)" class="An"/><linearGradient id="F" gradientUnits="userSpaceOnUse" x1="370.979" y1="211.557" x2="217.496" y2="656.128"><stop offset="0" stop-color="#e2b646" stop-opacity="0"/><stop offset=".977" stop-color="#8d4121"/></linearGradient><path d="M491.117 436.476l-342.129 57.921-30.305-124.956c42.266 37.598 102.802 46.479 182.38 40.096 121.59-9.759 155.812-1.249 190.054 26.939z" fill="url(#F)" class="An"/><linearGradient id="G" gradientUnits="userSpaceOnUse" x1="74.702" y1="276.962" x2="558.962" y2="276.962"><stop offset="0" stop-color="#4c5c7d"/><stop offset=".989" stop-color="#2f4652"/></linearGradient><path d="M558.544 394.899L496.247 138.14c-1.908-7.864-9.802-13.107-17.648-11.723l-378.428 66.727c-3.308.583-6.078 2.251-8.031 4.575l-17.438 20.659c1.953-2.324 4.723-3.992 8.031-4.575l378.428-66.727c7.846-1.383 15.739 3.86 17.648 11.723l62.296 256.758c1.105 4.552-.04 8.98-2.721 12.17l17.438-20.66c2.682-3.19 3.826-7.618 2.721-12.17z" fill="url(#G)"/><linearGradient id="H" gradientUnits="userSpaceOnUse" x1="469.134" y1="211.451" x2="485.541" y2="93.428"><stop offset="0" stop-color="#47717b" stop-opacity="0"/><stop offset=".928" stop-color="#201717"/></linearGradient><path d="M496.247 138.14l-17.438 20.66c-1.908-7.864-9.802-13.107-17.648-11.723l17.438-20.66c7.846-1.383 15.74 3.86 17.648 11.723z" fill="url(#H)"/><linearGradient id="I" gradientUnits="userSpaceOnUse" x1="360.934" y1="172.264" x2="200.042" y2="575.554"><stop offset="0" stop-color="#7e96c9"/><stop offset=".928" stop-color="#4e4f7b"/></linearGradient><path d="M599.085 405.455l-81.399-335.45c-4.181-17.19-21.466-28.675-38.614-25.647L60.223 118.209c-6.573 1.164-12.173 4.276-16.343 8.659-6.732 7.039-9.749 17.338-7.177 27.944l81.409 335.45c4.171 17.19 21.466 28.675 38.625 25.648l418.849-73.852c12.279-2.17 21.17-11.188 23.689-22.44.995-4.467.995-9.283-.191-14.163zm-52.724 3.006l-378.436 66.728c-7.843 1.387-15.75-3.863-17.656-11.728L89.417 212.723c-1.905-7.865 2.911-15.348 10.754-16.724l378.425-66.728c7.854-1.387 15.74 3.853 17.656 11.718l60.843 250.738c1.916 7.865-2.89 15.359-10.733 16.735z" fill="url(#I)"/><linearGradient id="J" gradientUnits="userSpaceOnUse" x1="360.113" y1="75.622" x2="261.677" y2="580.502"><stop offset="0" stop-color="#91bae4"/><stop offset="1" stop-color="#6281a1" stop-opacity="0"/></linearGradient><path d="M599.276 419.618L502.18 91.492c-36.518 7.843-55.296-21.636-55.296-21.636L43.88 126.868c4.17-4.382 9.77-7.494 16.343-8.659l59.139-10.426 359.711-63.425c17.148-3.027 34.433 8.457 38.614 25.647l71.258 293.671.011.042 10.13 41.737c1.186 4.88 1.186 9.696.191 14.163z" fill="url(#J)"/><linearGradient id="K" gradientUnits="userSpaceOnUse" x1="509.69" y1="-33.127" x2="361.499" y2="223.031"><stop offset="0" stop-color="#fff"/><stop offset="1" stop-color="#90c9d1" stop-opacity="0"/></linearGradient><path d="M588.945 363.676l-82.86-291.649c-2.847-10.035-12.649-16.428-22.98-14.988l-363.744 50.745 359.711-63.425c17.148-3.027 34.433 8.457 38.614 25.647l71.258 293.671z" fill="url(#K)"/><linearGradient id="L" gradientUnits="userSpaceOnUse" x1="318.193" y1="38.343" x2="225.673" y2="356.502"><stop offset="0" stop-color="#91bae4"/><stop offset="1" stop-color="#6281a1" stop-opacity="0"/></linearGradient><path d="M295.566 101.39c-68.581 9.326-66.63 38.43 3.328 30.082s53.675-37.833-3.328-30.082z" fill="url(#L)"/><linearGradient id="M" gradientUnits="userSpaceOnUse" x1="251.255" y1="422.037" x2="374.042" y2="160.587"><stop offset="0" stop-color="#97cdd6" stop-opacity="0"/><stop offset=".928" stop-color="#3f4d69"/></linearGradient><path d="M575.585 442.055l-418.849 73.852c-17.158 3.027-34.454-8.458-38.625-25.648l-81.409-335.45c-1.768-7.304-.889-14.47 2.032-20.514 68.231 5.949 113.143-5.981 145.639 46.849l-84.204 14.851c-7.844 1.376-12.66 8.86-10.754 16.724l1.133 4.679 59.721 246.059c1.905 7.865 9.812 13.115 17.656 11.728l371.069-65.426 7.367-1.302c7.844-1.376 12.649-8.87 10.733-16.735l-1.344-5.557c12.183-6.182 23.361-13.644 33.205-22.451l10.13 41.737c4.181 17.19-6.351 33.576-23.499 36.603z" fill="url(#M)"/><linearGradient id="N" gradientUnits="userSpaceOnUse" x1="146.207" y1="581.297" x2="290.163" y2="352.661"><stop offset="0" stop-color="#91bae4"/><stop offset="1" stop-color="#6281a1" stop-opacity="0"/></linearGradient><path d="M538.993 409.76c-.053.021-.117.032-.18.042l-377.568 74.487a16.27 16.27 0 0 1-19.074-12.713L90.58 218.446a2.93 2.93 0 0 1-.032-1.048l59.721 246.059c1.905 7.865 9.812 13.115 17.656 11.728l371.069-65.426z" fill="url(#N)"/><linearGradient id="O" gradientUnits="userSpaceOnUse" x1="173.742" y1="676.972" x2="256.305" y2="440.926"><stop offset="0" stop-color="#91bae4"/><stop offset="1" stop-color="#6281a1" stop-opacity="0"/></linearGradient><path d="M575.587 442.058L156.737 515.91c-17.158 3.027-34.454-8.457-38.625-25.648l-81.409-335.45 91.218 325.638c3.682 13.143 16.51 21.544 30.029 19.664l417.637-58.056z" fill="url(#O)"/><linearGradient id="P" gradientUnits="userSpaceOnUse" x1="307.352" y1="235.06" x2="264.485" y2="520.842"><stop offset="0" stop-color="#4c5c7d"/><stop offset=".989" stop-color="#2f4652"/></linearGradient><path d="M575.586 439.209l-418.849 73.854c-17.162 3.026-34.45-8.459-38.622-25.651L36.706 151.966c-2.414-9.947.747-17.803 6.612-24.78L6.869 167.942c-5.865 6.977-8.371 16.655-5.957 26.602l81.408 335.447c4.172 17.191 21.46 28.677 38.622 25.651l418.849-73.854c7.227-1.274 13.277-4.921 17.547-10l35.793-42.579c-4.27 5.079-10.32 8.726-17.547 10z" fill="url(#P)"/><linearGradient id="Q" gradientUnits="userSpaceOnUse" x1="12.189" y1="115.911" x2="38.123" y2="233.405"><stop offset="0" stop-color="#91bae4"/><stop offset="1" stop-color="#6281a1" stop-opacity="0"/></linearGradient><path d="M6.869 167.943l36.448-40.757c-5.865 6.977-9.026 14.833-6.612 24.78L.913 194.545c-2.414-9.947.092-19.625 5.957-26.602z" fill="url(#Q)"/><linearGradient id="R" gradientUnits="userSpaceOnUse" x1="284.907" y1="307.895" x2="344.889" y2="548.528"><stop offset="0" stop-color="#47717b" stop-opacity="0"/><stop offset=".928" stop-color="#201717"/></linearGradient><path d="M575.585 439.207l-35.788 42.584-418.849 73.852c-17.169 3.027-34.454-8.457-38.625-25.648l35.788-42.584c4.171 17.19 21.466 28.675 38.625 25.648l418.849-73.852z" fill="url(#R)"/><linearGradient id="S" gradientUnits="userSpaceOnUse" x1="300.078" y1="304.114" x2="360.06" y2="544.747"><stop offset="0" stop-color="#47717b" stop-opacity="0"/><stop offset=".928" stop-color="#201717"/></linearGradient><path d="M575.586 439.209l-35.793 42.579-418.849 73.854 35.793-42.579z" fill="url(#S)"/><g class="An"><linearGradient id="T" gradientUnits="userSpaceOnUse" x1="454.935" y1="33.628" x2="351.201" y2="511.012"><stop offset="0" stop-color="#e2b646" stop-opacity="0"/><stop offset=".977" stop-color="#8d4121"/></linearGradient><use xlink:href="#An" fill="url(#T)"/><linearGradient id="U" gradientUnits="userSpaceOnUse" x1="373.186" y1="15.864" x2="269.453" y2="493.249"><stop offset="0" stop-color="#e2b646" stop-opacity="0"/><stop offset=".977" stop-color="#8d4121"/></linearGradient><use xlink:href="#Ao" fill="url(#U)"/><linearGradient id="V" gradientUnits="userSpaceOnUse" x1="287.117" y1="-2.838" x2="183.384" y2="474.546"><stop offset="0" stop-color="#e2b646" stop-opacity="0"/><stop offset=".977" stop-color="#8d4121"/></linearGradient><path d="M251.854 370.571c-1.704 2.763-4.541 4.731-7.865 5.314-2.011.36-4.192.212-6.404-.572l-62.452-21.932c-8.627-3.027-11.665-13.464-6.309-19.783.349-.434.752-.836 1.196-1.228l47.082-41.366c1.672-1.471 3.62-2.35 5.631-2.699 6.319-1.122 13.348 2.921 15.073 10.003l.794 3.271c1.037 4.287-.254 8.648-3.408 11.474l-25.933 23.372a.84.84 0 0 0 .095.042l34.592 12.639c4.202 1.535 7.42 5.113 8.457 9.378l.762 3.112c.815 3.355.212 6.489-1.313 8.976z" fill="url(#V)"/></g><g class="Ao"><linearGradient id="W" gradientUnits="userSpaceOnUse" x1="378.717" y1="302.144" x2="459.582" y2="302.144"><stop offset="0" stop-color="#54b8e4"/><stop offset="1" stop-color="#3f89bf"/></linearGradient><path d="M459.582 272.917l-11.94 14.194-47.082 41.366c-1.672 1.471-3.62 2.35-5.631 2.71-6.319 1.111-13.348-2.932-15.062-10.013l-.794-3.271c-.91-3.758-.042-7.568 2.308-10.352l11.929-14.194c-2.339 2.784-3.218 6.605-2.308 10.352l.794 3.271c1.715 7.081 8.743 11.125 15.063 10.013 2.011-.36 3.959-1.238 5.642-2.71l47.082-41.366z" fill="url(#W)"/><linearGradient id="X" gradientUnits="userSpaceOnUse" x1="364.141" y1="258.204" x2="420.332" y2="258.204"><stop offset="0" stop-color="#54b8e4"/><stop offset="1" stop-color="#3f89bf"/></linearGradient><path d="M408.403 283.058l-34.687-12.681c-4.202-1.535-7.42-5.102-8.457-9.378l-.752-3.112c-.974-4.001.064-7.685 2.286-10.342l11.929-14.195c-2.223 2.657-3.26 6.34-2.286 10.342l.751 3.112c1.037 4.276 4.255 7.844 8.457 9.389l34.687 12.67-11.929 14.194z" fill="url(#X)"/><linearGradient id="Y" gradientUnits="userSpaceOnUse" x1="394.142" y1="232.34" x2="391.496" y2="296.379"><stop offset="0" stop-color="#2f789e" stop-opacity="0"/><stop offset="1" stop-color="#273b5f"/></linearGradient><path d="M420.332 268.863l-11.929 14.194-34.687-12.681c-4.202-1.535-7.42-5.102-8.457-9.378l11.929-14.195c1.037 4.276 4.255 7.844 8.457 9.389l34.687 12.67z" fill="url(#Y)"/><linearGradient id="Z" gradientUnits="userSpaceOnUse" x1="351.592" y1="235.969" x2="458.765" y2="315.356"><stop offset="0" stop-color="#2f789e" stop-opacity="0"/><stop offset="1" stop-color="#273b5f"/></linearGradient><path d="M420.338 268.865l-11.931 14.193-34.694-12.677 11.931-14.193z" fill="url(#Z)"/><linearGradient id="a" gradientUnits="userSpaceOnUse" x1="410.141" y1="274.101" x2="433.031" y2="329.407"><stop offset="0" stop-color="#2f789e" stop-opacity="0"/><stop offset="1" stop-color="#273b5f"/></linearGradient><path d="M459.582 272.917l-11.94 14.194-47.082 41.366c-1.672 1.471-3.62 2.35-5.631 2.71-6.319 1.111-13.348-2.932-15.062-10.013l11.929-14.194c1.715 7.081 8.743 11.125 15.063 10.013 2.011-.36 3.959-1.238 5.642-2.71l47.082-41.366z" fill="url(#a)"/><linearGradient id="b" gradientUnits="userSpaceOnUse" x1="420.086" y1="262.708" x2="430.936" y2="303.989"><stop offset="0" stop-color="#2f789e" stop-opacity="0"/><stop offset="1" stop-color="#273b5f"/></linearGradient><path d="M459.578 272.917l-11.931 14.193-47.082 41.367 11.931-14.193z" fill="url(#b)"/><linearGradient id="c" gradientUnits="userSpaceOnUse" x1="447.647" y1="279.388" x2="460.804" y2="279.388"><stop offset="0" stop-color="#54b8e4"/><stop offset="1" stop-color="#3f89bf"/></linearGradient><path d="M460.804 271.666l-11.931 14.193a11.62 11.62 0 0 1-1.226 1.252l11.931-14.193a11.62 11.62 0 0 0 1.226-1.252z" fill="url(#c)"/><linearGradient id="d" gradientUnits="userSpaceOnUse" x1="399.235" y1="292.59" x2="366.071" y2="550.138"><stop offset="0" stop-color="#54b8e4"/><stop offset="1" stop-color="#3f89bf"/></linearGradient><use xlink:href="#An" x="19.685" y="-33.604" fill="url(#d)"/><linearGradient id="e" gradientUnits="userSpaceOnUse" x1="440.896" y1="227.921" x2="396.792" y2="283.845"><stop offset="0" stop-color="#c0e0ed"/><stop offset="1" stop-color="#68bde9"/></linearGradient><path d="M459.582 272.917l-31.787 27.923 28.135-33.152c-13.813-1.408-8.288-12.257-8.288-12.257l-62.388-25.954c.116-.032.233-.053.349-.074 2.011-.349 4.192-.201 6.415.572l62.441 21.932c9.209 3.228 12.056 14.914 5.123 21.011z" fill="url(#e)"/><linearGradient id="f" gradientUnits="userSpaceOnUse" x1="393.659" y1="277.056" x2="424.18" y2="307.223"><stop offset="0" stop-color="#c0e0ed"/><stop offset="1" stop-color="#68bde9"/></linearGradient><path d="M402.698 317.004c-4.964-.804-9.558-4.488-10.903-10.024l-.794-3.271c-1.048-4.287.254-8.648 3.387-11.474l25.923-23.361h.011c-.487.508-16.005 16.661-22.61 25.669-6.542 8.944-2.53 20.069 4.986 22.461z" fill="url(#f)"/><linearGradient id="g" gradientUnits="userSpaceOnUse" x1="374.52" y1="211.209" x2="299.719" y2="324.822"><stop offset="0" stop-color="#54b8e4"/><stop offset="1" stop-color="#3f89bf"/></linearGradient><path d="M321.558 368.775c-8.423 1.485-16.307-5.89-15.316-14.322l16.762-142.435c.268-2.301 1.187-4.373 2.584-6.034l-11.931 14.193c-1.396 1.661-2.316 3.733-2.584 6.034l-16.762 142.435c-.991 8.432 6.893 15.807 15.316 14.322 2.773-.489 5.157-1.897 6.845-3.904l11.931-14.193c-1.687 2.007-4.071 3.415-6.845 3.904z" fill="url(#g)"/><linearGradient id="h" gradientUnits="userSpaceOnUse" x1="319.821" y1="202.876" x2="315.763" y2="238.865"><stop offset="0" stop-color="#c0e0ed"/><stop offset="1" stop-color="#68bde9"/></linearGradient><path d="M313.656 220.177l11.931-14.193c-1.396 1.661-2.316 3.733-2.584 6.034l-11.931 14.193c.268-2.301 1.187-4.373 2.584-6.034z" fill="url(#h)"/><linearGradient id="i" gradientUnits="userSpaceOnUse" x1="307.96" y1="331.058" x2="313.958" y2="396.685"><stop offset="0" stop-color="#2f789e" stop-opacity="0"/><stop offset="1" stop-color="#273b5f"/></linearGradient><path d="M328.402 364.871l-11.931 14.193c-1.687 2.007-4.071 3.415-6.845 3.904-8.423 1.485-16.307-5.89-15.316-14.322l11.931-14.193c-.991 8.432 6.893 15.807 15.316 14.322 2.773-.489 5.157-1.897 6.845-3.904z" fill="url(#i)"/><linearGradient id="j" gradientUnits="userSpaceOnUse" x1="312.158" y1="281.375" x2="278.991" y2="538.945"><stop offset="0" stop-color="#54b8e4"/><stop offset="1" stop-color="#3f89bf"/></linearGradient><use xlink:href="#Ao" x="19.685" y="-33.604" fill="url(#j)"/><linearGradient id="k" gradientUnits="userSpaceOnUse" x1="319.433" y1="190.739" x2="330.547" y2="254.778"><stop offset="0" stop-color="#c0e0ed"/><stop offset="1" stop-color="#68bde9"/></linearGradient><path d="M347.751 216.404l-1.006 8.563c-.804-11.824-4.34-14.83-4.34-14.83-9.262 8.066-15.412 2.371-15.412 2.371-1.164 4.604-9.876 58.461-13.792 82.796l9.802-83.283c.593-5.081 4.361-9.05 9.431-9.939 8.426-1.492 16.301 5.885 15.316 14.322z" fill="url(#k)"/><linearGradient id="l" gradientUnits="userSpaceOnUse" x1="242.95" y1="285.984" x2="255.974" y2="285.984"><stop offset="0" stop-color="#54b8e4"/><stop offset="1" stop-color="#3f89bf"/></linearGradient><path d="M255.974 278.323l-11.931 14.193c-.335.398-.7.776-1.094 1.129l11.931-14.193c.394-.353.759-.731 1.094-1.129z" fill="url(#l)"/><linearGradient id="m" gradientUnits="userSpaceOnUse" x1="256.278" y1="248.791" x2="248.516" y2="267.668"><stop offset="0" stop-color="#54b8e4"/><stop offset="1" stop-color="#3f89bf"/></linearGradient><path d="M254.881 279.452l-11.931 14.193-25.937 23.368 11.931-14.193z" fill="url(#m)"/><linearGradient id="n" gradientUnits="userSpaceOnUse" x1="231.907" y1="266.091" x2="221.851" y2="331.983"><stop offset="0" stop-color="#54b8e4"/><stop offset="1" stop-color="#3f89bf"/></linearGradient><path d="M270.554 338.333l-11.929 14.194a11.67 11.67 0 0 1-6.891 3.948c-2.001.349-4.181.201-6.404-.572l-62.441-21.932c-8.606-3.017-11.665-13.432-6.351-19.752l11.929-14.194c-5.314 6.319-2.255 16.735 6.351 19.752l62.452 21.932c2.212.783 4.393.931 6.404.572 2.742-.487 5.165-1.905 6.88-3.948z" fill="url(#n)"/><linearGradient id="o" gradientUnits="userSpaceOnUse" x1="225.156" y1="317.16" x2="201.043" y2="348.703"><stop offset="0" stop-color="#2f789e" stop-opacity="0"/><stop offset="1" stop-color="#273b5f"/></linearGradient><path d="M257.27 341.709l-11.94 14.194-62.441-21.932c-8.606-3.017-11.665-13.432-6.351-19.752l11.929-14.194c-5.314 6.319-2.255 16.735 6.351 19.752l62.452 21.932z" fill="url(#o)"/><linearGradient id="p" gradientUnits="userSpaceOnUse" x1="215.256" y1="288.072" x2="179.002" y2="323.532"><stop offset="0" stop-color="#2f789e" stop-opacity="0"/><stop offset="1" stop-color="#273b5f"/></linearGradient><path d="M176.542 314.217l11.931-14.193c-5.317 6.325-2.262 16.736 6.35 19.756l-11.931 14.193c-8.611-3.02-11.667-13.431-6.35-19.756z" fill="url(#p)"/><linearGradient id="q" gradientUnits="userSpaceOnUse" x1="240.243" y1="235.977" x2="207.076" y2="493.552"><stop offset="0" stop-color="#54b8e4"/><stop offset="1" stop-color="#3f89bf"/></linearGradient><path d="M271.539 336.967c-1.704 2.763-4.541 4.731-7.865 5.314-2.011.36-4.192.212-6.404-.572l-62.452-21.932c-8.627-3.027-11.665-13.464-6.309-19.783.349-.434.752-.836 1.196-1.228l47.082-41.366c1.672-1.471 3.62-2.35 5.631-2.699 6.319-1.122 13.348 2.921 15.073 10.003l.794 3.271c1.037 4.287-.254 8.648-3.408 11.474l-25.933 23.372a.83.83 0 0 0 .095.042l34.592 12.639c4.202 1.535 7.42 5.113 8.457 9.378l.762 3.112c.815 3.355.212 6.489-1.313 8.976z" fill="url(#q)"/><linearGradient id="r" gradientUnits="userSpaceOnUse" x1="243.218" y1="248.689" x2="214.991" y2="303.555"><stop offset="0" stop-color="#c0e0ed"/><stop offset="1" stop-color="#68bde9"/></linearGradient><path d="M254.878 279.448c4.043-8.743-1.122-13.697-1.122-13.697-12.257.963-13.051-5.557-13.051-5.557l-52.195 39.8c.349-.434.752-.836 1.196-1.228l47.082-41.366c1.672-1.471 3.62-2.35 5.631-2.699 6.319-1.122 13.348 2.921 15.073 10.003l.794 3.271c1.037 4.287-.254 8.648-3.408 11.474z" fill="url(#r)"/><linearGradient id="s" gradientUnits="userSpaceOnUse" x1="268.645" y1="304.195" x2="233.008" y2="334.715"><stop offset="0" stop-color="#c0e0ed"/><stop offset="1" stop-color="#68bde9"/></linearGradient><path d="M271.539 336.967c.942-5.229-.233-10.86-3.493-13.845-4.509-4.118-36.973-19.307-39.006-20.26l34.592 12.639c4.202 1.535 7.42 5.113 8.457 9.378l.762 3.112c.815 3.355.212 6.489-1.313 8.976z" fill="url(#s)"/><linearGradient id="t" gradientUnits="userSpaceOnUse" x1="346.018" y1="106.089" x2="389.575" y2="106.089"><stop offset=".122" stop-color="#f1ca6d"/><stop offset=".977" stop-color="#e6aa48"/></linearGradient><path d="M389.575 109.166l-4.996 5.938c-1.08 1.281-2.604 2.202-4.435 2.53l-21.318 3.758c-4.34.762-8.722-2.138-9.77-6.499l-2.805-11.559c-.614-2.509.021-4.964 1.503-6.732l4.996-5.938c-1.482 1.768-2.117 4.223-1.514 6.732l2.805 11.559c1.059 4.361 5.43 7.261 9.77 6.499l21.329-3.758c1.821-.328 3.355-1.249 4.435-2.53z" fill="url(#t)"/><linearGradient id="u" gradientUnits="userSpaceOnUse" x1="347.237" y1="90.427" x2="360.997" y2="130.473"><stop offset="0" stop-color="#fff"/><stop offset="1" stop-color="#efedee" stop-opacity="0"/></linearGradient><use xlink:href="#Ap" fill="url(#u)"/><linearGradient id="v" gradientUnits="userSpaceOnUse" x1="367.137" y1="107.762" x2="367.004" y2="126.418"><stop offset="0" stop-color="#e2b646" stop-opacity="0"/><stop offset=".977" stop-color="#8d4121"/></linearGradient><path d="M385.14 111.696l-4.996 5.938-21.318 3.758c-4.34.762-8.722-2.138-9.77-6.499l4.986-5.938c1.059 4.361 5.43 7.261 9.77 6.499l21.329-3.758z" fill="url(#v)"/><linearGradient id="w" gradientUnits="userSpaceOnUse" x1="372.041" y1="107.797" x2="371.909" y2="126.453"><stop offset="0" stop-color="#e2b646" stop-opacity="0"/><stop offset=".977" stop-color="#8d4121"/></linearGradient><path d="M385.136 111.694l-4.992 5.939-21.321 3.759 4.992-5.939z" fill="url(#w)"/><linearGradient id="x" gradientUnits="userSpaceOnUse" x1="382.351" y1="83.606" x2="347.244" y2="134.767"><stop offset=".122" stop-color="#f1ca6d"/><stop offset=".977" stop-color="#e6aa48"/></linearGradient><path d="M385.14 111.696l-21.329 3.758c-4.34.762-8.712-2.138-9.77-6.499l-2.805-11.559c-.72-3.006.318-5.917 2.466-7.674.445-.36.931-.677 1.461-.931.614-.307 1.291-.529 2.022-.656l21.318-3.758c4.34-.762 8.722 2.138 9.77 6.489l2.752 11.337.053.222c1.059 4.361-1.598 8.5-5.938 9.272z" fill="url(#x)"/><linearGradient id="y" gradientUnits="userSpaceOnUse" x1="371.96" y1="73.175" x2="374.254" y2="118.338"><stop offset="0" stop-color="#fff"/><stop offset="1" stop-color="#efedee" stop-opacity="0"/></linearGradient><path d="M388.273 90.865l2.752 11.337-5.684-9.738c-1.63-2.794-4.657-4.467-7.886-4.372l-22.292.699c.614-.307 1.291-.529 2.022-.656l21.318-3.758c4.34-.762 8.722 2.138 9.77 6.489z" fill="url(#y)"/><linearGradient id="z" gradientUnits="userSpaceOnUse" x1="369.141" y1="78.89" x2="376.727" y2="157.925"><stop offset="0" stop-color="#e2b646" stop-opacity="0"/><stop offset=".977" stop-color="#8d4121"/></linearGradient><path d="M391.078 102.424c1.059 4.361-1.598 8.5-5.938 9.272l-21.329 3.758c-4.34.762-8.712-2.138-9.77-6.499l-2.805-11.559c-.72-3.006.318-5.917 2.466-7.674 7.738 12.289 29.596 17.709 37.323 12.48l.053.222z" fill="url(#z)"/><linearGradient id="AA" gradientUnits="userSpaceOnUse" x1="394.931" y1="97.462" x2="438.488" y2="97.462"><stop offset=".122" stop-color="#f1ca6d"/><stop offset=".977" stop-color="#e6aa48"/></linearGradient><path d="M438.488 100.54l-4.996 5.938a7.41 7.41 0 0 1-4.435 2.53l-21.318 3.758c-4.34.762-8.712-2.138-9.77-6.499l-2.805-11.548c-.614-2.519.021-4.975 1.503-6.732l4.996-5.949c-1.482 1.768-2.117 4.223-1.514 6.732l2.805 11.559c1.059 4.361 5.441 7.261 9.781 6.499l21.318-3.758a7.44 7.44 0 0 0 4.435-2.53z" fill="url(#AA)"/><linearGradient id="AB" gradientUnits="userSpaceOnUse" x1="344.722" y1="83.108" x2="358.483" y2="123.155"><stop offset="0" stop-color="#fff"/><stop offset="1" stop-color="#efedee" stop-opacity="0"/></linearGradient><use xlink:href="#Ap" x="48.915" y="-8.625" fill="url(#AB)"/><g class="An"><linearGradient id="AC" gradientUnits="userSpaceOnUse" x1="416.593" y1="83.052" x2="415.535" y2="122.349"><stop offset="0" stop-color="#e2b646" stop-opacity="0"/><stop offset=".977" stop-color="#8d4121"/></linearGradient><path d="M434.053 103.069l-4.996 5.938-21.318 3.758c-4.34.762-8.712-2.138-9.77-6.499l4.986-5.938c1.059 4.361 5.441 7.261 9.781 6.499l21.318-3.758z" fill="url(#AC)"/></g><linearGradient id="AD" gradientUnits="userSpaceOnUse" x1="421.561" y1="83.186" x2="420.502" y2="122.483"><stop offset="0" stop-color="#e2b646" stop-opacity="0"/><stop offset=".977" stop-color="#8d4121"/></linearGradient><path d="M434.051 103.069l-4.992 5.939-21.321 3.759 4.992-5.939z" fill="url(#AD)"/><linearGradient id="AE" gradientUnits="userSpaceOnUse" x1="423.196" y1="82.124" x2="406.613" y2="130.815"><stop offset=".122" stop-color="#f1ca6d"/><stop offset=".977" stop-color="#e6aa48"/></linearGradient><path d="M434.053 103.069l-21.318 3.758c-4.34.762-8.722-2.138-9.781-6.499l-2.805-11.559c-.699-2.879.243-5.684 2.223-7.462 1.006-.9 2.265-1.545 3.726-1.799l21.329-3.758c4.34-.762 8.711 2.149 9.77 6.489l2.456 10.151.339 1.408c1.059 4.361-1.598 8.51-5.938 9.272z" fill="url(#AE)"/><linearGradient id="AF" gradientUnits="userSpaceOnUse" x1="420.194" y1="70.726" x2="422.487" y2="115.888"><stop offset="0" stop-color="#fff"/><stop offset="1" stop-color="#efedee" stop-opacity="0"/></linearGradient><path d="M437.197 82.238l2.456 10.151-5.06-8.817c-1.704-2.985-4.996-4.7-8.426-4.393l-23.795 2.128c1.006-.9 2.265-1.545 3.726-1.799l21.329-3.758c4.34-.762 8.711 2.149 9.77 6.489z" fill="url(#AF)"/><linearGradient id="AG" gradientUnits="userSpaceOnUse" x1="418.427" y1="74.159" x2="426.013" y2="153.194"><stop offset="0" stop-color="#e2b646" stop-opacity="0"/><stop offset=".977" stop-color="#8d4121"/></linearGradient><path d="M439.991 93.797c1.059 4.361-1.598 8.51-5.938 9.272l-21.318 3.758c-4.34.762-8.722-2.138-9.781-6.499l-2.805-11.559c-.699-2.879.243-5.684 2.223-7.462 2.435 1.81 5.367 4.266 8.775 7.589 10.289 10.003 25.182 11.421 28.505 3.493l.339 1.408z" fill="url(#AG)"/><linearGradient id="AH" gradientUnits="userSpaceOnUse" x1="443.844" y1="88.842" x2="487.402" y2="88.842"><stop offset=".122" stop-color="#f1ca6d"/><stop offset=".977" stop-color="#e6aa48"/></linearGradient><path d="M487.402 91.913l-4.986 5.938c-1.08 1.291-2.615 2.212-4.446 2.53l-21.308 3.758c-4.35.773-8.722-2.138-9.781-6.499l-2.805-11.548c-.614-2.519.021-4.964 1.503-6.732l4.996-5.938c-1.482 1.768-2.117 4.213-1.503 6.732l2.805 11.548c1.048 4.361 5.43 7.272 9.781 6.499l21.308-3.758c1.831-.318 3.355-1.238 4.435-2.53z" fill="url(#AH)"/><linearGradient id="AI" gradientUnits="userSpaceOnUse" x1="440.037" y1="58.539" x2="453.798" y2="98.586"><stop offset="0" stop-color="#fff"/><stop offset="1" stop-color="#efedee" stop-opacity="0"/></linearGradient><path d="M445.584 79.359l4.992-5.939c-1.484 1.765-2.117 4.213-1.507 6.729l-4.992 5.939c-.611-2.516.023-4.964 1.507-6.729z" fill="url(#AI)"/><linearGradient id="AJ" gradientUnits="userSpaceOnUse" x1="459.924" y1="80.939" x2="469.098" y2="108.725"><stop offset="0" stop-color="#e2b646" stop-opacity="0"/><stop offset=".977" stop-color="#8d4121"/></linearGradient><path d="M482.966 94.443l-4.996 5.938-21.308 3.758c-4.35.773-8.722-2.138-9.781-6.499l4.996-5.938c1.048 4.361 5.43 7.272 9.781 6.499l21.308-3.758z" fill="url(#AJ)"/><linearGradient id="AK" gradientUnits="userSpaceOnUse" x1="463.379" y1="79.799" x2="472.552" y2="107.584"><stop offset="0" stop-color="#e2b646" stop-opacity="0"/><stop offset=".977" stop-color="#8d4121"/></linearGradient><path d="M482.966 94.444l-4.992 5.939-21.311 3.758 4.992-5.939z" fill="url(#AK)"/><linearGradient id="AL" gradientUnits="userSpaceOnUse" x1="471.608" y1="74.554" x2="450.791" y2="139.123"><stop offset=".122" stop-color="#f1ca6d"/><stop offset=".977" stop-color="#e6aa48"/></linearGradient><path d="M482.966 94.443L461.659 98.2c-4.35.773-8.733-2.138-9.781-6.499l-2.805-11.548c-.879-3.609.804-7.092 3.895-8.606a7.54 7.54 0 0 1 2.053-.667l21.318-3.758c4.34-.762 8.711 2.149 9.77 6.499L488.386 83l.529 2.17c1.059 4.361-1.609 8.51-5.949 9.272z" fill="url(#AL)"/><linearGradient id="AM" gradientUnits="userSpaceOnUse" x1="474.6" y1="53.503" x2="467.984" y2="93.594"><stop offset="0" stop-color="#fff"/><stop offset="1" stop-color="#efedee" stop-opacity="0"/></linearGradient><path d="M488.386 83l-5.441-8.341a8.78 8.78 0 0 0-7.727-3.991l-22.25.879a7.54 7.54 0 0 1 2.053-.667l21.318-3.758c4.34-.762 8.711 2.149 9.77 6.499L488.386 83z" fill="url(#AM)"/><linearGradient id="AN" gradientUnits="userSpaceOnUse" x1="467.724" y1="69.428" x2="475.31" y2="148.463"><stop offset="0" stop-color="#e2b646" stop-opacity="0"/><stop offset=".977" stop-color="#8d4121"/></linearGradient><path d="M482.966 94.443L461.659 98.2c-4.35.773-8.733-2.138-9.781-6.499l-2.805-11.548c-.879-3.609.804-7.092 3.895-8.606 1.514 5.483 5.303 13.2 14.935 16.259 9.304 2.943 16.29-1.016 20.482-4.806l.529 2.17c1.059 4.361-1.609 8.51-5.949 9.272z" fill="url(#AN)"/></g><linearGradient id="AO" gradientUnits="userSpaceOnUse" x1="496.047" y1="152.246" x2="498.119" y2="160.8"><stop offset="0" stop-color="#4c5c7d"/><stop offset=".989" stop-color="#2f4652"/></linearGradient><path d="M500.243 157.533l-10.266 11.802 11.126-8.531 6.517-2.929z" fill="url(#AO)"/><linearGradient id="AP" gradientUnits="userSpaceOnUse" x1="499.184" y1="158.568" x2="498.381" y2="169.061"><stop offset="0" stop-color="#91bae4"/><stop offset="1" stop-color="#6281a1" stop-opacity="0"/></linearGradient><path d="M501.326 161.898l-11.349 7.437 11.126-8.531 6.517-2.929z" fill="url(#AP)"/><linearGradient id="AQ" gradientUnits="userSpaceOnUse" x1="525.196" y1="272.156" x2="527.268" y2="280.71"><stop offset="0" stop-color="#4c5c7d"/><stop offset=".989" stop-color="#2f4652"/></linearGradient><path d="M529.392 277.443l-10.266 11.802 11.126-8.531 6.517-2.929z" fill="url(#AQ)"/><linearGradient id="AR" gradientUnits="userSpaceOnUse" x1="528.333" y1="278.478" x2="527.53" y2="288.971"><stop offset="0" stop-color="#91bae4"/><stop offset="1" stop-color="#6281a1" stop-opacity="0"/></linearGradient><path d="M530.474 281.808l-11.349 7.437 11.126-8.531 6.517-2.929z" fill="url(#AR)"/><linearGradient id="AS" gradientUnits="userSpaceOnUse" x1="498.24" y1="167.246" x2="490.133" y2="151.572"><stop offset="0" stop-color="#4c5c7d"/><stop offset=".989" stop-color="#2f4652"/></linearGradient><path d="M497.686 146.897l-16.366 19.809 17.287-16.025 6.193-2.925z" fill="url(#AS)"/><linearGradient id="AT" gradientUnits="userSpaceOnUse" x1="491.832" y1="150.419" x2="493.909" y2="161.944"><stop offset="0" stop-color="#91bae4"/><stop offset="1" stop-color="#6281a1" stop-opacity="0"/></linearGradient><path d="M481.32 166.705l17.666-14.419 5.814-4.532-6.193 2.925z" fill="url(#AT)"/><linearGradient id="AU" gradientUnits="userSpaceOnUse" x1="549.06" y1="377.215" x2="540.953" y2="361.542"><stop offset="0" stop-color="#4c5c7d"/><stop offset=".989" stop-color="#2f4652"/></linearGradient><path d="M548.505 356.866l-16.366 19.809 17.287-16.025 6.193-2.925z" fill="url(#AU)"/><linearGradient id="AV" gradientUnits="userSpaceOnUse" x1="542.651" y1="360.388" x2="544.729" y2="371.913"><stop offset="0" stop-color="#91bae4"/><stop offset="1" stop-color="#6281a1" stop-opacity="0"/></linearGradient><path d="M532.139 376.675l17.666-14.419 5.814-4.532-6.193 2.925z" fill="url(#AV)"/><linearGradient id="AW" gradientUnits="userSpaceOnUse" x1="446.779" y1="154.963" x2="433.193" y2="139.809"><stop offset="0" stop-color="#4c5c7d"/><stop offset=".989" stop-color="#2f4652"/></linearGradient><path d="M437.345 136.536l-10.273 16.566 15.949-17.497-3.471-8.816z" fill="url(#AW)"/><linearGradient id="AX" gradientUnits="userSpaceOnUse" x1="447.584" y1="134.673" x2="432.897" y2="140.098"><stop offset="0" stop-color="#91bae4"/><stop offset="1" stop-color="#6281a1" stop-opacity="0"/></linearGradient><path d="M445.945 135.135l-18.874 17.966 15.949-17.497-3.471-8.816z" fill="url(#AX)"/><linearGradient id="AY" gradientUnits="userSpaceOnUse" x1="347.82" y1="164.992" x2="339.251" y2="155.433"><stop offset="0" stop-color="#4c5c7d"/><stop offset=".989" stop-color="#2f4652"/></linearGradient><path d="M341.869 153.368l-6.48 10.448 10.06-11.036-2.189-5.56z" fill="url(#AY)"/><linearGradient id="AZ" gradientUnits="userSpaceOnUse" x1="348.326" y1="152.193" x2="339.063" y2="155.615"><stop offset="0" stop-color="#91bae4"/><stop offset="1" stop-color="#6281a1" stop-opacity="0"/></linearGradient><path d="M347.293 152.485l-11.904 11.332 10.06-11.036-2.189-5.56z" fill="url(#AZ)"/><linearGradient id="Aa" gradientUnits="userSpaceOnUse" x1="199.273" y1="193.566" x2="189.144" y2="182.268"><stop offset="0" stop-color="#4c5c7d"/><stop offset=".989" stop-color="#2f4652"/></linearGradient><path d="M192.242 179.826l-7.66 12.351 11.891-13.045-2.588-6.573z" fill="url(#Aa)"/><linearGradient id="Ab" gradientUnits="userSpaceOnUse" x1="199.875" y1="178.437" x2="188.925" y2="182.482"><stop offset="0" stop-color="#91bae4"/><stop offset="1" stop-color="#6281a1" stop-opacity="0"/></linearGradient><path d="M198.654 178.782l-14.072 13.395 11.891-13.045-2.588-6.573z" fill="url(#Ab)"/><linearGradient id="Ac" gradientUnits="userSpaceOnUse" x1="185.16" y1="199.184" x2="172.924" y2="185.535"><stop offset="0" stop-color="#4c5c7d"/><stop offset=".989" stop-color="#2f4652"/></linearGradient><path d="M176.667 182.587l-9.252 14.919 14.364-15.758-3.126-7.94z" fill="url(#Ac)"/><linearGradient id="Ad" gradientUnits="userSpaceOnUse" x1="185.888" y1="180.909" x2="172.661" y2="185.795"><stop offset="0" stop-color="#91bae4"/><stop offset="1" stop-color="#6281a1" stop-opacity="0"/></linearGradient><path d="M184.412 181.326l-16.998 16.181 14.364-15.758-3.126-7.94z" fill="url(#Ad)"/><linearGradient id="Ae" gradientUnits="userSpaceOnUse" x1="43.983" y1="197.144" x2="46.704" y2="208.378"><stop offset="0" stop-color="#4c5c7d"/><stop offset=".989" stop-color="#2f4652"/></linearGradient><path d="M49.493 204.087l-13.482 15.498 14.611-11.203 8.559-3.847z" fill="url(#Ae)"/><linearGradient id="Af" gradientUnits="userSpaceOnUse" x1="48.103" y1="205.447" x2="47.048" y2="219.226"><stop offset="0" stop-color="#91bae4"/><stop offset="1" stop-color="#6281a1" stop-opacity="0"/></linearGradient><path d="M50.915 209.819l-14.904 9.766 14.611-11.203 8.559-3.847z" fill="url(#Af)"/><linearGradient id="Ag" gradientUnits="userSpaceOnUse" x1="82.262" y1="354.616" x2="84.983" y2="365.85"><stop offset="0" stop-color="#4c5c7d"/><stop offset=".989" stop-color="#2f4652"/></linearGradient><path d="M87.772 361.559l-13.482 15.498 14.611-11.203 8.559-3.847z" fill="url(#Ag)"/><linearGradient id="Ah" gradientUnits="userSpaceOnUse" x1="86.382" y1="362.919" x2="85.327" y2="376.698"><stop offset="0" stop-color="#91bae4"/><stop offset="1" stop-color="#6281a1" stop-opacity="0"/></linearGradient><path d="M89.194 367.291l-14.904 9.766 14.611-11.203 8.559-3.847z" fill="url(#Ah)"/><linearGradient id="Ai" gradientUnits="userSpaceOnUse" x1="46.863" y1="216.842" x2="36.217" y2="196.259"><stop offset="0" stop-color="#4c5c7d"/><stop offset=".989" stop-color="#2f4652"/></linearGradient><path d="M46.135 190.119l-21.492 26.014 22.702-21.045 8.133-3.841z" fill="url(#Ai)"/><linearGradient id="Aj" gradientUnits="userSpaceOnUse" x1="38.448" y1="194.745" x2="41.175" y2="209.879"><stop offset="0" stop-color="#91bae4"/><stop offset="1" stop-color="#6281a1" stop-opacity="0"/></linearGradient><path d="M24.642 216.132l23.2-18.935 7.635-5.951-8.133 3.841z" fill="url(#Aj)"/><linearGradient id="Ak" gradientUnits="userSpaceOnUse" x1="113.601" y1="492.585" x2="102.955" y2="472.001"><stop offset="0" stop-color="#4c5c7d"/><stop offset=".989" stop-color="#2f4652"/></linearGradient><path d="M112.873 465.861l-21.492 26.014 22.702-21.045 8.133-3.841z" fill="url(#Ak)"/><linearGradient id="Al" gradientUnits="userSpaceOnUse" x1="105.186" y1="470.487" x2="107.914" y2="485.622"><stop offset="0" stop-color="#91bae4"/><stop offset="1" stop-color="#6281a1" stop-opacity="0"/></linearGradient><path d="M91.381 491.875l23.2-18.935 7.635-5.951-8.133 3.841z" fill="url(#Al)"/><defs ><path id="An" d="M439.897 306.521l-31.787 27.923-15.295 13.443c-1.683 1.471-3.631 2.35-5.642 2.71-1.376.243-2.784.243-4.16.011-4.964-.804-9.558-4.488-10.903-10.024l-.794-3.271c-1.048-4.287.254-8.648 3.387-11.474l25.923-23.361h.011l-34.677-12.681c-4.202-1.545-7.42-5.113-8.457-9.389l-.751-3.112c-1.694-6.954 2.678-12.945 8.817-14.216.116-.032.233-.053.349-.074 2.011-.349 4.192-.201 6.415.572l62.441 21.932c9.209 3.228 12.056 14.914 5.123 21.011z"/><path id="Ao" d="M328.066 250.008l-1.006 8.563-15.761 133.869c-.593 5.081-4.361 9.05-9.431 9.939-8.415 1.482-16.301-5.885-15.306-14.322l6.954-59.149 9.802-83.283c.593-5.081 4.361-9.05 9.431-9.939 8.426-1.492 16.301 5.885 15.316 14.322z"/><path id="Ap" d="M347.754 96.606l4.992-5.939c-1.484 1.765-2.118 4.215-1.508 6.732l-4.992 5.939c-.611-2.517.024-4.966 1.508-6.732z"/></defs></svg>