<svg width="100" height="68" fill="none" xmlns="http://www.w3.org/2000/svg"><path d="M0 0h100v68H0V0z" fill="#fff"/><path d="M0 0h100v10H0V0z" fill="#FAFAFB"/><path fill="#E4E6E8" d="M0 10h100v1H0z"/><path fill="#EFF0F1" d="M20 11h2v57h-2z"/><path d="M3 15c0-.6.4-1 1-1h16v8H4a1 1 0 01-1-1v-6z" fill="#D6D9DC"/><rect x="26" y="14" width="49" height="8" rx="1" fill="#D6D9DC"/><rect x="93" y="4" width="4" height="4" rx="1" fill="#D6D9DC"/><rect x="86" y="4" width="4" height="4" rx="1" fill="#D6D9DC"/><rect x="3" y="4" width="4" height="4" rx="1" fill="#D6D9DC"/><rect x="36" y="27" width="61" height="4" rx="1" fill="#D6D9DC"/><rect x="36" y="34" width="58" height="4" rx="1" fill="#D6D9DC"/><rect x="36" y="41" width="57" height="4" rx="1" fill="#D6D9DC"/><rect x="36" y="48" width="59" height="4" rx="1" fill="#D6D9DC"/><rect x="26" y="27" width="6" height="6" rx="1" fill="#D6D9DC"/><rect x="26" y="43" width="6" height="6" rx="1" fill="#D6D9DC"/><rect x="83" y="57" width="14" height="8" rx="1" fill="#D6D9DC"/><rect x="27" y="36" width="4" height="4" rx="1" fill="#D6D9DC"/><path fill="#F2720C" d="M20 14h2v8h-2z"/><rect x="78" y="14" width="19" height="8" rx="1" fill="#07C"/><path fill="#F2720C" d="M0 0h100v2H0z"/></svg>