<svg width="430" height="394" viewBox="0 0 430 394" fill="none" xmlns="http://www.w3.org/2000/svg">
<path d="M96.0254 353.681C86.5592 343.334 75.4221 332.204 61.4045 332.043C55.9373 331.98 50.61 333.658 45.3945 335.315C30.2653 340.125 15.1292 344.942 0 349.752C15.6186 338.182 32.118 327.8 49.3096 318.732C54.8537 315.802 60.5865 312.978 66.7808 311.999C84.9862 309.126 101.842 322.815 112.028 338.175C122.215 353.534 128.626 371.467 140.993 385.128C130.409 386.771 124.543 386.198 118.342 378.668C111.266 370.076 103.562 361.924 96.0254 353.681Z" fill="#D4DFF4"/>
<path fill-rule="evenodd" clip-rule="evenodd" d="M74.4301 323.361C60.3516 319.729 45.8629 326.628 32.6326 333.51L31.9658 332.228C45.1067 325.393 60.0934 318.17 74.7911 321.962C80.7556 323.499 86.1026 326.759 90.9202 330.449L90.9205 330.45C108.779 344.145 120.476 364.145 131.175 383.741L129.907 384.433C119.199 364.822 107.628 345.083 90.0414 331.597C85.295 327.96 80.1271 324.83 74.4302 323.361L74.4301 323.361Z" fill="white"/>
<path fill-rule="evenodd" clip-rule="evenodd" d="M112.251 334.442C102.11 319.151 85.4895 305.776 67.7181 308.581C61.6553 309.539 56.0178 312.309 50.4718 315.239C34.6149 323.603 19.3474 333.087 4.81897 343.592C10.9678 341.637 17.1176 339.681 23.2674 337.725L23.3028 337.713C30.8692 335.307 38.4355 332.9 46.0002 330.495C51.1964 328.844 56.6347 327.125 62.2375 327.189C69.4439 327.272 75.8748 330.175 81.667 334.323C87.4538 338.467 92.6486 343.887 97.3831 349.062C98.8531 350.67 100.331 352.275 101.81 353.882C107.902 360.502 114.018 367.148 119.724 374.077C122.752 377.754 125.643 379.672 129.021 380.505C132.147 381.276 135.755 381.136 140.391 380.478C134.584 373.818 130.096 366.232 125.881 358.503C124.85 356.612 123.836 354.714 122.823 352.818C119.475 346.552 116.141 340.312 112.251 334.442ZM67.4928 307.154C86.132 304.212 103.223 318.215 113.455 333.644C117.387 339.576 120.765 345.899 124.119 352.177C125.126 354.063 126.132 355.945 127.149 357.811C131.567 365.912 136.23 373.748 142.354 380.512C142.532 380.709 142.588 380.987 142.499 381.238C142.41 381.488 142.191 381.67 141.929 381.71C136.624 382.534 132.389 382.824 128.675 381.908C124.924 380.983 121.782 378.849 118.609 374.996C112.931 368.1 106.848 361.491 100.758 354.874C99.2763 353.263 97.794 351.653 96.3168 350.037C91.5852 344.865 86.4784 339.546 80.8257 335.498C75.1784 331.454 69.032 328.712 62.2208 328.634C56.8892 328.573 51.6726 330.209 46.4379 331.872C38.8852 334.273 31.3308 336.676 23.7763 339.079L23.7241 339.096C16.1634 341.501 8.60259 343.906 1.04353 346.309C0.706875 346.416 0.342186 346.264 0.181344 345.949C0.0205022 345.635 0.110677 345.25 0.394533 345.04C16.0424 333.448 32.5727 323.046 49.7967 313.961C55.3388 311.033 61.1671 308.153 67.4928 307.154Z" fill="#0E1A2B"/>
<path d="M119.321 336.819C109.826 325.367 96.7387 317.439 86.5384 306.616C66.8718 285.754 59.5939 254.007 68.2002 226.657C67.5919 242.814 74.0379 259.11 85.5386 270.478C93.0543 277.903 102.416 283.153 110.498 289.956C125.829 302.862 136.128 321.186 141.036 340.622C144.37 353.835 147.349 371.481 143.748 384.751C136.722 382.234 135.974 369.594 133.716 363.309C130.297 353.8 125.794 344.628 119.321 336.819Z" fill="#FFFAF3"/>
<path fill-rule="evenodd" clip-rule="evenodd" d="M73.2798 224.288C73.6364 224.35 73.8923 224.666 73.8787 225.028C73.2781 240.982 79.6464 257.082 91.0029 268.308C94.718 271.978 98.898 275.119 103.185 278.208C103.919 278.737 104.658 279.265 105.398 279.795C108.959 282.343 112.551 284.912 115.919 287.747L115.482 288.266L115.919 287.747C131.386 300.766 141.754 319.231 146.693 338.789L146.693 338.789C150.029 352.007 153.056 369.816 149.402 383.284C149.349 383.478 149.218 383.642 149.039 383.735C148.86 383.828 148.651 383.843 148.461 383.775C144.589 382.388 142.559 378.266 141.211 374.004C140.55 371.914 140.032 369.716 139.55 367.672L139.501 367.466C139.001 365.347 138.54 363.422 137.992 361.896L137.992 361.896C134.598 352.436 130.124 343.354 123.721 335.623C119.021 329.955 113.423 325.147 107.689 320.381C107.099 319.89 106.507 319.4 105.914 318.909C100.767 314.644 95.5764 310.344 90.9691 305.455C71.1231 284.403 63.7827 252.383 72.4675 224.783C72.5761 224.438 72.9233 224.227 73.2798 224.288ZM72.4762 230.156C66.2314 256.068 73.7068 285.037 92.0206 304.464L92.0206 304.464C96.5629 309.284 101.683 313.526 106.84 317.799C107.43 318.288 108.022 318.778 108.613 319.269C114.346 324.035 120.039 328.918 124.833 334.701L124.833 334.701C131.378 342.603 135.923 351.852 139.352 361.408C139.933 363.025 140.413 365.037 140.908 367.134L140.951 367.321C141.437 369.379 141.945 371.531 142.589 373.569C143.829 377.487 145.501 380.727 148.216 382.1C151.434 369.122 148.557 352.082 145.291 339.142L145.992 338.965L145.291 339.142C145.291 339.142 145.291 339.142 145.291 339.142C140.414 319.828 130.186 301.645 114.989 288.852L115.454 288.3L114.989 288.852C111.668 286.057 108.132 283.528 104.571 280.98C103.828 280.449 103.084 279.916 102.34 279.38C98.0464 276.287 93.7879 273.09 89.9873 269.336L89.9872 269.336C79.5725 259.041 73.2542 244.761 72.4762 230.156ZM72.4762 230.156C72.8762 228.496 73.3325 226.849 73.8459 225.217L73.1567 225L72.4347 224.973C72.3697 226.701 72.3843 228.431 72.4762 230.156Z" fill="#0E1A2B"/>
<path d="M109.406 233.236L237.417 141.3L360.708 233.404L109.406 233.236Z" fill="#2E4682"/>
<path fill-rule="evenodd" clip-rule="evenodd" d="M237.426 140.405L362.885 234.128L107.164 233.957L237.426 140.405ZM111.649 232.515L358.532 232.68L237.409 142.196L111.649 232.515Z" fill="black"/>
<path d="M109.35 382.397L360.652 382.397V233.322L109.35 233.322L109.35 382.397Z" fill="#223A6B"/>
<path fill-rule="evenodd" clip-rule="evenodd" d="M361.375 383.12L108.628 383.12L108.628 232.599L361.375 232.599V383.12ZM359.93 381.675V234.045L110.073 234.045L110.073 381.675L359.93 381.675Z" fill="black"/>
<path d="M282.91 52.4199C283.455 44.5477 274.842 29.1668 267.319 27.0065C264.278 26.1326 265.117 26.4472 263.209 27.1044C262.286 25.3286 256.923 19.6237 238.347 23.4899C229.287 25.3776 224.931 31.0894 222.219 36.8153C220.506 40.4368 219.31 44.0932 217.849 47.7986C216.863 50.0498 215.647 52.4758 214.025 55.0975C213.235 56.377 212.571 57.6144 212.039 58.8169C211.55 59.4881 211.039 60.1593 210.48 60.8304C207.775 64.1093 204.566 67.2834 202.07 70.779C196.756 78.2178 195.015 87.8518 201.301 95.1017C206.565 101.177 216.297 104.456 226.12 106.595C245.073 110.72 266.62 111.468 284.099 104.897C288.587 103.212 294.411 102.289 297.067 99.2685C299.326 96.6957 300.724 94.7452 300.675 91.5921C300.346 68.367 282.553 57.5305 282.91 52.4199Z" fill="#35281F"/>
<path fill-rule="evenodd" clip-rule="evenodd" d="M234.937 26.4194C235.284 26.9067 235.171 27.5835 234.684 27.931C229.43 31.6782 227.758 36.7881 225.99 42.1944C225.934 42.3664 225.877 42.5387 225.821 42.7112C223.077 51.0826 219.483 59.9553 213.152 68.642L213.152 68.6424C212.785 69.1454 212.413 69.6465 212.041 70.1468C210.633 72.041 209.232 73.9249 208.167 75.8653C206.829 78.3017 206.13 80.6415 206.586 82.9507C206.702 83.5379 206.32 84.108 205.733 84.224C205.146 84.3401 204.576 83.9581 204.46 83.3709C203.86 80.3388 204.822 77.4526 206.267 74.822C207.411 72.7373 208.93 70.6962 210.348 68.7895C210.708 68.3056 211.061 67.8304 211.401 67.3654M234.937 26.4194C234.589 25.9321 233.912 25.8188 233.425 26.1663ZM233.425 26.1663C227.581 30.3348 225.71 36.0661 223.976 41.3772ZM223.976 41.3772C223.905 41.5976 223.833 41.8172 223.761 42.0359ZM223.761 42.0359L223.761 42.0361ZM223.761 42.0361C221.052 50.3038 217.543 58.9371 211.401 67.3649Z" fill="#161719"/>
<path fill-rule="evenodd" clip-rule="evenodd" d="M273.942 43.7178C274.539 43.7617 274.988 44.2812 274.944 44.8781C274.454 51.5408 276.469 58.7334 281.056 65.7752L281.056 65.7754C282.168 67.4831 283.44 69.2063 284.751 70.9825L284.773 71.0131C286.071 72.7702 287.405 74.5774 288.617 76.4232C291.047 80.1236 293.074 84.1067 293.366 88.414C293.407 89.0112 292.955 89.5281 292.358 89.5686C291.761 89.609 291.244 89.1577 291.204 88.5605C290.95 84.8209 289.175 81.2219 286.805 77.6129C285.626 75.8169 284.321 74.0499 283.012 72.2764L283.007 72.2699C281.703 70.5038 280.393 68.7288 279.24 66.9584C274.445 59.5982 272.251 51.9412 272.782 44.7192C272.826 44.1223 273.345 43.6739 273.942 43.7178Z" fill="#161719"/>
<path d="M209.284 63.2987C205.586 67.8291 201.804 72.5552 199.832 77.7916C197.805 83.1819 197.895 89.2993 201.929 94.1303C200.566 90.4808 199.888 86.7195 200.328 83.0281C201.286 74.9602 207.411 67.8151 212.738 61.1104C217.877 54.6365 222.533 47.799 221.079 41.3391C221.722 44.1915 219.289 48.5261 217.723 51.4624C215.583 55.4824 212.507 59.3556 209.284 63.2987Z" fill="#47392F"/>
<path d="M285.755 68.0944C291.362 76.2742 296.934 85.9432 293.159 94.8641C297.633 88.6558 296.249 80.9864 293.075 74.3446C290.02 67.9616 285.427 62.1099 282.854 56.1743C280.078 49.7772 279.708 42.6042 273.22 37.5774C275.772 41.8072 275.772 45.5825 276.485 50.1408C277.414 56.1603 281.616 62.0539 285.755 68.0944Z" fill="#47392F"/>
<path d="M222.623 59.1453C220.407 63.2491 217.086 67.1992 215.108 71.5688C213.08 76.0432 212.633 81.2937 216.233 85.3346C215.024 81.4475 215.226 77.3995 216.778 73.6662C218.561 69.3875 222.043 65.5982 224.098 61.5782C226.294 57.2856 226.636 52.944 225.671 48.7911C226.077 52.0491 224.371 55.9153 222.623 59.1453Z" fill="#47392F"/>
<path fill-rule="evenodd" clip-rule="evenodd" d="M237.749 38.7582C238.29 39.0143 238.521 39.6605 238.264 40.2015C236.577 43.7639 236.494 47.609 236.402 51.8371C236.4 51.9412 236.397 52.0455 236.395 52.15C236.301 56.4323 236.152 61.0547 233.946 65.5966L233.946 65.5971C232.826 67.8983 231.229 70.0646 229.622 72.1619C229.397 72.4547 229.173 72.7461 228.949 73.0365C227.548 74.8549 226.174 76.6374 225.031 78.5097C222.322 82.9504 221.287 88.0349 224.464 91.9354C224.842 92.3995 224.772 93.0822 224.308 93.4601C223.844 93.8381 223.162 93.7683 222.784 93.3042C218.718 88.3119 220.311 82.0844 223.181 77.3806L223.181 77.3805C224.391 75.3992 225.845 73.5128 227.241 71.7012C227.463 71.4134 227.684 71.1274 227.901 70.8433C229.512 68.7423 230.984 66.7314 231.997 64.649C233.971 60.5848 234.133 56.4123 234.228 52.1024C234.232 51.9427 234.235 51.7826 234.238 51.6223C234.326 47.5274 234.416 43.2629 236.305 39.2738C236.562 38.7329 237.208 38.502 237.749 38.7582Z" fill="#161719"/>
<path d="M293.256 108.805C293.256 108.805 298.542 110.252 306.064 118.586C313.587 126.919 339.455 188.296 338.525 197.615C337.595 206.935 328.388 215.625 317.271 213.059C306.155 210.5 277.582 169.769 277.582 169.769C277.582 169.769 273.988 130.422 280.057 120.858C286.125 111.287 293.256 108.805 293.256 108.805Z" fill="#FFC022"/>
<path d="M228.895 100.687C228.895 100.687 241.381 99.7994 253.91 99.8763C266.438 99.9532 281.805 104.651 281.805 104.651L265.11 166.867L228.895 100.687Z" fill="#D66C43"/>
<path d="M240.599 121.934C240.599 121.934 248.17 120.599 260.65 121.214C273.129 121.829 279.904 125.185 279.904 125.185L262.733 157.38L240.599 121.934Z" fill="#FFE4A9"/>
<path d="M232.097 100.023C232.097 100.023 193.924 99.59 188.303 110.839C185.395 116.656 200.147 197.335 214.283 203.558C228.42 209.78 283.902 205.138 283.902 205.138C283.902 205.138 299.738 175.543 297.501 164.434C296.585 159.897 287.818 170.775 275.107 159.079C256.699 142.139 232.097 100.023 232.097 100.023Z" fill="#FFC022"/>
<path d="M254.434 152.794C254.434 152.794 265.32 141.272 275.15 117.662C276.401 114.656 276.506 103.072 276.506 103.072C276.506 103.072 297.969 107.833 303.681 114.726C307.051 118.788 303.8 162.749 292.152 180.836C290.684 183.115 254.434 152.794 254.434 152.794Z" fill="#FFC022"/>
<path fill-rule="evenodd" clip-rule="evenodd" d="M259.671 146.59C268.814 132.865 276.011 120.745 275.204 102.993L276.648 102.927C277.477 121.18 270.034 133.641 260.874 147.392C251.664 161.225 237.957 173.941 225.548 184.826L224.595 183.739C237.005 172.853 250.578 160.247 259.671 146.591L259.671 146.59Z" fill="#273533"/>
<path fill-rule="evenodd" clip-rule="evenodd" d="M260.056 143.841C249.683 131.174 240.221 115.905 231.253 100.136L232.509 99.4217C241.466 115.17 250.88 130.355 261.174 142.926L260.056 143.841Z" fill="#273533"/>
<path fill-rule="evenodd" clip-rule="evenodd" d="M301.912 151.37C302.414 145.368 301.609 139.16 298.637 134.035L299.887 133.31C303.053 138.77 303.87 145.301 303.352 151.491C302.834 157.676 301.048 163.668 299.254 169.505C295.615 181.369 290.993 193.243 285.226 204.714L283.935 204.065C289.662 192.674 294.254 180.876 297.872 169.081L297.872 169.081C299.671 163.229 301.409 157.378 301.912 151.37Z" fill="#273533"/>
<path d="M198.385 105.064C198.385 105.064 187.374 106.218 179.886 116.425C172.398 126.626 129.912 184.807 134.366 195.574C138.812 206.34 139.441 211.304 151.277 212.954C163.114 214.604 170.112 203.809 174.503 197.678C178.893 191.547 208.928 161.925 213.612 151.619C220.365 136.749 219.352 107.155 198.385 105.064Z" fill="#FFC022"/>
<path fill-rule="evenodd" clip-rule="evenodd" d="M191.444 179.681C184.246 187.027 177.538 193.918 173.059 200.309L171.876 199.479C176.437 192.971 183.239 185.991 190.412 178.67C190.573 178.506 190.733 178.341 190.895 178.177C197.943 170.984 205.327 163.448 211.397 155.623L212.539 156.509C206.417 164.401 198.982 171.989 191.952 179.162C191.783 179.336 191.613 179.508 191.444 179.681Z" fill="#273533"/>
<path d="M188.376 234.886C191.814 221.338 191.288 209.515 187.202 208.478C183.115 207.44 177.014 217.582 173.576 231.13C170.137 244.678 170.663 256.502 174.75 257.539C178.837 258.576 184.937 248.434 188.376 234.886Z" fill="#F7B41E"/>
<path d="M168.609 196.062C169.797 195.734 203.481 219.993 203.481 219.993C203.481 219.993 210.256 223.349 203.705 229.278C197.154 235.206 195.84 231.816 195.84 231.816C195.84 231.816 160.037 224.118 156.171 218.854C152.305 213.589 164.099 197.307 168.609 196.062Z" fill="#D66C43"/>
<path d="M170.713 197.321L188.666 209.346C188.666 209.346 183.276 202.495 177.83 220.33C167.637 253.72 174.845 258.202 174.845 258.202C174.845 258.202 148.914 232.348 141.426 219.12C133.939 205.886 130.974 202.264 134.085 192.197C137.21 182.129 155.912 180.682 170.713 197.321Z" fill="#FFC022"/>
<path fill-rule="evenodd" clip-rule="evenodd" d="M186.341 208.416C177.475 203.172 169.059 197.157 161.225 190.467L162.163 189.368C169.934 196.004 178.282 201.971 187.077 207.172L186.341 208.416Z" fill="#273533"/>
<path d="M209.788 199.069C209.788 199.069 232.118 204.305 245.772 204.858C276.723 206.102 284.441 205.186 284.441 205.186C284.441 205.186 296.081 249.875 300.367 268.255C304.653 286.642 318.579 332.959 318.579 332.959L163.471 325.933C163.471 325.933 188.926 243.422 193.687 231.613C197.42 222.35 209.788 199.069 209.788 199.069Z" fill="#6484ED"/>
<path fill-rule="evenodd" clip-rule="evenodd" d="M209.6 199.767C209.6 199.767 209.599 199.767 209.787 199.069L209.974 198.372L209.979 198.373L209.997 198.378L210.069 198.396C210.133 198.413 210.229 198.438 210.357 198.471C210.613 198.536 210.995 198.632 211.496 198.753C212.499 198.995 213.979 199.338 215.883 199.741C219.691 200.546 225.194 201.59 231.966 202.54C245.512 204.44 264.121 205.964 284.387 204.466L284.493 205.907C264.097 207.415 245.38 205.881 231.765 203.971C224.956 203.016 219.42 201.966 215.584 201.155C213.666 200.749 212.172 200.403 211.157 200.158C210.65 200.035 210.262 199.938 210 199.871C209.869 199.838 209.769 199.812 209.702 199.794L209.626 199.774L209.607 199.769L209.6 199.767Z" fill="#273533"/>
<path fill-rule="evenodd" clip-rule="evenodd" d="M247.567 217.106C233.255 216.066 218.323 213.117 208.55 207.856L209.235 206.584C218.738 211.699 233.427 214.629 247.671 215.664C261.92 216.7 275.554 215.826 282.925 213.447L283.369 214.822C275.73 217.288 261.874 218.145 247.567 217.106Z" fill="#273533"/>
<path fill-rule="evenodd" clip-rule="evenodd" d="M275.72 247.384C275.18 236.864 274.64 226.344 274.099 215.822L275.542 215.748C276.083 226.269 276.623 236.789 277.164 247.309L277.164 247.317C277.704 257.835 278.244 268.352 278.786 278.872L277.342 278.946C276.801 268.424 276.261 257.904 275.72 247.384Z" fill="#273533"/>
<path fill-rule="evenodd" clip-rule="evenodd" d="M210.395 263.053C213.081 246.033 216.11 229.07 219.481 212.17L220.899 212.452C217.531 229.334 214.505 246.278 211.822 263.278L210.395 263.053Z" fill="#273533"/>
<path d="M196.623 214.834C198.336 211.486 200.461 207.794 204.104 206.864C206.103 206.354 208.215 206.794 210.193 207.368C214.493 208.612 218.618 210.472 222.393 212.87C222.987 213.247 223.602 213.674 223.882 214.324C224.378 215.485 223.504 216.869 222.344 217.365C221.183 217.869 219.862 217.722 218.611 217.533C216.108 217.162 213.626 216.673 211.179 216.065C214.549 218.757 217.513 221.959 219.946 225.524C220.477 226.307 221.009 227.188 220.911 228.132C220.757 229.642 218.974 230.544 217.471 230.327C215.968 230.11 214.702 229.118 213.521 228.16C214.395 229.076 215.297 230.033 215.695 231.236C216.094 232.438 215.842 233.956 214.772 234.641C213.919 235.186 212.808 235.067 211.829 234.795C210.612 234.452 209.459 233.907 208.424 233.187C208.963 234.368 209.522 235.62 209.375 236.906C209.228 238.192 208.096 239.465 206.816 239.255C206.348 239.178 205.928 238.919 205.53 238.668C202.314 236.647 199.098 234.627 195.875 232.606C194.162 235.242 193.917 235.151 191.722 237.409C190.38 233.578 188.52 231.718 191.358 228.81C191.051 226.755 191.757 224.699 192.449 222.742C193.463 219.875 195.232 217.554 196.623 214.834Z" fill="#D66C43"/>
<path fill-rule="evenodd" clip-rule="evenodd" d="M205.796 230.917C203.791 229.583 201.783 228.248 199.776 226.916L200.574 225.712C202.583 227.044 204.592 228.38 206.597 229.714C207.266 230.159 207.934 230.603 208.601 231.047L207.801 232.25C207.133 231.806 206.465 231.362 205.796 230.917Z" fill="#273533"/>
<path fill-rule="evenodd" clip-rule="evenodd" d="M208.262 225.014C206.186 223.663 204.043 222.269 202.404 220.756L203.384 219.694C204.924 221.116 206.969 222.449 209.084 223.825L209.117 223.847C211.194 225.197 213.336 226.592 214.975 228.105L213.995 229.166C212.455 227.744 210.411 226.412 208.296 225.036L208.262 225.014Z" fill="#273533"/>
<path fill-rule="evenodd" clip-rule="evenodd" d="M206.269 214.081C205.289 213.672 204.399 213.232 203.806 212.768L204.696 211.629C205.127 211.966 205.864 212.346 206.825 212.747C207.771 213.141 208.878 213.532 210.011 213.906C211 214.233 212.024 214.55 212.965 214.842C214.138 215.206 215.18 215.529 215.86 215.778L215.363 217.135C214.701 216.892 213.729 216.591 212.603 216.243C211.665 215.953 210.62 215.629 209.558 215.278C208.411 214.9 207.264 214.495 206.269 214.081Z" fill="#273533"/>
<path d="M249.324 73.1351L241.004 111.566L263.286 116.111L264.768 79.1826L249.324 73.1351Z" fill="#D66C43"/>
<path d="M264.3 100.492L246.619 86.062L248.982 75.624L264.593 82.0769L264.3 100.492Z" fill="#AF4E2F"/>
<path d="M281.771 41.9818C284.455 58.656 275.003 74.0229 257.049 76.9103C239.096 79.7977 222.366 68.6256 219.681 51.9584C216.996 35.2841 229.378 19.4279 247.325 16.5405C265.292 13.6461 279.093 25.3076 281.771 41.9818Z" fill="#35281F"/>
<path d="M244.863 26.1326C249.918 23.8604 255.469 22.616 260.985 22.8187C268.459 23.0914 278.435 25.9508 281.595 38.5701C286.853 59.5999 285.664 76.1763 275.513 82.818C267.718 87.9216 262.404 87.3554 251.924 83.5241C248.023 82.0979 240.99 75.7708 240.235 71.5201L234.998 61.5505C234.998 61.5505 220.701 36.9761 244.863 26.1326Z" fill="#D66C43"/>
<path d="M227.448 57.4325C227.448 57.4325 265.362 39.6047 257.469 17.617C257.469 17.617 242.493 15.8832 232.852 30.4251C223.211 44.974 227.448 57.4325 227.448 57.4325Z" fill="#35281F"/>
<path d="M238.536 48.7214L241.564 69.4156L229.748 55.4819L238.536 48.7214Z" fill="#35281F"/>
<path d="M258.406 25.9577C258.406 25.9577 264.103 26.517 269.487 28.9919C276.506 32.2149 279.079 36.4237 283.26 40.3877C283.26 40.3877 283.35 14.1983 258.594 17.1696L250.093 23.8603L258.406 25.9577Z" fill="#35281F"/>
<path d="M253.386 24.2939C253.847 26.8387 253.735 29.4884 253.057 31.9843C252.47 34.1586 251.463 36.207 250.275 38.1226C248.75 40.5766 246.87 42.8977 244.367 44.3449C242.367 45.4984 238.298 46.7149 236.537 44.8063C239.34 41.5903 243.947 39.6258 246.975 36.2769C250.058 32.8861 252.435 28.8172 253.386 24.2939Z" fill="#47392F"/>
<path d="M271.703 25.3072C273.563 26.6356 275.003 28.4603 276.415 30.2641C276.136 27.8311 274.73 25.6568 273.024 23.902C272.137 22.9861 271.123 22.1472 269.913 21.7417C267.606 20.9586 264.824 21.8325 262.796 22.9581C265.712 24.3564 268.809 23.2378 271.703 25.3072Z" fill="#47392F"/>
<path fill-rule="evenodd" clip-rule="evenodd" d="M272.339 20.1558C268.224 17.8427 262.894 17.8032 258.739 20.0523C258.212 20.3373 257.555 20.1416 257.27 19.6152C256.985 19.0888 257.181 18.4311 257.707 18.1462C262.515 15.5434 268.636 15.5878 273.401 18.2664C278.165 20.945 281.386 26.1546 281.656 31.6161C281.686 32.2139 281.225 32.7225 280.628 32.752C280.03 32.7816 279.521 32.3209 279.492 31.7231C279.258 27.0052 276.453 22.469 272.339 20.1558Z" fill="#161719"/>
<path fill-rule="evenodd" clip-rule="evenodd" d="M269.994 55.9669C270.251 55.7718 270.618 55.8221 270.813 56.0793L274.945 61.5255C275.116 61.7511 275.101 62.0668 274.909 62.275L272.602 64.7778C272.383 65.0152 272.013 65.0303 271.776 64.8115C271.538 64.5927 271.523 64.2229 271.742 63.9855L273.718 61.8423L269.881 56.7859C269.686 56.5287 269.737 56.162 269.994 55.9669Z" fill="black"/>
<path d="M281.582 52.0353C281.861 53.9649 280.987 55.6918 279.624 55.8876C278.261 56.0903 276.925 54.685 276.646 52.7554C276.366 50.8258 277.24 49.099 278.603 48.9033C279.967 48.7075 281.295 50.1057 281.582 52.0353Z" fill="white"/>
<path d="M281.589 52.4828C281.764 53.6713 281.177 54.741 280.289 54.8668C279.394 54.9997 278.534 54.1397 278.359 52.9512C278.184 51.7627 278.772 50.693 279.66 50.5672C280.547 50.4344 281.414 51.2943 281.589 52.4828Z" fill="black"/>
<path d="M260.495 54.2867C260.775 56.2163 259.901 57.9431 258.538 58.1389C257.174 58.3416 255.839 56.9364 255.559 55.0068C255.28 53.0772 256.154 51.3503 257.517 51.1546C258.873 50.9518 260.209 52.3571 260.495 54.2867Z" fill="white"/>
<path d="M260.698 54.5522C260.872 55.7407 260.285 56.8104 259.397 56.9362C258.502 57.069 257.642 56.2091 257.468 55.0206C257.293 53.8321 257.88 52.7624 258.768 52.6366C259.656 52.5037 260.523 53.3637 260.698 54.5522Z" fill="black"/>
<path d="M274.514 41.2894C274.514 41.2894 274.22 43.6875 276.737 43.7434C278.652 43.7853 280.869 43.6315 281.987 43.9811C282.623 44.1769 283.274 43.8203 283.525 43.1352C283.728 42.5828 283.637 41.9327 283.274 41.4712C282.54 40.5414 280.051 39.3109 277.723 39.22C274.737 39.1152 274.514 41.2894 274.514 41.2894Z" fill="black"/>
<path d="M260.867 41.4362C260.867 41.4362 262.062 43.6455 258.622 44.6522C256.015 45.4143 251.995 47.1831 250.568 47.9451C249.757 48.3786 248.751 48.2807 248.177 47.7144C247.716 47.26 247.625 46.5888 247.975 46.0085C248.681 44.834 252.61 41.625 255.77 40.6602C259.839 39.4088 260.867 41.4362 260.867 41.4362Z" fill="black"/>
<path d="M274.939 67.5771L262.25 69.1222C262.25 69.1222 266.193 76.3092 269.682 75.4633C275.981 73.9392 274.939 67.5771 274.939 67.5771Z" fill="white"/>
<path opacity="0.3" d="M267.39 58.8749C269.092 53.5045 266.117 47.7717 260.747 46.0704C255.376 44.3691 249.644 47.3434 247.942 52.7138C246.241 58.0843 249.215 63.8171 254.586 65.5184C259.956 67.2197 265.689 64.2453 267.39 58.8749Z" fill="white"/>
<path opacity="0.3" d="M273.248 53.8733C273.94 59.4594 278.603 63.5073 283.665 62.8991C288.72 62.2978 292.257 57.2781 291.565 51.6851C290.873 46.099 286.21 42.051 281.148 42.6593C276.094 43.2675 272.556 48.2873 273.248 53.8733Z" fill="white"/>
<path fill-rule="evenodd" clip-rule="evenodd" d="M249.32 53.1503C247.86 57.7599 250.413 62.6806 255.022 64.1409C259.632 65.6012 264.553 63.0482 266.013 58.4386C267.473 53.8289 264.92 48.9083 260.311 47.448C255.701 45.9877 250.78 48.5407 249.32 53.1503ZM254.15 66.896C248.018 64.9537 244.623 58.4087 246.565 52.2775C248.507 46.1463 255.052 42.7506 261.183 44.6929C267.315 46.6352 270.71 53.1801 268.768 59.3114C266.826 65.4426 260.281 68.8384 254.15 66.896Z" fill="#DDCEC3"/>
<path fill-rule="evenodd" clip-rule="evenodd" d="M280.976 41.2249C286.96 40.5058 292.227 45.2708 292.999 51.5077L292.999 51.5079C293.772 57.7543 289.82 63.6225 283.836 64.3343C277.852 65.0523 272.587 60.2876 271.814 54.0513C271.041 47.8104 274.994 41.9447 280.976 41.2249L280.976 41.2249ZM281.321 44.0943C277.193 44.5912 274.071 48.7649 274.682 53.696C275.294 58.6312 279.354 61.9621 283.493 61.4647L283.494 61.4645C287.62 60.9738 290.742 56.8026 290.131 51.8631C289.52 46.928 285.46 43.5971 281.321 44.0943" fill="#DDCEC3"/>
<path fill-rule="evenodd" clip-rule="evenodd" d="M273.876 52.5722C273.877 52.5725 273.877 52.5728 273.248 53.8737C272.619 55.1746 272.62 55.1749 272.62 55.1752L272.622 55.1758L272.624 55.1768L272.627 55.1785L272.629 55.1795C272.623 55.1767 272.608 55.17 272.584 55.1603C272.535 55.1408 272.454 55.11 272.344 55.0758C272.123 55.0069 271.799 54.9279 271.411 54.8962C270.647 54.834 269.647 54.9523 268.631 55.7011L266.917 53.3747C268.613 52.1239 270.35 51.9102 271.646 52.0157C272.287 52.068 272.823 52.1978 273.204 52.3168C273.396 52.3765 273.552 52.4344 273.665 52.4802C273.722 52.5031 273.768 52.5231 273.804 52.5389C273.822 52.5468 273.837 52.5537 273.849 52.5594L273.865 52.567L273.872 52.5701L273.875 52.5715L273.876 52.5722ZM272.631 55.1805L272.629 55.1795C272.632 55.1809 272.633 55.1812 272.631 55.1805Z" fill="#DDCEC3"/>
<path fill-rule="evenodd" clip-rule="evenodd" d="M239.651 60.9941L246.614 55.6039L248.383 57.8892L241.42 63.2795L239.651 60.9941Z" fill="#DDCEC3"/>
<path d="M226.386 65.3323C226.029 69.59 230.07 74.7636 234.775 75.5676C239.481 76.3716 243.584 73.5751 243.934 69.3174C244.291 65.0597 240.292 59.1101 235.586 58.3061C230.874 57.5021 226.742 61.0746 226.386 65.3323Z" fill="#D66C43"/>
<path fill-rule="evenodd" clip-rule="evenodd" d="M231.859 65.4094L231.603 64.7641C231.247 64.9056 231.072 65.3093 231.214 65.6657C231.355 66.0219 231.759 66.1961 232.115 66.055L232.114 66.0553L232.113 66.0556C232.113 66.0557 232.113 66.0558 232.113 66.0557L232.117 66.0541L232.145 66.0441C232.172 66.0347 232.215 66.02 232.273 66.0022C232.389 65.9666 232.563 65.9185 232.785 65.8741C233.231 65.7849 233.856 65.712 234.574 65.7767C235.16 65.8296 235.816 65.9745 236.494 66.288C235.625 66.2292 234.703 66.4236 233.93 67.1672C233.653 67.433 233.645 67.8725 233.911 68.1489C234.176 68.4253 234.616 68.4339 234.892 68.1681C235.586 67.5011 236.598 67.5647 237.669 67.9766C238.179 68.1729 238.64 68.4271 238.976 68.6354C239.143 68.7388 239.276 68.8292 239.367 68.8927C239.412 68.9244 239.446 68.9492 239.468 68.9655L239.492 68.9832L239.497 68.9867L239.497 68.9868L239.497 68.9869L239.497 68.987C239.497 68.9871 239.497 68.9871 239.497 68.9872C239.767 69.195 240.149 69.1757 240.397 68.9417C240.645 68.7074 240.686 68.3275 240.494 68.0455C238.696 65.4082 236.484 64.5548 234.699 64.3937C233.819 64.3143 233.057 64.4035 232.513 64.5125C232.24 64.5671 232.02 64.6271 231.865 64.6748C231.787 64.6987 231.725 64.7195 231.681 64.7351C231.659 64.7429 231.642 64.7494 231.629 64.7543L231.612 64.7605L231.607 64.7626L231.605 64.7635L231.604 64.7638C231.603 64.764 231.603 64.7641 231.859 65.4094Z" fill="black"/>
<path d="M353.871 161.344C351.326 166.511 340.636 166.28 329.793 160.89C318.789 155.416 311.378 146.502 313.44 140.923C315.559 135.183 326.773 135.26 338.273 141.167C349.599 146.977 356.486 156.038 353.871 161.344Z" fill="#DD920E"/>
<path d="M319.572 123.011C319.572 123.011 309.295 192.364 310.176 194.622C311.057 196.888 314.273 209.171 321.054 206.536C327.843 203.9 340.133 193.399 340.434 190.155C340.735 186.911 336.917 127.408 336.917 127.408C336.917 127.408 332.555 118.215 327.591 118.844C322.627 119.48 319.572 123.011 319.572 123.011Z" fill="#D66C43"/>
<path d="M312.818 145.983C312.909 146.116 313.028 141.439 313.238 141.9C315.363 146.605 316.824 148.626 326.794 153.862C335.281 158.323 353.389 162.364 353.389 162.364C353.389 162.364 342.531 210.415 332.834 214.952C323.473 219.336 314.832 212.939 310.532 208.283C301.674 198.698 312.818 145.983 312.818 145.983Z" fill="#FFC022"/>
<path fill-rule="evenodd" clip-rule="evenodd" d="M305.714 188.093C306.647 171.931 309.642 155.974 312.618 140.118L314.039 140.385C311.059 156.256 308.083 172.122 307.156 188.177L305.714 188.093Z" fill="#273533"/>
<path d="M316.664 116.291C314.112 111.293 314.692 104.945 318.782 100.988C322.879 97.0304 330.52 96.2544 335.177 99.8409C337.12 101.337 338.435 103.406 339.378 105.546C342 111.495 342.056 122.276 334.303 125.345C327.731 127.946 319.243 121.346 316.664 116.291Z" fill="#D66C43"/>
<path d="M331.492 80.1055C331.492 80.1055 330.485 97.5977 340.105 116.048C341.44 118.614 340.154 121.802 337.385 122.634C333.309 123.864 327.905 124.794 324.976 122.403C319.879 118.229 312.958 93.9832 314.538 82.8951C316.118 71.8138 331.492 80.1055 331.492 80.1055Z" fill="#5777D3"/>
<path fill-rule="evenodd" clip-rule="evenodd" d="M318.16 78.4382C316.752 79.0996 315.619 80.4276 315.253 82.9969C314.485 88.3889 315.786 97.1038 317.95 105.052C319.028 109.011 320.31 112.744 321.633 115.736C322.295 117.232 322.962 118.533 323.613 119.58C324.269 120.636 324.885 121.395 325.434 121.844C326.697 122.874 328.565 123.239 330.722 123.154C332.863 123.07 335.167 122.548 337.176 121.942C339.496 121.245 340.598 118.559 339.464 116.381C334.607 107.066 332.435 97.997 331.475 91.2595C330.996 87.8896 330.819 85.0992 330.762 83.1477C330.734 82.1719 330.736 81.4054 330.745 80.8807C330.747 80.7519 330.75 80.6376 330.752 80.5384C330.681 80.503 330.601 80.4637 330.513 80.421C330.1 80.2211 329.507 79.9466 328.789 79.6509C327.349 79.0573 325.433 78.3884 323.486 78.0569C321.523 77.7228 319.628 77.7494 318.16 78.4382ZM332.213 80.1469L332.213 80.1483L332.212 80.1562L332.211 80.1906C332.209 80.2219 332.207 80.2698 332.205 80.3337C332.2 80.4614 332.194 80.6533 332.19 80.9053C332.181 81.4093 332.179 82.1535 332.207 83.1058C332.262 85.0107 332.435 87.7465 332.906 91.0559C333.849 97.6769 335.983 106.579 340.746 115.714C342.283 118.667 340.811 122.358 337.593 123.325C335.527 123.949 333.092 124.507 330.779 124.598C328.483 124.688 326.185 124.322 324.519 122.962C323.793 122.368 323.077 121.455 322.386 120.343C321.689 119.222 320.991 117.857 320.312 116.32C318.953 113.246 317.648 109.442 316.556 105.432C314.38 97.4412 313.011 88.4892 313.822 82.793C314.246 79.8217 315.628 78.0306 317.546 77.1301C319.406 76.257 321.651 76.2788 323.728 76.6324C325.822 76.9888 327.848 77.7001 329.34 78.3149C330.089 78.6234 330.709 78.9102 331.143 79.1204C331.36 79.2256 331.531 79.3118 331.649 79.3722C331.707 79.4024 331.753 79.4262 331.784 79.4427L331.82 79.4618L331.83 79.4671L331.833 79.4687C331.833 79.4688 331.835 79.4694 331.492 80.1054L331.835 79.4694L332.239 79.6877L332.213 80.1469Z" fill="black"/>
<path d="M332.38 127.653L336.022 119.781C336.022 119.781 330.709 119.06 328.961 117.508C327.213 115.949 328.171 115.544 328.611 114.859C329.052 114.174 330.114 114.132 330.114 114.132C330.114 114.132 325.731 112.384 325.745 110.237C325.759 108.091 327.521 107.504 327.521 107.504C327.521 107.504 324.011 106.532 324.682 104.435C325.353 102.337 327.262 101.519 327.262 101.519C327.262 101.519 324.011 100.687 324.829 98.3593C325.647 96.0312 326.43 94.3043 328.15 94.3113C329.87 94.3183 337.483 95.346 340.147 97.0939C342.811 98.8347 344.433 101.939 344.754 108.874C345.076 115.817 339.028 128.275 335.253 129.31C331.478 130.351 332.38 127.653 332.38 127.653Z" fill="#D66C43"/>
<path fill-rule="evenodd" clip-rule="evenodd" d="M331.928 113.154C333.457 113.413 335.014 113.557 336.563 113.577L336.544 115.022C334.919 115.001 333.288 114.85 331.686 114.578L331.928 113.154Z" fill="#273533"/>
<path fill-rule="evenodd" clip-rule="evenodd" d="M329.616 106.516C331.931 106.53 334.253 106.65 336.559 106.869L336.423 108.307C334.157 108.093 331.878 107.975 329.607 107.961L329.616 106.516Z" fill="#273533"/>
<path d="M321.794 127.478C321.794 127.478 326.234 120.648 325.611 114.167C324.996 107.686 319.816 103.967 319.816 103.967C319.816 103.967 325.94 99.3663 327.094 95.9895C328.247 92.6127 328.415 90.7041 326.332 90.1937C324.248 89.6833 312.985 99.1775 311.314 102.275C309.643 105.372 311.447 112.111 313.503 116.907C315.565 121.71 321.228 127.667 321.794 127.478Z" fill="#D66C43"/>
<path fill-rule="evenodd" clip-rule="evenodd" d="M327.799 100.467C330.56 101.007 333.355 101.381 336.163 101.574L336.063 103.016C333.194 102.818 330.34 102.437 327.522 101.886L327.799 100.467Z" fill="#273533"/>
<path fill-rule="evenodd" clip-rule="evenodd" d="M322.65 105.862C323.999 107.297 325.153 109.073 325.679 110.967C326.188 112.801 326.414 114.992 326.261 117.128C326.109 119.259 325.577 121.393 324.518 123.074L323.295 122.304C324.186 120.888 324.678 119.009 324.82 117.025C324.961 115.047 324.75 113.022 324.287 111.353C323.84 109.745 322.835 108.168 321.597 106.851C320.358 105.533 318.934 104.524 317.709 104.019L318.26 102.683C319.713 103.282 321.302 104.427 322.65 105.862Z" fill="#273533"/>
<path d="M319.886 77.0986L304.89 80.4894C299.779 81.643 294.697 78.4409 293.543 73.3303C292.39 68.2197 295.592 63.137 300.702 61.9834L315.699 58.5927C316.754 58.355 317.81 59.0191 318.048 60.0748L321.369 74.7496C321.606 75.8122 320.942 76.8609 319.886 77.0986Z" fill="#365BA3"/>
<path fill-rule="evenodd" clip-rule="evenodd" d="M315.857 59.2979C315.857 59.2979 315.857 59.2979 315.857 59.2979L300.862 62.6886C296.141 63.7541 293.182 68.4492 294.248 73.1716C295.313 77.892 300.009 80.851 304.731 79.785L319.727 76.3943C320.392 76.2446 320.814 75.5835 320.664 74.9085C320.664 74.9083 320.664 74.9088 320.664 74.9085L317.343 60.2347C317.193 59.5703 316.526 59.1475 315.857 59.2979ZM318.753 59.9165C318.427 58.4696 316.983 57.5633 315.54 57.8882L300.543 61.2791C300.543 61.2791 300.543 61.2791 300.543 61.2791C295.042 62.5208 291.597 67.991 292.838 73.4898C294.08 78.9907 299.55 82.4358 305.049 81.1946L320.045 77.8039C321.491 77.4783 322.398 76.0423 322.074 74.5923L318.753 59.9165Z" fill="black"/>
<path d="M350.396 63.6685L348.97 54.412L347.39 44.1698L312.461 49.5601C304.61 50.7695 299.234 58.1174 300.443 65.9686L300.499 66.3252L301.849 75.0503C301.877 75.2391 301.912 75.4279 301.954 75.6166C303.422 83.1532 310.602 88.2499 318.257 87.0684L353.186 81.6781L350.396 63.6685Z" fill="#4568BF"/>
<path fill-rule="evenodd" clip-rule="evenodd" d="M347.994 43.3453L349.684 54.3016L351.11 63.5577L354.01 82.2816L318.367 87.7822C310.33 89.0227 302.792 83.6746 301.246 75.7638C301.201 75.5623 301.164 75.3605 301.134 75.1583C301.134 75.1575 301.134 75.1568 301.134 75.156L299.785 66.4369L299.785 66.4354L299.729 66.0804L299.729 66.0784C298.459 57.8336 304.105 50.1162 312.351 48.8458C312.351 48.8458 312.351 48.8458 312.351 48.8458L347.994 43.3453ZM346.786 44.9938L312.571 50.2739C305.116 51.4225 300.009 58.4002 301.157 65.8574C301.157 65.8577 301.157 65.8571 301.157 65.8574L301.213 66.2145L302.563 74.9442C302.589 75.1157 302.62 75.2875 302.659 75.4597L302.663 75.4782C304.057 82.6356 310.876 87.4762 318.147 86.3541L352.361 81.074L349.682 63.7789L348.256 54.5219L346.786 44.9938Z" fill="black"/>
<path d="M368.336 58.3692C372.167 84.4817 404.635 104.603 412.898 103.715C421.421 102.799 432.446 74.1276 428.118 44.9809C423.483 13.7368 409.354 -1.56019 400.74 0.998624C392.393 3.47354 364.449 31.8582 368.336 58.3692Z" fill="#B5C9E5"/>
<path fill-rule="evenodd" clip-rule="evenodd" d="M416.513 9.89919C421.781 17.4232 426.504 29.1723 428.833 44.8747C431.014 59.5624 429.328 74.1242 426.019 85.1421C424.365 90.6496 422.298 95.3003 420.083 98.6485C418.976 100.322 417.819 101.691 416.641 102.677C415.466 103.661 414.231 104.298 412.976 104.433C411.799 104.56 410.277 104.31 408.557 103.783C406.82 103.252 404.82 102.418 402.66 101.32C398.341 99.1232 393.341 95.8431 388.487 91.7176C378.798 83.4827 369.573 71.7797 367.621 58.474L367.621 58.474C365.638 44.9486 371.774 31.0336 379.359 20.2545C383.161 14.8525 387.349 10.2047 391.121 6.74623C393.006 5.01701 394.794 3.57896 396.384 2.49073C397.963 1.40995 399.385 0.646954 400.535 0.305982C402.942 -0.409244 405.652 0.148671 408.371 1.77779C411.092 3.40743 413.88 6.13883 416.513 9.89919ZM407.629 3.01742C405.132 1.52164 402.845 1.12699 400.946 1.69117L400.946 1.69129C400.009 1.9691 398.732 2.63446 397.2 3.68312C395.679 4.72445 393.945 6.11711 392.097 7.81122C388.403 11.1994 384.283 15.7688 380.541 21.0861C373.039 31.7458 367.147 45.2787 369.051 58.2643C370.93 71.071 379.855 82.4847 389.423 90.6165C394.197 94.6743 399.104 97.89 403.316 100.032C405.422 101.103 407.343 101.9 408.98 102.401C410.631 102.907 411.932 103.092 412.821 102.996C413.697 102.902 414.67 102.443 415.713 101.57C416.752 100.699 417.821 99.4495 418.878 97.8513C420.992 94.6552 423.008 90.1447 424.635 84.7265C427.888 73.8932 429.551 59.5459 427.404 45.0869L427.404 45.0868C425.098 29.5452 420.438 18.0238 415.329 10.728C412.774 7.07849 410.125 4.51266 407.629 3.01742Z" fill="black"/>
<path d="M372.734 62.1093C376.145 85.5302 398.86 102.135 406.97 101.219C415.325 100.275 424.155 76.2737 420.785 50.6017C417.366 24.5451 404.712 8.27637 396.273 10.6534C388.094 12.9466 369.28 38.3669 372.734 62.1093Z" fill="#4465B7"/>
<path d="M413.528 63.9554L385.073 74.3934L379.858 42.4362L410.724 40.3109" fill="#658BEA"/>
<path d="M411.081 39.9401C408.592 40.3806 407.075 46.3581 407.676 53.2655C408.27 60.131 410.738 65.4094 413.213 65.0808C415.709 64.7522 417.282 58.8446 416.702 51.8603C416.115 44.848 413.591 39.4997 411.081 39.9401Z" fill="#242E5B"/>
<path d="M336.799 45.3653C336.799 45.3653 331.632 54.7756 334.415 68.4156C337.183 81.9857 339.644 85.2926 339.644 85.2926L410.053 103.204C405.586 101.107 385.773 93.3116 383.158 58.0615C379.739 11.9959 398.336 2.75337 398.336 2.75337L336.799 45.3653Z" fill="#E6EFFF"/>
<path fill-rule="evenodd" clip-rule="evenodd" d="M398.336 2.75368L398.014 2.10667L398.747 3.34769L396.937 4.60084C396.645 4.8402 396.324 5.12004 395.978 5.44441C394.346 6.97634 392.178 9.50664 390.105 13.4681C385.96 21.3893 382.176 35.0743 383.878 58.0083C385.175 75.4938 390.729 86.101 396.452 92.5875C401.762 98.6049 407.255 101.124 409.811 102.297C410.013 102.389 410.196 102.474 410.36 102.551L409.875 103.905L339.217 85.9299L339.064 85.7243L339.644 85.2929C339.064 85.7243 339.065 85.7247 339.064 85.7243L339.063 85.7225L339.061 85.7204L339.058 85.7154L339.048 85.7015C339.04 85.6906 339.03 85.6763 339.018 85.6584C338.994 85.6226 338.96 85.5722 338.919 85.5058C338.837 85.373 338.721 85.1754 338.576 84.8999C338.287 84.3491 337.882 83.485 337.392 82.2004C336.414 79.6323 335.097 75.3737 333.706 68.5603C332.291 61.6205 332.896 55.7512 333.859 51.6121C334.341 49.5427 334.911 47.9046 335.364 46.7793C335.591 46.2165 335.788 45.7817 335.93 45.4848C336.001 45.3364 336.058 45.2224 336.099 45.1442C336.119 45.105 336.135 45.0749 336.146 45.0538L336.159 45.029L336.163 45.0217L336.164 45.0194C336.164 45.019 336.165 45.0179 336.798 45.3656L336.165 45.0179L336.247 44.8686L396.068 3.44543C396.48 3.10982 396.841 2.84583 397.136 2.64413C397.401 2.46281 397.614 2.3319 397.764 2.24458C397.839 2.20093 397.898 2.16818 397.94 2.14547C397.961 2.13412 397.978 2.12529 397.99 2.11886L398.006 2.111L398.011 2.1084L398.013 2.10743C398.014 2.10703 398.014 2.10667 398.336 2.75368ZM391.583 8.30852L337.357 45.8579C337.325 45.9212 337.283 46.0049 337.234 46.1084C337.104 46.3794 336.919 46.7863 336.705 47.3189C336.276 48.3842 335.729 49.9512 335.267 51.9394C334.342 55.9155 333.756 61.5714 335.122 68.2715M334.414 68.4159L335.122 68.2715C336.501 75.0283 337.798 79.2082 338.743 81.686C339.214 82.9244 339.597 83.7351 339.856 84.2284C339.956 84.4185 340.037 84.5611 340.098 84.6628L404.144 100.956C401.532 99.3469 398.418 96.9989 395.369 93.5435C389.415 86.7954 383.755 75.8799 382.437 58.1153C380.721 34.9837 384.525 21.0146 388.825 12.7982C389.739 11.0505 390.675 9.56496 391.583 8.30852" fill="black"/>
<path d="M361.19 234.41L234.809 308.525L361.065 382.814L361.19 234.41Z" fill="#C7DBFF"/>
<path fill-rule="evenodd" clip-rule="evenodd" d="M361.914 233.148L361.787 384.077L233.383 308.524L361.914 233.148ZM236.236 308.526L360.344 381.551L360.467 235.672L236.236 308.526Z" fill="black"/>
<path d="M234.809 308.525L264.277 292.515L361.065 382.814L234.809 308.525Z" fill="#80A0E8"/>
<path d="M108.553 234.242L234.599 308.525L108.225 382.639L108.553 234.242Z" fill="#C7DBFF"/>
<path fill-rule="evenodd" clip-rule="evenodd" d="M107.834 232.98L236.025 308.526L107.5 383.903L107.834 232.98ZM109.273 235.505L108.95 381.377L233.174 308.523L109.273 235.505Z" fill="black"/>
<path fill-rule="evenodd" clip-rule="evenodd" d="M231.859 306.197L205.39 293.312L108.225 382.64L231.859 306.197Z" fill="#80A0E8"/>
<path d="M108.434 382.64L237.528 275.89L361.065 382.815L108.434 382.64Z" fill="#D7E7FF"/>
<path fill-rule="evenodd" clip-rule="evenodd" d="M237.539 274.943L363.005 383.538L106.429 383.36L237.539 274.943ZM110.44 381.918L359.125 382.09L237.518 276.836L110.44 381.918Z" fill="black"/>
<path fill-rule="evenodd" clip-rule="evenodd" d="M392.575 393.441H60.2195V374.656H392.575V393.441Z" fill="#81B4FD"/>
</svg>
