<svg width="522" height="522" viewBox="0 0 522 522" fill="none" xmlns="http://www.w3.org/2000/svg">
<path d="M62.6946 449.871H458.03C458.473 449.871 458.832 449.512 458.832 449.069C458.832 448.627 458.473 448.268 458.03 448.268H62.6946C62.252 448.268 61.8928 448.627 61.8928 449.069C61.8928 449.512 62.252 449.871 62.6946 449.871Z" fill="#030047"/>
<path d="M152.698 449.071H370.152L387.42 139.982C388.498 120.699 373.737 105.066 354.455 105.066H206.831C187.548 105.066 171.041 120.699 169.965 139.982L152.698 449.071Z" fill="white"/>
<path d="M152.698 449.872H370.153C370.579 449.872 370.929 449.54 370.952 449.116L388.222 140.025C388.757 130.466 385.531 121.479 379.139 114.721C372.763 107.976 363.995 104.262 354.457 104.262H206.833C187.162 104.262 170.266 120.264 169.166 139.935L151.898 449.024C151.886 449.243 151.965 449.458 152.115 449.619C152.268 449.78 152.476 449.872 152.698 449.872ZM369.395 448.268H153.543L170.763 140.025C171.815 121.189 187.995 105.865 206.829 105.865H354.455C363.548 105.865 371.9 109.402 377.972 115.821C384.059 122.256 387.13 130.821 386.621 139.935L369.395 448.268Z" fill="#030047"/>
<path d="M300.258 126.505C298.282 124.473 298.422 121.132 300.57 119.042C302.719 116.953 306.063 116.906 308.039 118.938C310.015 120.97 309.875 124.311 307.727 126.401C305.578 128.49 302.235 128.537 300.258 126.505Z" fill="#030047"/>
<path d="M253.587 126.982H290.315C292.493 126.982 294.355 125.218 294.479 123.04L294.548 121.794C294.669 119.616 293.002 117.852 290.825 117.852H254.097C251.919 117.852 250.056 119.616 249.933 121.794L249.864 123.04C249.743 125.218 251.409 126.982 253.587 126.982Z" fill="#030047"/>
<path d="M221.259 192.533C222.054 192.533 222.743 191.942 222.846 191.132C223.044 189.591 228.049 153.462 260.776 157.162C261.655 157.264 262.449 156.63 262.549 155.751C262.649 154.872 262.017 154.076 261.138 153.978C225.262 149.919 219.718 190.32 219.666 190.727C219.555 191.604 220.175 192.406 221.054 192.518C221.123 192.529 221.19 192.533 221.259 192.533Z" fill="#FFCC3D"/>
<path d="M243.699 192.051C243.039 199.851 236.487 206.374 228.807 206.65C220.829 206.936 214.665 200.417 215.329 192.057C215.995 183.669 223.234 177.092 231.21 177.378C238.886 177.654 244.361 184.229 243.699 192.051Z" fill="#605EFD"/>
<path d="M229.198 177.378C221.222 177.092 213.983 183.669 213.321 192.057C212.661 200.417 218.827 206.936 226.805 206.65H228.808C220.829 206.936 214.666 200.417 215.33 192.057C215.996 183.669 223.235 177.092 231.211 177.378H229.198Z" fill="#030047"/>
<path d="M236.176 192.052C235.884 195.568 232.906 198.46 229.478 198.516C225.989 198.573 223.354 195.681 223.648 192.056C223.942 188.425 227.051 185.523 230.54 185.577C233.969 185.629 236.468 188.529 236.176 192.052Z" fill="#FFCC3D"/>
<path d="M243.554 161.189C243.554 161.189 230.216 168.378 225.798 178.332C221.38 188.285 226.136 210.838 211.076 222.848C196.017 234.858 169.62 260.138 195.382 279.454C221.144 298.77 261.672 256.463 261.672 256.463L262.077 216.354L243.554 161.189Z" fill="#030047"/>
<path d="M181.988 389.256L172.176 449.071H298.358V389.256H181.988Z" fill="#030047"/>
<path d="M90.0362 254.91C90.7879 256.254 91.8695 257.618 93.3812 258.971C98.194 263.268 106.763 273.505 108.649 275.785L140.424 253.477L139.987 253.774L101.128 207.138C99.5282 205.278 97.0582 204.666 94.8741 205.33C93.9575 205.61 93.1097 206.115 92.3852 206.842C90.5164 208.746 90.1406 211.663 91.4769 213.97L101.33 231.029C101.33 231.029 96.1854 232.077 95.8012 237.038C95.8012 237.038 95.7657 237.038 95.6884 237.047C94.9722 237.091 91.2681 237.65 90.8067 243.388C89.652 243.755 86.7079 249.04 90.0362 254.91Z" fill="white"/>
<path d="M108.651 276.588C108.81 276.588 108.97 276.542 109.11 276.444L140.886 254.135C141.247 253.883 141.334 253.386 141.084 253.023C140.873 252.72 140.489 252.609 140.155 252.724L101.744 206.627C99.9941 204.591 97.2088 203.787 94.6405 204.566C93.5777 204.89 92.6298 205.466 91.8175 206.278C89.6961 208.44 89.2723 211.768 90.7819 214.374L100.124 230.549C98.1943 231.266 95.6198 233.032 95.0769 236.325C93.774 236.586 90.6148 237.751 90.0427 242.906C89.3641 243.426 88.7774 244.462 88.4183 245.383C87.8399 246.859 86.7709 250.782 89.3349 255.303C90.168 256.793 91.3477 258.228 92.8448 259.568C97.8414 264.03 107.001 275.053 108.031 276.297C108.192 276.487 108.419 276.588 108.651 276.588ZM138.82 253.626L108.793 274.706C106.594 272.067 98.5388 262.502 93.9139 258.374C92.5504 257.153 91.4814 255.856 90.7339 254.518C90.7339 254.515 90.7318 254.515 90.7318 254.513C88.7774 251.068 89.2472 248.059 89.7003 246.575C90.1743 245.019 90.8779 244.238 91.0679 244.144C91.3769 244.046 91.5753 243.777 91.6025 243.453C92.0159 238.333 95.1187 237.885 95.7346 237.847C96.171 237.824 96.5656 237.532 96.5991 237.099C96.9331 232.792 101.443 231.821 101.489 231.813C101.742 231.76 101.955 231.591 102.059 231.355C102.166 231.122 102.151 230.85 102.022 230.627L92.1683 213.568C91.0178 211.582 91.3415 209.047 92.9555 207.402C93.5735 206.784 94.3002 206.343 95.1061 206.097C97.0647 205.5 99.1903 206.116 100.518 207.661L138.82 253.626Z" fill="#030047"/>
<path d="M105.3 253.947C105.3 253.947 108.63 264.769 98.3595 260.353C98.3595 260.353 95.2171 259.251 90.0305 254.912C86.7085 249.042 89.6463 243.749 90.801 243.396L105.3 253.947Z" fill="white"/>
<path d="M102.493 262.212C103.621 262.212 104.537 261.901 105.233 261.276C107.64 259.115 106.233 254.259 106.066 253.712C106.016 253.547 105.911 253.403 105.771 253.3L91.2723 242.75C91.0677 242.601 90.8067 242.555 90.5666 242.633C89.6834 242.902 88.8879 244.205 88.439 245.33C87.8481 246.813 86.754 250.753 89.3326 255.309C89.3807 255.392 89.4412 255.468 89.5164 255.528C94.7551 259.909 97.9602 261.066 98.0939 261.112C99.7977 261.842 101.27 262.212 102.493 262.212ZM104.606 254.434C104.98 255.816 105.477 258.904 104.162 260.084C103.228 260.919 101.332 260.759 98.6764 259.619C98.5971 259.589 95.5736 258.483 90.6585 254.392C88.7855 250.993 89.2533 248.036 89.7022 246.566C90.0446 245.449 90.504 244.735 90.8025 244.391L104.606 254.434Z" fill="#030047"/>
<path d="M111.45 247.639C111.401 247.635 111.353 247.639 111.314 247.633C106.63 247.368 95.8062 237.039 95.8062 237.039C96.1862 232.071 101.329 231.029 101.329 231.029L113.899 240.469C116.979 242.776 115.306 247.767 111.45 247.639Z" fill="white"/>
<path d="M111.589 248.442C113.608 248.442 115.335 247.214 116.015 245.275C116.729 243.245 116.086 241.105 114.378 239.825L101.811 230.385C101.627 230.247 101.395 230.199 101.17 230.241C99.1861 230.644 95.3442 232.567 95.008 236.975C94.9892 237.213 95.079 237.449 95.2544 237.616C96.384 238.693 106.431 248.156 111.269 248.432C111.282 248.432 111.367 248.438 111.38 248.438L111.451 247.638L111.424 248.44C111.478 248.442 111.532 248.442 111.589 248.442ZM101.155 231.899L113.416 241.109C114.798 242.145 114.865 243.715 114.504 244.746C114.136 245.795 113.142 246.931 111.476 246.839V246.841C111.445 246.839 111.407 246.839 111.395 246.839C107.872 246.638 99.8229 239.719 96.645 236.731C97.1044 233.365 100.128 232.2 101.155 231.899Z" fill="#030047"/>
<path d="M109.089 253.262C104.053 257.181 90.8025 243.396 90.8025 243.396C91.2681 237.648 94.9722 237.095 95.6842 237.047C95.6842 237.047 114.082 249.379 109.089 253.262Z" fill="white"/>
<path d="M106.893 254.755C107.898 254.755 108.81 254.496 109.583 253.894C110.38 253.274 110.783 252.418 110.748 251.422C110.564 246.202 97.6081 237.372 96.1318 236.38C95.9857 236.282 95.8124 236.232 95.6349 236.247C95.115 236.28 90.536 236.762 90.0057 243.329C89.9869 243.557 90.0683 243.784 90.227 243.949C91.4339 245.206 100.813 254.753 106.893 254.755ZM95.4804 237.875C99.4643 240.579 109.017 247.823 109.146 251.479C109.163 251.965 108.994 252.32 108.597 252.629C105.398 255.112 96.6142 248.209 91.6343 243.102C92.1062 238.815 94.5471 238.021 95.4804 237.875Z" fill="#030047"/>
<path d="M141.08 255.188L132.517 231.322C131.498 227.259 127.452 224.728 123.353 225.59L109.829 228.436C108.445 228.729 107.639 230.18 108.123 231.508C109.305 234.744 112.545 236.753 115.97 236.371L122.772 235.611L121.87 239.469C119.547 242.948 120.089 245.303 122.489 249.92" fill="white"/>
<path d="M141.08 255.988C141.17 255.988 141.262 255.974 141.352 255.942C141.769 255.794 141.984 255.335 141.836 254.917L133.273 231.051C132.169 226.627 127.729 223.854 123.19 224.806L109.666 227.652C108.779 227.838 108.017 228.402 107.576 229.195C107.135 229.989 107.062 230.932 107.374 231.784C108.687 235.38 112.257 237.602 116.064 237.169L121.737 236.537L121.125 239.149C118.678 242.89 119.357 245.628 121.781 250.292C121.985 250.685 122.47 250.837 122.862 250.633C123.255 250.43 123.407 249.946 123.203 249.553C120.87 245.068 120.449 243.045 122.539 239.915C122.593 239.836 122.631 239.746 122.654 239.652L123.556 235.795C123.614 235.543 123.547 235.275 123.374 235.081C123.201 234.887 122.946 234.787 122.685 234.818L115.882 235.578C112.815 235.925 109.935 234.135 108.877 231.237C108.724 230.822 108.762 230.362 108.975 229.976C109.19 229.59 109.56 229.316 109.994 229.224L123.518 226.378C127.212 225.598 130.822 227.861 131.738 231.521L140.324 255.462C140.443 255.784 140.75 255.988 141.08 255.988Z" fill="#030047"/>
<path d="M103.528 279.061L145.595 341.724C149.393 348.986 156.254 354.156 164.28 355.799C166.111 356.171 167.94 356.356 169.761 356.356C177.758 356.356 185.463 352.842 190.708 346.568L228.59 298.181L232.315 256.243L202.603 256.314C194.675 256.863 186.031 260.891 182.663 268.086L168.412 287.797L141.673 250.906L103.528 279.061Z" fill="#FFCC3D"/>
<path opacity="0.4" d="M126.138 313.554C126.178 313.554 126.219 313.549 126.261 313.545C132.101 312.65 136.505 307.511 136.505 301.594C136.505 294.927 131.08 289.502 124.413 289.502C120.204 289.502 116.237 291.744 114.059 295.353C113.829 295.733 113.952 296.225 114.33 296.453C114.71 296.678 115.201 296.557 115.431 296.181C117.32 293.049 120.761 291.106 124.413 291.106C130.197 291.106 134.901 295.81 134.901 301.594C134.901 306.728 131.082 311.186 126.017 311.963C125.578 312.029 125.28 312.439 125.347 312.877C125.407 313.27 125.75 313.554 126.138 313.554Z" fill="white"/>
<path d="M145.597 342.528C145.751 342.528 145.906 342.484 146.043 342.392C146.411 342.146 146.509 341.646 146.263 341.279L104.622 279.251L141.483 252.048L173.712 299.145C173.962 299.509 174.461 299.602 174.827 299.354C175.192 299.103 175.286 298.604 175.035 298.239L142.339 250.457C142.216 250.278 142.026 250.157 141.811 250.121C141.596 250.083 141.377 250.138 141.201 250.265L103.056 278.418C102.711 278.672 102.628 279.153 102.866 279.51L144.933 342.175C145.085 342.402 145.338 342.528 145.597 342.528Z" fill="#030047"/>
<path d="M176.847 396.263L267.064 404.406L291.299 406.603L302.075 407.574L312.851 285.649C314.102 277.834 310.972 267.571 303.414 265.229C289.75 260.994 270.135 258.635 258.522 257.384C239.456 255.333 209.178 256.68 209.178 256.68C200.089 257.021 192.564 263.853 191.315 272.856L176.847 396.263Z" fill="#FFCC3D"/>
<path opacity="0.4" d="M218.641 328.743C221.579 328.743 223.97 326.352 223.97 323.415C223.97 320.475 221.579 318.084 218.641 318.084C215.703 318.084 213.313 320.475 213.313 323.415C213.313 326.352 215.703 328.743 218.641 328.743ZM218.641 319.688C220.696 319.688 222.368 321.36 222.368 323.415C222.368 325.469 220.696 327.142 218.641 327.142C216.587 327.142 214.914 325.469 214.914 323.415C214.916 321.36 216.587 319.688 218.641 319.688Z" fill="white"/>
<path opacity="0.6" d="M239.627 355.636C239.784 355.636 239.94 355.568 240.045 355.436L246.405 347.462C246.589 347.232 246.551 346.896 246.321 346.712C246.092 346.529 245.753 346.566 245.57 346.796L239.21 354.77C239.026 355 239.064 355.336 239.293 355.519C239.393 355.599 239.51 355.636 239.627 355.636Z" fill="white"/>
<path d="M252.355 342.823L244.177 337.282C243.661 336.858 243.277 336.332 243.011 335.735C242.579 334.684 242.617 333.417 243.193 332.338C244.316 330.21 247.056 329.579 249.029 330.974L275.822 342.869L267.443 375.87" fill="white"/>
<path d="M267.441 376.671C267.798 376.671 268.126 376.431 268.218 376.068L276.597 343.067C276.693 342.689 276.503 342.296 276.146 342.138L249.422 330.276C248.297 329.507 246.902 329.246 245.58 329.564C244.25 329.881 243.122 330.756 242.484 331.965C241.815 333.218 241.736 334.742 242.271 336.041C242.607 336.792 243.072 337.413 243.667 337.901L251.907 343.489C252.274 343.735 252.771 343.641 253.02 343.276C253.268 342.91 253.172 342.411 252.807 342.163L244.628 336.621C244.285 336.335 243.968 335.913 243.745 335.412C243.398 334.571 243.454 333.556 243.901 332.719C244.331 331.904 245.06 331.339 245.956 331.126C246.856 330.906 247.806 331.096 248.568 331.633C248.612 331.662 248.658 331.689 248.706 331.71L274.883 343.33L266.671 375.677C266.562 376.105 266.821 376.542 267.251 376.65C267.31 376.663 267.377 376.671 267.441 376.671Z" fill="#030047"/>
<path d="M209.637 378.456L251.656 385.277C257.164 386.171 261.875 381.299 260.797 375.825L249.815 320.042C249.167 316.757 246.545 314.22 243.239 313.684L201.221 306.862C195.712 305.969 191.002 310.84 192.079 316.315L203.062 372.098C203.709 375.382 206.332 377.919 209.637 378.456Z" fill="#030047"/>
<path d="M267.441 375.872L231.315 370.554C230.202 370.234 229.39 369.284 228.983 368.291C228.694 367.616 228.598 366.879 228.774 366.125C229.166 364.223 231.008 362.87 232.927 363.2L239.481 364.069L227.293 362.388C225.905 362.204 224.648 361.335 224.088 360.03C224.08 360.018 224.08 360.007 224.08 360.007C223.792 359.333 223.696 358.586 223.871 357.842C224.264 355.94 226.105 354.589 228.014 354.917L240.475 356.568L221.871 354.038C220.758 353.718 219.958 352.758 219.539 351.764C219.248 351.1 219.165 350.355 219.328 349.611C219.72 347.709 221.545 346.473 223.468 346.792L241.477 349.008L228.4 347.275C227.287 346.955 226.477 345.995 226.068 345.001C225.777 344.337 225.683 343.589 225.857 342.848C226.249 340.946 228.076 339.7 229.987 340.029L256.857 341.762" fill="white"/>
<path d="M267.443 376.671C267.834 376.671 268.176 376.385 268.234 375.986C268.299 375.548 267.996 375.141 267.558 375.076L231.488 369.766C230.744 369.532 230.085 368.87 229.721 367.983C229.479 367.415 229.423 366.853 229.55 366.304C229.867 364.765 231.319 363.726 232.789 363.989L239.372 364.861C239.811 364.932 240.211 364.613 240.272 364.175C240.33 363.736 240.026 363.333 239.587 363.273L227.399 361.592C226.247 361.439 225.268 360.727 224.829 359.733C224.825 359.721 224.819 359.706 224.812 359.692C224.576 359.142 224.52 358.564 224.645 358.023C224.963 356.482 226.41 355.447 227.873 355.706L240.366 357.361C240.802 357.43 241.207 357.113 241.266 356.674C241.324 356.236 241.017 355.833 240.579 355.775H240.577L222.04 353.252C221.311 353.023 220.655 352.352 220.275 351.452C220.041 350.918 219.985 350.342 220.108 349.782C220.415 348.295 221.833 347.335 223.334 347.583L241.377 349.803C241.813 349.853 242.214 349.548 242.27 349.11C242.327 348.673 242.018 348.272 241.581 348.214L228.569 346.487C227.83 346.253 227.176 345.589 226.809 344.696C226.566 344.142 226.51 343.57 226.637 343.029C226.948 341.522 228.358 340.566 229.851 340.818L256.805 342.56C257.243 342.585 257.627 342.253 257.657 341.812C257.686 341.371 257.35 340.989 256.909 340.962L230.039 339.229C227.773 338.824 225.556 340.348 225.073 342.687C224.871 343.545 224.961 344.464 225.334 345.322C225.474 345.662 225.648 345.984 225.848 346.278L223.566 345.998C221.244 345.612 219.022 347.126 218.542 349.45C218.348 350.333 218.438 351.25 218.803 352.085C219.382 353.459 220.419 354.455 221.647 354.808C221.685 354.818 221.722 354.827 221.76 354.831L224.508 355.204C223.806 355.835 223.286 356.689 223.081 357.679C222.883 358.524 222.967 359.437 223.33 360.297C223.336 360.312 223.342 360.328 223.349 360.343C224.002 361.865 225.472 362.951 227.184 363.179L229.41 363.485C228.707 364.114 228.189 364.97 227.984 365.958C227.784 366.814 227.871 367.735 228.241 368.599C228.792 369.944 229.859 370.963 231.089 371.318C231.124 371.328 231.158 371.334 231.193 371.341L267.32 376.659C267.364 376.669 267.403 376.671 267.443 376.671Z" fill="#030047"/>
<path d="M259.935 376.393L319.343 396.051C322.656 397.179 326.066 397.738 329.451 397.738C338.129 397.738 346.597 394.109 352.63 387.436C360.858 378.335 362.982 365.253 358.079 354.003L337.771 290.415C334.556 277.491 323.694 267.904 310.467 266.313L279.312 261.521L313.941 348.572L270.644 334.253L259.935 376.393Z" fill="#FFCC3D"/>
<path d="M319.345 397.5C319.679 397.5 319.99 397.291 320.103 396.957C320.247 396.539 320.023 396.082 319.604 395.94L260.895 375.872L271.21 335.279L313.695 349.329C313.974 349.421 314.281 349.352 314.496 349.152C314.712 348.949 314.797 348.647 314.72 348.361L302.455 302.539C302.34 302.113 301.902 301.857 301.474 301.974C301.046 302.088 300.793 302.527 300.908 302.955L312.788 347.342L270.897 333.488C270.686 333.419 270.454 333.44 270.26 333.544C270.066 333.651 269.924 333.834 269.868 334.049L259.158 376.194C259.056 376.599 259.281 377.014 259.676 377.15L319.086 397.456C319.171 397.485 319.259 397.5 319.345 397.5Z" fill="#030047"/>
<path d="M176.847 397.061C177.248 397.061 177.594 396.76 177.642 396.353L190.937 282.968C190.989 282.53 190.674 282.131 190.233 282.079C189.795 282.045 189.396 282.342 189.344 282.782L176.049 396.167C175.997 396.606 176.312 397.004 176.751 397.057C176.784 397.059 176.816 397.061 176.847 397.061Z" fill="#030047"/>
<path d="M323.45 352.82C323.778 352.82 324.085 352.617 324.204 352.292C324.354 351.876 324.139 351.417 323.724 351.264L314.219 347.813C313.804 347.665 313.344 347.876 313.192 348.293C313.042 348.709 313.257 349.168 313.672 349.32L323.177 352.772C323.267 352.805 323.36 352.82 323.45 352.82Z" fill="#030047"/>
<path opacity="0.4" d="M274.025 304.444C278.731 304.444 282.561 300.621 282.561 295.921C282.561 291.214 278.731 287.385 274.025 287.385C269.325 287.385 265.502 291.214 265.502 295.921C265.502 300.621 269.325 304.444 274.025 304.444ZM274.025 288.988C277.848 288.988 280.957 292.097 280.957 295.921C280.957 299.737 277.846 302.84 274.025 302.84C270.21 302.84 267.105 299.735 267.105 295.921C267.103 292.097 270.208 288.988 274.025 288.988Z" fill="white"/>
<path opacity="0.4" d="M341.791 317.264C343.309 317.264 344.814 316.917 346.142 316.26C346.539 316.064 346.702 315.583 346.506 315.187C346.309 314.79 345.829 314.625 345.432 314.823C344.324 315.37 343.065 315.661 341.791 315.661C337.116 315.661 333.314 311.858 333.314 307.183C333.314 303.032 336.268 299.527 340.34 298.852C340.776 298.779 341.073 298.368 341 297.929C340.927 297.493 340.515 297.194 340.079 297.269C335.233 298.075 331.714 302.243 331.714 307.183C331.71 312.744 336.233 317.264 341.791 317.264Z" fill="white"/>
<path opacity="0.4" d="M317.593 303.55C322.051 303.55 325.676 299.923 325.676 295.467C325.676 291.01 322.049 287.385 317.593 287.385C313.135 287.385 309.51 291.012 309.51 295.467C309.51 299.923 313.135 303.55 317.593 303.55ZM317.593 288.986C321.166 288.986 324.074 291.893 324.074 295.467C324.074 299.042 321.168 301.949 317.593 301.949C314.021 301.949 311.112 299.042 311.112 295.467C311.112 291.893 314.021 288.986 317.593 288.986Z" fill="white"/>
<path opacity="0.4" d="M333.493 337.58C335.452 337.58 337.047 335.985 337.047 334.026C337.047 332.068 335.452 330.473 333.493 330.473C331.535 330.473 329.939 332.068 329.939 334.026C329.939 335.985 331.532 337.58 333.493 337.58ZM333.493 332.074C334.568 332.074 335.443 332.949 335.443 334.024C335.443 335.1 334.568 335.975 333.493 335.975C332.418 335.975 331.543 335.1 331.543 334.024C331.543 332.949 332.416 332.074 333.493 332.074Z" fill="white"/>
<path opacity="0.4" d="M334.844 373.927C337.634 373.927 339.903 371.657 339.903 368.868C339.903 366.078 337.634 363.809 334.844 363.809C332.055 363.809 329.785 366.078 329.785 368.868C329.785 371.657 332.055 373.927 334.844 373.927ZM334.844 365.41C336.75 365.41 338.302 366.961 338.302 368.868C338.302 370.774 336.75 372.326 334.844 372.326C332.938 372.326 331.386 370.774 331.386 368.868C331.388 366.961 332.938 365.41 334.844 365.41Z" fill="white"/>
<path opacity="0.4" d="M277.508 374.026C281.36 374.026 284.494 370.892 284.494 367.039C284.494 363.187 281.36 360.053 277.508 360.053C273.655 360.053 270.521 363.187 270.521 367.039C270.521 370.892 273.655 374.026 277.508 374.026ZM277.508 361.656C280.477 361.656 282.891 364.07 282.891 367.039C282.891 370.008 280.475 372.424 277.508 372.424C274.541 372.424 272.125 370.008 272.125 367.039C272.125 364.07 274.539 361.656 277.508 361.656Z" fill="white"/>
<path opacity="0.4" d="M218.177 296.45C223.174 296.45 227.239 292.385 227.239 287.388C227.239 282.392 223.174 278.326 218.177 278.326C213.181 278.326 209.115 282.392 209.115 287.388C209.115 292.385 213.181 296.45 218.177 296.45ZM218.177 279.928C222.291 279.928 225.638 283.275 225.638 287.388C225.638 291.501 222.291 294.849 218.177 294.849C214.064 294.849 210.719 291.501 210.719 287.388C210.719 283.275 214.064 279.928 218.177 279.928Z" fill="white"/>
<path opacity="0.4" d="M250.662 289.944C253.681 289.944 256.139 287.486 256.139 284.467C256.139 281.446 253.681 278.988 250.662 278.988C247.641 278.988 245.185 281.446 245.185 284.467C245.185 287.486 247.643 289.944 250.662 289.944ZM250.662 280.592C252.798 280.592 254.537 282.331 254.537 284.467C254.537 286.603 252.8 288.34 250.662 288.34C248.526 288.34 246.787 286.601 246.787 284.467C246.789 282.329 248.526 280.592 250.662 280.592Z" fill="white"/>
<path opacity="0.4" d="M287.668 327.641C290.303 327.641 292.445 325.498 292.445 322.863C292.445 320.228 290.303 318.086 287.668 318.086C285.033 318.086 282.891 320.228 282.891 322.863C282.891 325.496 285.033 327.641 287.668 327.641ZM287.668 319.687C289.418 319.687 290.842 321.111 290.842 322.863C290.842 324.613 289.418 326.037 287.668 326.037C285.918 326.037 284.494 324.613 284.494 322.863C284.494 321.111 285.918 319.687 287.668 319.687Z" fill="white"/>
<path opacity="0.4" d="M193.282 383.145C197.293 383.145 200.559 379.882 200.559 375.868C200.559 371.857 197.295 368.592 193.282 368.592C189.271 368.592 186.005 371.855 186.005 375.868C186.005 379.882 189.269 383.145 193.282 383.145ZM193.282 370.195C196.41 370.195 198.955 372.741 198.955 375.868C198.955 378.996 196.41 381.542 193.282 381.542C190.154 381.542 187.609 378.996 187.609 375.868C187.609 372.741 190.154 370.195 193.282 370.195Z" fill="white"/>
<path opacity="0.4" d="M269.097 398C272.516 398 275.299 395.219 275.299 391.799C275.299 388.381 272.518 385.6 269.097 385.6C265.677 385.6 262.896 388.381 262.896 391.799C262.896 395.219 265.677 398 269.097 398ZM269.097 387.203C271.632 387.203 273.695 389.266 273.695 391.801C273.695 394.336 271.632 396.399 269.097 396.399C266.563 396.399 264.5 394.336 264.5 391.801C264.5 389.264 266.563 387.203 269.097 387.203Z" fill="white"/>
<path opacity="0.4" d="M262.019 323.637C264.64 323.637 266.771 321.506 266.771 318.885C266.771 316.265 264.64 314.133 262.019 314.133C259.399 314.133 257.267 316.265 257.267 318.885C257.267 321.506 259.401 323.637 262.019 323.637ZM262.019 315.736C263.756 315.736 265.168 317.15 265.168 318.885C265.168 320.622 263.754 322.034 262.019 322.034C260.282 322.034 258.87 320.62 258.87 318.885C258.87 317.15 260.284 315.736 262.019 315.736Z" fill="white"/>
<path opacity="0.4" d="M150.942 322.228C154.124 322.228 156.713 319.639 156.713 316.457C156.713 313.275 154.124 310.686 150.942 310.686C147.76 310.686 145.17 313.275 145.17 316.457C145.17 319.639 147.757 322.228 150.942 322.228ZM150.942 312.289C153.241 312.289 155.109 314.16 155.109 316.457C155.109 318.754 153.238 320.624 150.942 320.624C148.645 320.624 146.774 318.754 146.774 316.457C146.774 314.16 148.643 312.289 150.942 312.289Z" fill="white"/>
<path opacity="0.4" d="M168.406 342.368C170.926 342.368 172.979 340.318 172.979 337.797C172.979 335.277 170.928 333.225 168.406 333.225C165.884 333.225 163.833 335.275 163.833 337.797C163.835 340.318 165.886 342.368 168.406 342.368ZM168.406 334.828C170.043 334.828 171.375 336.16 171.375 337.797C171.375 339.434 170.043 340.766 168.406 340.766C166.769 340.766 165.437 339.434 165.437 337.797C165.437 336.16 166.769 334.828 168.406 334.828Z" fill="white"/>
<path opacity="0.4" d="M182.662 297.119C184.763 297.119 186.471 295.409 186.471 293.309C186.471 291.208 184.763 289.5 182.662 289.5C180.562 289.5 178.854 291.208 178.854 293.309C178.854 295.409 180.564 297.119 182.662 297.119ZM182.662 291.106C183.879 291.106 184.869 292.095 184.869 293.311C184.869 294.528 183.879 295.518 182.662 295.518C181.445 295.518 180.455 294.528 180.455 293.311C180.457 292.093 181.447 291.106 182.662 291.106Z" fill="white"/>
<path opacity="0.4" d="M148.733 295.87C152.099 295.87 154.836 293.133 154.836 289.767C154.836 286.401 152.099 283.666 148.733 283.666C145.367 283.666 142.629 286.403 142.629 289.767C142.629 293.133 145.367 295.87 148.733 295.87ZM148.733 285.27C151.213 285.27 153.232 287.287 153.232 289.769C153.232 292.252 151.213 294.269 148.733 294.269C146.252 294.269 144.233 292.25 144.233 289.769C144.233 287.289 146.25 285.27 148.733 285.27Z" fill="white"/>
<path d="M235.614 258.173L242.208 220.345L276.42 220.025L269.933 259.393C269.933 259.393 259.676 270.202 245.653 266.584C234.382 263.675 235.614 258.173 235.614 258.173Z" fill="white"/>
<path d="M251.379 268.119C262.61 268.121 270.425 260.042 270.517 259.946C270.628 259.829 270.701 259.683 270.726 259.525L277.211 220.157C277.249 219.924 277.184 219.686 277.03 219.506C276.875 219.326 276.647 219.209 276.414 219.226L242.202 219.544C241.815 219.548 241.486 219.825 241.419 220.208L234.827 258.023C234.727 258.522 233.835 264.362 245.455 267.361C247.512 267.891 249.493 268.119 251.379 268.119ZM269.185 259.009C267.819 260.339 258.292 269.027 245.856 265.807C235.585 263.158 236.389 258.385 236.397 258.337C236.399 258.33 236.401 258.316 236.401 258.309L242.88 221.139L275.472 220.836L269.185 259.009Z" fill="#030047"/>
<path d="M275.992 222.834C289.42 205.665 283.928 179.878 283.928 179.878L238.162 165.078C237.395 165.819 221.848 180.78 221.263 208.323C220.877 226.53 235.357 237.125 252.648 235.229" fill="white"/>
<path d="M248.772 236.243C250.077 236.243 251.401 236.172 252.735 236.024C253.176 235.976 253.493 235.581 253.445 235.14C253.397 234.7 253.003 234.372 252.562 234.433C243.757 235.393 235.474 232.99 229.836 227.826C224.585 223.017 221.898 216.279 222.067 208.339C222.597 183.281 235.687 168.725 238.38 165.992L283.23 180.495C283.865 183.982 287.44 206.898 275.361 222.343C275.087 222.692 275.15 223.195 275.499 223.468C275.847 223.74 276.351 223.679 276.624 223.331C290.127 206.065 284.767 179.975 284.713 179.712C284.652 179.432 284.448 179.205 284.176 179.117L238.41 164.317C238.128 164.228 237.819 164.299 237.606 164.505C235.904 166.155 221.037 181.318 220.465 208.307C220.288 216.722 223.152 223.882 228.755 229.012C233.868 233.693 241.011 236.243 248.772 236.243Z" fill="#030047"/>
<path d="M276.14 221.739L271.728 204.87C271.728 204.87 263.844 207.705 253.889 196.424C243.933 185.145 236.696 171.731 237.314 164.256C237.932 156.783 275.303 153.017 295.536 171.573C315.769 190.141 308.07 210.934 303.692 224.67" fill="#030047"/>
<path d="M269.864 206.534C269.864 206.534 279.323 197.345 284.52 199.266C289.717 201.187 287.483 219.568 281.256 221.205C275.03 222.842 270.073 220.313 270.073 220.313" fill="white"/>
<path d="M276.949 222.563C278.331 222.563 279.853 222.404 281.459 221.982C285.482 220.924 287.89 214.19 288.184 208.083C288.433 202.969 287.165 199.392 284.795 198.518C279.189 196.434 269.703 205.573 269.302 205.961C268.985 206.27 268.977 206.778 269.286 207.095C269.595 207.412 270.102 207.421 270.419 207.112C272.952 204.654 280.369 198.586 284.24 200.021C285.868 200.624 286.789 203.758 286.583 208.005C286.317 213.47 284.175 219.611 281.049 220.433C275.213 221.97 270.48 219.625 270.432 219.602C270.037 219.404 269.555 219.56 269.354 219.955C269.154 220.348 269.311 220.83 269.705 221.03C269.868 221.112 272.779 222.563 276.949 222.563Z" fill="#030047"/>
<path d="M276.754 209.021C277.132 208.351 277.652 207.762 278.268 207.301C278.654 207.013 279.088 206.77 279.564 206.687C280.04 206.603 280.562 206.699 280.926 207.015C281.439 207.464 281.527 208.226 281.502 208.908C281.456 210.153 281.153 211.389 280.619 212.512" fill="white"/>
<path d="M280.618 213.316C280.917 213.316 281.205 213.149 281.343 212.859C281.921 211.642 282.256 210.287 282.304 208.94C282.345 207.777 282.068 206.95 281.452 206.413C280.932 205.96 280.174 205.764 279.426 205.9C278.883 205.994 278.347 206.242 277.789 206.66C277.09 207.182 276.491 207.862 276.058 208.625C275.841 209.011 275.975 209.499 276.361 209.717C276.745 209.936 277.236 209.8 277.453 209.416C277.777 208.844 278.226 208.334 278.75 207.942C279.103 207.679 279.414 207.526 279.704 207.476C279.977 207.43 280.245 207.482 280.401 207.618C280.623 207.81 280.727 208.247 280.704 208.879C280.662 210.009 280.385 211.147 279.898 212.168C279.708 212.567 279.877 213.045 280.278 213.235C280.385 213.291 280.504 213.316 280.618 213.316Z" fill="#030047"/>
<path d="M229.358 199.706C228.424 199.261 228.205 197.772 228.868 196.38C229.531 194.988 230.825 194.22 231.759 194.665C232.693 195.11 232.913 196.599 232.25 197.991C231.587 199.383 230.292 200.151 229.358 199.706Z" fill="#030047"/>
<path d="M230.97 191.39C232.958 191.34 234.827 192.616 235.71 194.626L230.97 191.39Z" fill="white"/>
<path d="M235.71 195.426C235.819 195.426 235.927 195.405 236.032 195.359C236.437 195.182 236.621 194.708 236.443 194.303C235.426 191.989 233.261 190.563 230.95 190.588C230.507 190.599 230.158 190.966 230.169 191.409C230.179 191.849 230.557 192.167 230.989 192.19C232.658 192.123 234.221 193.23 234.975 194.946C235.109 195.249 235.403 195.426 235.71 195.426Z" fill="#030047"/>
<path d="M244.063 206.696C243.129 206.251 242.91 204.762 243.573 203.37C244.236 201.978 245.531 201.211 246.464 201.655C247.398 202.1 247.618 203.589 246.955 204.981C246.292 206.373 244.997 207.141 244.063 206.696Z" fill="#030047"/>
<path d="M245.672 198.378C247.66 198.328 249.529 199.604 250.412 201.615L245.672 198.378Z" fill="white"/>
<path d="M250.414 202.417C250.523 202.417 250.631 202.396 250.736 202.35C251.141 202.173 251.325 201.699 251.147 201.294C250.13 198.98 247.965 197.537 245.654 197.579C245.211 197.589 244.862 197.957 244.873 198.4C244.883 198.84 245.255 199.145 245.693 199.181C247.36 199.12 248.926 200.22 249.679 201.937C249.811 202.237 250.105 202.417 250.414 202.417Z" fill="#030047"/>
<path d="M237.748 200.189C236.802 202.206 234.098 207.637 233.152 209.654C232.582 210.872 232.002 212.137 232.113 213.438C232.223 214.739 233.234 216.085 234.789 216.326" fill="white"/>
<path d="M234.792 217.129C235.18 217.129 235.522 216.845 235.583 216.45C235.65 216.012 235.349 215.603 234.913 215.536C233.718 215.352 232.99 214.283 232.912 213.373C232.819 212.26 233.382 211.057 233.879 209.996C234.351 208.99 235.259 207.136 236.17 205.28C237.086 203.411 238.001 201.542 238.475 200.529C238.663 200.129 238.49 199.65 238.089 199.465C237.688 199.277 237.212 199.45 237.024 199.849C236.552 200.855 235.642 202.716 234.729 204.574C233.815 206.441 232.9 208.305 232.426 209.316C231.843 210.56 231.184 211.968 231.313 213.508C231.445 215.068 232.639 216.81 234.666 217.121C234.708 217.125 234.75 217.129 234.792 217.129Z" fill="#030047"/>
<path d="M241.037 221.922C242.398 221.922 243.755 221.59 244.962 220.94C246.866 219.917 248.32 218.142 248.95 216.073C249.08 215.649 248.84 215.203 248.418 215.073C247.994 214.952 247.547 215.184 247.418 215.605C246.91 217.274 245.739 218.704 244.204 219.529C242.67 220.354 240.83 220.544 239.16 220.049C238.734 219.926 238.289 220.166 238.164 220.59C238.038 221.013 238.281 221.46 238.704 221.586C239.462 221.811 240.25 221.922 241.037 221.922Z" fill="#030047"/>
<path d="M303.691 224.672C299.312 238.421 311.847 251.001 320.483 263.039C329.628 275.786 327.855 289.414 297.149 288.187C266.433 286.969 261.522 282.758 264.501 256.992C267.493 231.214 276.138 221.74 276.138 221.74" fill="#030047"/>
<path d="M256.561 228.294C265.401 228.294 271.653 221.211 271.943 220.875C272.233 220.541 272.196 220.035 271.862 219.745C271.528 219.455 271.022 219.491 270.732 219.825C270.659 219.908 263.249 228.291 253.677 226.408C253.241 226.331 252.821 226.606 252.738 227.041C252.652 227.475 252.936 227.895 253.37 227.98C254.464 228.197 255.529 228.294 256.561 228.294Z" fill="#030047"/>
<path d="M292.124 211.629C292.124 219.463 286.108 226.03 278.431 226.305C270.453 226.592 263.754 220.025 263.754 211.629C263.754 203.233 270.453 196.666 278.431 196.952C286.106 197.228 292.124 203.795 292.124 211.629Z" fill="#605EFD"/>
<path d="M276.422 196.952C268.444 196.666 261.745 203.233 261.745 211.629C261.745 220.025 268.444 226.592 276.422 226.305H278.431C270.452 226.592 263.754 220.025 263.754 211.629C263.754 203.233 270.452 196.666 278.431 196.952H276.422Z" fill="#030047"/>
<path d="M284.599 211.629C284.599 215.158 281.859 218.062 278.431 218.116C274.942 218.173 272.071 215.268 272.071 211.629C272.071 207.989 274.944 205.085 278.431 205.141C281.859 205.194 284.599 208.098 284.599 211.629Z" fill="#FFCC3D"/>
<path d="M278.637 214.119C279.297 214.119 279.915 213.709 280.147 213.052C280.592 211.797 290.923 182.128 280.293 165.12C276.288 158.714 269.843 154.964 261.138 153.978C260.257 153.874 259.465 154.51 259.365 155.389C259.265 156.269 259.898 157.064 260.777 157.162C268.463 158.033 274.115 161.28 277.575 166.817C287.395 182.527 277.23 211.686 277.126 211.978C276.829 212.812 277.266 213.728 278.101 214.025C278.28 214.089 278.46 214.119 278.637 214.119Z" fill="#FFCC3D"/>
<path d="M253.522 230.543C251.835 230.543 250.468 229.175 250.468 227.488C250.468 225.801 251.835 224.434 253.522 224.434C255.209 224.434 256.577 225.801 256.577 227.488C256.577 229.175 255.209 230.543 253.522 230.543Z" fill="#030047"/>
<path d="M333.587 241.266H466.952C468.524 241.266 469.8 239.991 469.8 238.418V178.098C469.8 176.526 468.524 175.25 466.952 175.25H333.587C332.015 175.25 330.739 176.526 330.739 178.098V238.416C330.741 239.991 332.015 241.266 333.587 241.266Z" fill="#605EFD"/>
<path d="M73.7729 388.224L73.6497 377.172L79.4105 377.108C80.0641 373.815 81.3315 370.739 83.0729 367.994L78.9532 363.96L86.6809 356.057L90.8006 360.091C93.5066 358.282 96.553 356.952 99.8311 356.226L99.7664 350.467L110.824 350.344L110.889 356.102C114.182 356.756 117.258 358.017 120.003 359.765L124.031 355.641L131.934 363.369L127.906 367.492C129.71 370.199 131.045 373.245 131.771 376.523L137.532 376.458L137.655 387.51L131.894 387.575C131.241 390.874 129.976 393.95 128.232 396.689L132.352 400.723L124.624 408.626L120.504 404.592C117.798 406.4 114.752 407.73 111.474 408.457L111.539 414.222L100.481 414.345L100.416 408.58C97.123 407.927 94.0474 406.665 91.3017 404.918L87.2739 409.042L79.3708 401.314L83.3986 397.19C81.5945 394.49 80.2603 391.442 79.5337 388.16L73.7729 388.224ZM104.713 395.691C112.96 396.253 119.713 389.352 118.974 381.113C118.393 374.631 113.08 369.434 106.586 368.998C98.332 368.443 91.5856 375.345 92.329 383.578C92.9157 390.058 98.2255 395.25 104.713 395.691Z" fill="#030047"/>
<path d="M97.8996 184.841C73.103 184.841 53.0013 164.74 53.0013 139.943C53.0013 115.147 73.103 95.0449 97.8996 95.0449C122.696 95.0449 142.798 115.147 142.798 139.943C142.798 164.74 122.696 184.841 97.8996 184.841Z" fill="white"/>
<path d="M97.8996 185.642C123.1 185.642 143.6 165.14 143.6 139.942C143.6 114.742 123.098 94.2402 97.8996 94.2402C72.6995 94.2402 52.1995 114.742 52.1995 139.942C52.1995 165.14 72.7016 185.642 97.8996 185.642ZM97.8996 95.8438C122.214 95.8438 141.998 115.626 141.998 139.942C141.998 164.257 122.216 184.041 97.8996 184.041C73.5827 184.041 53.801 164.259 53.801 139.942C53.8031 115.626 73.5848 95.8438 97.8996 95.8438Z" fill="#030047"/>
<path d="M133.037 159.701C128.725 165.276 123.718 170.283 118.143 174.595C114.744 177.228 110.301 176.676 108.509 173.736C106.609 170.853 102.659 170.097 99.4703 171.715C96.2151 173.377 92.8096 174.797 89.2809 175.948C85.8336 177.081 83.4658 180.435 84.1611 183.817C85.0652 187.858 85.9672 191.898 86.8713 195.94C87.5583 199.312 92.1999 201.2 97.0086 199.628C125.927 190.2 148.645 167.483 158.072 138.564C159.644 133.755 157.757 129.114 154.385 128.427C150.344 127.523 146.304 126.621 142.262 125.717C138.879 125.023 135.526 127.389 134.392 130.836C133.242 134.365 131.824 137.771 130.16 141.026C128.539 144.214 129.295 148.165 132.181 150.065C135.117 151.858 135.668 156.302 133.037 159.701Z" fill="#605EFD"/>
<path d="M75.3182 152.117C75.1094 152.117 74.7837 152.082 74.3452 152.011C73.9047 151.94 73.5894 151.904 73.3952 151.904L69.6994 151.892C69.3821 151.892 68.8997 151.932 68.2546 152.011C67.6094 152.09 67.1228 152.13 66.7971 152.13C66.7052 152.13 66.5716 152.113 66.3941 152.08C66.2187 152.046 66.0851 152.03 65.9911 152.03C65.2374 152.03 64.7258 151.725 64.4586 151.113C64.2915 150.727 64.208 150.132 64.208 149.328C64.208 147.762 64.5546 146.451 65.2499 145.396C65.7865 144.584 66.653 143.77 67.8516 142.957C68.9833 142.212 70.1087 141.471 71.232 140.734C72.5558 139.771 73.2177 138.677 73.2177 137.453C73.2177 137.136 72.9546 136.819 72.4264 136.503C71.8981 136.19 71.3845 136.034 70.8812 136.034C69.9918 136.034 69.0522 136.428 68.0604 137.222C67.0686 138.013 66.3858 138.41 66.0183 138.41C65.5735 138.41 65.1852 138.301 64.849 138.084C64.4293 137.817 64.2205 137.443 64.2205 136.965C64.2205 136.453 64.4293 136.015 64.849 135.645C65.8617 134.749 66.747 134.096 67.5008 133.687C68.5886 133.092 69.7161 132.793 70.8812 132.793C72.3303 132.793 73.6374 133.175 74.8025 133.937C76.1347 134.81 76.8007 135.948 76.8007 137.355C76.8007 138.779 76.475 139.99 75.8194 140.988C75.3078 141.784 74.4998 142.561 73.3931 143.312C72.347 143.974 71.2988 144.632 70.2507 145.285C68.6596 146.325 67.8035 147.509 67.6866 148.843C68.148 148.785 68.8266 148.718 69.7224 148.643C71.5076 148.551 72.7834 148.505 73.5539 148.505C74.2743 148.505 74.9863 148.66 75.6899 148.971C76.5606 149.355 76.997 149.85 76.997 150.453C76.997 150.89 76.8425 151.27 76.5314 151.597C76.2098 151.94 75.8027 152.117 75.3182 152.117Z" fill="#030047"/>
<path d="M87.5082 146.902H82.4949C79.8056 146.902 78.4609 146.353 78.4609 145.254C78.4609 144.795 78.6948 144.279 79.1646 143.709C79.5488 143.273 79.9392 142.834 80.3339 142.39C81.6827 140.462 83.7394 137.598 86.5039 133.793C87.1574 132.923 88.0073 132.486 89.0554 132.486C89.5503 132.486 89.9763 132.612 90.3375 132.864C90.7655 133.165 90.9785 133.589 90.9785 134.134L90.991 143.584C92.0893 143.617 92.8222 143.73 93.1897 143.922C93.5989 144.148 93.8056 144.593 93.8056 145.254C93.814 145.95 93.4966 146.428 92.8494 146.687C92.3963 146.862 91.7782 146.933 90.9889 146.9C91.014 148.107 91.0098 149.414 90.9764 150.821C90.968 151.28 90.8177 151.663 90.5233 151.965C90.231 152.266 89.8322 152.416 89.329 152.416C88.0553 152.416 87.4477 151.579 87.5061 149.902V146.902H87.5082ZM87.5082 137.94C86.696 139.222 85.4432 141.103 83.7498 143.584H87.5082V137.94Z" fill="#030047"/>
<path d="M106.609 134.02C106.284 134.724 105.81 135.814 105.19 137.288C104.62 138.77 103.816 140.489 102.776 142.441C101.861 144.101 100.949 145.763 100.036 147.431C99.861 147.765 99.101 149.365 97.7626 152.232C97.4535 152.893 96.9629 153.225 96.2926 153.225C95.8562 153.225 95.4762 153.088 95.1484 152.812C94.7955 152.509 94.6201 152.142 94.6201 151.705C94.6201 151.513 94.6577 151.319 94.7329 151.127C95.3948 149.409 96.6309 146.932 98.4412 143.694C100.251 140.455 101.485 137.968 102.149 136.233C102.653 134.918 103.024 134.026 103.267 133.557C103.92 132.274 104.536 131.642 105.114 131.659C105.542 131.675 105.918 131.821 106.246 132.099C106.599 132.4 106.774 132.765 106.774 133.193C106.774 133.45 106.718 133.726 106.609 134.02Z" fill="#030047"/>
<path d="M117.379 136.584C116.439 136.575 114.694 136.538 112.138 136.471C111.501 136.471 110.551 136.442 109.286 136.383C108.171 136.291 107.615 135.751 107.615 134.761C107.615 134.302 107.782 133.915 108.118 133.604C108.453 133.295 108.864 133.141 109.35 133.141C110.405 133.141 111.992 133.172 114.107 133.235C116.222 133.297 117.809 133.329 118.863 133.329H121.164C121.617 133.329 122.014 133.416 122.359 133.592C122.787 133.809 123 134.132 123 134.56C123 135.02 122.749 135.569 122.246 136.206C121.826 136.676 121.404 137.145 120.976 137.613C119.914 138.795 118.928 140.244 118.024 141.962C117.738 142.497 116.988 144.069 115.775 146.675C115.616 147.017 115.259 147.957 114.706 149.49C114.286 150.646 113.86 151.551 113.424 152.204C113.09 152.682 112.624 152.92 112.029 152.92C111.568 152.92 111.156 152.766 110.797 152.455C110.436 152.146 110.257 151.759 110.257 151.298C110.257 150.939 110.536 150.099 111.098 148.784C112.002 146.673 112.904 144.562 113.8 142.451C114.955 139.989 116.147 138.033 117.379 136.584Z" fill="#030047"/>
<path d="M387.224 363.769L439.184 385.797C440.069 386.173 441.092 385.76 441.466 384.874L457.573 346.879C457.949 345.994 457.535 344.971 456.65 344.597L404.69 322.569C403.805 322.193 402.782 322.606 402.408 323.491L386.301 361.487C385.925 362.372 386.339 363.395 387.224 363.769Z" fill="#FFCC3D"/>
<path d="M422.165 359.082C422.72 359.082 423.284 358.997 423.835 358.815L449.488 350.403C449.908 350.265 450.138 349.812 450 349.392C449.862 348.97 449.409 348.743 448.989 348.88L423.336 357.293C421.536 357.884 419.557 357.042 418.73 355.341L406.948 331.057C406.753 330.658 406.275 330.493 405.876 330.686C405.478 330.878 405.313 331.358 405.505 331.757L417.287 356.04C418.208 357.938 420.14 359.082 422.165 359.082Z" fill="white"/>
<path d="M394.641 359.53C394.704 359.53 394.768 359.524 394.833 359.507L417.026 354.06C417.456 353.955 417.72 353.521 417.613 353.091C417.507 352.661 417.074 352.398 416.644 352.504L394.451 357.952C394.021 358.056 393.758 358.49 393.864 358.921C393.954 359.286 394.282 359.53 394.641 359.53Z" fill="white"/>
<path d="M437.655 377.765C437.793 377.765 437.931 377.73 438.058 377.657C438.441 377.433 438.57 376.943 438.347 376.561L426.821 356.819C426.597 356.436 426.107 356.309 425.725 356.53C425.342 356.754 425.213 357.245 425.436 357.627L436.962 377.369C437.11 377.626 437.38 377.765 437.655 377.765Z" fill="white"/>
<path d="M422.419 144.977L427.236 148.009C429.497 149.418 432.468 148.744 433.882 146.497L436.914 141.68C438.327 139.433 437.651 136.462 435.406 135.049L430.585 132C428.338 130.587 425.367 131.263 423.939 133.512L420.909 138.346C419.496 140.59 420.172 143.561 422.419 144.977Z" fill="#FFCC3D"/>
<path d="M330.729 81.9861L334.191 84.166C335.816 85.1787 337.952 84.6942 338.968 83.0802L341.148 79.6183C342.163 78.0043 341.679 75.8683 340.065 74.8535L336.601 72.6632C334.987 71.6484 332.851 72.1328 331.823 73.7489L329.645 77.2234C328.631 78.8332 329.115 80.9692 330.729 81.9861Z" fill="#FFCC3D"/>
<path d="M68.983 251.217L72.4449 253.396C74.0694 254.409 76.2054 253.925 77.2223 252.311L79.4022 248.849C80.4169 247.235 79.9325 245.099 78.3185 244.084L74.8545 241.894C73.2405 240.879 71.1045 241.363 70.0772 242.979L67.8993 246.454C66.8825 248.066 67.369 250.2 68.983 251.217Z" fill="#FFCC3D"/>
<path d="M309.279 155.14L312.741 157.32C314.365 158.333 316.501 157.849 317.518 156.235L319.698 152.773C320.713 151.159 320.228 149.023 318.614 148.008L315.15 145.817C313.536 144.803 311.4 145.287 310.373 146.903L308.195 150.378C307.178 151.99 307.665 154.124 309.279 155.14Z" fill="#FFCC3D"/>
<path d="M348.72 215.24C346.96 215.24 345.448 214.888 344.184 214.184C342.936 213.464 341.976 212.456 341.304 211.16C340.632 209.848 340.296 208.304 340.296 206.528C340.296 205.2 340.488 204.008 340.872 202.952C341.256 201.88 341.808 200.968 342.528 200.216C343.248 199.448 344.128 198.864 345.168 198.464C346.224 198.048 347.408 197.84 348.72 197.84C349.6 197.84 350.464 197.952 351.312 198.176C352.16 198.4 352.904 198.72 353.544 199.136C353.88 199.344 354.104 199.6 354.216 199.904C354.328 200.192 354.352 200.48 354.288 200.768C354.224 201.04 354.088 201.272 353.88 201.464C353.688 201.656 353.44 201.768 353.136 201.8C352.848 201.816 352.528 201.712 352.176 201.488C351.68 201.168 351.144 200.936 350.568 200.792C349.992 200.648 349.408 200.576 348.816 200.576C347.68 200.576 346.72 200.808 345.936 201.272C345.152 201.736 344.56 202.408 344.16 203.288C343.76 204.168 343.56 205.248 343.56 206.528C343.56 207.792 343.76 208.872 344.16 209.768C344.56 210.664 345.152 211.344 345.936 211.808C346.72 212.272 347.68 212.504 348.816 212.504C349.424 212.504 350.024 212.432 350.616 212.288C351.208 212.128 351.768 211.888 352.296 211.568C352.648 211.36 352.96 211.272 353.232 211.304C353.52 211.32 353.76 211.416 353.952 211.592C354.144 211.768 354.272 211.992 354.336 212.264C354.4 212.52 354.384 212.792 354.288 213.08C354.192 213.352 354 213.592 353.712 213.8C353.072 214.264 352.304 214.624 351.408 214.88C350.528 215.12 349.632 215.24 348.72 215.24Z" fill="white"/>
<path d="M361.381 215.24C360.165 215.24 359.109 214.992 358.213 214.496C357.317 214 356.621 213.296 356.125 212.384C355.629 211.456 355.381 210.368 355.381 209.12C355.381 208.176 355.517 207.336 355.789 206.6C356.077 205.848 356.485 205.208 357.013 204.68C357.541 204.136 358.173 203.728 358.909 203.456C359.645 203.168 360.469 203.024 361.381 203.024C362.597 203.024 363.653 203.272 364.549 203.768C365.445 204.264 366.141 204.968 366.637 205.88C367.133 206.792 367.381 207.872 367.381 209.12C367.381 210.064 367.237 210.912 366.949 211.664C366.677 212.416 366.277 213.064 365.749 213.608C365.221 214.136 364.589 214.544 363.853 214.832C363.117 215.104 362.293 215.24 361.381 215.24ZM361.381 212.96C361.973 212.96 362.493 212.816 362.941 212.528C363.389 212.24 363.733 211.816 363.973 211.256C364.229 210.68 364.357 209.968 364.357 209.12C364.357 207.84 364.085 206.888 363.541 206.264C362.997 205.624 362.277 205.304 361.381 205.304C360.789 205.304 360.269 205.448 359.821 205.736C359.373 206.008 359.021 206.432 358.765 207.008C358.525 207.568 358.405 208.272 358.405 209.12C358.405 210.384 358.677 211.344 359.221 212C359.765 212.64 360.485 212.96 361.381 212.96Z" fill="white"/>
<path d="M371.345 215.192C370.865 215.192 370.497 215.064 370.241 214.808C369.985 214.536 369.857 214.152 369.857 213.656V204.584C369.857 204.088 369.985 203.712 370.241 203.456C370.497 203.2 370.857 203.072 371.321 203.072C371.785 203.072 372.145 203.2 372.401 203.456C372.657 203.712 372.785 204.088 372.785 204.584V206.216L372.521 205.616C372.873 204.768 373.417 204.128 374.153 203.696C374.905 203.248 375.753 203.024 376.697 203.024C377.641 203.024 378.417 203.2 379.025 203.552C379.633 203.904 380.089 204.44 380.393 205.16C380.697 205.864 380.849 206.76 380.849 207.848V213.656C380.849 214.152 380.721 214.536 380.465 214.808C380.209 215.064 379.841 215.192 379.361 215.192C378.881 215.192 378.505 215.064 378.233 214.808C377.977 214.536 377.849 214.152 377.849 213.656V207.992C377.849 207.08 377.673 206.416 377.321 206C376.985 205.584 376.457 205.376 375.737 205.376C374.857 205.376 374.153 205.656 373.625 206.216C373.113 206.76 372.857 207.488 372.857 208.4V213.656C372.857 214.68 372.353 215.192 371.345 215.192Z" fill="white"/>
<path d="M389.272 215.24C388.232 215.24 387.36 215.064 386.656 214.712C385.968 214.36 385.456 213.848 385.12 213.176C384.784 212.488 384.616 211.64 384.616 210.632V205.52H383.368C382.984 205.52 382.688 205.424 382.48 205.232C382.272 205.024 382.168 204.744 382.168 204.392C382.168 204.024 382.272 203.744 382.48 203.552C382.688 203.36 382.984 203.264 383.368 203.264H384.616V201.08C384.616 200.584 384.744 200.208 385 199.952C385.272 199.696 385.648 199.568 386.128 199.568C386.608 199.568 386.976 199.696 387.232 199.952C387.488 200.208 387.616 200.584 387.616 201.08V203.264H390.16C390.544 203.264 390.84 203.36 391.048 203.552C391.256 203.744 391.36 204.024 391.36 204.392C391.36 204.744 391.256 205.024 391.048 205.232C390.84 205.424 390.544 205.52 390.16 205.52H387.616V210.464C387.616 211.232 387.784 211.808 388.12 212.192C388.456 212.576 389 212.768 389.752 212.768C390.024 212.768 390.264 212.744 390.472 212.696C390.68 212.648 390.864 212.616 391.024 212.6C391.216 212.584 391.376 212.648 391.504 212.792C391.632 212.92 391.696 213.192 391.696 213.608C391.696 213.928 391.64 214.216 391.528 214.472C391.432 214.712 391.248 214.88 390.976 214.976C390.768 215.04 390.496 215.096 390.16 215.144C389.824 215.208 389.528 215.24 389.272 215.24Z" fill="white"/>
<path d="M396.971 215.24C396.123 215.24 395.363 215.08 394.691 214.76C394.035 214.424 393.515 213.976 393.131 213.416C392.763 212.856 392.579 212.224 392.579 211.52C392.579 210.656 392.803 209.976 393.251 209.48C393.699 208.968 394.427 208.6 395.435 208.376C396.443 208.152 397.795 208.04 399.491 208.04H400.691V209.768H399.515C398.523 209.768 397.731 209.816 397.139 209.912C396.547 210.008 396.123 210.176 395.867 210.416C395.627 210.64 395.507 210.96 395.507 211.376C395.507 211.904 395.691 212.336 396.059 212.672C396.427 213.008 396.939 213.176 397.595 213.176C398.123 213.176 398.587 213.056 398.987 212.816C399.403 212.56 399.731 212.216 399.971 211.784C400.211 211.352 400.331 210.856 400.331 210.296V207.536C400.331 206.736 400.155 206.16 399.803 205.808C399.451 205.456 398.859 205.28 398.027 205.28C397.563 205.28 397.059 205.336 396.515 205.448C395.987 205.56 395.427 205.752 394.835 206.024C394.531 206.168 394.259 206.208 394.019 206.144C393.795 206.08 393.619 205.952 393.491 205.76C393.363 205.552 393.299 205.328 393.299 205.088C393.299 204.848 393.363 204.616 393.491 204.392C393.619 204.152 393.835 203.976 394.139 203.864C394.875 203.56 395.579 203.344 396.251 203.216C396.939 203.088 397.563 203.024 398.123 203.024C399.275 203.024 400.219 203.2 400.955 203.552C401.707 203.904 402.267 204.44 402.635 205.16C403.003 205.864 403.187 206.776 403.187 207.896V213.656C403.187 214.152 403.067 214.536 402.827 214.808C402.587 215.064 402.243 215.192 401.795 215.192C401.347 215.192 400.995 215.064 400.739 214.808C400.499 214.536 400.379 214.152 400.379 213.656V212.504H400.571C400.459 213.064 400.235 213.552 399.899 213.968C399.579 214.368 399.171 214.68 398.675 214.904C398.179 215.128 397.611 215.24 396.971 215.24Z" fill="white"/>
<path d="M411.656 215.24C410.424 215.24 409.352 214.992 408.44 214.496C407.528 213.984 406.824 213.264 406.328 212.336C405.832 211.408 405.584 210.32 405.584 209.072C405.584 208.128 405.72 207.288 405.992 206.552C406.28 205.8 406.688 205.168 407.216 204.656C407.744 204.128 408.384 203.728 409.136 203.456C409.888 203.168 410.728 203.024 411.656 203.024C412.184 203.024 412.752 203.096 413.36 203.24C413.984 203.384 414.568 203.624 415.112 203.96C415.368 204.12 415.536 204.312 415.616 204.536C415.696 204.76 415.712 204.992 415.664 205.232C415.616 205.456 415.512 205.656 415.352 205.832C415.208 205.992 415.024 206.096 414.8 206.144C414.576 206.176 414.328 206.12 414.056 205.976C413.704 205.768 413.344 205.616 412.976 205.52C412.608 205.408 412.256 205.352 411.92 205.352C411.392 205.352 410.928 205.44 410.528 205.616C410.128 205.776 409.784 206.016 409.496 206.336C409.224 206.64 409.016 207.024 408.872 207.488C408.728 207.952 408.656 208.488 408.656 209.096C408.656 210.28 408.936 211.216 409.496 211.904C410.072 212.576 410.88 212.912 411.92 212.912C412.256 212.912 412.6 212.864 412.952 212.768C413.32 212.672 413.688 212.52 414.056 212.312C414.328 212.168 414.568 212.12 414.776 212.168C415 212.216 415.184 212.328 415.328 212.504C415.472 212.664 415.56 212.864 415.592 213.104C415.624 213.328 415.592 213.552 415.496 213.776C415.416 214 415.256 214.184 415.016 214.328C414.488 214.648 413.928 214.88 413.336 215.024C412.744 215.168 412.184 215.24 411.656 215.24Z" fill="white"/>
<path d="M422.975 215.24C421.935 215.24 421.063 215.064 420.359 214.712C419.671 214.36 419.159 213.848 418.823 213.176C418.487 212.488 418.319 211.64 418.319 210.632V205.52H417.071C416.687 205.52 416.391 205.424 416.183 205.232C415.975 205.024 415.871 204.744 415.871 204.392C415.871 204.024 415.975 203.744 416.183 203.552C416.391 203.36 416.687 203.264 417.071 203.264H418.319V201.08C418.319 200.584 418.447 200.208 418.703 199.952C418.975 199.696 419.351 199.568 419.831 199.568C420.311 199.568 420.679 199.696 420.935 199.952C421.191 200.208 421.319 200.584 421.319 201.08V203.264H423.863C424.247 203.264 424.543 203.36 424.751 203.552C424.959 203.744 425.063 204.024 425.063 204.392C425.063 204.744 424.959 205.024 424.751 205.232C424.543 205.424 424.247 205.52 423.863 205.52H421.319V210.464C421.319 211.232 421.487 211.808 421.823 212.192C422.159 212.576 422.703 212.768 423.455 212.768C423.727 212.768 423.967 212.744 424.175 212.696C424.383 212.648 424.567 212.616 424.727 212.6C424.919 212.584 425.079 212.648 425.207 212.792C425.335 212.92 425.399 213.192 425.399 213.608C425.399 213.928 425.343 214.216 425.231 214.472C425.135 214.712 424.951 214.88 424.679 214.976C424.471 215.04 424.199 215.096 423.863 215.144C423.527 215.208 423.231 215.24 422.975 215.24Z" fill="white"/>
<path d="M440.646 215.24C439.478 215.24 438.446 215.088 437.55 214.784C436.67 214.48 435.926 214.032 435.318 213.44C434.71 212.832 434.254 212.08 433.95 211.184C433.646 210.288 433.494 209.248 433.494 208.064V199.448C433.494 198.92 433.622 198.528 433.878 198.272C434.15 198.016 434.534 197.888 435.03 197.888C435.526 197.888 435.902 198.016 436.158 198.272C436.43 198.528 436.566 198.92 436.566 199.448V208.04C436.566 209.56 436.91 210.704 437.598 211.472C438.302 212.224 439.318 212.6 440.646 212.6C441.974 212.6 442.982 212.224 443.67 211.472C444.358 210.704 444.702 209.56 444.702 208.04V199.448C444.702 198.92 444.83 198.528 445.086 198.272C445.358 198.016 445.742 197.888 446.238 197.888C446.718 197.888 447.086 198.016 447.342 198.272C447.614 198.528 447.75 198.92 447.75 199.448V208.064C447.75 209.632 447.478 210.952 446.934 212.024C446.406 213.096 445.614 213.904 444.558 214.448C443.502 214.976 442.198 215.24 440.646 215.24Z" fill="white"/>
<path d="M455.34 215.24C454.652 215.24 453.924 215.168 453.156 215.024C452.388 214.88 451.7 214.632 451.092 214.28C450.836 214.12 450.652 213.936 450.54 213.728C450.444 213.504 450.404 213.288 450.42 213.08C450.452 212.856 450.532 212.664 450.66 212.504C450.804 212.344 450.98 212.24 451.188 212.192C451.412 212.144 451.652 212.184 451.908 212.312C452.548 212.616 453.148 212.832 453.708 212.96C454.268 213.072 454.82 213.128 455.364 213.128C456.132 213.128 456.7 213 457.068 212.744C457.452 212.472 457.644 212.12 457.644 211.688C457.644 211.32 457.516 211.04 457.26 210.848C457.02 210.64 456.652 210.488 456.156 210.392L453.756 209.936C452.764 209.744 452.004 209.384 451.476 208.856C450.964 208.312 450.708 207.616 450.708 206.768C450.708 206 450.916 205.336 451.332 204.776C451.764 204.216 452.356 203.784 453.108 203.48C453.86 203.176 454.724 203.024 455.7 203.024C456.404 203.024 457.06 203.104 457.668 203.264C458.292 203.408 458.892 203.64 459.468 203.96C459.708 204.088 459.868 204.256 459.948 204.464C460.044 204.672 460.068 204.888 460.02 205.112C459.972 205.32 459.876 205.512 459.732 205.688C459.588 205.848 459.404 205.952 459.18 206C458.972 206.032 458.732 205.984 458.46 205.856C457.964 205.6 457.484 205.416 457.02 205.304C456.572 205.192 456.14 205.136 455.724 205.136C454.94 205.136 454.356 205.272 453.972 205.544C453.604 205.816 453.42 206.176 453.42 206.624C453.42 206.96 453.532 207.24 453.756 207.464C453.98 207.688 454.324 207.84 454.788 207.92L457.188 208.376C458.228 208.568 459.012 208.92 459.54 209.432C460.084 209.944 460.356 210.632 460.356 211.496C460.356 212.664 459.9 213.584 458.988 214.256C458.076 214.912 456.86 215.24 455.34 215.24Z" fill="white"/>
</svg>
