<svg width="280" height="64" viewBox="0 0 280 64" fill="none" xmlns="http://www.w3.org/2000/svg">
<path d="M105.377 48.0733C104.578 48.0733 103.906 47.8916 103.361 47.5283C102.852 47.1285 102.434 46.5472 102.107 45.7841L87.445 12.5903C87.1543 11.8272 87.0816 11.1731 87.227 10.6281C87.3723 10.083 87.663 9.66516 88.0991 9.37446C88.5714 9.04743 89.1347 8.88392 89.7887 8.88392C90.6245 8.88392 91.2604 9.0656 91.6964 9.42897C92.1325 9.79234 92.4958 10.3374 92.7865 11.0641L106.522 42.8953H104.505L118.132 11.0096C118.459 10.3192 118.84 9.79234 119.276 9.42897C119.749 9.0656 120.384 8.88392 121.184 8.88392C121.838 8.88392 122.365 9.04743 122.764 9.37446C123.201 9.66516 123.473 10.083 123.582 10.6281C123.691 11.1731 123.582 11.8272 123.255 12.5903L108.648 45.7841C108.321 46.5472 107.903 47.1285 107.394 47.5283C106.885 47.8916 106.213 48.0733 105.377 48.0733Z" fill="#FFFFFF"/>
<path d="M131.769 48.0733C130.86 48.0733 130.152 47.819 129.643 47.3102C129.17 46.8015 128.934 46.0929 128.934 45.1845V12.1542C128.934 11.2095 129.189 10.5009 129.697 10.0285C130.206 9.51981 130.915 9.26545 131.823 9.26545H144.85C148.992 9.26545 152.19 10.2465 154.443 12.2087C156.696 14.1709 157.822 16.9507 157.822 20.5481C157.822 22.8736 157.313 24.8722 156.296 26.5437C155.279 28.2152 153.789 29.487 151.827 30.359C149.901 31.2311 147.575 31.6672 144.85 31.6672L145.34 30.9041H146.758C148.211 30.9041 149.465 31.2675 150.518 31.9942C151.609 32.7209 152.59 33.8837 153.462 35.4826L158.149 44.2034C158.513 44.8575 158.676 45.4934 158.64 46.1111C158.64 46.6925 158.422 47.1649 157.986 47.5283C157.586 47.8916 157.005 48.0733 156.241 48.0733C155.442 48.0733 154.788 47.9098 154.279 47.5828C153.807 47.2194 153.371 46.6925 152.971 46.0021L147.248 35.4281C146.485 34.0109 145.613 33.0661 144.632 32.5938C143.651 32.0851 142.361 31.8307 140.762 31.8307H134.603V45.1845C134.603 46.0929 134.367 46.8015 133.894 47.3102C133.422 47.819 132.713 48.0733 131.769 48.0733ZM134.603 27.5793H143.923C146.685 27.5793 148.774 26.9979 150.191 25.8351C151.609 24.6723 152.317 22.9463 152.317 20.6571C152.317 18.4042 151.609 16.6964 150.191 15.5336C148.774 14.3708 146.685 13.7894 143.923 13.7894H134.603V27.5793Z" fill="#FFFFFF"/>
<path d="M168.655 48.0733C167.747 48.0733 167.038 47.819 166.53 47.3102C166.057 46.8015 165.821 46.0929 165.821 45.1845V11.7727C165.821 10.8279 166.057 10.1194 166.53 9.64699C167.038 9.13827 167.747 8.88392 168.655 8.88392C169.564 8.88392 170.254 9.13827 170.727 9.64699C171.235 10.1194 171.49 10.8279 171.49 11.7727V45.1845C171.49 46.0929 171.254 46.8015 170.781 47.3102C170.309 47.819 169.6 48.0733 168.655 48.0733Z" fill="#FFFFFF"/>
<path d="M193.214 48.1823C191.543 48.1823 189.908 48.0551 188.309 47.8008C186.71 47.5464 185.202 47.1649 183.785 46.6562C182.368 46.1111 181.096 45.457 179.97 44.694C179.425 44.2943 179.043 43.8401 178.825 43.3313C178.643 42.8226 178.589 42.3321 178.661 41.8597C178.771 41.351 178.989 40.9149 179.316 40.5516C179.643 40.1882 180.042 39.9702 180.515 39.8975C180.987 39.7885 181.514 39.9338 182.095 40.3335C183.73 41.3873 185.457 42.1686 187.273 42.6773C189.09 43.1497 191.071 43.3858 193.214 43.3858C196.303 43.3858 198.574 42.8408 200.028 41.7507C201.517 40.6242 202.262 39.1708 202.262 37.3902C202.262 35.9368 201.735 34.7922 200.682 33.9564C199.628 33.0843 197.866 32.3939 195.395 31.8852L189.563 30.6861C186.111 29.9593 183.531 28.7602 181.823 27.0887C180.151 25.4172 179.316 23.1643 179.316 20.3301C179.316 18.6222 179.661 17.0597 180.351 15.6426C181.078 14.2254 182.077 13.0082 183.349 11.9907C184.621 10.937 186.147 10.1375 187.927 9.59248C189.708 9.04743 191.652 8.7749 193.759 8.7749C196.012 8.7749 198.12 9.0656 200.082 9.64699C202.081 10.2284 203.861 11.1186 205.424 12.3178C205.896 12.6448 206.205 13.0627 206.35 13.5714C206.532 14.0438 206.568 14.5161 206.459 14.9885C206.387 15.4609 206.187 15.8606 205.86 16.1876C205.533 16.5147 205.115 16.7145 204.606 16.7872C204.097 16.8235 203.534 16.6419 202.916 16.2421C201.499 15.2974 200.046 14.6252 198.556 14.2254C197.102 13.7894 195.485 13.5714 193.705 13.5714C191.924 13.5714 190.362 13.8439 189.018 14.389C187.709 14.934 186.692 15.6971 185.965 16.6782C185.275 17.6593 184.93 18.8221 184.93 20.1665C184.93 21.6927 185.42 22.91 186.401 23.8184C187.382 24.7268 189.018 25.4172 191.307 25.8896L197.084 27.0887C200.718 27.8518 203.425 29.0327 205.206 30.6316C206.986 32.2304 207.876 34.3561 207.876 37.0087C207.876 38.7165 207.531 40.2609 206.841 41.6417C206.15 42.9861 205.169 44.1489 203.897 45.13C202.626 46.1111 201.081 46.8742 199.265 47.4192C197.484 47.928 195.467 48.1823 193.214 48.1823Z" fill="#FFFFFF"/>
<path d="M225.723 48.0733C224.814 48.0733 224.106 47.819 223.597 47.3102C223.125 46.8015 222.888 46.0929 222.888 45.1845V14.0074H211.333C210.57 14.0074 209.971 13.8076 209.535 13.4079C209.099 12.9718 208.88 12.3723 208.88 11.6092C208.88 10.8461 209.099 10.2647 209.535 9.86501C209.971 9.46531 210.57 9.26545 211.333 9.26545H240.058C240.857 9.26545 241.475 9.46531 241.911 9.86501C242.347 10.2647 242.565 10.8461 242.565 11.6092C242.565 12.3723 242.347 12.9718 241.911 13.4079C241.475 13.8076 240.857 14.0074 240.058 14.0074H228.502V45.1845C228.502 46.0929 228.266 46.8015 227.794 47.3102C227.358 47.819 226.667 48.0733 225.723 48.0733Z" fill="#FFFFFF"/>
<path d="M261.118 48.1823C257.484 48.1823 254.304 47.3829 251.579 45.7841C248.89 44.1489 246.801 41.8597 245.311 38.9164C243.857 35.9368 243.131 32.4484 243.131 28.4514C243.131 25.4354 243.549 22.7283 244.384 20.3301C245.22 17.8955 246.419 15.8243 247.982 14.1164C249.544 12.3723 251.434 11.046 253.65 10.1375C255.867 9.22911 258.356 8.7749 261.118 8.7749C264.788 8.7749 267.967 9.57432 270.656 11.1731C273.345 12.772 275.416 15.043 276.87 17.9863C278.359 20.9296 279.104 24.3998 279.104 28.3969C279.104 31.4128 278.686 34.1381 277.851 36.5727C277.015 39.0072 275.798 41.0966 274.199 42.8408C272.636 44.585 270.747 45.9113 268.53 46.8197C266.314 47.7281 263.843 48.1823 261.118 48.1823ZM261.118 43.2768C263.661 43.2768 265.823 42.6954 267.604 41.5327C269.421 40.3699 270.801 38.6802 271.746 36.4637C272.727 34.2471 273.218 31.5763 273.218 28.4514C273.218 23.7639 272.164 20.1302 270.056 17.5503C267.949 14.9704 264.969 13.6804 261.118 13.6804C258.574 13.6804 256.394 14.2618 254.577 15.4246C252.796 16.551 251.416 18.2225 250.434 20.4391C249.49 22.6556 249.017 25.3264 249.017 28.4514C249.017 33.1025 250.071 36.7362 252.179 39.3524C254.323 41.9687 257.302 43.2768 261.118 43.2768Z" fill="#FFFFFF"/>
<g clip-path="url(#clip0_1223_92590)">
<path d="M36.2136 27.8593C41.0813 27.8593 45.0272 23.9133 45.0272 19.0456C45.0272 14.178 41.0813 10.2319 36.2136 10.2319C31.346 10.2319 27.3999 14.178 27.3999 19.0456C27.3999 23.9133 31.346 27.8593 36.2136 27.8593Z" fill="white"/>
<path d="M71.9558 4.97714L39.0723 61.9411C37.8055 64.1391 34.6222 64.1391 33.3446 61.9411L0.461104 4.97714C-1.228 2.05369 2.05274 -1.22706 4.9762 0.462047L21.445 9.96865C23.1557 10.954 24.0436 12.9679 23.5022 14.8627C23.0258 16.5519 22.8633 18.3709 23.1124 20.2658C23.8921 26.2318 28.7536 30.985 34.7412 31.6347C42.7104 32.5009 49.4452 26.2751 49.4452 18.4901C49.4452 17.2882 49.2828 16.1188 48.9796 15.0143C48.4491 13.0546 49.2286 10.9864 50.9827 9.97949L67.4623 0.462047C70.3749 -1.22706 73.6449 2.04286 71.9558 4.97714Z" fill="white"/>
</g>
<defs>
<clipPath id="clip0_1223_92590">
<rect width="72.6739" height="63.5896" fill="white"/>
</clipPath>
</defs>
</svg>
