<svg width="522" height="522" viewBox="0 0 522 522" fill="none" xmlns="http://www.w3.org/2000/svg">
<path d="M468.967 466.041H57.9278C57.4685 466.041 57.0947 465.667 57.0947 465.208C57.0947 464.749 57.4685 464.375 57.9278 464.375H468.967C469.427 464.375 469.8 464.749 469.8 465.208C469.8 465.667 469.427 466.041 468.967 466.041Z" fill="#0E1726"/>
<path d="M350.082 139.435C350.082 139.435 336.485 142.015 328.822 153.852C321.159 165.689 321.036 175.839 314.115 179.263C307.193 182.687 302.495 182.385 297.553 189.973C292.608 197.56 298.912 206.211 295.204 210.765C291.495 215.319 276.416 217.897 275.426 237.627C274.436 257.356 284.697 273.14 302.618 280.425C320.541 287.71 374.679 260.088 374.679 260.088L358.735 165.842L350.082 139.435Z" fill="#0E1726"/>
<path d="M263.447 275.762L234.422 299.02L205.443 185.851L146.49 195.817L183.711 343.016C187.409 357.643 197.955 369.578 212.018 375.048C228.169 381.331 246.47 378.141 259.541 366.765L308.734 323.955" fill="#EAF1FF"/>
<path d="M228.966 379.07C223.168 379.07 217.326 378.005 211.717 375.823C197.433 370.267 186.661 358.077 182.905 343.219L145.682 196.019C145.626 195.794 145.666 195.554 145.793 195.359C145.92 195.165 146.123 195.032 146.353 194.994L205.305 185.028C205.729 184.957 206.144 185.222 206.251 185.642L234.911 297.561L262.928 275.111C263.285 274.825 263.811 274.881 264.099 275.24C264.387 275.599 264.329 276.123 263.97 276.411L234.944 299.67C234.723 299.847 234.426 299.897 234.159 299.81C233.89 299.72 233.685 299.501 233.616 299.225L204.827 186.799L147.522 196.485L184.521 342.81C188.146 357.146 198.538 368.908 212.321 374.27C228.236 380.461 246.117 377.341 258.996 366.135L308.189 323.325C308.534 323.022 309.062 323.059 309.365 323.406C309.667 323.753 309.63 324.279 309.283 324.582L260.09 367.392C251.283 375.055 240.212 379.07 228.966 379.07Z" fill="#0E1726"/>
<path d="M327.175 285.897L295.692 349.22L267.164 317.269L257.054 305.948L241.235 288.24L280.329 258.202C286.073 253.468 293.561 251.403 300.925 252.547L315.134 254.746L327.175 285.897Z" fill="#4361EE"/>
<path opacity="0.4" d="M273.284 309.172C273.284 313.027 270.695 316.272 267.162 317.272L257.052 305.951C258.307 302.883 261.328 300.729 264.84 300.729C269.507 300.729 273.284 304.506 273.284 309.172Z" fill="#EAF1FF"/>
<path d="M295.688 350.057C295.452 350.057 295.227 349.957 295.066 349.779L240.607 288.797C240.452 288.624 240.377 288.394 240.398 288.165C240.419 287.933 240.538 287.722 240.72 287.582L279.813 257.544C280.181 257.262 280.703 257.333 280.982 257.696C281.262 258.062 281.193 258.584 280.83 258.866L242.448 288.357L295.49 347.752L326.426 285.532C326.63 285.12 327.127 284.951 327.543 285.156C327.954 285.36 328.123 285.862 327.919 286.273L296.434 349.596C296.31 349.842 296.072 350.013 295.799 350.051C295.761 350.055 295.726 350.057 295.688 350.057Z" fill="#0E1726"/>
<path d="M251.33 465.209L268.435 386.84L396.315 402.093L390.533 465.209H251.33Z" fill="#0E1726"/>
<path d="M312.079 254.746L396.455 257.483C408.425 257.872 417.462 268.481 415.942 280.362L398.658 415.47L260.336 403.174L312.079 254.746Z" fill="#4361EE"/>
<path opacity="0.4" d="M382.511 398.616C388.071 398.616 392.579 394.108 392.579 388.548C392.579 382.987 388.071 378.479 382.511 378.479C376.95 378.479 372.442 382.987 372.442 388.548C372.442 394.108 376.95 398.616 382.511 398.616Z" fill="#EAF1FF"/>
<path d="M260.334 404.003C260.242 404.003 260.15 403.989 260.061 403.957C259.626 403.805 259.397 403.331 259.549 402.897L302.576 279.471C302.727 279.037 303.203 278.807 303.637 278.957C304.071 279.11 304.301 279.584 304.149 280.018L261.121 403.444C261.002 403.788 260.681 404.003 260.334 404.003Z" fill="#0E1726"/>
<path d="M339.722 259.747L341.43 221.62L376.909 214.227L378.239 254.702C378.356 258.25 377.024 261.704 374.504 264.203C370.378 268.293 363.057 273.519 352.924 272.947C339.711 272.204 339.722 259.747 339.722 259.747Z" fill="#EAF1FF"/>
<path d="M354.465 273.826C353.943 273.826 353.415 273.812 352.876 273.78C339.037 272.999 338.889 259.878 338.889 259.747C338.889 259.734 338.889 259.722 338.891 259.711L340.599 221.584C340.615 221.204 340.889 220.883 341.261 220.806L376.74 213.412C376.982 213.36 377.233 213.42 377.425 213.573C377.617 213.725 377.734 213.955 377.742 214.201L379.072 254.677C379.195 258.475 377.746 262.165 375.09 264.798C370.868 268.984 363.936 273.826 354.465 273.826ZM340.555 259.763C340.561 260.442 340.843 271.431 352.97 272.116C362.646 272.657 369.701 267.792 373.919 263.612C376.247 261.304 377.517 258.066 377.408 254.729L376.111 215.243L342.236 222.303L340.555 259.763Z" fill="#0E1726"/>
<path d="M377.333 219.384C394.163 201.2 390.373 171.473 390.373 171.473L339.927 150.391C338.989 151.159 319.968 166.639 316.708 197.782C314.023 223.439 338.611 237.884 364.92 228.212" fill="#EAF1FF"/>
<path d="M348.56 232.077C340.344 232.077 332.742 229.705 326.78 225.065C318.573 218.676 314.701 208.956 315.879 197.694C319.069 167.205 337.317 151.449 339.388 149.753C339.626 149.557 339.964 149.501 340.248 149.62L390.694 170.7C390.97 170.815 391.162 171.068 391.199 171.364C391.237 171.665 394.843 201.69 377.945 219.948C377.63 220.286 377.103 220.305 376.767 219.994C376.429 219.68 376.41 219.154 376.721 218.816C391.941 202.373 389.976 175.91 389.596 172.049L340.071 151.355C336.807 154.153 320.508 169.429 317.535 197.869C316.418 208.537 320.065 217.728 327.804 223.752C337.212 231.075 350.98 232.449 364.632 227.431C365.062 227.27 365.542 227.494 365.701 227.926C365.859 228.358 365.638 228.836 365.206 228.995C359.589 231.06 353.943 232.077 348.56 232.077Z" fill="#0E1726"/>
<path d="M379.46 190.812C379.46 190.812 352.826 173.126 342.505 155.673C342.505 155.673 332.904 157.241 330.484 160.83C330.484 160.83 327.48 144.139 344.478 139.434C361.476 134.73 400.478 147.782 406.398 171.153C410.29 186.521 409.874 220.616 409.131 242.164C408.772 252.623 400.869 257.774 390.42 257.195L378.398 256.897L376.193 220.789C385.626 212.159 383.246 201.6 379.46 190.812Z" fill="#0E1726"/>
<path d="M334.029 185.925C334.615 184.115 334.105 182.329 332.891 181.936C331.676 181.543 330.217 182.691 329.63 184.502C329.044 186.312 329.554 188.098 330.768 188.491C331.983 188.884 333.443 187.736 334.029 185.925Z" fill="#0E1726"/>
<path d="M330.484 178.192C332.84 177.505 335.471 178.438 337.158 180.555L330.484 178.192Z" fill="#EAF1FF"/>
<path d="M337.158 181.391C336.914 181.391 336.672 181.282 336.507 181.077C335.026 179.219 332.754 178.401 330.719 178.994C330.274 179.123 329.815 178.868 329.685 178.428C329.556 177.985 329.81 177.524 330.251 177.394C332.94 176.611 335.907 177.649 337.81 180.04C338.096 180.399 338.037 180.923 337.676 181.211C337.523 181.33 337.34 181.391 337.158 181.391Z" fill="#0E1726"/>
<path d="M353.911 194.297C354.206 192.417 353.423 190.733 352.162 190.535C350.901 190.337 349.639 191.7 349.344 193.58C349.049 195.46 349.832 197.144 351.093 197.342C352.354 197.54 353.616 196.177 353.911 194.297Z" fill="#0E1726"/>
<path d="M350.093 186.978C352.427 186.22 355.083 187.072 356.835 189.137L350.093 186.978Z" fill="#EAF1FF"/>
<path d="M356.833 189.97C356.597 189.97 356.363 189.87 356.198 189.676C354.662 187.863 352.363 187.116 350.35 187.769C349.909 187.913 349.444 187.671 349.302 187.235C349.16 186.796 349.398 186.326 349.836 186.184C352.499 185.32 355.497 186.268 357.47 188.598C357.767 188.949 357.725 189.475 357.372 189.772C357.215 189.905 357.025 189.97 356.833 189.97Z" fill="#0E1726"/>
<path d="M377.688 192.167C377.688 192.167 389.27 182.65 394.974 185.316C400.679 187.982 396.415 208.593 389.207 209.86C382 211.128 376.623 207.798 376.623 207.798" fill="#EAF1FF"/>
<path d="M385.885 210.982C380.265 210.982 376.379 208.623 376.187 208.504C375.794 208.261 375.675 207.75 375.917 207.357C376.16 206.965 376.675 206.846 377.064 207.086C377.116 207.117 382.284 210.23 389.068 209.038C392.719 208.397 395.751 201.609 396.57 195.42C397.209 190.591 396.447 186.922 394.626 186.07C390.333 184.066 381.329 190.257 378.22 192.81C377.865 193.1 377.339 193.05 377.047 192.695C376.755 192.34 376.807 191.814 377.162 191.522C377.65 191.119 389.22 181.706 395.332 184.56C397.902 185.761 398.981 189.904 398.223 195.637C397.315 202.496 393.979 209.867 389.358 210.679C388.14 210.892 386.98 210.982 385.885 210.982Z" fill="#0E1726"/>
<path d="M389.306 200.786C389.164 200.786 389.02 200.748 388.886 200.673C388.489 200.441 388.354 199.932 388.585 199.533C389.239 198.412 389.667 197.14 389.819 195.854C389.911 195.107 389.828 194.595 389.575 194.334C389.396 194.15 389.074 194.054 388.736 194.083C388.391 194.115 388.011 194.261 387.579 194.532C386.936 194.933 386.372 195.476 385.948 196.1C385.689 196.48 385.172 196.581 384.792 196.322C384.412 196.063 384.311 195.545 384.572 195.165C385.126 194.351 385.861 193.645 386.698 193.121C387.358 192.707 387.978 192.48 388.592 192.426C389.419 192.352 390.243 192.63 390.774 193.175C391.404 193.825 391.634 194.766 391.477 196.057C391.298 197.564 390.797 199.059 390.03 200.375C389.874 200.638 389.594 200.786 389.306 200.786Z" fill="#0E1726"/>
<path d="M339.722 191.476C338.254 193.8 336.786 196.123 335.318 198.447C334.433 199.848 333.529 201.31 333.464 202.92C333.399 204.53 334.431 206.334 336.295 206.866" fill="#EAF1FF"/>
<path d="M336.296 207.699C336.221 207.699 336.143 207.689 336.066 207.668C333.711 206.995 332.556 204.755 332.631 202.886C332.707 201.024 333.719 199.418 334.615 198.002L339.016 191.031C339.263 190.642 339.777 190.525 340.165 190.772C340.555 191.018 340.67 191.532 340.424 191.92L336.022 198.892C335.239 200.13 334.352 201.535 334.296 202.953C334.247 204.139 335.012 205.634 336.523 206.064C336.966 206.19 337.223 206.651 337.095 207.094C336.993 207.459 336.659 207.699 336.296 207.699Z" fill="#0E1726"/>
<path d="M343.236 217.858C341.752 217.858 340.269 217.535 338.918 216.891C338.503 216.693 338.325 216.196 338.524 215.781C338.722 215.365 339.215 215.188 339.634 215.386C341.614 216.328 343.934 216.449 345.999 215.724C348.064 215 349.799 213.452 350.753 211.481C350.953 211.068 351.45 210.895 351.866 211.095C352.279 211.296 352.453 211.795 352.252 212.208C351.106 214.572 349.028 216.426 346.55 217.296C345.483 217.672 344.357 217.858 343.236 217.858Z" fill="#0E1726"/>
<path d="M247.67 164.008H66.4737C59.0508 164.008 53.0332 170.025 53.0332 177.448V409.296C53.0332 416.718 59.0508 422.736 66.4737 422.736H247.672C255.095 422.736 261.113 416.718 261.113 409.296V177.448C261.111 170.025 255.093 164.008 247.67 164.008Z" fill="#EAF1FF"/>
<path d="M247.67 423.569H66.4738C58.6041 423.569 52.2002 417.167 52.2002 409.296V177.448C52.2002 169.579 58.6041 163.175 66.4738 163.175H247.672C255.542 163.175 261.946 169.577 261.946 177.448V409.296C261.944 417.167 255.54 423.569 247.67 423.569ZM66.4738 164.841C59.5228 164.841 53.8685 170.495 53.8685 177.446V409.294C53.8685 416.245 59.5249 421.899 66.4738 421.899H247.672C254.623 421.899 260.28 416.245 260.28 409.294V177.448C260.28 170.497 254.623 164.843 247.672 164.843H66.4738V164.841Z" fill="#0E1726"/>
<path d="M246.495 164.008H67.6492C59.577 164.008 53.0332 170.552 53.0332 178.624V189.471H261.111V178.624C261.111 170.554 254.567 164.008 246.495 164.008Z" fill="#E6F3FC"/>
<path d="M261.111 190.304H53.0333C52.5739 190.304 52.2002 189.93 52.2002 189.471V178.624C52.2002 170.105 59.1303 163.175 67.6493 163.175H246.493C255.012 163.175 261.942 170.105 261.942 178.624V189.471C261.944 189.933 261.57 190.304 261.111 190.304ZM53.8664 188.638H260.278V178.624C260.278 171.024 254.095 164.841 246.495 164.841H67.6493C60.049 164.841 53.8664 171.024 53.8664 178.624V188.638Z" fill="#0E1726"/>
<path d="M73.1909 181.451C75.2989 181.451 77.0078 179.742 77.0078 177.634C77.0078 175.526 75.2989 173.817 73.1909 173.817C71.0829 173.817 69.374 175.526 69.374 177.634C69.374 179.742 71.0829 181.451 73.1909 181.451Z" fill="#0E1726"/>
<path d="M85.7622 181.451C87.8702 181.451 89.579 179.742 89.579 177.634C89.579 175.526 87.8702 173.817 85.7622 173.817C83.6542 173.817 81.9453 175.526 81.9453 177.634C81.9453 179.742 83.6542 181.451 85.7622 181.451Z" fill="#0E1726"/>
<path d="M98.3325 181.451C100.44 181.451 102.149 179.742 102.149 177.634C102.149 175.526 100.44 173.817 98.3325 173.817C96.2245 173.817 94.5156 175.526 94.5156 177.634C94.5156 179.742 96.2245 181.451 98.3325 181.451Z" fill="#0E1726"/>
<path d="M153.088 298.346C177.167 298.346 196.687 278.825 196.687 254.746C196.687 230.667 177.167 211.146 153.088 211.146C129.008 211.146 109.488 230.667 109.488 254.746C109.488 278.825 129.008 298.346 153.088 298.346Z" fill="#FFC216"/>
<path d="M153.088 250.213C158.618 250.213 163.1 245.731 163.1 240.201C163.1 234.672 158.618 230.189 153.088 230.189C147.559 230.189 143.076 234.672 143.076 240.201C143.076 245.731 147.559 250.213 153.088 250.213Z" fill="#EAF1FF"/>
<path d="M168.278 277.585C173.089 277.585 176.242 272.584 174.212 268.224C170.51 260.265 162.444 254.746 153.086 254.746C143.727 254.746 135.664 260.265 131.959 268.224C129.93 272.586 133.085 277.585 137.893 277.585H168.278Z" fill="#EAF1FF"/>
<path d="M212.907 313.204H101.237C96.1482 313.204 92.0244 317.328 92.0244 322.416V332.733C92.0244 337.822 96.1503 341.945 101.237 341.945H212.905C217.993 341.945 222.117 337.822 222.117 332.733V322.416C222.119 317.328 217.996 313.204 212.907 313.204Z" fill="#EAF1FF"/>
<path d="M212.907 342.779H101.237C95.6973 342.779 91.1914 338.273 91.1914 332.733V322.416C91.1914 316.877 95.6973 312.371 101.237 312.371H212.905C218.445 312.371 222.953 316.877 222.953 322.416V332.733C222.953 338.273 218.447 342.779 212.907 342.779ZM101.237 314.037C96.616 314.037 92.8576 317.796 92.8576 322.416V332.733C92.8576 337.354 96.616 341.112 101.237 341.112H212.905C217.526 341.112 221.286 337.354 221.286 332.733V322.416C221.286 317.796 217.528 314.037 212.905 314.037H101.237Z" fill="#0E1726"/>
<path d="M210.361 359.814H99.7835C94.6951 359.814 90.5713 363.938 90.5713 369.027V385.392C90.5713 390.481 94.6951 394.605 99.7835 394.605H210.361C215.449 394.605 219.573 390.479 219.573 385.392V369.027C219.573 363.938 215.449 359.814 210.361 359.814Z" fill="#0E1726"/>
<path d="M98.2564 382.128C97.9258 382.128 97.6698 382.037 97.4884 381.856C97.3178 381.664 97.2324 381.402 97.2324 381.072V371.76C97.2324 371.418 97.3231 371.162 97.5044 370.992C97.6858 370.81 97.9418 370.72 98.2724 370.72H102.128C103.366 370.72 104.32 371.018 104.992 371.616C105.664 372.202 106 373.029 106 374.096C106 374.789 105.846 375.386 105.536 375.888C105.238 376.389 104.8 376.773 104.224 377.04C103.648 377.306 102.95 377.44 102.128 377.44L102.272 377.2H102.8C103.238 377.2 103.616 377.306 103.936 377.52C104.267 377.733 104.555 378.069 104.8 378.528L106 380.752C106.128 380.976 106.187 381.194 106.176 381.408C106.166 381.621 106.086 381.797 105.936 381.936C105.787 382.064 105.568 382.128 105.28 382.128C104.992 382.128 104.758 382.069 104.576 381.952C104.395 381.824 104.235 381.632 104.096 381.376L102.48 378.4C102.288 378.037 102.059 377.797 101.792 377.68C101.536 377.552 101.206 377.488 100.8 377.488H99.2804V381.072C99.2804 381.402 99.1951 381.664 99.0244 381.856C98.8538 382.037 98.5978 382.128 98.2564 382.128ZM99.2804 375.968H101.776C102.512 375.968 103.067 375.818 103.44 375.52C103.824 375.21 104.016 374.752 104.016 374.144C104.016 373.546 103.824 373.098 103.44 372.8C103.067 372.49 102.512 372.336 101.776 372.336H99.2804V375.968Z" fill="white"/>
<path d="M111.662 382.16C110.777 382.16 110.014 381.994 109.374 381.664C108.734 381.333 108.238 380.864 107.886 380.256C107.545 379.648 107.374 378.928 107.374 378.096C107.374 377.285 107.539 376.576 107.87 375.968C108.211 375.36 108.675 374.885 109.262 374.544C109.859 374.192 110.537 374.016 111.294 374.016C111.849 374.016 112.345 374.106 112.782 374.288C113.23 374.469 113.609 374.73 113.918 375.072C114.238 375.413 114.478 375.829 114.638 376.32C114.809 376.8 114.894 377.344 114.894 377.952C114.894 378.144 114.825 378.293 114.686 378.4C114.558 378.496 114.371 378.544 114.126 378.544H108.99V377.392H113.486L113.23 377.632C113.23 377.141 113.155 376.73 113.006 376.4C112.867 376.069 112.659 375.818 112.382 375.648C112.115 375.466 111.779 375.376 111.374 375.376C110.926 375.376 110.542 375.482 110.222 375.696C109.913 375.898 109.673 376.192 109.502 376.576C109.342 376.949 109.262 377.397 109.262 377.92V378.032C109.262 378.906 109.465 379.562 109.87 380C110.286 380.426 110.894 380.64 111.694 380.64C111.971 380.64 112.281 380.608 112.622 380.544C112.974 380.469 113.305 380.346 113.614 380.176C113.838 380.048 114.035 379.994 114.206 380.016C114.377 380.026 114.51 380.085 114.606 380.192C114.713 380.298 114.777 380.432 114.798 380.592C114.819 380.741 114.787 380.896 114.702 381.056C114.627 381.216 114.494 381.354 114.302 381.472C113.929 381.706 113.497 381.882 113.006 382C112.526 382.106 112.078 382.16 111.662 382.16Z" fill="white"/>
<path d="M119.342 382.16C118.883 382.16 118.398 382.112 117.886 382.016C117.374 381.92 116.915 381.754 116.51 381.52C116.339 381.413 116.217 381.29 116.142 381.152C116.078 381.002 116.051 380.858 116.062 380.72C116.083 380.57 116.137 380.442 116.222 380.336C116.318 380.229 116.435 380.16 116.574 380.128C116.723 380.096 116.883 380.122 117.054 380.208C117.481 380.41 117.881 380.554 118.254 380.64C118.627 380.714 118.995 380.752 119.358 380.752C119.87 380.752 120.249 380.666 120.494 380.496C120.75 380.314 120.878 380.08 120.878 379.792C120.878 379.546 120.793 379.36 120.622 379.232C120.462 379.093 120.217 378.992 119.886 378.928L118.286 378.624C117.625 378.496 117.118 378.256 116.766 377.904C116.425 377.541 116.254 377.077 116.254 376.512C116.254 376 116.393 375.557 116.67 375.184C116.958 374.81 117.353 374.522 117.854 374.32C118.355 374.117 118.931 374.016 119.582 374.016C120.051 374.016 120.489 374.069 120.894 374.176C121.31 374.272 121.71 374.426 122.094 374.64C122.254 374.725 122.361 374.837 122.414 374.976C122.478 375.114 122.494 375.258 122.462 375.408C122.43 375.546 122.366 375.674 122.27 375.792C122.174 375.898 122.051 375.968 121.902 376C121.763 376.021 121.603 375.989 121.422 375.904C121.091 375.733 120.771 375.61 120.462 375.536C120.163 375.461 119.875 375.424 119.598 375.424C119.075 375.424 118.686 375.514 118.43 375.696C118.185 375.877 118.062 376.117 118.062 376.416C118.062 376.64 118.137 376.826 118.286 376.976C118.435 377.125 118.665 377.226 118.974 377.28L120.574 377.584C121.267 377.712 121.79 377.946 122.142 378.288C122.505 378.629 122.686 379.088 122.686 379.664C122.686 380.442 122.382 381.056 121.774 381.504C121.166 381.941 120.355 382.16 119.342 382.16Z" fill="white"/>
<path d="M128.146 382.16C127.261 382.16 126.498 381.994 125.858 381.664C125.218 381.333 124.722 380.864 124.37 380.256C124.029 379.648 123.858 378.928 123.858 378.096C123.858 377.285 124.024 376.576 124.354 375.968C124.696 375.36 125.16 374.885 125.746 374.544C126.344 374.192 127.021 374.016 127.778 374.016C128.333 374.016 128.829 374.106 129.266 374.288C129.714 374.469 130.093 374.73 130.402 375.072C130.722 375.413 130.962 375.829 131.122 376.32C131.293 376.8 131.378 377.344 131.378 377.952C131.378 378.144 131.309 378.293 131.17 378.4C131.042 378.496 130.856 378.544 130.61 378.544H125.474V377.392H129.97L129.714 377.632C129.714 377.141 129.64 376.73 129.49 376.4C129.352 376.069 129.144 375.818 128.866 375.648C128.6 375.466 128.264 375.376 127.858 375.376C127.41 375.376 127.026 375.482 126.706 375.696C126.397 375.898 126.157 376.192 125.986 376.576C125.826 376.949 125.746 377.397 125.746 377.92V378.032C125.746 378.906 125.949 379.562 126.354 380C126.77 380.426 127.378 380.64 128.178 380.64C128.456 380.64 128.765 380.608 129.106 380.544C129.458 380.469 129.789 380.346 130.098 380.176C130.322 380.048 130.52 379.994 130.69 380.016C130.861 380.026 130.994 380.085 131.09 380.192C131.197 380.298 131.261 380.432 131.282 380.592C131.304 380.741 131.272 380.896 131.186 381.056C131.112 381.216 130.978 381.354 130.786 381.472C130.413 381.706 129.981 381.882 129.49 382C129.01 382.106 128.562 382.16 128.146 382.16Z" fill="white"/>
<path d="M136.515 382.16C135.822 382.16 135.24 382.042 134.771 381.808C134.312 381.573 133.971 381.232 133.747 380.784C133.523 380.325 133.411 379.76 133.411 379.088V375.68H132.579C132.323 375.68 132.126 375.616 131.987 375.488C131.848 375.349 131.779 375.162 131.779 374.928C131.779 374.682 131.848 374.496 131.987 374.368C132.126 374.24 132.323 374.176 132.579 374.176H133.411V372.72C133.411 372.389 133.496 372.138 133.667 371.968C133.848 371.797 134.099 371.712 134.419 371.712C134.739 371.712 134.984 371.797 135.155 371.968C135.326 372.138 135.411 372.389 135.411 372.72V374.176H137.107C137.363 374.176 137.56 374.24 137.699 374.368C137.838 374.496 137.907 374.682 137.907 374.928C137.907 375.162 137.838 375.349 137.699 375.488C137.56 375.616 137.363 375.68 137.107 375.68H135.411V378.976C135.411 379.488 135.523 379.872 135.747 380.128C135.971 380.384 136.334 380.512 136.835 380.512C137.016 380.512 137.176 380.496 137.315 380.464C137.454 380.432 137.576 380.41 137.683 380.4C137.811 380.389 137.918 380.432 138.003 380.528C138.088 380.613 138.131 380.794 138.131 381.072C138.131 381.285 138.094 381.477 138.019 381.648C137.955 381.808 137.832 381.92 137.651 381.984C137.512 382.026 137.331 382.064 137.107 382.096C136.883 382.138 136.686 382.16 136.515 382.16Z" fill="white"/>
<path d="M144.407 385.008C144.087 385.008 143.842 384.922 143.671 384.752C143.501 384.581 143.415 384.33 143.415 384V375.056C143.415 374.725 143.501 374.474 143.671 374.304C143.842 374.133 144.082 374.048 144.391 374.048C144.711 374.048 144.957 374.133 145.127 374.304C145.298 374.474 145.383 374.725 145.383 375.056V376.304L145.207 375.824C145.367 375.28 145.693 374.842 146.183 374.512C146.685 374.181 147.266 374.016 147.927 374.016C148.61 374.016 149.207 374.181 149.719 374.512C150.242 374.842 150.647 375.312 150.935 375.92C151.223 376.517 151.367 377.237 151.367 378.08C151.367 378.912 151.223 379.637 150.935 380.256C150.647 380.864 150.247 381.333 149.735 381.664C149.223 381.994 148.621 382.16 147.927 382.16C147.277 382.16 146.706 382 146.215 381.68C145.725 381.349 145.394 380.922 145.223 380.4H145.415V384C145.415 384.33 145.325 384.581 145.143 384.752C144.973 384.922 144.727 385.008 144.407 385.008ZM147.367 380.64C147.762 380.64 148.109 380.544 148.407 380.352C148.706 380.16 148.935 379.877 149.095 379.504C149.266 379.12 149.351 378.645 149.351 378.08C149.351 377.226 149.17 376.592 148.807 376.176C148.445 375.749 147.965 375.536 147.367 375.536C146.973 375.536 146.626 375.632 146.327 375.824C146.029 376.005 145.794 376.288 145.623 376.672C145.463 377.045 145.383 377.514 145.383 378.08C145.383 378.922 145.565 379.562 145.927 380C146.29 380.426 146.77 380.64 147.367 380.64Z" fill="white"/>
<path d="M155.585 382.16C155.02 382.16 154.513 382.053 154.065 381.84C153.628 381.616 153.281 381.317 153.025 380.944C152.78 380.57 152.657 380.149 152.657 379.68C152.657 379.104 152.807 378.65 153.105 378.32C153.404 377.978 153.889 377.733 154.561 377.584C155.233 377.434 156.135 377.36 157.265 377.36H158.065V378.512H157.281C156.62 378.512 156.092 378.544 155.697 378.608C155.303 378.672 155.02 378.784 154.849 378.944C154.689 379.093 154.609 379.306 154.609 379.584C154.609 379.936 154.732 380.224 154.977 380.448C155.223 380.672 155.564 380.784 156.001 380.784C156.353 380.784 156.663 380.704 156.929 380.544C157.207 380.373 157.425 380.144 157.585 379.856C157.745 379.568 157.825 379.237 157.825 378.864V377.024C157.825 376.49 157.708 376.106 157.473 375.872C157.239 375.637 156.844 375.52 156.289 375.52C155.98 375.52 155.644 375.557 155.281 375.632C154.929 375.706 154.556 375.834 154.161 376.016C153.959 376.112 153.777 376.138 153.617 376.096C153.468 376.053 153.351 375.968 153.265 375.84C153.18 375.701 153.137 375.552 153.137 375.392C153.137 375.232 153.18 375.077 153.265 374.928C153.351 374.768 153.495 374.65 153.697 374.576C154.188 374.373 154.657 374.229 155.105 374.144C155.564 374.058 155.98 374.016 156.353 374.016C157.121 374.016 157.751 374.133 158.241 374.368C158.743 374.602 159.116 374.96 159.361 375.44C159.607 375.909 159.729 376.517 159.729 377.264V381.104C159.729 381.434 159.649 381.69 159.489 381.872C159.329 382.042 159.1 382.128 158.801 382.128C158.503 382.128 158.268 382.042 158.097 381.872C157.937 381.69 157.857 381.434 157.857 381.104V380.336H157.985C157.911 380.709 157.761 381.034 157.537 381.312C157.324 381.578 157.052 381.786 156.721 381.936C156.391 382.085 156.012 382.16 155.585 382.16Z" fill="white"/>
<path d="M164.623 382.16C164.165 382.16 163.679 382.112 163.167 382.016C162.655 381.92 162.197 381.754 161.791 381.52C161.62 381.413 161.498 381.29 161.423 381.152C161.359 381.002 161.333 380.858 161.343 380.72C161.365 380.57 161.418 380.442 161.503 380.336C161.599 380.229 161.717 380.16 161.855 380.128C162.005 380.096 162.164 380.122 162.335 380.208C162.762 380.41 163.162 380.554 163.535 380.64C163.909 380.714 164.277 380.752 164.639 380.752C165.151 380.752 165.53 380.666 165.775 380.496C166.031 380.314 166.159 380.08 166.159 379.792C166.159 379.546 166.074 379.36 165.903 379.232C165.743 379.093 165.498 378.992 165.167 378.928L163.567 378.624C162.906 378.496 162.399 378.256 162.047 377.904C161.706 377.541 161.535 377.077 161.535 376.512C161.535 376 161.674 375.557 161.951 375.184C162.239 374.81 162.634 374.522 163.135 374.32C163.637 374.117 164.213 374.016 164.863 374.016C165.332 374.016 165.77 374.069 166.175 374.176C166.591 374.272 166.991 374.426 167.375 374.64C167.535 374.725 167.642 374.837 167.695 374.976C167.759 375.114 167.775 375.258 167.743 375.408C167.711 375.546 167.647 375.674 167.551 375.792C167.455 375.898 167.332 375.968 167.183 376C167.045 376.021 166.885 375.989 166.703 375.904C166.373 375.733 166.053 375.61 165.743 375.536C165.445 375.461 165.157 375.424 164.879 375.424C164.357 375.424 163.967 375.514 163.711 375.696C163.466 375.877 163.343 376.117 163.343 376.416C163.343 376.64 163.418 376.826 163.567 376.976C163.716 377.125 163.946 377.226 164.255 377.28L165.855 377.584C166.549 377.712 167.071 377.946 167.423 378.288C167.786 378.629 167.967 379.088 167.967 379.664C167.967 380.442 167.663 381.056 167.055 381.504C166.447 381.941 165.637 382.16 164.623 382.16Z" fill="white"/>
<path d="M172.436 382.16C171.977 382.16 171.492 382.112 170.98 382.016C170.468 381.92 170.009 381.754 169.604 381.52C169.433 381.413 169.31 381.29 169.236 381.152C169.172 381.002 169.145 380.858 169.156 380.72C169.177 380.57 169.23 380.442 169.316 380.336C169.412 380.229 169.529 380.16 169.668 380.128C169.817 380.096 169.977 380.122 170.148 380.208C170.574 380.41 170.974 380.554 171.348 380.64C171.721 380.714 172.089 380.752 172.452 380.752C172.964 380.752 173.342 380.666 173.588 380.496C173.844 380.314 173.972 380.08 173.972 379.792C173.972 379.546 173.886 379.36 173.716 379.232C173.556 379.093 173.31 378.992 172.98 378.928L171.38 378.624C170.718 378.496 170.212 378.256 169.86 377.904C169.518 377.541 169.348 377.077 169.348 376.512C169.348 376 169.486 375.557 169.764 375.184C170.052 374.81 170.446 374.522 170.948 374.32C171.449 374.117 172.025 374.016 172.676 374.016C173.145 374.016 173.582 374.069 173.988 374.176C174.404 374.272 174.804 374.426 175.188 374.64C175.348 374.725 175.454 374.837 175.508 374.976C175.572 375.114 175.588 375.258 175.556 375.408C175.524 375.546 175.46 375.674 175.364 375.792C175.268 375.898 175.145 375.968 174.996 376C174.857 376.021 174.697 375.989 174.516 375.904C174.185 375.733 173.865 375.61 173.556 375.536C173.257 375.461 172.969 375.424 172.692 375.424C172.169 375.424 171.78 375.514 171.524 375.696C171.278 375.877 171.156 376.117 171.156 376.416C171.156 376.64 171.23 376.826 171.38 376.976C171.529 377.125 171.758 377.226 172.068 377.28L173.668 377.584C174.361 377.712 174.884 377.946 175.236 378.288C175.598 378.629 175.78 379.088 175.78 379.664C175.78 380.442 175.476 381.056 174.868 381.504C174.26 381.941 173.449 382.16 172.436 382.16Z" fill="white"/>
<path d="M180.252 382.128C179.985 382.128 179.756 382.064 179.564 381.936C179.372 381.797 179.217 381.584 179.1 381.296L176.78 375.376C176.684 375.12 176.652 374.896 176.684 374.704C176.727 374.501 176.828 374.341 176.988 374.224C177.148 374.106 177.361 374.048 177.628 374.048C177.863 374.048 178.055 374.106 178.204 374.224C178.353 374.33 178.481 374.538 178.588 374.848L180.524 380.176H180.156L182.156 374.72C182.241 374.485 182.353 374.314 182.492 374.208C182.641 374.101 182.833 374.048 183.068 374.048C183.303 374.048 183.495 374.106 183.644 374.224C183.793 374.33 183.905 374.496 183.98 374.72L185.948 380.176H185.612L187.564 374.8C187.671 374.512 187.804 374.314 187.964 374.208C188.135 374.101 188.321 374.048 188.524 374.048C188.78 374.048 188.977 374.112 189.116 374.24C189.255 374.368 189.335 374.533 189.356 374.736C189.377 374.928 189.34 375.141 189.244 375.376L186.94 381.296C186.833 381.573 186.679 381.781 186.476 381.92C186.284 382.058 186.055 382.128 185.788 382.128C185.521 382.128 185.287 382.058 185.084 381.92C184.892 381.781 184.743 381.573 184.636 381.296L182.54 375.744H183.452L181.404 381.28C181.297 381.568 181.148 381.781 180.956 381.92C180.764 382.058 180.529 382.128 180.252 382.128Z" fill="white"/>
<path d="M194.28 382.16C193.47 382.16 192.766 381.994 192.168 381.664C191.571 381.333 191.107 380.864 190.776 380.256C190.446 379.637 190.28 378.912 190.28 378.08C190.28 377.45 190.371 376.89 190.552 376.4C190.744 375.898 191.016 375.472 191.368 375.12C191.72 374.757 192.142 374.485 192.632 374.304C193.123 374.112 193.672 374.016 194.28 374.016C195.091 374.016 195.795 374.181 196.392 374.512C196.99 374.842 197.454 375.312 197.784 375.92C198.115 376.528 198.28 377.248 198.28 378.08C198.28 378.709 198.184 379.274 197.992 379.776C197.811 380.277 197.544 380.709 197.192 381.072C196.84 381.424 196.419 381.696 195.928 381.888C195.438 382.069 194.888 382.16 194.28 382.16ZM194.28 380.64C194.675 380.64 195.022 380.544 195.32 380.352C195.619 380.16 195.848 379.877 196.008 379.504C196.179 379.12 196.264 378.645 196.264 378.08C196.264 377.226 196.083 376.592 195.72 376.176C195.358 375.749 194.878 375.536 194.28 375.536C193.886 375.536 193.539 375.632 193.24 375.824C192.942 376.005 192.707 376.288 192.536 376.672C192.376 377.045 192.296 377.514 192.296 378.08C192.296 378.922 192.478 379.562 192.84 380C193.203 380.426 193.683 380.64 194.28 380.64Z" fill="white"/>
<path d="M200.955 382.128C200.624 382.128 200.368 382.042 200.187 381.872C200.016 381.69 199.931 381.434 199.931 381.104V375.056C199.931 374.725 200.016 374.474 200.187 374.304C200.358 374.133 200.598 374.048 200.907 374.048C201.216 374.048 201.456 374.133 201.627 374.304C201.798 374.474 201.883 374.725 201.883 375.056V376.064H201.723C201.872 375.424 202.166 374.938 202.603 374.608C203.04 374.277 203.622 374.08 204.347 374.016C204.571 373.994 204.747 374.053 204.875 374.192C205.014 374.32 205.094 374.522 205.115 374.8C205.136 375.066 205.072 375.285 204.923 375.456C204.784 375.616 204.571 375.712 204.283 375.744L203.931 375.776C203.28 375.84 202.79 376.042 202.459 376.384C202.128 376.714 201.963 377.184 201.963 377.792V381.104C201.963 381.434 201.878 381.69 201.707 381.872C201.536 382.042 201.286 382.128 200.955 382.128Z" fill="white"/>
<path d="M209.08 382.16C208.397 382.16 207.794 381.994 207.272 381.664C206.76 381.333 206.36 380.864 206.072 380.256C205.784 379.637 205.64 378.912 205.64 378.08C205.64 377.237 205.784 376.517 206.072 375.92C206.36 375.312 206.76 374.842 207.272 374.512C207.794 374.181 208.397 374.016 209.08 374.016C209.73 374.016 210.296 374.176 210.776 374.496C211.266 374.816 211.597 375.237 211.768 375.76H211.592V371.6C211.592 371.269 211.677 371.018 211.848 370.848C212.018 370.677 212.264 370.592 212.584 370.592C212.904 370.592 213.149 370.677 213.32 370.848C213.501 371.018 213.592 371.269 213.592 371.6V381.104C213.592 381.434 213.506 381.69 213.336 381.872C213.165 382.042 212.92 382.128 212.6 382.128C212.28 382.128 212.034 382.042 211.864 381.872C211.693 381.69 211.608 381.434 211.608 381.104V379.856L211.784 380.336C211.624 380.89 211.298 381.333 210.808 381.664C210.317 381.994 209.741 382.16 209.08 382.16ZM209.64 380.64C210.034 380.64 210.381 380.544 210.68 380.352C210.978 380.16 211.208 379.877 211.368 379.504C211.538 379.12 211.624 378.645 211.624 378.08C211.624 377.226 211.442 376.592 211.08 376.176C210.717 375.749 210.237 375.536 209.64 375.536C209.245 375.536 208.898 375.632 208.6 375.824C208.301 376.005 208.066 376.288 207.896 376.672C207.736 377.045 207.656 377.514 207.656 378.08C207.656 378.922 207.837 379.562 208.2 380C208.562 380.426 209.042 380.64 209.64 380.64Z" fill="white"/>
<path d="M210.36 395.44H99.7828C94.2433 395.44 89.7354 390.934 89.7354 385.395V369.029C89.7354 363.489 94.2413 358.983 99.7828 358.983H210.358C215.898 358.983 220.406 363.489 220.406 369.029V385.395C220.406 390.932 215.9 395.44 210.36 395.44ZM99.7828 360.648C95.1621 360.648 91.4016 364.406 91.4016 369.027V385.392C91.4016 390.013 95.16 393.772 99.7828 393.772H210.358C214.979 393.772 218.739 390.013 218.739 385.392V369.027C218.739 364.406 214.981 360.648 210.358 360.648H99.7828Z" fill="#0E1726"/>
<path d="M178.752 326.236C179.829 328.113 179.196 330.502 177.319 331.579C175.453 332.656 173.064 332.024 171.987 330.147C170.909 328.28 171.542 325.891 173.419 324.814C175.286 323.724 177.672 324.369 178.752 326.236Z" fill="#0E1726"/>
<path d="M161.01 326.236C162.087 328.113 161.454 330.502 159.577 331.579C157.711 332.656 155.322 332.024 154.245 330.147C153.157 328.28 153.8 325.891 155.666 324.814C157.544 323.724 159.932 324.369 161.01 326.236Z" fill="#0E1726"/>
<path d="M195.069 331.579C193.192 332.656 190.803 332.024 189.726 330.147C188.648 328.28 189.281 325.891 191.158 324.814C193.025 323.726 195.414 324.369 196.491 326.236C197.581 328.113 196.936 330.502 195.069 331.579Z" fill="#0E1726"/>
<path d="M125.526 326.236C126.603 328.113 125.958 330.502 124.094 331.579C122.227 332.656 119.838 332.024 118.75 330.147C117.673 328.28 118.318 325.891 120.183 324.814C122.05 323.724 124.449 324.369 125.526 326.236Z" fill="#0E1726"/>
<path d="M143.268 326.236C144.345 328.113 143.712 330.502 141.835 331.579C139.969 332.656 137.58 332.024 136.492 330.147C135.415 328.28 136.058 325.891 137.925 324.814C139.802 323.724 142.19 324.369 143.268 326.236Z" fill="#0E1726"/>
<path d="M376.621 288.43L351.636 336.466L275.616 329.2C275.606 329.2 275.606 329.2 275.606 329.2C269.463 326.59 260.95 326.859 256.641 325.304C246.894 321.794 230.912 317.382 221.875 314.947C218.386 314.008 214.858 316.284 214.263 319.848C213.847 322.335 215.002 324.821 217.171 326.11L231.159 334.422C223.072 336.911 226.06 345.443 226.06 345.443C220.539 348.508 224.126 356.018 224.126 356.018C221.616 357.24 221.115 359.518 221.383 361.75C221.794 365.239 224.193 368.193 227.425 369.571L247.6 378.203C248.111 378.425 248.633 378.525 249.155 378.525C250.844 378.525 252.433 377.424 252.943 375.691C253.442 374.025 252.799 372.236 251.354 371.282L250.899 370.97L359.09 394.899C371.932 397.455 384.875 391.044 390.63 379.291L422.858 313.392L376.621 288.43Z" fill="#EAF1FF"/>
<path d="M364.715 396.289C362.798 396.289 360.863 396.104 358.929 395.717L253.429 372.384C253.974 373.449 254.107 374.712 253.742 375.931C253.147 377.948 251.259 379.358 249.155 379.358C248.499 379.358 247.864 379.226 247.267 378.967L227.097 370.338C223.497 368.803 220.99 365.55 220.553 361.848C220.219 359.056 221.086 356.933 223.061 355.661C221.908 352.746 221.19 347.702 225.08 345.067C224.738 343.73 224.189 340.59 225.598 337.798C226.37 336.27 227.6 335.088 229.269 334.272L216.743 326.828C214.26 325.352 212.963 322.56 213.437 319.712C213.761 317.779 214.891 316.062 216.536 315.006C218.179 313.951 220.203 313.636 222.09 314.145C237.932 318.415 249.65 321.907 256.92 324.523C258.67 325.153 261.274 325.485 264.028 325.838C267.865 326.327 272.208 326.882 275.821 328.392L351.154 335.587L375.878 288.05C375.98 287.851 376.159 287.703 376.37 287.638C376.583 287.574 376.815 287.594 377.011 287.701L423.248 312.663C423.643 312.876 423.797 313.36 423.601 313.761L391.373 379.661C386.332 389.967 375.871 396.287 364.715 396.289ZM250.898 370.137C250.959 370.137 251.017 370.144 251.078 370.156L359.27 394.085C371.699 396.557 384.298 390.326 389.88 378.924L421.755 313.742L376.968 289.563L352.375 336.848C352.218 337.149 351.897 337.324 351.557 337.293L275.537 330.027C275.451 330.018 275.357 329.998 275.28 329.964C271.858 328.511 267.588 327.966 263.821 327.486C260.973 327.122 258.281 326.778 256.358 326.085C249.132 323.483 237.458 320.004 221.66 315.747C220.207 315.354 218.705 315.588 217.442 316.4C216.189 317.204 215.331 318.509 215.087 319.979C214.724 322.145 215.711 324.268 217.597 325.389L231.584 333.702C231.868 333.871 232.025 334.19 231.987 334.516C231.948 334.844 231.72 335.117 231.405 335.213C229.34 335.848 227.891 336.965 227.095 338.533C225.602 341.479 226.836 345.125 226.849 345.163C226.98 345.545 226.819 345.969 226.467 346.165C221.7 348.81 224.75 355.375 224.88 355.655C225.076 356.068 224.903 356.563 224.493 356.762C222.673 357.649 221.925 359.246 222.213 361.645C222.579 364.756 224.702 367.498 227.755 368.799L247.931 377.431C248.322 377.6 248.733 377.685 249.159 377.685C250.531 377.685 251.758 376.767 252.147 375.449C252.544 374.123 252.042 372.726 250.896 371.971L250.431 371.653C250.101 371.428 249.977 371 250.136 370.634C250.268 370.329 250.573 370.137 250.898 370.137Z" fill="#0E1726"/>
<path d="M351.638 337.293C351.212 337.293 350.849 336.967 350.809 336.535C350.767 336.076 351.106 335.673 351.565 335.631L366.619 334.276C367.089 334.234 367.484 334.572 367.524 335.032C367.565 335.491 367.227 335.894 366.768 335.936L351.713 337.291C351.688 337.293 351.663 337.293 351.638 337.293Z" fill="#0E1726"/>
<path d="M250.898 371.81C250.792 371.81 250.683 371.789 250.577 371.746L237.689 366.359C237.263 366.181 237.065 365.692 237.241 365.269C237.42 364.843 237.907 364.644 238.33 364.822L251.218 370.209C251.644 370.386 251.842 370.875 251.667 371.299C251.533 371.618 251.224 371.81 250.898 371.81Z" fill="#0E1726"/>
<path d="M233.607 348.923C233.515 348.923 233.423 348.909 233.332 348.875L225.783 346.23C225.349 346.077 225.122 345.601 225.272 345.167C225.424 344.733 225.898 344.503 226.335 344.656L233.883 347.301C234.317 347.453 234.545 347.93 234.394 348.364C234.273 348.708 233.95 348.923 233.607 348.923Z" fill="#0E1726"/>
<path d="M230.131 358.311C230.067 358.311 230 358.303 229.933 358.288L223.924 356.833C223.477 356.724 223.201 356.273 223.31 355.826C223.418 355.379 223.869 355.106 224.316 355.212L230.325 356.668C230.772 356.776 231.048 357.227 230.939 357.674C230.847 358.054 230.507 358.311 230.131 358.311Z" fill="#0E1726"/>
<path d="M239.911 337.826C239.833 337.826 239.754 337.815 239.675 337.792L230.922 335.218C230.481 335.088 230.229 334.625 230.358 334.184C230.488 333.744 230.945 333.489 231.394 333.621L240.147 336.195C240.587 336.325 240.84 336.788 240.71 337.229C240.604 337.59 240.272 337.826 239.911 337.826Z" fill="#0E1726"/>
<path d="M436.1 290.297C436.1 293.852 435.534 297.45 434.356 300.95L422.858 337.22L415.959 333.6L392.573 321.301L363.59 306.071L389.151 257.235L401.527 256.834C409.004 256.59 416.345 258.855 422.39 263.278C431.178 269.711 436.1 279.832 436.1 290.297Z" fill="#4361EE"/>
<g opacity="0.4">
<path d="M421.114 322.592C421.114 327.015 419.114 330.969 415.959 333.602L392.573 321.304C393.218 314.006 399.338 308.283 406.805 308.283C414.714 308.283 421.114 314.693 421.114 322.592Z" fill="#EAF1FF"/>
</g>
<path d="M422.851 338.054C422.718 338.054 422.584 338.022 422.465 337.958L363.208 306.809C362.8 306.596 362.644 306.093 362.857 305.685L381.49 270.091C381.703 269.684 382.204 269.526 382.613 269.741C383.021 269.954 383.179 270.457 382.964 270.866L364.717 305.723L422.359 336.024L433.252 301.948C433.394 301.509 433.859 301.267 434.3 301.407C434.738 301.547 434.981 302.017 434.841 302.455L423.645 337.477C423.57 337.711 423.394 337.901 423.167 337.995C423.066 338.033 422.96 338.054 422.851 338.054Z" fill="#0E1726"/>
<path d="M267.189 159.548C267.189 159.548 249.973 147.356 241.408 121.814C235.466 104.093 232.173 83.2106 232.691 67.9807C252.938 66.9137 276.144 60.2739 289.388 55.958C299.586 65.4521 317.846 81.2437 335.765 90.7357C329.71 105.264 318.263 123.041 306.122 136.386C291.28 152.697 267.189 159.548 267.189 159.548Z" fill="#4361EE"/>
<path d="M280.212 123.762C291.474 123.762 300.603 114.633 300.603 103.371C300.603 92.109 291.474 82.9795 280.212 82.9795C268.95 82.9795 259.82 92.109 259.82 103.371C259.82 114.633 268.95 123.762 280.212 123.762Z" fill="#EAF1FF"/>
<path d="M270.645 102.798L274.923 109.499L290.785 99.374" fill="#EAF1FF"/>
<path d="M274.246 112.566L268.773 103.993L272.517 101.602L275.599 106.429L289.589 97.501L291.982 101.247L274.246 112.566Z" fill="#0E1726"/>
<path d="M446.982 389.664L441.032 393.999C438.238 396.016 434.344 395.404 432.323 392.631L427.986 386.681C425.965 383.906 426.576 380.012 429.349 377.992L435.304 373.637C438.079 371.616 441.971 372.227 444.013 375.005L448.346 380.976C450.369 383.749 449.757 387.643 446.982 389.664Z" fill="#FFC216"/>
<path d="M440.758 244.517L438.627 248.225C437.622 249.956 435.411 250.553 433.682 249.561L429.974 247.43C428.245 246.436 427.648 244.225 428.642 242.498L430.77 238.777C431.763 237.048 433.972 236.451 435.714 237.441L439.426 239.583C441.153 240.579 441.75 242.788 440.758 244.517Z" fill="#FFC216"/>
<path d="M174.131 140.45L171.999 144.158C170.994 145.889 168.783 146.486 167.054 145.494L163.346 143.362C161.617 142.368 161.02 140.157 162.014 138.43L164.142 134.71C165.135 132.981 167.345 132.384 169.086 133.373L172.798 135.516C174.527 136.509 175.124 138.721 174.131 140.45Z" fill="#FFC216"/>
<path d="M356.352 118.241L354.22 121.95C353.216 123.681 351.005 124.278 349.276 123.286L345.568 121.154C343.839 120.16 343.242 117.949 344.236 116.222L346.363 112.502C347.357 110.773 349.566 110.176 351.308 111.165L355.02 113.308C356.749 114.301 357.346 116.513 356.352 118.241Z" fill="#FFC216"/>
<g opacity="0.4">
<path d="M408.515 284.271C410.361 284.271 411.858 282.774 411.858 280.928C411.858 279.082 410.361 277.585 408.515 277.585C406.669 277.585 405.172 279.082 405.172 280.928C405.172 282.774 406.669 284.271 408.515 284.271Z" fill="#EAF1FF"/>
</g>
<g opacity="0.4">
<path d="M380.941 299.432C383.326 299.432 385.259 297.499 385.259 295.114C385.259 292.729 383.326 290.796 380.941 290.796C378.556 290.796 376.623 292.729 376.623 295.114C376.623 297.499 378.556 299.432 380.941 299.432Z" fill="#EAF1FF"/>
</g>
<g opacity="0.4">
<path d="M327.155 288.695C328.994 288.695 330.485 287.204 330.485 285.365C330.485 283.525 328.994 282.034 327.155 282.034C325.315 282.034 323.824 283.525 323.824 285.365C323.824 287.204 325.315 288.695 327.155 288.695Z" fill="#EAF1FF"/>
</g>
<g opacity="0.4">
<path d="M340.991 317.176C343.42 317.176 345.388 315.207 345.388 312.778C345.388 310.35 343.42 308.381 340.991 308.381C338.562 308.381 336.594 310.35 336.594 312.778C336.594 315.207 338.562 317.176 340.991 317.176Z" fill="#EAF1FF"/>
</g>
<g opacity="0.4">
<path d="M312.492 320.433C315.82 320.433 318.518 317.735 318.518 314.407C318.518 311.079 315.82 308.381 312.492 308.381C309.164 308.381 306.466 311.079 306.466 314.407C306.466 317.735 309.164 320.433 312.492 320.433Z" fill="#EAF1FF"/>
</g>
<g opacity="0.4">
<path d="M282.328 279.744C284.193 279.744 285.705 278.232 285.705 276.367C285.705 274.503 284.193 272.991 282.328 272.991C280.464 272.991 278.952 274.503 278.952 276.367C278.952 278.232 280.464 279.744 282.328 279.744Z" fill="#EAF1FF"/>
</g>
<g opacity="0.4">
<path d="M285.198 303.716C287.047 303.716 288.547 302.216 288.547 300.367C288.547 298.517 287.047 297.018 285.198 297.018C283.348 297.018 281.849 298.517 281.849 300.367C281.849 302.216 283.348 303.716 285.198 303.716Z" fill="#EAF1FF"/>
</g>
<g opacity="0.4">
<path d="M290.299 395.916C292.805 395.916 294.836 393.885 294.836 391.379C294.836 388.873 292.805 386.842 290.299 386.842C287.793 386.842 285.762 388.873 285.762 391.379C285.762 393.885 287.793 395.916 290.299 395.916Z" fill="#EAF1FF"/>
</g>
<g opacity="0.4">
<path d="M317.031 400.453C319.537 400.453 321.569 398.422 321.569 395.916C321.569 393.41 319.537 391.379 317.031 391.379C314.526 391.379 312.494 393.41 312.494 395.916C312.494 398.422 314.526 400.453 317.031 400.453Z" fill="#EAF1FF"/>
</g>
<g opacity="0.4">
<path d="M341.071 364.256C344.673 364.256 347.594 361.335 347.594 357.733C347.594 354.13 344.673 351.21 341.071 351.21C337.468 351.21 334.548 354.13 334.548 357.733C334.548 361.335 337.468 364.256 341.071 364.256Z" fill="#EAF1FF"/>
</g>
<g opacity="0.4">
<path d="M313.626 275.948C316.327 275.948 318.518 273.758 318.518 271.056C318.518 268.354 316.327 266.164 313.626 266.164C310.924 266.164 308.733 268.354 308.733 271.056C308.733 273.758 310.924 275.948 313.626 275.948Z" fill="#EAF1FF"/>
</g>
</svg>
