<svg width="522" height="522" viewBox="0 0 522 522" fill="none" xmlns="http://www.w3.org/2000/svg">
<path d="M468.967 466.041H57.9273C57.468 466.041 57.0942 465.667 57.0942 465.208C57.0942 464.749 57.468 464.375 57.9273 464.375H468.967C469.426 464.375 469.8 464.749 469.8 465.208C469.8 465.667 469.426 466.041 468.967 466.041Z" fill="#0E1726"/>
<path d="M350.082 139.435C350.082 139.435 336.485 142.015 328.822 153.852C321.159 165.689 321.036 175.839 314.115 179.263C307.193 182.687 302.495 182.385 297.553 189.973C292.608 197.56 298.912 206.211 295.204 210.765C291.495 215.319 276.416 217.897 275.426 237.627C274.436 257.356 284.697 273.14 302.618 280.425C320.541 287.71 374.679 260.088 374.679 260.088L358.735 165.842L350.082 139.435Z" fill="#0E1726"/>
<path d="M263.447 275.762L234.422 299.02L205.442 185.851L146.49 195.817L183.71 343.016C187.408 357.643 197.955 369.578 212.017 375.048C228.168 381.331 246.469 378.141 259.54 366.765L308.734 323.955" fill="#EAF1FF"/>
<path d="M228.966 379.07C223.167 379.07 217.325 378.005 211.717 375.823C197.433 370.267 186.661 358.077 182.905 343.219L145.682 196.019C145.625 195.794 145.665 195.554 145.792 195.359C145.92 195.165 146.122 195.032 146.352 194.994L205.305 185.028C205.728 184.957 206.144 185.222 206.25 185.642L234.91 297.561L262.927 275.111C263.284 274.825 263.81 274.881 264.098 275.24C264.387 275.599 264.328 276.123 263.969 276.411L234.944 299.67C234.722 299.847 234.426 299.897 234.159 299.81C233.889 299.72 233.685 299.501 233.616 299.225L204.826 186.799L147.521 196.485L184.521 342.81C188.145 357.146 198.537 368.908 212.32 374.27C228.235 380.461 246.117 377.341 258.995 366.135L308.189 323.325C308.533 323.022 309.061 323.059 309.364 323.406C309.667 323.753 309.629 324.279 309.283 324.582L260.09 367.392C251.282 375.055 240.212 379.07 228.966 379.07Z" fill="#0E1726"/>
<path d="M327.175 285.897L295.692 349.22L267.164 317.269L257.054 305.948L241.235 288.24L280.328 258.202C286.073 253.468 293.56 251.403 300.925 252.547L315.133 254.746L327.175 285.897Z" fill="#4361EE"/>
<path opacity="0.4" d="M273.284 309.172C273.284 313.027 270.695 316.272 267.162 317.272L257.052 305.951C258.307 302.883 261.328 300.729 264.84 300.729C269.507 300.729 273.284 304.506 273.284 309.172Z" fill="#EAF1FF"/>
<path d="M295.688 350.057C295.452 350.057 295.227 349.957 295.066 349.779L240.607 288.797C240.452 288.624 240.377 288.394 240.398 288.165C240.419 287.933 240.538 287.722 240.72 287.582L279.813 257.544C280.181 257.262 280.703 257.333 280.982 257.696C281.262 258.062 281.193 258.584 280.83 258.866L242.448 288.357L295.49 347.752L326.426 285.532C326.63 285.12 327.127 284.951 327.543 285.156C327.954 285.36 328.123 285.862 327.919 286.273L296.434 349.596C296.31 349.842 296.072 350.013 295.799 350.051C295.761 350.055 295.726 350.057 295.688 350.057Z" fill="#0E1726"/>
<path d="M251.331 465.209L268.435 386.84L396.315 402.093L390.533 465.209H251.331Z" fill="#0E1726"/>
<path d="M312.079 254.746L396.455 257.483C408.425 257.872 417.462 268.481 415.942 280.362L398.658 415.47L260.336 403.174L312.079 254.746Z" fill="#4361EE"/>
<path opacity="0.4" d="M382.511 398.616C388.071 398.616 392.579 394.108 392.579 388.548C392.579 382.987 388.071 378.479 382.511 378.479C376.95 378.479 372.442 382.987 372.442 388.548C372.442 394.108 376.95 398.616 382.511 398.616Z" fill="#EAF1FF"/>
<path d="M260.334 404.003C260.242 404.003 260.15 403.989 260.061 403.957C259.626 403.805 259.397 403.331 259.549 402.897L302.576 279.471C302.727 279.037 303.203 278.807 303.637 278.957C304.071 279.11 304.301 279.584 304.149 280.018L261.121 403.444C261.002 403.788 260.681 404.003 260.334 404.003Z" fill="#0E1726"/>
<path d="M339.722 259.747L341.43 221.62L376.909 214.227L378.239 254.702C378.356 258.25 377.024 261.704 374.504 264.203C370.378 268.293 363.057 273.519 352.924 272.947C339.711 272.204 339.722 259.747 339.722 259.747Z" fill="#EAF1FF"/>
<path d="M354.465 273.826C353.943 273.826 353.415 273.812 352.876 273.78C339.037 272.999 338.889 259.878 338.889 259.747C338.889 259.734 338.889 259.722 338.891 259.711L340.599 221.584C340.615 221.204 340.889 220.883 341.261 220.806L376.74 213.412C376.982 213.36 377.233 213.42 377.425 213.573C377.617 213.725 377.734 213.955 377.742 214.201L379.072 254.677C379.195 258.475 377.746 262.165 375.09 264.798C370.868 268.984 363.936 273.826 354.465 273.826ZM340.555 259.763C340.561 260.442 340.843 271.431 352.97 272.116C362.646 272.657 369.701 267.792 373.919 263.612C376.247 261.304 377.517 258.066 377.408 254.729L376.111 215.243L342.236 222.303L340.555 259.763Z" fill="#0E1726"/>
<path d="M377.333 219.384C394.163 201.2 390.373 171.473 390.373 171.473L339.927 150.391C338.989 151.159 319.968 166.639 316.708 197.782C314.023 223.439 338.611 237.884 364.92 228.212" fill="#EAF1FF"/>
<path d="M348.56 232.077C340.344 232.077 332.742 229.705 326.78 225.065C318.573 218.676 314.701 208.956 315.879 197.694C319.069 167.205 337.317 151.449 339.388 149.753C339.626 149.557 339.964 149.501 340.248 149.62L390.694 170.7C390.97 170.815 391.162 171.068 391.199 171.364C391.237 171.665 394.843 201.69 377.945 219.948C377.63 220.286 377.103 220.305 376.767 219.994C376.429 219.68 376.41 219.154 376.721 218.816C391.941 202.373 389.976 175.91 389.596 172.049L340.071 151.355C336.807 154.153 320.508 169.429 317.535 197.869C316.418 208.537 320.065 217.728 327.804 223.752C337.212 231.075 350.98 232.449 364.632 227.431C365.062 227.27 365.542 227.494 365.701 227.926C365.859 228.358 365.638 228.836 365.206 228.995C359.589 231.06 353.943 232.077 348.56 232.077Z" fill="#0E1726"/>
<path d="M379.46 190.812C379.46 190.812 352.826 173.126 342.505 155.673C342.505 155.673 332.904 157.241 330.484 160.83C330.484 160.83 327.48 144.139 344.478 139.434C361.476 134.73 400.478 147.782 406.398 171.153C410.29 186.521 409.874 220.616 409.131 242.164C408.772 252.623 400.869 257.774 390.42 257.195L378.398 256.897L376.193 220.789C385.626 212.159 383.246 201.6 379.46 190.812Z" fill="#0E1726"/>
<path d="M334.029 185.925C334.615 184.115 334.105 182.329 332.891 181.936C331.676 181.543 330.217 182.691 329.63 184.502C329.044 186.312 329.554 188.098 330.768 188.491C331.983 188.884 333.443 187.736 334.029 185.925Z" fill="#0E1726"/>
<path d="M330.484 178.192C332.84 177.505 335.471 178.438 337.158 180.555L330.484 178.192Z" fill="#EAF1FF"/>
<path d="M337.158 181.391C336.914 181.391 336.672 181.282 336.507 181.077C335.026 179.219 332.754 178.401 330.719 178.994C330.274 179.123 329.815 178.868 329.685 178.428C329.556 177.985 329.81 177.524 330.251 177.394C332.94 176.611 335.907 177.649 337.81 180.04C338.096 180.399 338.037 180.923 337.676 181.211C337.523 181.33 337.34 181.391 337.158 181.391Z" fill="#0E1726"/>
<path d="M353.911 194.297C354.206 192.417 353.423 190.733 352.162 190.535C350.901 190.337 349.639 191.7 349.344 193.58C349.049 195.46 349.832 197.144 351.093 197.342C352.354 197.54 353.616 196.177 353.911 194.297Z" fill="#0E1726"/>
<path d="M350.093 186.978C352.427 186.22 355.083 187.072 356.835 189.137L350.093 186.978Z" fill="#EAF1FF"/>
<path d="M356.833 189.97C356.597 189.97 356.363 189.87 356.198 189.676C354.662 187.863 352.363 187.116 350.35 187.769C349.909 187.913 349.444 187.671 349.302 187.235C349.16 186.796 349.398 186.326 349.836 186.184C352.499 185.32 355.497 186.268 357.47 188.598C357.767 188.949 357.725 189.475 357.372 189.772C357.215 189.905 357.025 189.97 356.833 189.97Z" fill="#0E1726"/>
<path d="M377.688 192.167C377.688 192.167 389.27 182.65 394.974 185.316C400.679 187.982 396.415 208.593 389.207 209.86C382 211.128 376.623 207.798 376.623 207.798" fill="#EAF1FF"/>
<path d="M385.885 210.982C380.265 210.982 376.379 208.623 376.187 208.504C375.794 208.261 375.675 207.75 375.917 207.357C376.16 206.965 376.675 206.846 377.064 207.086C377.116 207.117 382.284 210.23 389.068 209.038C392.719 208.397 395.751 201.609 396.57 195.42C397.209 190.591 396.447 186.922 394.626 186.07C390.333 184.066 381.329 190.257 378.22 192.81C377.865 193.1 377.339 193.05 377.047 192.695C376.755 192.34 376.807 191.814 377.162 191.522C377.65 191.119 389.22 181.706 395.332 184.56C397.902 185.761 398.981 189.904 398.223 195.637C397.315 202.496 393.979 209.867 389.358 210.679C388.14 210.892 386.98 210.982 385.885 210.982Z" fill="#0E1726"/>
<path d="M389.306 200.786C389.164 200.786 389.02 200.748 388.886 200.673C388.489 200.441 388.354 199.932 388.585 199.533C389.239 198.412 389.667 197.14 389.819 195.854C389.911 195.107 389.828 194.595 389.575 194.334C389.396 194.15 389.074 194.054 388.736 194.083C388.391 194.115 388.011 194.261 387.579 194.532C386.936 194.933 386.372 195.476 385.948 196.1C385.689 196.48 385.172 196.581 384.792 196.322C384.412 196.063 384.311 195.545 384.572 195.165C385.126 194.351 385.861 193.645 386.698 193.121C387.358 192.707 387.978 192.48 388.592 192.426C389.419 192.352 390.243 192.63 390.774 193.175C391.404 193.825 391.634 194.766 391.477 196.057C391.298 197.564 390.797 199.059 390.03 200.375C389.874 200.638 389.594 200.786 389.306 200.786Z" fill="#0E1726"/>
<path d="M339.722 191.476C338.254 193.8 336.786 196.123 335.318 198.447C334.433 199.848 333.529 201.31 333.464 202.92C333.399 204.53 334.431 206.334 336.295 206.866" fill="#EAF1FF"/>
<path d="M336.296 207.699C336.221 207.699 336.143 207.689 336.066 207.668C333.711 206.995 332.556 204.755 332.631 202.886C332.707 201.024 333.719 199.418 334.615 198.002L339.016 191.031C339.263 190.642 339.777 190.525 340.165 190.772C340.555 191.018 340.67 191.532 340.424 191.92L336.022 198.892C335.239 200.13 334.352 201.535 334.296 202.953C334.247 204.139 335.012 205.634 336.523 206.064C336.966 206.19 337.223 206.651 337.095 207.094C336.993 207.459 336.659 207.699 336.296 207.699Z" fill="#0E1726"/>
<path d="M343.236 217.858C341.752 217.858 340.269 217.535 338.918 216.891C338.503 216.693 338.325 216.196 338.524 215.781C338.722 215.365 339.215 215.188 339.634 215.386C341.614 216.328 343.934 216.449 345.999 215.724C348.064 215 349.799 213.452 350.753 211.481C350.953 211.068 351.45 210.895 351.866 211.095C352.279 211.296 352.453 211.795 352.252 212.208C351.106 214.572 349.028 216.426 346.55 217.296C345.483 217.672 344.357 217.858 343.236 217.858Z" fill="#0E1726"/>
<path d="M247.67 164.008H66.4737C59.0508 164.008 53.0332 170.025 53.0332 177.448V409.296C53.0332 416.718 59.0508 422.736 66.4737 422.736H247.672C255.095 422.736 261.113 416.718 261.113 409.296V177.448C261.111 170.025 255.093 164.008 247.67 164.008Z" fill="#EAF1FF"/>
<path d="M247.67 423.569H66.4738C58.6041 423.569 52.2002 417.167 52.2002 409.296V177.448C52.2002 169.579 58.6041 163.175 66.4738 163.175H247.672C255.542 163.175 261.946 169.577 261.946 177.448V409.296C261.944 417.167 255.54 423.569 247.67 423.569ZM66.4738 164.841C59.5228 164.841 53.8685 170.495 53.8685 177.446V409.294C53.8685 416.245 59.5249 421.899 66.4738 421.899H247.672C254.623 421.899 260.28 416.245 260.28 409.294V177.448C260.28 170.497 254.623 164.843 247.672 164.843H66.4738V164.841Z" fill="#0E1726"/>
<path d="M246.495 164.008H67.6492C59.577 164.008 53.0332 170.552 53.0332 178.624V189.471H261.111V178.624C261.111 170.554 254.567 164.008 246.495 164.008Z" fill="#E6F3FC"/>
<path d="M261.111 190.304H53.0333C52.5739 190.304 52.2002 189.93 52.2002 189.471V178.624C52.2002 170.105 59.1303 163.175 67.6493 163.175H246.493C255.012 163.175 261.942 170.105 261.942 178.624V189.471C261.944 189.933 261.57 190.304 261.111 190.304ZM53.8664 188.638H260.278V178.624C260.278 171.024 254.095 164.841 246.495 164.841H67.6493C60.049 164.841 53.8664 171.024 53.8664 178.624V188.638Z" fill="#0E1726"/>
<path d="M73.1909 181.451C75.2989 181.451 77.0078 179.742 77.0078 177.634C77.0078 175.526 75.2989 173.817 73.1909 173.817C71.0829 173.817 69.374 175.526 69.374 177.634C69.374 179.742 71.0829 181.451 73.1909 181.451Z" fill="#0E1726"/>
<path d="M85.7627 181.451C87.8707 181.451 89.5795 179.742 89.5795 177.634C89.5795 175.526 87.8707 173.817 85.7627 173.817C83.6547 173.817 81.9458 175.526 81.9458 177.634C81.9458 179.742 83.6547 181.451 85.7627 181.451Z" fill="#0E1726"/>
<path d="M98.3325 181.451C100.44 181.451 102.149 179.742 102.149 177.634C102.149 175.526 100.44 173.817 98.3325 173.817C96.2245 173.817 94.5156 175.526 94.5156 177.634C94.5156 179.742 96.2245 181.451 98.3325 181.451Z" fill="#0E1726"/>
<path d="M153.088 298.346C177.167 298.346 196.687 278.825 196.687 254.746C196.687 230.667 177.167 211.146 153.088 211.146C129.008 211.146 109.488 230.667 109.488 254.746C109.488 278.825 129.008 298.346 153.088 298.346Z" fill="#FFC216"/>
<path d="M153.088 250.213C158.618 250.213 163.1 245.731 163.1 240.201C163.1 234.672 158.618 230.189 153.088 230.189C147.559 230.189 143.076 234.672 143.076 240.201C143.076 245.731 147.559 250.213 153.088 250.213Z" fill="#EAF1FF"/>
<path d="M168.278 277.585C173.089 277.585 176.242 272.584 174.212 268.224C170.51 260.265 162.444 254.746 153.086 254.746C143.727 254.746 135.664 260.265 131.959 268.224C129.93 272.586 133.085 277.585 137.893 277.585H168.278Z" fill="#EAF1FF"/>
<path d="M212.907 313.204H101.237C96.1482 313.204 92.0244 317.328 92.0244 322.416V332.733C92.0244 337.822 96.1503 341.945 101.237 341.945H212.905C217.993 341.945 222.117 337.822 222.117 332.733V322.416C222.119 317.328 217.996 313.204 212.907 313.204Z" fill="#EAF1FF"/>
<path d="M212.907 342.779H101.237C95.6973 342.779 91.1914 338.273 91.1914 332.733V322.416C91.1914 316.877 95.6973 312.371 101.237 312.371H212.905C218.445 312.371 222.953 316.877 222.953 322.416V332.733C222.953 338.273 218.447 342.779 212.907 342.779ZM101.237 314.037C96.616 314.037 92.8576 317.796 92.8576 322.416V332.733C92.8576 337.354 96.616 341.112 101.237 341.112H212.905C217.526 341.112 221.286 337.354 221.286 332.733V322.416C221.286 317.796 217.528 314.037 212.905 314.037H101.237Z" fill="#0E1726"/>
<path d="M190.36 359.814H123.783C118.695 359.814 114.571 363.938 114.571 369.027V385.392C114.571 390.481 118.695 394.605 123.783 394.605H190.36C195.449 394.605 199.573 390.479 199.573 385.392V369.027C199.573 363.938 195.449 359.814 190.36 359.814Z" fill="#0E1726"/>
<path d="M136.92 382.16C136.141 382.16 135.453 382.058 134.856 381.856C134.269 381.653 133.773 381.354 133.368 380.96C132.963 380.554 132.659 380.053 132.456 379.456C132.253 378.858 132.152 378.165 132.152 377.376V371.632C132.152 371.28 132.237 371.018 132.408 370.848C132.589 370.677 132.845 370.592 133.176 370.592C133.507 370.592 133.757 370.677 133.928 370.848C134.109 371.018 134.2 371.28 134.2 371.632V377.36C134.2 378.373 134.429 379.136 134.888 379.648C135.357 380.149 136.035 380.4 136.92 380.4C137.805 380.4 138.477 380.149 138.936 379.648C139.395 379.136 139.624 378.373 139.624 377.36V371.632C139.624 371.28 139.709 371.018 139.88 370.848C140.061 370.677 140.317 370.592 140.648 370.592C140.968 370.592 141.213 370.677 141.384 370.848C141.565 371.018 141.656 371.28 141.656 371.632V377.376C141.656 378.421 141.475 379.301 141.112 380.016C140.76 380.73 140.232 381.269 139.528 381.632C138.824 381.984 137.955 382.16 136.92 382.16Z" fill="white"/>
<path d="M144.844 382.128C144.524 382.128 144.279 382.042 144.108 381.872C143.938 381.69 143.852 381.434 143.852 381.104V375.056C143.852 374.725 143.938 374.474 144.108 374.304C144.279 374.133 144.519 374.048 144.828 374.048C145.138 374.048 145.378 374.133 145.548 374.304C145.719 374.474 145.804 374.725 145.804 375.056V376.144L145.628 375.744C145.863 375.178 146.226 374.752 146.716 374.464C147.218 374.165 147.783 374.016 148.412 374.016C149.042 374.016 149.559 374.133 149.964 374.368C150.37 374.602 150.674 374.96 150.876 375.44C151.079 375.909 151.18 376.506 151.18 377.232V381.104C151.18 381.434 151.095 381.69 150.924 381.872C150.754 382.042 150.508 382.128 150.188 382.128C149.868 382.128 149.618 382.042 149.436 381.872C149.266 381.69 149.18 381.434 149.18 381.104V377.328C149.18 376.72 149.063 376.277 148.828 376C148.604 375.722 148.252 375.584 147.772 375.584C147.186 375.584 146.716 375.77 146.364 376.144C146.023 376.506 145.852 376.992 145.852 377.6V381.104C145.852 381.786 145.516 382.128 144.844 382.128Z" fill="white"/>
<path d="M155.884 382.16C154.998 382.16 154.332 381.909 153.884 381.408C153.436 380.896 153.212 380.149 153.212 379.168V371.6C153.212 371.269 153.297 371.018 153.468 370.848C153.638 370.677 153.884 370.592 154.204 370.592C154.524 370.592 154.769 370.677 154.94 370.848C155.121 371.018 155.212 371.269 155.212 371.6V379.072C155.212 379.562 155.313 379.925 155.516 380.16C155.729 380.394 156.028 380.512 156.412 380.512C156.497 380.512 156.577 380.512 156.652 380.512C156.726 380.501 156.801 380.49 156.876 380.48C157.025 380.458 157.126 380.501 157.18 380.608C157.233 380.704 157.26 380.906 157.26 381.216C157.26 381.482 157.206 381.69 157.1 381.84C156.993 381.989 156.817 382.08 156.572 382.112C156.465 382.122 156.353 382.133 156.236 382.144C156.118 382.154 156.001 382.16 155.884 382.16Z" fill="white"/>
<path d="M161.811 382.16C161 382.16 160.296 381.994 159.699 381.664C159.102 381.333 158.638 380.864 158.307 380.256C157.976 379.637 157.811 378.912 157.811 378.08C157.811 377.45 157.902 376.89 158.083 376.4C158.275 375.898 158.547 375.472 158.899 375.12C159.251 374.757 159.672 374.485 160.163 374.304C160.654 374.112 161.203 374.016 161.811 374.016C162.622 374.016 163.326 374.181 163.923 374.512C164.52 374.842 164.984 375.312 165.315 375.92C165.646 376.528 165.811 377.248 165.811 378.08C165.811 378.709 165.715 379.274 165.523 379.776C165.342 380.277 165.075 380.709 164.723 381.072C164.371 381.424 163.95 381.696 163.459 381.888C162.968 382.069 162.419 382.16 161.811 382.16ZM161.811 380.64C162.206 380.64 162.552 380.544 162.851 380.352C163.15 380.16 163.379 379.877 163.539 379.504C163.71 379.12 163.795 378.645 163.795 378.08C163.795 377.226 163.614 376.592 163.251 376.176C162.888 375.749 162.408 375.536 161.811 375.536C161.416 375.536 161.07 375.632 160.771 375.824C160.472 376.005 160.238 376.288 160.067 376.672C159.907 377.045 159.827 377.514 159.827 378.08C159.827 378.922 160.008 379.562 160.371 380C160.734 380.426 161.214 380.64 161.811 380.64Z" fill="white"/>
<path d="M171.078 382.16C170.256 382.16 169.542 381.994 168.934 381.664C168.326 381.322 167.856 380.842 167.526 380.224C167.195 379.605 167.03 378.88 167.03 378.048C167.03 377.418 167.12 376.858 167.302 376.368C167.494 375.866 167.766 375.445 168.118 375.104C168.47 374.752 168.896 374.485 169.398 374.304C169.899 374.112 170.459 374.016 171.078 374.016C171.43 374.016 171.808 374.064 172.214 374.16C172.63 374.256 173.019 374.416 173.382 374.64C173.552 374.746 173.664 374.874 173.718 375.024C173.771 375.173 173.782 375.328 173.75 375.488C173.718 375.637 173.648 375.77 173.542 375.888C173.446 375.994 173.323 376.064 173.174 376.096C173.024 376.117 172.859 376.08 172.678 375.984C172.443 375.845 172.203 375.744 171.958 375.68C171.712 375.605 171.478 375.568 171.254 375.568C170.902 375.568 170.592 375.626 170.326 375.744C170.059 375.85 169.83 376.01 169.638 376.224C169.456 376.426 169.318 376.682 169.222 376.992C169.126 377.301 169.078 377.658 169.078 378.064C169.078 378.853 169.264 379.477 169.638 379.936C170.022 380.384 170.56 380.608 171.254 380.608C171.478 380.608 171.707 380.576 171.942 380.512C172.187 380.448 172.432 380.346 172.678 380.208C172.859 380.112 173.019 380.08 173.158 380.112C173.307 380.144 173.43 380.218 173.526 380.336C173.622 380.442 173.68 380.576 173.702 380.736C173.723 380.885 173.702 381.034 173.638 381.184C173.584 381.333 173.478 381.456 173.318 381.552C172.966 381.765 172.592 381.92 172.198 382.016C171.803 382.112 171.43 382.16 171.078 382.16Z" fill="white"/>
<path d="M176.001 382.128C175.681 382.128 175.435 382.042 175.265 381.872C175.094 381.69 175.009 381.434 175.009 381.104V371.6C175.009 371.269 175.094 371.018 175.265 370.848C175.435 370.677 175.681 370.592 176.001 370.592C176.321 370.592 176.566 370.677 176.737 370.848C176.918 371.018 177.009 371.269 177.009 371.6V377.504H177.041L179.681 374.72C179.894 374.506 180.081 374.341 180.241 374.224C180.401 374.106 180.619 374.048 180.897 374.048C181.174 374.048 181.382 374.122 181.521 374.272C181.67 374.41 181.745 374.581 181.745 374.784C181.745 374.986 181.649 375.189 181.457 375.392L178.673 378.336V377.504L181.729 380.8C181.921 381.002 182.006 381.21 181.985 381.424C181.974 381.626 181.889 381.797 181.729 381.936C181.569 382.064 181.366 382.128 181.121 382.128C180.822 382.128 180.582 382.069 180.401 381.952C180.23 381.834 180.038 381.658 179.825 381.424L177.041 378.512H177.009V381.104C177.009 381.786 176.673 382.128 176.001 382.128Z" fill="white"/>
<path d="M190.361 395.44H123.783C118.244 395.44 113.736 390.934 113.736 385.395V369.029C113.736 363.489 118.242 358.983 123.783 358.983H190.359C195.898 358.983 200.406 363.489 200.406 369.029V385.395C200.406 390.932 195.9 395.44 190.361 395.44ZM123.783 360.648C119.163 360.648 115.402 364.406 115.402 369.027V385.392C115.402 390.013 119.16 393.772 123.783 393.772H190.359C194.979 393.772 198.74 390.013 198.74 385.392V369.027C198.74 364.406 194.981 360.648 190.359 360.648H123.783Z" fill="#0E1726"/>
<path d="M178.752 326.236C179.829 328.113 179.196 330.502 177.319 331.579C175.453 332.656 173.064 332.024 171.987 330.147C170.909 328.28 171.542 325.891 173.419 324.814C175.286 323.724 177.672 324.369 178.752 326.236Z" fill="#0E1726"/>
<path d="M161.01 326.236C162.087 328.113 161.454 330.502 159.577 331.579C157.711 332.656 155.322 332.024 154.245 330.147C153.157 328.28 153.8 325.891 155.666 324.814C157.544 323.724 159.932 324.369 161.01 326.236Z" fill="#0E1726"/>
<path d="M195.07 331.579C193.192 332.656 190.804 332.024 189.726 330.147C188.649 328.28 189.282 325.891 191.159 324.814C193.025 323.726 195.414 324.369 196.491 326.236C197.581 328.113 196.936 330.502 195.07 331.579Z" fill="#0E1726"/>
<path d="M125.527 326.236C126.604 328.113 125.959 330.502 124.094 331.579C122.227 332.656 119.839 332.024 118.751 330.147C117.674 328.28 118.319 325.891 120.183 324.814C122.05 323.724 124.449 324.369 125.527 326.236Z" fill="#0E1726"/>
<path d="M143.268 326.236C144.346 328.113 143.713 330.502 141.836 331.579C139.969 332.656 137.58 332.024 136.493 330.147C135.415 328.28 136.058 325.891 137.925 324.814C139.802 323.724 142.191 324.369 143.268 326.236Z" fill="#0E1726"/>
<path d="M376.621 288.43L351.636 336.466L275.616 329.2C275.605 329.2 275.605 329.2 275.605 329.2C269.462 326.59 260.95 326.859 256.64 325.304C246.893 321.794 230.912 317.382 221.875 314.947C218.386 314.008 214.857 316.284 214.262 319.848C213.847 322.335 215.001 324.821 217.171 326.11L231.158 334.422C223.071 336.911 226.059 345.443 226.059 345.443C220.539 348.508 224.126 356.018 224.126 356.018C221.616 357.24 221.115 359.518 221.382 361.75C221.793 365.239 224.193 368.193 227.425 369.571L247.599 378.203C248.111 378.425 248.633 378.525 249.155 378.525C250.844 378.525 252.433 377.424 252.942 375.691C253.441 374.025 252.798 372.236 251.353 371.282L250.898 370.97L359.09 394.899C371.931 397.455 384.875 391.044 390.629 379.291L422.857 313.392L376.621 288.43Z" fill="#EAF1FF"/>
<path d="M364.715 396.289C362.798 396.289 360.863 396.104 358.929 395.717L253.429 372.384C253.974 373.449 254.107 374.712 253.742 375.931C253.147 377.948 251.259 379.358 249.155 379.358C248.499 379.358 247.864 379.226 247.267 378.967L227.097 370.338C223.497 368.803 220.99 365.55 220.553 361.848C220.219 359.056 221.086 356.933 223.061 355.661C221.908 352.746 221.19 347.702 225.08 345.067C224.738 343.73 224.189 340.59 225.598 337.798C226.37 336.27 227.6 335.088 229.269 334.272L216.743 326.828C214.26 325.352 212.963 322.56 213.437 319.712C213.761 317.779 214.891 316.062 216.536 315.006C218.179 313.951 220.203 313.636 222.09 314.145C237.932 318.415 249.65 321.907 256.92 324.523C258.67 325.153 261.274 325.485 264.028 325.838C267.865 326.327 272.208 326.882 275.821 328.392L351.154 335.587L375.878 288.05C375.98 287.851 376.159 287.703 376.37 287.638C376.583 287.574 376.815 287.594 377.011 287.701L423.248 312.663C423.643 312.876 423.797 313.36 423.601 313.761L391.373 379.661C386.332 389.967 375.871 396.287 364.715 396.289ZM250.898 370.137C250.959 370.137 251.017 370.144 251.078 370.156L359.27 394.085C371.699 396.557 384.298 390.326 389.88 378.924L421.755 313.742L376.968 289.563L352.375 336.848C352.218 337.149 351.897 337.324 351.557 337.293L275.537 330.027C275.451 330.018 275.357 329.998 275.28 329.964C271.858 328.511 267.588 327.966 263.821 327.486C260.973 327.122 258.281 326.778 256.358 326.085C249.132 323.483 237.458 320.004 221.66 315.747C220.207 315.354 218.705 315.588 217.442 316.4C216.189 317.204 215.331 318.509 215.087 319.979C214.724 322.145 215.711 324.268 217.597 325.389L231.584 333.702C231.868 333.871 232.025 334.19 231.987 334.516C231.948 334.844 231.72 335.117 231.405 335.213C229.34 335.848 227.891 336.965 227.095 338.533C225.602 341.479 226.836 345.125 226.849 345.163C226.98 345.545 226.819 345.969 226.467 346.165C221.7 348.81 224.75 355.375 224.88 355.655C225.076 356.068 224.903 356.563 224.493 356.762C222.673 357.649 221.925 359.246 222.213 361.645C222.579 364.756 224.702 367.498 227.755 368.799L247.931 377.431C248.322 377.6 248.733 377.685 249.159 377.685C250.531 377.685 251.758 376.767 252.147 375.449C252.544 374.123 252.042 372.726 250.896 371.971L250.431 371.653C250.101 371.428 249.977 371 250.136 370.634C250.268 370.329 250.573 370.137 250.898 370.137Z" fill="#0E1726"/>
<path d="M351.638 337.293C351.212 337.293 350.849 336.967 350.809 336.535C350.767 336.076 351.106 335.673 351.565 335.631L366.619 334.276C367.089 334.234 367.484 334.572 367.524 335.032C367.565 335.491 367.227 335.894 366.768 335.936L351.713 337.291C351.688 337.293 351.663 337.293 351.638 337.293Z" fill="#0E1726"/>
<path d="M250.898 371.81C250.792 371.81 250.683 371.789 250.577 371.746L237.689 366.359C237.263 366.181 237.065 365.692 237.241 365.269C237.42 364.843 237.907 364.644 238.33 364.822L251.218 370.209C251.644 370.386 251.842 370.875 251.667 371.299C251.533 371.618 251.224 371.81 250.898 371.81Z" fill="#0E1726"/>
<path d="M233.608 348.923C233.516 348.923 233.424 348.909 233.332 348.875L225.784 346.23C225.35 346.077 225.122 345.601 225.272 345.167C225.425 344.733 225.899 344.503 226.335 344.656L233.883 347.301C234.318 347.453 234.545 347.93 234.395 348.364C234.274 348.708 233.95 348.923 233.608 348.923Z" fill="#0E1726"/>
<path d="M230.131 358.311C230.066 358.311 229.999 358.303 229.932 358.288L223.923 356.833C223.476 356.724 223.201 356.273 223.309 355.826C223.418 355.379 223.869 355.106 224.316 355.212L230.325 356.668C230.772 356.776 231.047 357.227 230.939 357.674C230.847 358.054 230.507 358.311 230.131 358.311Z" fill="#0E1726"/>
<path d="M239.911 337.826C239.834 337.826 239.755 337.815 239.675 337.792L230.922 335.218C230.482 335.088 230.229 334.625 230.359 334.184C230.488 333.744 230.945 333.489 231.394 333.621L240.147 336.195C240.588 336.325 240.84 336.788 240.711 337.229C240.604 337.59 240.272 337.826 239.911 337.826Z" fill="#0E1726"/>
<path d="M436.1 290.297C436.1 293.852 435.534 297.45 434.356 300.95L422.858 337.22L415.959 333.6L392.573 321.301L363.59 306.071L389.151 257.235L401.527 256.834C409.004 256.59 416.345 258.855 422.39 263.278C431.178 269.711 436.1 279.832 436.1 290.297Z" fill="#4361EE"/>
<g opacity="0.4">
<path d="M421.114 322.592C421.114 327.015 419.114 330.969 415.959 333.602L392.573 321.304C393.218 314.006 399.338 308.283 406.805 308.283C414.714 308.283 421.114 314.693 421.114 322.592Z" fill="#EAF1FF"/>
</g>
<path d="M422.851 338.054C422.718 338.054 422.584 338.022 422.465 337.958L363.208 306.809C362.8 306.596 362.644 306.093 362.857 305.685L381.49 270.091C381.703 269.684 382.204 269.526 382.613 269.741C383.021 269.954 383.179 270.457 382.964 270.866L364.717 305.723L422.359 336.024L433.252 301.948C433.394 301.509 433.859 301.267 434.3 301.407C434.738 301.547 434.981 302.017 434.841 302.455L423.645 337.477C423.57 337.711 423.394 337.901 423.167 337.995C423.066 338.033 422.96 338.054 422.851 338.054Z" fill="#0E1726"/>
<path d="M267.189 159.548C267.189 159.548 249.973 147.356 241.408 121.814C235.466 104.093 232.173 83.2106 232.691 67.9807C252.938 66.9137 276.144 60.2739 289.388 55.958C299.586 65.4521 317.846 81.2437 335.765 90.7357C329.71 105.264 318.263 123.041 306.122 136.386C291.28 152.697 267.189 159.548 267.189 159.548Z" fill="#4361EE"/>
<path d="M280.212 123.762C291.474 123.762 300.603 114.633 300.603 103.371C300.603 92.109 291.474 82.9795 280.212 82.9795C268.95 82.9795 259.82 92.109 259.82 103.371C259.82 114.633 268.95 123.762 280.212 123.762Z" fill="#EAF1FF"/>
<path d="M270.645 102.798L274.923 109.499L290.785 99.374" fill="#EAF1FF"/>
<path d="M274.246 112.566L268.773 103.993L272.517 101.602L275.599 106.429L289.589 97.501L291.982 101.247L274.246 112.566Z" fill="#0E1726"/>
<path d="M446.982 389.664L441.032 393.999C438.238 396.016 434.344 395.404 432.323 392.631L427.986 386.681C425.965 383.906 426.576 380.012 429.349 377.992L435.304 373.637C438.079 371.616 441.971 372.227 444.013 375.005L448.346 380.976C450.369 383.749 449.757 387.643 446.982 389.664Z" fill="#FFC216"/>
<path d="M440.758 244.517L438.627 248.225C437.622 249.956 435.411 250.553 433.682 249.561L429.974 247.43C428.245 246.436 427.648 244.225 428.642 242.498L430.77 238.777C431.763 237.048 433.972 236.451 435.714 237.441L439.426 239.583C441.153 240.579 441.75 242.788 440.758 244.517Z" fill="#FFC216"/>
<path d="M174.131 140.45L171.999 144.158C170.995 145.889 168.784 146.486 167.055 145.494L163.347 143.362C161.618 142.368 161.02 140.157 162.014 138.43L164.142 134.71C165.136 132.981 167.345 132.384 169.086 133.373L172.799 135.516C174.528 136.509 175.125 138.721 174.131 140.45Z" fill="#FFC216"/>
<path d="M356.352 118.241L354.22 121.95C353.216 123.681 351.005 124.278 349.276 123.286L345.568 121.154C343.839 120.16 343.242 117.949 344.236 116.222L346.363 112.502C347.357 110.773 349.566 110.176 351.308 111.165L355.02 113.308C356.749 114.301 357.346 116.513 356.352 118.241Z" fill="#FFC216"/>
<g opacity="0.4">
<path d="M408.515 284.271C410.361 284.271 411.858 282.774 411.858 280.928C411.858 279.082 410.361 277.585 408.515 277.585C406.669 277.585 405.172 279.082 405.172 280.928C405.172 282.774 406.669 284.271 408.515 284.271Z" fill="#EAF1FF"/>
</g>
<g opacity="0.4">
<path d="M380.941 299.432C383.326 299.432 385.259 297.499 385.259 295.114C385.259 292.729 383.326 290.796 380.941 290.796C378.556 290.796 376.623 292.729 376.623 295.114C376.623 297.499 378.556 299.432 380.941 299.432Z" fill="#EAF1FF"/>
</g>
<g opacity="0.4">
<path d="M327.155 288.695C328.994 288.695 330.485 287.204 330.485 285.365C330.485 283.525 328.994 282.034 327.155 282.034C325.315 282.034 323.824 283.525 323.824 285.365C323.824 287.204 325.315 288.695 327.155 288.695Z" fill="#EAF1FF"/>
</g>
<g opacity="0.4">
<path d="M340.991 317.176C343.42 317.176 345.388 315.207 345.388 312.778C345.388 310.35 343.42 308.381 340.991 308.381C338.562 308.381 336.594 310.35 336.594 312.778C336.594 315.207 338.562 317.176 340.991 317.176Z" fill="#EAF1FF"/>
</g>
<g opacity="0.4">
<path d="M312.492 320.433C315.82 320.433 318.518 317.735 318.518 314.407C318.518 311.079 315.82 308.381 312.492 308.381C309.164 308.381 306.466 311.079 306.466 314.407C306.466 317.735 309.164 320.433 312.492 320.433Z" fill="#EAF1FF"/>
</g>
<g opacity="0.4">
<path d="M282.328 279.744C284.193 279.744 285.705 278.232 285.705 276.367C285.705 274.503 284.193 272.991 282.328 272.991C280.464 272.991 278.952 274.503 278.952 276.367C278.952 278.232 280.464 279.744 282.328 279.744Z" fill="#EAF1FF"/>
</g>
<g opacity="0.4">
<path d="M285.198 303.716C287.047 303.716 288.547 302.216 288.547 300.367C288.547 298.517 287.047 297.018 285.198 297.018C283.348 297.018 281.849 298.517 281.849 300.367C281.849 302.216 283.348 303.716 285.198 303.716Z" fill="#EAF1FF"/>
</g>
<g opacity="0.4">
<path d="M290.299 395.916C292.805 395.916 294.836 393.885 294.836 391.379C294.836 388.873 292.805 386.842 290.299 386.842C287.793 386.842 285.762 388.873 285.762 391.379C285.762 393.885 287.793 395.916 290.299 395.916Z" fill="#EAF1FF"/>
</g>
<g opacity="0.4">
<path d="M317.031 400.453C319.537 400.453 321.569 398.422 321.569 395.916C321.569 393.41 319.537 391.379 317.031 391.379C314.526 391.379 312.494 393.41 312.494 395.916C312.494 398.422 314.526 400.453 317.031 400.453Z" fill="#EAF1FF"/>
</g>
<g opacity="0.4">
<path d="M341.071 364.256C344.673 364.256 347.594 361.335 347.594 357.733C347.594 354.13 344.673 351.21 341.071 351.21C337.468 351.21 334.548 354.13 334.548 357.733C334.548 361.335 337.468 364.256 341.071 364.256Z" fill="#EAF1FF"/>
</g>
<g opacity="0.4">
<path d="M313.626 275.948C316.327 275.948 318.518 273.758 318.518 271.056C318.518 268.354 316.327 266.164 313.626 266.164C310.924 266.164 308.733 268.354 308.733 271.056C308.733 273.758 310.924 275.948 313.626 275.948Z" fill="#EAF1FF"/>
</g>
</svg>
